<?xml version="1.0" encoding="UTF-8"?>
<svg version="1.1" xmlns="http://www.w3.org/2000/svg" width="2438" height="401">
<path d="M0 0 C14.72725756 -0.07062818 29.4544922 -0.12324794 44.18188572 -0.15543652 C51.02276391 -0.17079109 57.86353583 -0.19165689 64.7043457 -0.22631836 C71.32446454 -0.25984512 77.94450327 -0.27692778 84.56471062 -0.28463173 C87.0716518 -0.29011137 89.578588 -0.30080833 92.08548164 -0.31719017 C112.1893572 -0.44315965 131.93376697 0.73448348 151.5 5.6875 C152.52786621 5.94313721 153.55573242 6.19877441 154.61474609 6.4621582 C187.74302785 14.96861659 218.77275571 29.91963236 245 52 C245.5779834 52.47791992 246.1559668 52.95583984 246.75146484 53.44824219 C259.05589661 63.62312525 270.15123815 74.39989365 280 87 C280.76570313 87.93714844 281.53140625 88.87429687 282.3203125 89.83984375 C293.84536455 104.2368943 302.78256853 120.40888292 311.70263672 136.49584961 C315.6727091 143.65457461 319.73225337 150.75237583 323.875 157.8125 C329.26922126 167.00749405 334.59212982 176.24075215 339.875 185.5 C340.2341449 186.12943512 340.59328979 186.75887024 340.96331787 187.40737915 C342.97704283 190.93740038 344.98920463 194.46830926 347 198 C349.81165902 194.63919478 352.08596689 191.29529955 354.1796875 187.44921875 C354.77128662 186.37099854 355.36288574 185.29277832 355.97241211 184.18188477 C356.60026611 183.02873779 357.22812012 181.87559082 357.875 180.6875 C359.22408497 178.22968023 360.57803226 175.7745654 361.93359375 173.3203125 C362.27554276 172.70086258 362.61749176 172.08141266 362.96980286 171.44319153 C366.75145336 164.61158607 370.69331049 157.87615329 374.65332031 151.14672852 C377.81879181 145.75983458 380.94490015 140.3538324 384.01171875 134.91015625 C401.98000237 103.04040198 422.08641317 73.95746334 451 51 C452.46759766 49.80697266 452.46759766 49.80697266 453.96484375 48.58984375 C482.38758343 25.97351495 516.70493188 11.01463811 552.1875 3.75 C553.28880249 3.52328613 553.28880249 3.52328613 554.41235352 3.29199219 C571.63936213 -0.01207311 588.55181644 -0.27049568 606.03515625 -0.1953125 C608.61160674 -0.19157446 611.18805867 -0.18873123 613.76451111 -0.18673706 C619.80594819 -0.17993311 625.8472996 -0.16424068 631.88870472 -0.14403808 C638.77892103 -0.12150828 645.66914131 -0.11064318 652.55938542 -0.10064721 C666.70629648 -0.07986811 680.85314558 -0.04480011 695 0 C691.84334864 5.80900029 688.68505542 11.6141959 685.40625 17.35546875 C684.77581787 18.45971191 684.14538574 19.56395508 683.49584961 20.70166016 C682.83067105 21.86366668 682.16538518 23.02561178 681.5 24.1875 C681.15373566 24.7929364 680.80747131 25.3983728 680.45071411 26.02215576 C675.08877329 35.39610542 669.67419485 44.73829132 664.22070312 54.05932617 C659.9523148 61.35679586 655.71913022 68.67395203 651.5 76 C646.12093845 85.33867741 640.70740523 94.65640369 635.26953125 103.9609375 C630.98777854 111.29283764 626.73795309 118.64270807 622.5 126 C614.80882531 139.35015665 607.0451704 152.65733128 599.27050781 165.95898438 C592.01146858 178.38082591 584.78695829 190.82158421 577.60571289 203.28857422 C572.85585468 211.52969191 568.06904959 219.7486691 563.26953125 227.9609375 C558.98777878 235.29283723 554.73789061 242.64267238 550.5 250 C545.1208592 259.33863207 539.70740553 268.65640317 534.26953125 277.9609375 C529.98777854 285.29283764 525.73795309 292.64270807 521.5 300 C513.80882531 313.35015665 506.0451704 326.65733128 498.27050781 339.95898438 C486.41393335 360.24823814 474.62314995 380.57593459 463 401 C459.22983584 399.74327861 458.99288597 398.70437669 457.13671875 395.27734375 C456.58693359 394.27638672 456.03714844 393.27542969 455.47070312 392.24414062 C454.88224609 391.15294922 454.29378906 390.06175781 453.6875 388.9375 C452.42249688 386.6330574 451.15551998 384.32969734 449.88671875 382.02734375 C449.56339569 381.4387558 449.24007263 380.85016785 448.9069519 380.2437439 C445.70829065 374.43418275 442.36565728 368.71385671 439 363 C433.62664238 353.85170287 428.40921523 344.62593361 423.25 335.35546875 C419.25035548 328.18646305 415.15651956 321.07907237 411 314 C405.62803207 304.85086711 400.40923475 295.62596869 395.25 286.35546875 C391.25035548 279.18646305 387.15651956 272.07907237 383 265 C377.63866508 255.86897647 372.42935114 246.66280016 367.28076172 237.41040039 C361.01517316 226.17931074 354.5222141 215.08356961 348 204 C345.3091852 207.23266975 343.06115192 210.42777197 341.0390625 214.11328125 C340.4925 215.10134766 339.9459375 216.08941406 339.3828125 217.10742188 C338.51269531 218.69393555 338.51269531 218.69393555 337.625 220.3125 C332.84927158 228.93590036 327.99660752 237.50266111 323 246 C318.23513799 254.11384507 313.5757115 262.27801841 309 270.5 C303.86368611 279.72931402 298.59787465 288.87236973 293.25 297.98046875 C289.07756041 305.1052819 285.01504756 312.28546141 281 319.5 C275.86528364 328.72644345 270.60236103 337.8674212 265.25439453 346.97167969 C261.03208055 354.17924166 256.93318184 361.44896601 252.875 368.75 C248.42186011 376.7405232 243.91280401 384.69215297 239.25 392.5625 C238.74839355 393.42004883 238.24678711 394.27759766 237.72998047 395.16113281 C237.26736816 395.93424805 236.80475586 396.70736328 236.328125 397.50390625 C235.9249707 398.18267822 235.52181641 398.8614502 235.10644531 399.56079102 C234.74131836 400.03572998 234.37619141 400.51066895 234 401 C233.34 401 232.68 401 232 401 C231.51926025 400.14341797 231.51926025 400.14341797 231.02880859 399.26953125 C224.24117889 387.18769443 217.37559699 375.15672063 210.37451172 363.19726562 C206.05381103 355.81482909 201.76846547 348.412751 197.5 341 C192.11968678 331.65900506 186.70560815 322.33854026 181.26513672 313.0324707 C177.02169905 305.76794811 172.81877283 298.48078008 168.625 291.1875 C163.50721336 282.2909868 158.31342418 273.44353161 153.0625 264.625 C146.8800717 254.23821961 140.83933982 243.77983611 134.86181641 233.27441406 C130.03611628 224.79559317 125.14521851 216.35709206 120.21826172 207.93676758 C115.95093777 200.64045426 111.7183643 193.32471803 107.5 186 C102.11962418 176.65904088 96.70560839 167.33854067 91.26513672 158.0324707 C87.02169905 150.76794811 82.81877283 143.48078008 78.625 136.1875 C73.50721336 127.2909868 68.31342418 118.44353161 63.0625 109.625 C56.8800717 99.23821961 50.83933982 88.77983611 44.86181641 78.27441406 C40.03903836 69.80072729 35.15147741 61.36711212 30.22705078 52.95214844 C25.23292702 44.41394539 20.29091749 35.84626082 15.35693359 27.27319336 C11.21798798 20.08890816 7.04137614 12.9284341 2.79199219 5.80883789 C0 1.10593302 0 1.10593302 0 0 Z " fill="#FE7E00" transform="translate(0,0)"/>
<path d="M0 0 C2.57645049 0.00373804 5.15290242 0.00658127 7.72935486 0.00857544 C13.77079194 0.01537939 19.81214335 0.03107182 25.85354847 0.05127442 C32.74376478 0.07380422 39.63398506 0.08466932 46.52422917 0.09466529 C60.67114023 0.11544439 74.81798933 0.15051239 88.96484375 0.1953125 C85.80819239 6.00431279 82.64989917 11.8095084 79.37109375 17.55078125 C78.74066162 18.65502441 78.11022949 19.75926758 77.46069336 20.89697266 C76.7955148 22.05897918 76.13022893 23.22092428 75.46484375 24.3828125 C75.11857941 24.9882489 74.77231506 25.5936853 74.41555786 26.21746826 C69.05361704 35.59141792 63.6390386 44.93360382 58.18554688 54.25463867 C53.91715855 61.55210836 49.68397397 68.86926453 45.46484375 76.1953125 C40.0857822 85.53398991 34.67224898 94.85171619 29.234375 104.15625 C24.95262229 111.48815014 20.70279684 118.83802057 16.46484375 126.1953125 C8.77366906 139.54546915 1.01001415 152.85264378 -6.76464844 166.15429688 C-14.02368767 178.57613841 -21.24819796 191.01689671 -28.42944336 203.48388672 C-33.17930157 211.72500441 -37.96610666 219.9439816 -42.765625 228.15625 C-47.04737747 235.48814973 -51.29726564 242.83798488 -55.53515625 250.1953125 C-60.91429705 259.53394457 -66.32775072 268.85171567 -71.765625 278.15625 C-76.04737771 285.48815014 -80.29720316 292.83802057 -84.53515625 300.1953125 C-92.22633094 313.54546915 -99.98998585 326.85264378 -107.76464844 340.15429688 C-119.6212229 360.44355064 -131.4120063 380.77124709 -143.03515625 401.1953125 C-146.80532041 399.93859111 -147.04227028 398.89968919 -148.8984375 395.47265625 C-149.44822266 394.47169922 -149.99800781 393.47074219 -150.56445312 392.43945312 C-151.15291016 391.34826172 -151.74136719 390.25707031 -152.34765625 389.1328125 C-153.61265937 386.8283699 -154.87963627 384.52500984 -156.1484375 382.22265625 C-156.47176056 381.6340683 -156.79508362 381.04548035 -157.12820435 380.4390564 C-160.3268656 374.62949525 -163.66949897 368.90916921 -167.03515625 363.1953125 C-172.40851387 354.04701537 -177.62594102 344.82124611 -182.78515625 335.55078125 C-186.78480077 328.38177555 -190.87863669 321.27438487 -195.03515625 314.1953125 C-200.40712418 305.04617961 -205.6259215 295.82128119 -210.78515625 286.55078125 C-214.78480077 279.38177555 -218.87863669 272.27438487 -223.03515625 265.1953125 C-228.39835315 256.06111779 -233.6206667 246.85758851 -238.75439453 237.5925293 C-241.76592239 232.17646469 -244.83943475 226.81056191 -248.02734375 221.49609375 C-248.67703125 220.408125 -249.32671875 219.32015625 -249.99609375 218.19921875 C-251.24263479 216.12080236 -252.49994109 214.04879262 -253.76953125 211.984375 C-254.32898438 211.04980469 -254.8884375 210.11523438 -255.46484375 209.15234375 C-255.96226074 208.33741455 -256.45967773 207.52248535 -256.97216797 206.68286133 C-258.29134933 203.59578304 -258.39022411 201.52825573 -258.03515625 198.1953125 C-256.97216797 195.60009766 -256.97216797 195.60009766 -255.46484375 192.984375 C-254.90555176 191.99977295 -254.34625977 191.0151709 -253.77001953 190.00073242 C-253.15626465 188.95119385 -252.54250977 187.90165527 -251.91015625 186.8203125 C-251.27706543 185.71469971 -250.64397461 184.60908691 -249.99169922 183.4699707 C-248.02031709 180.03652491 -246.03051587 176.61486749 -244.03515625 173.1953125 C-243.1544043 171.6796167 -243.1544043 171.6796167 -242.25585938 170.13330078 C-239.98913579 166.23274465 -237.71849464 162.33458854 -235.43579102 158.44335938 C-231.19182659 151.20743839 -227.02547818 143.93040374 -222.88116455 136.63723755 C-204.55710833 104.42323721 -184.62359814 74.22698886 -155.03515625 51.1953125 C-154.06449219 50.40769531 -153.09382813 49.62007812 -152.09375 48.80859375 C-123.69088074 26.16450399 -89.32724034 11.20933966 -53.84765625 3.9453125 C-53.11345459 3.79416992 -52.37925293 3.64302734 -51.62280273 3.48730469 C-34.39579412 0.18323939 -17.48333981 -0.07518318 0 0 Z " fill="#00A2DE" transform="translate(606.03515625,-0.1953125)"/>
<path d="M0 0 C1.57798906 0.51661878 3.16130933 1.01729265 4.75 1.5 C8.87533588 2.84810083 12.27648506 4.78021225 16 7 C17.19882813 7.45246094 17.19882813 7.45246094 18.421875 7.9140625 C21.17410946 9.07333701 23.16557866 10.45893658 25.5 12.3125 C26.2321875 12.88613281 26.964375 13.45976563 27.71875 14.05078125 C30.28549 16.24393752 32.62029539 18.605785 35 21 C36.82525243 22.65479064 38.65874113 24.30053811 40.5 25.9375 C48.20901574 32.96539788 52.55509473 39.52651504 57 49 C57.79664063 50.69382812 57.79664063 50.69382812 58.609375 52.421875 C60.0915737 55.60640091 61.54747728 58.80186392 63 62 C63.48146484 63.00160156 63.48146484 63.00160156 63.97265625 64.0234375 C65.92142487 68.19517335 66.78400842 72.35927629 67.5703125 76.86328125 C67.91102351 79.04046364 67.91102351 79.04046364 69 81 C69.11145671 83.94283167 69.16412462 86.86126505 69.16796875 89.8046875 C69.17129715 90.68021271 69.17462555 91.55573792 69.17805481 92.45779419 C69.1831227 94.31218947 69.18546318 96.16659389 69.18530273 98.02099609 C69.18748583 100.8565987 69.20563353 103.6918102 69.22460938 106.52734375 C69.227544 108.32812367 69.22952833 110.12890544 69.23046875 111.9296875 C69.23765427 112.77771942 69.24483978 113.62575134 69.25224304 114.4994812 C69.24916641 115.29355377 69.24608978 116.08762634 69.24291992 116.90576172 C69.24434494 117.60144257 69.24576996 118.29712341 69.24723816 119.0138855 C68.9567681 121.34729069 68.06374969 122.91673968 67 125 C66.87625 126.216875 66.7525 127.43375 66.625 128.6875 C66.20728666 132.77349594 64.85365992 135.97115552 63.03515625 139.62890625 C61.88053796 142.10805539 61.88053796 142.10805539 61.125 145.32421875 C59.87925727 149.39451012 58.12637097 152.63190202 55.9375 156.25 C53.10772209 160.94743361 53.10772209 160.94743361 51 166 C50.34 166 49.68 166 49 166 C48.73960937 166.5775 48.47921875 167.155 48.2109375 167.75 C45.35193752 173.06220642 40.49047904 178.00846308 36 182 C35.34 182 34.68 182 34 182 C34 182.66 34 183.32 34 184 C26.58188574 190.88607738 18.56461538 196.58999604 8.78515625 199.32421875 C6.79373236 199.84739691 6.79373236 199.84739691 6 202 C3.59423559 202.59328345 1.24901144 203.07967291 -1.1875 203.5 C-4.88196146 204.15599218 -8.47010806 204.81675995 -12.02734375 206.046875 C-25.41845759 210.34047786 -43.17344533 208.2893009 -56 203 C-56.7940625 202.69578125 -57.588125 202.3915625 -58.40625 202.078125 C-70.71637986 196.96126379 -82.85270151 189.29459698 -89 177 C-89.00142502 178.04268036 -89.00285004 179.08536072 -89.00431824 180.15963745 C-89.02103387 190.01655086 -89.0639466 199.87305384 -89.13209057 209.72974968 C-89.16628845 214.79645508 -89.19145934 219.86286125 -89.19555664 224.9296875 C-89.19985504 229.82533899 -89.22844524 234.7203163 -89.27343178 239.61575699 C-89.28635762 241.47747995 -89.29073199 243.33928379 -89.28615379 245.20104599 C-89.26487579 256.48777273 -89.35895402 265.56615837 -97.16796875 274.47265625 C-97.83441406 274.99730469 -98.50085937 275.52195312 -99.1875 276.0625 C-100.19876953 276.88427734 -100.19876953 276.88427734 -101.23046875 277.72265625 C-105.05975659 280.48684416 -108.68092982 280.25490668 -113.25 280.3125 C-114.00152344 280.34150391 -114.75304688 280.37050781 -115.52734375 280.40039062 C-120.94175769 280.46181068 -123.86048343 279.55286534 -128 276 C-128 275.34 -128 274.68 -128 274 C-128.99 273.67 -129.98 273.34 -131 273 C-136.97891264 266.65872901 -137.29489466 260.27964811 -137.26742554 251.99992371 C-137.27195665 250.99659337 -137.27648776 249.99326303 -137.28115618 248.95952874 C-137.29381043 245.59951849 -137.29217913 242.23967011 -137.29052734 238.87963867 C-137.29651194 236.4697397 -137.30331732 234.05984265 -137.31088257 231.64994812 C-137.32672091 225.78427841 -137.33299126 219.91864661 -137.33410732 214.05295988 C-137.3350587 209.2834373 -137.33917345 204.51392795 -137.34550858 199.74440956 C-137.36311584 186.21241072 -137.37234825 172.68044355 -137.37084763 159.14843317 C-137.37076772 158.41938919 -137.3706878 157.69034521 -137.37060547 156.93920898 C-137.37052371 156.20927155 -137.37044195 155.47933412 -137.37035771 154.72727738 C-137.36954495 142.89994075 -137.38868121 131.07273152 -137.4168822 119.24543174 C-137.44563164 107.09190589 -137.45942137 94.93844213 -137.45769465 82.78488141 C-137.45703146 75.96532485 -137.46249258 69.14590184 -137.48405075 62.32637596 C-137.5041992 55.91184124 -137.50356778 49.49751554 -137.48901749 43.08296394 C-137.48692641 40.73078881 -137.49164797 38.3785961 -137.5037384 36.02645111 C-137.51919393 32.81097898 -137.5098798 29.5964787 -137.49447632 26.38102722 C-137.50476344 25.45416223 -137.51505057 24.52729724 -137.52564943 23.57234544 C-137.44683437 16.10750887 -135.14894369 10.69618315 -131.4375 4.3125 C-126.33982718 -0.52375371 -120.06523727 -4.28832981 -112.9375 -4.75 C-106.39631534 -4.34248211 -101.0250361 -0.66759201 -96.21484375 3.57421875 C-95 5 -95 5 -95 7 C-94.34 7 -93.68 7 -93 7 C-90.16625922 12.66748157 -89.36776168 17.69732561 -89 24 C-88.46632813 23.28714844 -87.93265625 22.57429688 -87.3828125 21.83984375 C-82.22039557 15.20372648 -77.17892469 10.35293529 -70 6 C-69.27039062 5.52820313 -68.54078125 5.05640625 -67.7890625 4.5703125 C-62.64157081 1.42978508 -57.58311981 -0.0705248 -51.69921875 -1.32421875 C-49.04907682 -1.87507029 -49.04907682 -1.87507029 -47.01953125 -3.0390625 C-34.62976922 -8.93438447 -11.93101633 -5.35185556 0 0 Z M-91 26 C-90 28 -90 28 -90 28 Z M-78.30078125 55.81640625 C-80.70185599 58.90192528 -83 61.98479042 -83 66 C-83.66 66 -84.32 66 -85 66 C-85 67.65 -85 69.3 -85 71 C-85.66 71 -86.32 71 -87 71 C-90.24785529 78.08622972 -90.99846057 85.34127767 -91.7734375 93.01000977 C-91.99563718 94.96167957 -92.31340473 96.90170897 -92.6328125 98.83984375 C-93.26250633 103.84682672 -92.50735235 108.60431944 -91.75 113.5625 C-91.62753906 114.46935547 -91.50507812 115.37621094 -91.37890625 116.31054688 C-90.59128518 121.68742535 -89.36385642 126.10839311 -87 131 C-86.32723284 132.6642135 -85.65793165 134.32986582 -85 136 C-84.34 136 -83.68 136 -83 136 C-82.88785156 136.56074219 -82.77570313 137.12148437 -82.66015625 137.69921875 C-79.97814561 147.04658129 -73.22044143 154.0341451 -64.9609375 158.7265625 C-60.71004378 160.9088948 -56.68261697 162.96840836 -52 164 C-47.22222222 165.77777778 -47.22222222 165.77777778 -46 167 C-42.46646242 167.28159078 -38.91840847 167.2318983 -35.375 167.25 C-34.38886719 167.270625 -33.40273437 167.29125 -32.38671875 167.3125 C-26.48616486 167.34401164 -22.32674234 166.78688065 -17 164 C-15.70102197 163.39714096 -14.40014981 162.79835055 -13.09765625 162.203125 C2.14377737 154.91698534 11.3654587 145.91619756 18 130 C18.74738618 127.68130191 19.37493675 125.35600762 20 123 C20.33 122.67 20.66 122.34 21 122 C23.94410075 108.71931193 24.33892814 94.25265921 21 81 C20.34 80.34 19.68 79.68 19 79 C18.55324809 77.17840513 18.16616989 75.3419318 17.8125 73.5 C16.21814784 66.80211855 13.29844791 62.29246398 9 57 C8.46375 56.28972656 7.9275 55.57945312 7.375 54.84765625 C0.03430655 45.65414354 -10.82577327 40.06743479 -22 37 C-22.495 36.505 -22.495 36.505 -23 36 C-45.29063009 33.5539862 -63.48169629 38.55173556 -78.30078125 55.81640625 Z M-91 173 C-90 175 -90 175 -90 175 Z " fill="#1A2133" transform="translate(1547,100)"/>
<path d="M0 0 C1.2375 -0.0299707 1.2375 -0.0299707 2.5 -0.06054688 C8.38155708 -0.05587897 11.79655362 1.05944701 16.625 4.4375 C23.60075479 11.97885653 23.77459911 19.57417399 23.76544189 29.40634155 C23.76841302 30.4062939 23.77138414 31.40624625 23.7744453 32.43650019 C23.78311243 35.7849865 23.78463885 39.13343697 23.78613281 42.48193359 C23.7907623 44.88360164 23.79578713 47.28526896 23.80117798 49.68693542 C23.81428922 56.20963569 23.82078108 62.73232852 23.82518864 69.25503874 C23.82795515 73.32997613 23.83219316 77.40491116 23.83669281 81.47984695 C23.84888015 92.7691934 23.85918152 104.05853797 23.8625679 115.34789085 C23.86289725 116.43065316 23.86289725 116.43065316 23.86323325 117.53528944 C23.86345153 118.25881943 23.86366981 118.98234941 23.8638947 119.72780454 C23.86433816 121.19386188 23.86478473 122.65991922 23.86523438 124.12597656 C23.86556652 125.21679025 23.86556652 125.21679025 23.86590537 126.32964058 C23.86985426 138.11559416 23.88731343 149.90148594 23.9105939 161.68741564 C23.93431983 173.79685957 23.94677026 185.90627249 23.94793582 198.01574004 C23.94885172 204.81121098 23.95458278 211.60660132 23.97275543 218.40205002 C23.98921906 224.79276153 23.99139982 231.18332003 23.98261642 237.57404518 C23.98184521 239.91857754 23.98619986 242.26311808 23.99607468 244.60762978 C24.0087718 247.8101661 24.00292918 251.01215859 23.99249268 254.21469116 C24.00457728 255.60352149 24.00457728 255.60352149 24.01690602 257.02040899 C23.96692778 263.58568937 22.98032814 269.12215204 19.08203125 274.609375 C13.67317322 279.79982308 8.54142249 283.51051758 0.875 284.0625 C-6.19338486 283.73475418 -13.28269698 280.69749841 -18.17578125 275.5390625 C-22.77230584 268.67817329 -23.66343694 261.51373425 -23.375 253.4375 C-23.76171875 253.99179687 -24.1484375 254.54609375 -24.546875 255.1171875 C-25.32804687 256.20386719 -25.32804687 256.20386719 -26.125 257.3125 C-26.89070313 258.39144531 -26.89070313 258.39144531 -27.671875 259.4921875 C-29.375 261.4375 -29.375 261.4375 -31.453125 262.4453125 C-33.9097451 263.71356759 -34.2126837 264.98268797 -35.375 267.4375 C-40.04135089 271.81905013 -45.57720268 274.83082903 -51.375 277.4375 C-53.1384375 278.241875 -53.1384375 278.241875 -54.9375 279.0625 C-58.38135124 280.4400405 -61.79072516 281.49071042 -65.375 282.4375 C-65.94476562 282.60636719 -66.51453125 282.77523438 -67.1015625 282.94921875 C-78.96568272 285.49735454 -91.52995262 284.5362584 -103.375 282.4375 C-103.705 282.1075 -104.035 281.7775 -104.375 281.4375 C-107.9559009 280.64526529 -111.55226019 279.95341384 -115.15234375 279.25390625 C-118.375 278.4375 -118.375 278.4375 -120.375 276.4375 C-121.48875 276.06625 -122.6025 275.695 -123.75 275.3125 C-133.13386608 271.91254852 -140.94647819 265.25862571 -148.13671875 258.515625 C-150.03333664 256.75471624 -151.96752094 255.15912012 -154 253.5625 C-162.13429419 246.59571627 -166.87611417 236.94712096 -171.375 227.4375 C-172.08240503 226.1661497 -172.79063521 224.89525788 -173.5 223.625 C-176.02749977 218.63345234 -177.19347847 213.13051458 -178.54296875 207.73046875 C-179.32510172 204.46353951 -179.32510172 204.46353951 -180.375 201.4375 C-185.44739167 163.0951897 -185.44739167 163.0951897 -178.375 149.4375 C-177.92128443 147.44557799 -177.50861504 145.44410176 -177.125 143.4375 C-175.81049216 137.45143351 -173.68049592 132.4715993 -170.77734375 127.09375 C-169.45432595 124.58775528 -168.37758037 122.08546347 -167.375 119.4375 C-166.715 119.4375 -166.055 119.4375 -165.375 119.4375 C-165.28734375 118.7053125 -165.1996875 117.973125 -165.109375 117.21875 C-164.23518483 113.90798721 -162.95332463 112.42338043 -160.625 109.9375 C-159.54025391 108.76960938 -159.54025391 108.76960938 -158.43359375 107.578125 C-156.11173794 105.16374742 -153.7759014 102.77351217 -151.375 100.4375 C-150.075625 99.07625 -150.075625 99.07625 -148.75 97.6875 C-146.375 95.4375 -146.375 95.4375 -143.375 94.4375 C-143.375 93.7775 -143.375 93.1175 -143.375 92.4375 C-139.80591133 88.09608394 -134.25568076 85.98876494 -129.375 83.4375 C-128.3953125 82.90382813 -127.415625 82.37015625 -126.40625 81.8203125 C-120.32475012 78.60351914 -114.61434625 76.47513349 -107.87109375 75.078125 C-105.15030359 74.52635644 -105.15030359 74.52635644 -102.375 72.4375 C-100.45239258 72.1027832 -100.45239258 72.1027832 -98.26953125 71.98828125 C-97.45798584 71.94421143 -96.64644043 71.9001416 -95.81030273 71.85473633 C-94.94477783 71.82017334 -94.07925293 71.78561035 -93.1875 71.75 C-91.85730835 71.69138794 -91.85730835 71.69138794 -90.50024414 71.6315918 C-68.7826192 70.83242053 -68.7826192 70.83242053 -63.375 74.4375 C-61.59176886 74.85075674 -59.79820332 75.22021465 -58 75.5625 C-43.62855599 79.03386329 -32.55615164 89.32557268 -23.375 100.4375 C-23.38499275 99.00835518 -23.38499275 99.00835518 -23.39518738 97.55033875 C-23.45623498 88.532806 -23.50108553 79.51531567 -23.53043652 70.49762249 C-23.54603387 65.86250321 -23.56716265 61.22755192 -23.60131836 56.5925293 C-23.63412481 52.11211834 -23.65189751 47.63186809 -23.65963173 43.15134621 C-23.66513729 41.44947597 -23.67588739 39.74761366 -23.69219017 38.04581261 C-23.80283874 26.00711572 -23.77742948 15.03298283 -16.0703125 5.09375 C-11.06620382 0.20494336 -6.69099316 -0.05696666 0 0 Z M-101.375 117.4375 C-102.48875 117.953125 -103.6025 118.46875 -104.75 119 C-115.01724726 124.62254017 -121.91148435 131.10991398 -127.375 141.4375 C-127.9525 142.51 -128.53 143.5825 -129.125 144.6875 C-134.03607058 155.49185529 -134.69733069 166.20787388 -134.625 177.9375 C-134.63273438 179.19175781 -134.64046875 180.44601563 -134.6484375 181.73828125 C-134.61244271 198.92579189 -129.66549261 214.9202171 -117.625 227.6875 C-110.17190485 234.67653451 -101.75918816 238.27203806 -92.18359375 241.45703125 C-89.375 242.4375 -89.375 242.4375 -88.375 243.4375 C-84.73600825 243.68906269 -81.08416327 243.62272226 -77.4375 243.625 C-76.40947266 243.63724609 -75.38144531 243.64949219 -74.32226562 243.66210938 C-72.84983398 243.66500977 -72.84983398 243.66500977 -71.34765625 243.66796875 C-70.44281494 243.67207764 -69.53797363 243.67618652 -68.60571289 243.68041992 C-66.17081222 243.65091297 -66.17081222 243.65091297 -64.375 241.4375 C-62.40823719 240.8523953 -60.42608115 240.31851233 -58.4375 239.8125 C-44.38988296 235.61061896 -34.65846089 225.1905394 -27.5546875 212.7109375 C-24.99910649 207.78594363 -23.93319536 202.68743909 -22.83984375 197.29296875 C-22.375 195.4375 -22.375 195.4375 -21.375 194.4375 C-21.26170962 192.03593439 -21.21082825 189.66422116 -21.20703125 187.26171875 C-21.20370285 186.54015091 -21.20037445 185.81858307 -21.19694519 185.07514954 C-21.19187197 183.5443282 -21.18953699 182.01349575 -21.18969727 180.48266602 C-21.18751879 178.14515771 -21.16939006 175.80812733 -21.15039062 173.47070312 C-21.14745514 171.98437662 -21.14547138 170.49804786 -21.14453125 169.01171875 C-21.13375298 167.96463997 -21.13375298 167.96463997 -21.12275696 166.89640808 C-21.14004668 163.20339783 -21.43263531 160.6001102 -23.375 157.4375 C-23.66361911 156.11198999 -23.91186269 154.77722022 -24.125 153.4375 C-26.99105847 140.01111839 -35.60517488 128.83073129 -46.39453125 120.71484375 C-48.44529249 119.27604083 -48.44529249 119.27604083 -51.375 118.4375 C-52.73625 117.7259375 -52.73625 117.7259375 -54.125 117 C-57.48787334 115.38323397 -60.78466153 114.42308311 -64.375 113.4375 C-64.87 112.9425 -64.87 112.9425 -65.375 112.4375 C-77.90112111 111.30124605 -90.31161146 110.92500887 -101.375 117.4375 Z " fill="#1A2133" transform="translate(890.375,23.5625)"/>
<path d="M0 0 C0.83789062 -0.02449219 1.67578125 -0.04898437 2.5390625 -0.07421875 C8.08461846 -0.10037703 11.24729952 0.66775816 15.625 4.375 C17.453125 6.2265625 17.453125 6.2265625 18.875 8 C20.4126251 9.89309757 21.89674012 11.64674012 23.625 13.375 C23.88671303 15.94808388 23.88671303 15.94808388 23.9034729 19.27212524 C23.91463638 20.52858353 23.92579987 21.78504181 23.93730164 23.07957458 C23.93966683 24.47964448 23.94184244 25.8797147 23.94384766 27.27978516 C23.95314165 28.74804744 23.96330953 30.21630441 23.97428894 31.68455505 C24.00166275 35.67809962 24.0167601 39.67160877 24.02971697 43.66522264 C24.04531534 47.83596913 24.07211598 52.00664293 24.0977478 56.17733765 C24.1445941 64.07854609 24.18130981 71.97976811 24.21442068 79.88104475 C24.25260082 88.87491887 24.30202167 97.8687201 24.35240483 106.86253285 C24.45581166 125.36663528 24.54504351 143.87078214 24.625 162.375 C24.955 161.715 25.285 161.055 25.625 160.375 C26.285 160.375 26.945 160.375 27.625 160.375 C27.625 159.715 27.625 159.055 27.625 158.375 C28.72997417 157.20096494 29.84735731 156.03703807 31.01171875 154.921875 C32.85876148 153.15086066 34.64407965 151.32525622 36.4375 149.5 C38.9953443 146.93262928 41.59793057 144.51423384 44.375 142.1875 C48.65597284 138.52049773 52.34601848 134.38698467 56.12084961 130.21533203 C59.73299335 126.25517444 63.53916839 122.69110463 67.609375 119.19921875 C70.27803921 116.78397421 72.55593112 114.11862143 74.8828125 111.37890625 C79.11816065 106.50730625 83.74327293 102.07996052 88.6875 97.9375 C92.3537416 94.79603416 95.15178686 91.29587077 98.04296875 87.4453125 C102.91235466 81.0730297 109.03934927 76.05228849 116.625 73.375 C116.955 73.045 117.285 72.715 117.625 72.375 C122.65797064 71.79682446 126.52048805 71.76138225 131 74.25 C131.86625 74.95125 132.7325 75.6525 133.625 76.375 C134.28371094 76.67535156 134.94242188 76.97570312 135.62109375 77.28515625 C139.26606985 79.26751167 140.9387842 82.68679765 142.625 86.375 C143.38766957 89.40492538 143.60233013 92.25789311 143.625 95.375 C143.66625 96.509375 143.7075 97.64375 143.75 98.8125 C141.94099668 104.54101053 137.73417712 108.12152067 133.625 112.375 C132.59324504 113.59501356 131.57079208 114.82302492 130.5625 116.0625 C128.51552961 118.47592893 126.3547692 120.53722797 123.94140625 122.58203125 C119.6257785 126.31724919 115.61985531 130.30212018 111.625 134.375 C107.10230232 138.98603162 102.5100596 143.39213304 97.61572266 147.60693359 C94.19425351 150.64572186 91.01434674 153.92064115 87.8125 157.1875 C86.51669363 158.5088395 85.21860845 159.82794908 83.91796875 161.14453125 C83.3561792 161.71792236 82.79438965 162.29131348 82.21557617 162.88208008 C80.625 164.375 80.625 164.375 77.625 166.375 C78.35330406 169.48990816 78.35330406 169.48990816 80.8125 171.0625 C83.88772711 173.59102006 85.88964109 176.2658318 88.19921875 179.4765625 C89.68136595 181.54280873 89.68136595 181.54280873 92 183.75 C92.804375 184.554375 92.804375 184.554375 93.625 185.375 C93.625 186.035 93.625 186.695 93.625 187.375 C94.285 187.375 94.945 187.375 95.625 187.375 C95.625 188.035 95.625 188.695 95.625 189.375 C96.17027344 189.58253906 96.71554687 189.79007813 97.27734375 190.00390625 C100.51003309 191.89188289 102.7335644 194.53931762 105.1875 197.3125 C109.11760471 201.67364065 113.11095151 205.89905197 117.3125 210 C120.7490372 213.3925417 123.88437632 216.83501335 126.875 220.625 C131.39834206 226.33913046 136.50609149 231.37062823 141.74902344 236.42480469 C142.37969727 237.0387207 143.01037109 237.65263672 143.66015625 238.28515625 C144.2312915 238.83308838 144.80242676 239.38102051 145.39086914 239.94555664 C146.625 241.375 146.625 241.375 146.625 243.375 C147.285 243.375 147.945 243.375 148.625 243.375 C149.98676922 245.01851457 151.31462066 246.69022656 152.625 248.375 C153.511875 249.179375 154.39875 249.98375 155.3125 250.8125 C158.06504488 253.8626173 158.38637738 255.31841548 158.625 259.375 C158.66367188 260.02984375 158.70234375 260.6846875 158.7421875 261.359375 C158.96046193 267.8105971 157.58290861 272.00699787 153.30078125 276.8828125 C149.01148809 280.7021831 143.39432215 283.5592934 137.625 284.0625 C128.62675914 283.39126026 121.24852557 275.77648366 115.625 269.375 C114.22043029 267.65292219 112.82510934 265.92327314 111.4375 264.1875 C107.36515816 259.10589493 102.93084297 254.56838303 98.2956543 250.01220703 C94.80044323 246.57113333 91.45104256 243.07094969 88.27880859 239.32543945 C82.91186598 232.99586985 77.34275935 226.88850552 71.625 220.875 C67.00564846 216.01671649 62.46651398 211.11784177 58.08862305 206.03979492 C56.9204631 204.71107387 55.68851904 203.43851904 54.4375 202.1875 C52.30533009 200.05533009 50.49372853 197.73896093 48.625 195.375 C47.89796875 196.04144531 47.1709375 196.70789063 46.421875 197.39453125 C44.421875 199.22786458 42.421875 201.06119792 40.421875 202.89453125 C39.8662085 203.43537354 39.31054199 203.97621582 38.73803711 204.53344727 C36.625 206.375 36.625 206.375 33.54516602 208.33959961 C29.04622579 211.40642512 25.31062628 214.41047746 24.03814697 219.91244507 C23.26868957 227.35813342 23.6992264 234.85174841 24.0625 242.3125 C25.21758452 266.79079808 25.21758452 266.79079808 19.91749573 273.24012756 C13.808164 279.50381583 7.37454278 282.99805216 -1.3125 283.6875 C-4.375 283.375 -4.375 283.375 -7.375 282.375 C-7.375 281.715 -7.375 281.055 -7.375 280.375 C-8.096875 280.313125 -8.81875 280.25125 -9.5625 280.1875 C-13.2749813 279.1150054 -14.80115096 277.21283356 -17.375 274.375 C-18.096875 273.75625 -18.81875 273.1375 -19.5625 272.5 C-24.13639031 267.13750791 -23.66117453 259.98914849 -23.62896729 253.31713867 C-23.63208727 252.31970988 -23.63520725 251.32228109 -23.63842177 250.29462719 C-23.64638328 246.96068049 -23.64008525 243.62691673 -23.63378906 240.29296875 C-23.63649974 237.89938246 -23.6400611 235.50579701 -23.64440918 233.11221313 C-23.65257985 227.29078782 -23.65138708 221.4694204 -23.6455839 215.64799333 C-23.6410622 210.91566434 -23.6404567 206.18334981 -23.64263153 201.45101929 C-23.642938 200.77680063 -23.64324446 200.10258198 -23.64356022 199.40793246 C-23.64419968 198.03815531 -23.64484811 196.66837817 -23.6455054 195.29860103 C-23.65120482 182.46229481 -23.6446569 169.62601718 -23.63390467 156.78971565 C-23.6249695 145.78199664 -23.62652166 134.77431981 -23.63574219 123.76660156 C-23.64645168 110.97538337 -23.65065553 98.18419023 -23.64451766 85.39296818 C-23.64388058 84.02830569 -23.64325184 82.66364321 -23.64263153 81.29898071 C-23.64232298 80.62758771 -23.64201443 79.9561947 -23.64169653 79.26445645 C-23.63997163 74.53928442 -23.64288028 69.81412831 -23.64759064 65.08895874 C-23.6533677 58.7261605 -23.64936048 52.36344194 -23.63780212 46.00065231 C-23.63515749 43.66537992 -23.63591728 41.33010082 -23.64032745 38.99483109 C-23.64579195 35.80741729 -23.63893754 32.62025886 -23.62896729 29.43286133 C-23.63342873 28.50863467 -23.63789017 27.58440802 -23.64248681 26.63217449 C-23.5955825 18.90184497 -22.56318338 13.20519229 -17.5 7.0625 C-16.82195312 6.22074219 -16.14390625 5.37898438 -15.4453125 4.51171875 C-10.84223439 -0.23900526 -6.26198123 0.0095457 0 0 Z " fill="#1A2133" transform="translate(1672.375,23.625)"/>
<path d="M0 0 C0.84876709 0.03456299 1.69753418 0.06912598 2.57202148 0.10473633 C6.93314135 0.34345669 10.28975819 0.88038191 14.3125 2.6875 C16.18421879 3.03879033 18.0596861 3.37040214 19.9375 3.6875 C28.82779009 5.63256919 36.44607764 10.16120892 44.32055664 14.59008789 C45.66680965 15.33177281 47.03669801 16.03185398 48.42480469 16.69189453 C51.2429975 18.17826162 53.09984013 20.40459696 55.3125 22.6875 C56.48886791 23.7825537 57.67294666 24.86936337 58.86328125 25.94921875 C59.47880859 26.51060547 60.09433594 27.07199219 60.72851562 27.65039062 C62.00936644 28.81516021 63.29330538 29.9765416 64.58007812 31.13476562 C65.18916016 31.69228516 65.79824219 32.24980469 66.42578125 32.82421875 C66.98048096 33.32655029 67.53518066 33.82888184 68.10668945 34.34643555 C69.3125 35.6875 69.3125 35.6875 69.3125 37.6875 C69.9725 37.6875 70.6325 37.6875 71.3125 37.6875 C76.38195865 43.68912611 80.0629923 50.57695363 83.3125 57.6875 C83.61027344 58.33847656 83.90804688 58.98945313 84.21484375 59.66015625 C85.80939648 63.2697159 87.0658776 66.94763281 88.3125 70.6875 C88.6425 71.0175 88.9725 71.3475 89.3125 71.6875 C89.68228426 73.32552872 90.00918783 74.97337044 90.3125 76.625 C90.9628519 80.27282599 90.9628519 80.27282599 92.3125 83.6875 C92.58278031 87.57748885 92.54416578 91.476687 92.5625 95.375 C92.5934375 96.99051758 92.5934375 96.99051758 92.625 98.63867188 C92.65989147 105.75217019 92.44019299 111.18998248 87.50911427 116.70412159 C79.65643106 123.79450727 70.51454431 124.40054702 60.39575195 124.25512695 C59.03454135 124.25371314 57.67332694 124.25451496 56.31211853 124.25733948 C52.65138715 124.25876209 48.99149084 124.22956293 45.33095193 124.19446969 C41.49266671 124.16301083 37.65435801 124.16026019 33.81596375 124.15434265 C26.56295724 124.1388611 19.31033184 124.09791075 12.05749243 124.0475952 C3.79384523 123.99152342 -4.46982109 123.96417063 -12.73361146 123.93911803 C-29.71846066 123.88698897 -46.70293991 123.79915882 -63.6875 123.6875 C-63.37554688 124.28304687 -63.06359375 124.87859375 -62.7421875 125.4921875 C-61.62268916 127.82240255 -60.9942596 130.16177287 -60.30078125 132.64453125 C-56.50475115 145.28990539 -50.01696305 156.04611134 -38.30859375 162.5703125 C-33.17845205 165.2494538 -28.40296816 167.6096695 -22.6875 168.6875 C-21.2025 169.6775 -21.2025 169.6775 -19.6875 170.6875 C-8.81563629 172.4415602 3.44636587 172.50998452 14.3125 170.6875 C14.9725 170.0275 15.6325 169.3675 16.3125 168.6875 C17.488125 168.31625 18.66375 167.945 19.875 167.5625 C28.78337587 164.74780144 37.3338175 160.31662505 45.58203125 155.9609375 C50.41266593 153.70802347 54.45730202 154.05673269 59.4375 155.75 C63.59172393 158.54958569 67.05638159 162.17526317 69.3125 166.6875 C70.29824079 173.98697292 69.44007048 178.85565778 64.97265625 184.73828125 C62.84247834 187.23936073 60.80596074 189.54035325 58.3125 191.6875 C57.6525 191.6875 56.9925 191.6875 56.3125 191.6875 C55.9825 192.6775 55.6525 193.6675 55.3125 194.6875 C48.56525827 199.4783751 41.08358609 202.9304315 33.3125 205.6875 C32.55195312 205.97496094 31.79140625 206.26242187 31.0078125 206.55859375 C26.53930546 208.17436879 22.39795326 209.04845217 17.6640625 209.41748047 C15.47359269 209.66900244 13.55081249 210.13968293 11.43359375 210.734375 C4.94604423 212.2162313 -1.52426557 211.69126394 -8.125 211.375 C-9.40310547 211.32666016 -10.68121094 211.27832031 -11.99804688 211.22851562 C-21.39203477 210.83523261 -21.39203477 210.83523261 -23.6875 209.6875 C-25.03757394 209.50768043 -26.39306104 209.36726633 -27.75 209.25 C-40.43907942 207.93592058 -40.43907942 207.93592058 -43.6875 204.6875 C-45.5128125 204.130625 -45.5128125 204.130625 -47.375 203.5625 C-54.59684793 201.30123286 -61.09829974 197.3423792 -67.6875 193.6875 C-67.6875 193.0275 -67.6875 192.3675 -67.6875 191.6875 C-68.23535156 191.44644531 -68.78320312 191.20539063 -69.34765625 190.95703125 C-72.23539508 189.39022804 -74.59134057 187.46588399 -77.125 185.375 C-78.05183594 184.61574219 -78.97867187 183.85648438 -79.93359375 183.07421875 C-84.21895241 179.36024124 -87.92840699 175.62890269 -91.125 170.9375 C-91.71796875 170.06738281 -92.3109375 169.19726562 -92.921875 168.30078125 C-93.50453125 167.43839844 -94.0871875 166.57601562 -94.6875 165.6875 C-95.22890625 164.91792969 -95.7703125 164.14835938 -96.328125 163.35546875 C-104.51078568 151.55673328 -109.68175951 137.01930195 -110.6875 122.6875 C-111.0175 122.3575 -111.3475 122.0275 -111.6875 121.6875 C-113.4295765 98.7979379 -110.85192924 77.43407474 -100.6875 56.6875 C-100.26855469 55.81996094 -99.84960938 54.95242187 -99.41796875 54.05859375 C-98.5310715 52.25659403 -97.61409452 50.46941255 -96.6875 48.6875 C-96.0275 48.6875 -95.3675 48.6875 -94.6875 48.6875 C-94.419375 48.130625 -94.15125 47.57375 -93.875 47 C-89.00517343 37.51665352 -81.34017041 28.95394236 -72.6875 22.6875 C-72.0275 22.6875 -71.3675 22.6875 -70.6875 22.6875 C-70.6875 22.0275 -70.6875 21.3675 -70.6875 20.6875 C-64.89880097 16.16232411 -58.64070689 12.31574983 -51.8203125 9.57421875 C-49.53609729 8.66563067 -49.53609729 8.66563067 -46.87890625 7.1796875 C-43.41045998 5.55796599 -40.25706599 4.82970155 -36.5 4.125 C-31.29682365 3.16010743 -31.29682365 3.16010743 -26.6875 0.6875 C-17.86444116 -0.5952456 -8.88356324 -0.39545922 0 0 Z M-28.6875 44.6875 C-30.39583333 45.33333333 -32.10416667 45.97916667 -33.8125 46.625 C-46.21502982 51.64044309 -52.2396885 59.20771692 -58.6875 70.6875 C-59.265 71.698125 -59.8425 72.70875 -60.4375 73.75 C-61.82625537 77.01357512 -62.5744838 80.16612825 -63.2578125 83.63671875 C-63.6875 85.6875 -63.6875 85.6875 -64.6875 88.6875 C-62.31145744 89.87552128 -60.92024086 89.79694723 -58.27096558 89.76979065 C-56.87850616 89.75923141 -56.87850616 89.75923141 -55.45791626 89.74845886 C-53.92583023 89.72903984 -53.92583023 89.72903984 -52.36279297 89.70922852 C-50.75301575 89.6948172 -50.75301575 89.6948172 -49.11071777 89.68011475 C-45.55030945 89.64703596 -41.99002046 89.60673745 -38.4296875 89.56640625 C-35.96632309 89.54211381 -33.50295423 89.51826983 -31.0395813 89.49485779 C-24.54578585 89.43192967 -18.05206904 89.36288778 -11.55834961 89.29260254 C-4.93607169 89.22199782 1.68626213 89.15713385 8.30859375 89.09179688 C21.30995697 88.96267207 34.31124728 88.82728775 47.3125 88.6875 C47.16039062 88.10742188 47.00828125 87.52734375 46.8515625 86.9296875 C46.36636336 84.91154037 46.01801132 82.86167015 45.6875 80.8125 C42.80385983 68.19916746 35.56131196 56.62610126 24.57714844 49.57324219 C18.17117812 45.84480792 11.59368049 43.11518245 4.3125 41.6875 C3.8175 41.1925 3.8175 41.1925 3.3125 40.6875 C-0.15736688 40.37642624 -3.64293398 40.40880647 -7.125 40.375 C-8.08599609 40.34599609 -9.04699219 40.31699219 -10.03710938 40.28710938 C-17.11133744 40.22509659 -22.31508025 41.71089486 -28.6875 44.6875 Z " fill="#1A2133" transform="translate(1284.6875,95.3125)"/>
<path d="M0 0 C1.2981665 0.05196533 1.2981665 0.05196533 2.62255859 0.10498047 C3.43418457 0.14896973 4.24581055 0.19295898 5.08203125 0.23828125 C6.16254761 0.29495972 6.16254761 0.29495972 7.26489258 0.3527832 C9.1875 0.6875 9.1875 0.6875 12.1875 2.6875 C14.42594262 3.19930472 16.67856346 3.65046222 18.9375 4.0625 C24.58536435 5.21062848 28.38404758 6.61329045 33.1875 9.6875 C34.44912044 10.15089774 35.72094423 10.58715626 37 11 C45.37271261 14.04171204 52.09649147 20.32525284 58.8125 26 C59.4410791 26.52779053 60.0696582 27.05558105 60.71728516 27.59936523 C62.24783339 28.91645233 63.7232422 30.29708805 65.1875 31.6875 C65.1875 32.3475 65.1875 33.0075 65.1875 33.6875 C65.785625 33.94144531 66.38375 34.19539063 67 34.45703125 C72.13705111 37.3466225 75.39311946 43.68039599 78.125 48.734375 C78.92332516 50.20188448 79.76410726 51.64642294 80.625 53.078125 C84.35263384 59.45237886 86.57153606 65.67325918 88.42578125 72.81640625 C89.06166554 75.60491216 89.06166554 75.60491216 90.1875 77.6875 C91.21725974 84.20931167 91.31114291 90.84730532 91.375 97.4375 C91.38797119 98.14592041 91.40094238 98.85434082 91.41430664 99.58422852 C91.42439291 105.3340741 90.6156409 110.41305338 87.5 115.375 C83.00050053 119.87449947 76.84932085 123.35851427 70.44829845 123.93359566 C68.95084575 123.93083028 68.95084575 123.93083028 67.42314148 123.92800903 C65.69634407 123.93213303 65.69634407 123.93213303 63.93466187 123.93634033 C62.68093781 123.92914978 61.42721375 123.92195923 60.13549805 123.91455078 C58.79487619 123.91398631 57.45425371 123.91430392 56.1136322 123.91543579 C52.48175831 123.91600892 48.85001689 123.90426116 45.21817374 123.89028788 C41.41985482 123.87777381 37.62153277 123.87660948 33.82319641 123.87423706 C26.63389232 123.86802428 19.44464915 123.8516162 12.25537187 123.83153808 C4.06920501 123.8091728 -4.11696478 123.79818407 -12.30315459 123.78814721 C-29.13963871 123.76724979 -45.97606157 123.73207774 -62.8125 123.6875 C-62.51843763 125.43851362 -62.21754712 127.18838134 -61.91381836 128.93774414 C-61.74700058 129.91232071 -61.5801828 130.88689728 -61.40830994 131.89100647 C-60.58950781 135.73413614 -59.21090623 138.64664862 -57.375 142.125 C-56.77816406 143.27871094 -56.18132813 144.43242187 -55.56640625 145.62109375 C-53.93010686 148.63137547 -53.93010686 148.63137547 -52.08984375 150.97265625 C-50.8125 152.6875 -50.8125 152.6875 -50.8125 154.6875 C-50.22597656 154.95949219 -49.63945313 155.23148438 -49.03515625 155.51171875 C-46.85561667 156.66469136 -45.15340291 157.94192289 -43.25 159.5 C-36.84942661 164.39314863 -29.45047882 167.27550669 -21.8125 169.6875 C-21.4825 170.0175 -21.1525 170.3475 -20.8125 170.6875 C-9.41471276 172.07998984 2.81632774 172.59469028 14.1875 170.6875 C14.8475 170.0275 15.5075 169.3675 16.1875 168.6875 C17.38375 168.31625 18.58 167.945 19.8125 167.5625 C25.28508575 165.83899085 30.25324344 163.26321253 35.33837891 160.64404297 C48.371066 153.94307771 48.371066 153.94307771 56.1875 154.6875 C60.90314914 156.44431046 63.80046087 159.01014323 67.1875 162.6875 C67.5175 163.0175 67.8475 163.3475 68.1875 163.6875 C68.26075168 166.55017567 68.27988205 169.388219 68.25 172.25 C68.24548828 173.05630859 68.24097656 173.86261719 68.23632812 174.69335938 C68.22450518 176.69143756 68.20656914 178.68947783 68.1875 180.6875 C67.1975 181.0175 66.2075 181.3475 65.1875 181.6875 C64.8884375 182.44417969 64.589375 183.20085937 64.28125 183.98046875 C62.96357925 187.24170385 61.33707193 188.71603459 58.6875 191 C57.49640625 192.04607422 57.49640625 192.04607422 56.28125 193.11328125 C54.1875 194.6875 54.1875 194.6875 52.1875 194.6875 C52.1875 195.3475 52.1875 196.0075 52.1875 196.6875 C46.04688796 200.30660468 39.87457998 203.22606298 33.1875 205.6875 C32.42308594 205.97753906 31.65867187 206.26757812 30.87109375 206.56640625 C26.3014799 208.21146723 22.08255222 209.08725096 17.23046875 209.37890625 C15.15395819 209.56646528 15.15395819 209.56646528 13.43798828 210.69018555 C10.5544139 211.96805508 8.28671017 211.94645684 5.13671875 211.953125 C3.37618164 211.95699219 3.37618164 211.95699219 1.58007812 211.9609375 C0.35740234 211.95320312 -0.86527344 211.94546875 -2.125 211.9375 C-3.33607422 211.94523438 -4.54714844 211.95296875 -5.79492188 211.9609375 C-11.90553502 211.94755904 -17.03515787 211.64861614 -22.8125 209.6875 C-24.59906669 209.488713 -26.39211068 209.33896073 -28.1875 209.25 C-36.03859202 208.63696953 -42.66005549 205.86636423 -49.8125 202.6875 C-50.905625 202.23375 -51.99875 201.78 -53.125 201.3125 C-60.39582079 198.16836128 -66.85199217 195.00012654 -72.8125 189.6875 C-74.15952508 188.67790068 -75.5141382 187.67836958 -76.875 186.6875 C-85.35610178 180.3628833 -96.73550591 169.51230448 -98.8125 158.6875 C-99.4725 158.6875 -100.1325 158.6875 -100.8125 158.6875 C-101.77350105 156.00092788 -102.73136249 153.31330289 -103.6875 150.625 C-104.09162109 149.49674805 -104.09162109 149.49674805 -104.50390625 148.34570312 C-106.10788999 143.82716357 -107.52960526 139.30707163 -108.8125 134.6875 C-109.163125 133.65625 -109.51375 132.625 -109.875 131.5625 C-116.6743502 103.45851916 -110.44031623 72.88290959 -96.41015625 48.22265625 C-94.50096767 45.19316142 -92.44055339 42.31746559 -90.3125 39.4375 C-89.5390625 38.38046875 -88.765625 37.3234375 -87.96875 36.234375 C-85.8125 33.6875 -85.8125 33.6875 -82.8125 32.6875 C-82.8125 32.0275 -82.8125 31.3675 -82.8125 30.6875 C-80.6953125 28.7421875 -80.6953125 28.7421875 -77.9375 26.5625 C-77.03257812 25.83804688 -76.12765625 25.11359375 -75.1953125 24.3671875 C-72.8125 22.6875 -72.8125 22.6875 -70.8125 22.6875 C-70.8125 22.0275 -70.8125 21.3675 -70.8125 20.6875 C-70.1525 20.6875 -69.4925 20.6875 -68.8125 20.6875 C-68.3175 19.2025 -68.3175 19.2025 -67.8125 17.6875 C-65.4765625 16.29296875 -65.4765625 16.29296875 -62.4375 14.875 C-58.3447301 12.93454557 -54.44417627 10.8926856 -50.5625 8.5625 C-44.70217305 5.29341571 -38.61657112 3.88965835 -32.12109375 2.44921875 C-28.95544083 1.85694686 -28.95544083 1.85694686 -26.8125 0.6875 C-17.87627472 -0.36244814 -8.9766287 -0.40320554 0 0 Z M-22.8125 42.6875 C-24.8021995 43.07763716 -26.80269869 43.41952649 -28.8125 43.6875 C-28.8125 44.3475 -28.8125 45.0075 -28.8125 45.6875 C-30.09125 45.873125 -31.37 46.05875 -32.6875 46.25 C-41.66532785 48.25764024 -48.44159681 54.47918255 -53.8125 61.6875 C-53.8125 62.3475 -53.8125 63.0075 -53.8125 63.6875 C-54.4725 63.6875 -55.1325 63.6875 -55.8125 63.6875 C-60.30894896 72.37148159 -62.70821242 78.74891177 -63.8125 88.6875 C-27.5125 88.6875 8.7875 88.6875 46.1875 88.6875 C44.43877748 74.69771986 38.34704958 61.14470381 27.16015625 52.11328125 C22.18777097 48.51937902 16.89181653 45.94955656 11.1875 43.6875 C10.55295898 43.4282373 9.91841797 43.16897461 9.26464844 42.90185547 C3.04421074 40.56955417 -2.58800806 40.26427027 -9.1875 40.375 C-10.17105469 40.37177734 -11.15460938 40.36855469 -12.16796875 40.36523438 C-17.82043332 40.27640576 -17.82043332 40.27640576 -22.8125 42.6875 Z " fill="#1A2133" transform="translate(1059.8125,95.3125)"/>
<path d="M0 0 C0.86165771 0.03456299 1.72331543 0.06912598 2.61108398 0.10473633 C3.41747314 0.14880615 4.2238623 0.19287598 5.0546875 0.23828125 C6.12565674 0.29495972 6.12565674 0.29495972 7.21826172 0.3527832 C9.125 0.6875 9.125 0.6875 12.125 2.6875 C13.176875 2.831875 14.22875 2.97625 15.3125 3.125 C22.40455673 4.17136903 28.40754656 7.22497568 34.73046875 10.50390625 C37.09636756 11.72636566 37.09636756 11.72636566 39.5703125 12.5859375 C51.64877246 17.79408079 67.32457213 31.48679528 74.125 42.6875 C74.125 43.6775 74.125 44.6675 74.125 45.6875 C74.785 45.6875 75.445 45.6875 76.125 45.6875 C80.36722062 53.89393163 84.51218727 61.95567337 87.43359375 70.74609375 C87.96120366 72.66666792 87.96120366 72.66666792 89.125 73.6875 C89.49101909 79.1161019 89.56762354 84.54650484 89.63989258 89.98608398 C89.67142109 91.81651608 89.71905921 93.6467474 89.78344727 95.47631836 C90.30320268 110.4488028 90.30320268 110.4488028 87.58544922 115.61279297 C82.93530346 120.58379537 76.97428502 123.32923044 70.20817471 123.95898151 C66.68224668 124.05595525 63.16778153 124.05845518 59.640625 124.02807617 C58.28970865 124.02722867 56.93879092 124.02770744 55.58787537 124.02940369 C51.94164832 124.03026027 48.29572065 124.01268964 44.64956284 123.99168181 C40.83125091 123.97285843 37.01293124 123.97116013 33.19458008 123.96760559 C25.97346497 123.95830168 18.75248702 123.93371047 11.53143215 123.90355712 C3.3065132 123.86996142 -4.91841248 123.85351414 -13.14338303 123.83847082 C-30.05400119 123.80715931 -46.96448607 123.75443123 -63.875 123.6875 C-63.37743908 126.44391416 -63.37743908 126.44391416 -61.875 128.6875 C-61.5346875 130.5746875 -61.5346875 130.5746875 -61.1875 132.5 C-59.62314975 139.88325915 -56.31392159 147.39469869 -50.875 152.6875 C-50.875 153.3475 -50.875 154.0075 -50.875 154.6875 C-50.215 154.6875 -49.555 154.6875 -48.875 154.6875 C-48.875 155.3475 -48.875 156.0075 -48.875 156.6875 C-48.215 156.6875 -47.555 156.6875 -46.875 156.6875 C-46.875 157.3475 -46.875 158.0075 -46.875 158.6875 C-43.11835786 160.59442495 -39.31175172 162.39417587 -35.5 164.1875 C-34.85289062 164.49558594 -34.20578125 164.80367187 -33.5390625 165.12109375 C-29.71047419 166.91960398 -25.90275879 168.3733068 -21.875 169.6875 C-21.545 170.0175 -21.215 170.3475 -20.875 170.6875 C-17.47382165 171.07795459 -14.04431319 171.16404008 -10.625 171.3125 C-9.12984863 171.37787964 -9.12984863 171.37787964 -7.60449219 171.44458008 C3.30685832 171.9073737 3.30685832 171.9073737 14.125 170.6875 C14.785 170.0275 15.445 169.3675 16.125 168.6875 C18.10522636 167.86720274 20.10960346 167.10463059 22.125 166.375 C27.35138712 164.42598105 32.27720155 162.22356301 37.19921875 159.60546875 C39.125 158.6875 39.125 158.6875 41.125 158.6875 C41.125 158.0275 41.125 157.3675 41.125 156.6875 C47.08873589 154.74015767 52.15310118 153.55817845 58.25 155.875 C63.48861712 159.17760644 66.91302609 162.86651603 69.125 168.6875 C69.73481144 174.27743818 68.53168303 177.77385548 66.125 182.6875 C65.465 182.6875 64.805 182.6875 64.125 182.6875 C63.86976563 183.26628906 63.61453125 183.84507812 63.3515625 184.44140625 C57.36168785 195.41012575 44.23841667 201.30948737 33.125 205.6875 C32.795 206.0175 32.465 206.3475 32.125 206.6875 C26.82605561 208.20148411 21.4520582 208.96787769 15.97265625 209.44140625 C14.03344906 209.597771 14.03344906 209.597771 12.125 210.6875 C9.5221719 210.78631797 6.94670686 210.82734733 4.34375 210.8203125 C3.1898175 210.82174759 3.1898175 210.82174759 2.01257324 210.82321167 C0.38517169 210.82389254 -1.24223257 210.82204473 -2.86962891 210.81787109 C-5.36497073 210.8125215 -7.86013255 210.81781919 -10.35546875 210.82421875 C-11.93489623 210.82355795 -13.5143236 210.82227675 -15.09375 210.8203125 C-16.21722839 210.82334885 -16.21722839 210.82334885 -17.36340332 210.82644653 C-22.64507757 210.80246122 -22.64507757 210.80246122 -24.875 209.6875 C-26.20520196 209.53269201 -27.53957074 209.41265719 -28.875 209.3125 C-36.45143795 208.53167548 -43.14490232 206.20550561 -49.875 202.6875 C-50.79410156 202.38972656 -51.71320312 202.09195313 -52.66015625 201.78515625 C-63.59117864 198.05293597 -71.67212787 191.59419307 -79.875 183.6875 C-81.24409235 182.55531798 -82.61858847 181.4296178 -84 180.3125 C-90.40079498 174.76954352 -95.90152529 167.13306461 -99.875 159.6875 C-99.875 158.6975 -99.875 157.7075 -99.875 156.6875 C-100.535 156.6875 -101.195 156.6875 -101.875 156.6875 C-108.95838037 140.14094743 -112.21578053 126.15600601 -112.08081055 108.15942383 C-112.06231231 105.59902189 -112.06030304 103.03897808 -112.06054688 100.47851562 C-112.05563913 98.84895519 -112.04981409 97.2193972 -112.04296875 95.58984375 C-112.04185593 94.82534409 -112.0407431 94.06084442 -112.03959656 93.2731781 C-111.99115938 87.91981876 -111.99115938 87.91981876 -110.875 85.6875 C-110.72074643 84.33635301 -110.60045985 82.98120801 -110.5 81.625 C-110.01164013 76.69336589 -108.61222764 72.30918108 -106.875 67.6875 C-106.215 67.6875 -105.555 67.6875 -104.875 67.6875 C-104.813125 66.90375 -104.75125 66.12 -104.6875 65.3125 C-101.71089065 52.0322429 -92.07964763 40.2735078 -82.875 30.6875 C-82.36582031 30.14996094 -81.85664063 29.61242187 -81.33203125 29.05859375 C-79.02101054 26.67646471 -76.65482321 24.50876348 -73.875 22.6875 C-73.215 22.6875 -72.555 22.6875 -71.875 22.6875 C-71.875 22.0275 -71.875 21.3675 -71.875 20.6875 C-66.08630097 16.16232411 -59.82820689 12.31574983 -53.0078125 9.57421875 C-50.72359729 8.66563067 -50.72359729 8.66563067 -48.06640625 7.1796875 C-44.59795998 5.55796599 -41.44456599 4.82970155 -37.6875 4.125 C-32.48432365 3.16010743 -32.48432365 3.16010743 -27.875 0.6875 C-25.36249044 0.34636824 -22.96195547 0.12337564 -20.4375 0 C-19.70192871 -0.03907471 -18.96635742 -0.07814941 -18.20849609 -0.1184082 C-12.12707416 -0.37947614 -6.07941998 -0.26865774 0 0 Z M-52.875 59.6875 C-58.75294714 67.32333788 -62.25208497 75.22049566 -63.875 84.6875 C-64.205 86.0075 -64.535 87.3275 -64.875 88.6875 C-28.245 89.0175 8.385 89.3475 46.125 89.6875 C42.49836761 73.19540696 42.49836761 73.19540696 34.125 58.6875 C33.465 58.6875 32.805 58.6875 32.125 58.6875 C32.125 58.0275 32.125 57.3675 32.125 56.6875 C31.465 56.6875 30.805 56.6875 30.125 56.6875 C30.125 56.0275 30.125 55.3675 30.125 54.6875 C19.1425617 45.37879447 5.3720983 40.08707175 -9 40.125 C-9.90508301 40.1259668 -10.81016602 40.12693359 -11.74267578 40.12792969 C-27.65682735 40.53706266 -42.02076449 48.27574357 -52.875 59.6875 Z " fill="#1A2133" transform="translate(2337.875,95.3125)"/>
<path d="M0 0 C1.36958862 0.05196533 1.36958862 0.05196533 2.7668457 0.10498047 C3.62366943 0.14896973 4.48049316 0.19295898 5.36328125 0.23828125 C6.12552002 0.27606689 6.88775879 0.31385254 7.6730957 0.3527832 C9.6875 0.6875 9.6875 0.6875 12.6875 2.6875 C14.2653125 2.9040625 14.2653125 2.9040625 15.875 3.125 C23.15006369 4.19837005 29.57208457 7.49023272 36.171875 10.6015625 C38.35442977 11.54372124 40.36838514 12.19983566 42.6875 12.6875 C42.6875 13.3475 42.6875 14.0075 42.6875 14.6875 C43.49960938 14.80931641 43.49960938 14.80931641 44.328125 14.93359375 C52.04696724 17.400045 59.35010518 24.97083156 64.7734375 30.765625 C66.77817503 32.85110194 66.77817503 32.85110194 69.63671875 35.04296875 C74.7878512 39.27987962 78.10662185 45.13507359 81.6875 50.6875 C82.34492187 51.69683594 83.00234375 52.70617187 83.6796875 53.74609375 C88.02455073 60.7668706 90.69115295 67.69365272 92.6875 75.6875 C93.06588013 77.01793335 93.06588013 77.01793335 93.4519043 78.37524414 C95.73090895 87.00256759 96.12146489 95.10804085 96.02368164 103.96264648 C95.99999124 106.25084603 96.00315984 108.53787957 96.00976562 110.82617188 C95.97012623 132.26356065 95.97012623 132.26356065 91.6875 138.6875 C91.15954207 140.42340355 90.68542801 142.17610761 90.25 143.9375 C89.08126691 148.42758173 87.6472382 152.48806101 85.6875 156.6875 C85.0275 156.6875 84.3675 156.6875 83.6875 156.6875 C83.30851562 157.75871094 83.30851562 157.75871094 82.921875 158.8515625 C78.14607898 169.82380271 68.72989399 179.10413771 59.6875 186.6875 C59.10226562 187.19925781 58.51703125 187.71101562 57.9140625 188.23828125 C53.93045775 191.6875 53.93045775 191.6875 51.6875 191.6875 C51.3575 192.6775 51.0275 193.6675 50.6875 194.6875 C43.69373685 199.48997151 35.54152714 202.5921541 27.6875 205.6875 C26.94371094 205.99816406 26.19992187 206.30882812 25.43359375 206.62890625 C20.79608554 208.50750547 16.61280496 209.16904685 11.6875 209.6875 C11.3575 210.0175 11.0275 210.3475 10.6875 210.6875 C1.58678463 212.33601668 -7.39004911 212.90828738 -16.625 212.4375 C-17.43050293 212.39898926 -18.23600586 212.36047852 -19.06591797 212.32080078 C-23.01679887 212.06468629 -25.84605495 211.51194476 -29.3125 209.6875 C-32.20589792 209.00872328 -35.12992346 208.53910448 -38.0625 208.0625 C-38.85527344 207.9284375 -39.64804688 207.794375 -40.46484375 207.65625 C-42.41310858 207.32762702 -44.36268439 207.00679295 -46.3125 206.6875 C-46.3125 205.6975 -46.3125 204.7075 -46.3125 203.6875 C-47.13105469 203.60242188 -47.94960937 203.51734375 -48.79296875 203.4296875 C-53.14007849 202.51298289 -56.68384603 200.81355907 -60.625 198.8125 C-61.35267578 198.46058594 -62.08035156 198.10867188 -62.83007812 197.74609375 C-68.18854322 195.05937034 -68.18854322 195.05937034 -69.3125 191.6875 C-70.3334375 191.31625 -70.3334375 191.31625 -71.375 190.9375 C-75.76727006 189.06844891 -78.85198752 185.92109363 -82.3125 182.6875 C-83.55 181.5428125 -83.55 181.5428125 -84.8125 180.375 C-88.56411819 176.34201045 -91.93813621 172.03774904 -95.3125 167.6875 C-95.79074219 167.08808594 -96.26898437 166.48867188 -96.76171875 165.87109375 C-100.54629445 160.91652304 -102.88732226 155.40130885 -105.3125 149.6875 C-105.98345703 148.13869141 -105.98345703 148.13869141 -106.66796875 146.55859375 C-110.39513133 137.82544742 -112.51304877 130.28215173 -113.06640625 120.7734375 C-113.24251053 117.76752233 -113.24251053 117.76752233 -113.828125 115.1796875 C-115.42586229 106.95907143 -114.40355699 98.0897764 -113.5 89.8125 C-113.42998779 89.12381836 -113.35997559 88.43513672 -113.2878418 87.72558594 C-112.76604242 83.39928126 -111.68628826 79.65946416 -110.05908203 75.62158203 C-109.18169394 73.44338438 -109.18169394 73.44338438 -108.32421875 70.109375 C-103.00262917 52.11048514 -89.62400341 33.58591346 -74.3125 22.6875 C-73.6525 22.6875 -72.9925 22.6875 -72.3125 22.6875 C-72.3125 22.0275 -72.3125 21.3675 -72.3125 20.6875 C-70.44921875 19.1796875 -70.44921875 19.1796875 -68 17.5625 C-67.19949219 17.02367188 -66.39898438 16.48484375 -65.57421875 15.9296875 C-63.3125 14.6875 -63.3125 14.6875 -60.3125 14.6875 C-60.3125 14.0275 -60.3125 13.3675 -60.3125 12.6875 C-58.95861467 12.08270315 -57.60437368 11.47870246 -56.25 10.875 C-55.49589844 10.53855469 -54.74179688 10.20210937 -53.96484375 9.85546875 C-53.08957031 9.47003906 -52.21429687 9.08460937 -51.3125 8.6875 C-50.21679688 8.19121094 -49.12109375 7.69492188 -47.9921875 7.18359375 C-44.19306668 5.63894059 -40.46916766 4.54985514 -36.5 3.5625 C-31.79098564 2.45535279 -31.79098564 2.45535279 -27.3125 0.6875 C-18.2122569 -0.39443115 -9.14239565 -0.38997871 0 0 Z M-29.3125 44.6875 C-30.64024509 45.14167729 -31.97280687 45.58238016 -33.3125 46 C-44.85158676 50.35042182 -53.03275138 59.71565759 -59.5 69.86328125 C-60.58374287 71.96366236 -60.58374287 71.96366236 -60.3125 75.6875 C-60.9725 75.6875 -61.6325 75.6875 -62.3125 75.6875 C-62.3125 77.6675 -62.3125 79.6475 -62.3125 81.6875 C-63.3025 81.6875 -64.2925 81.6875 -65.3125 81.6875 C-65.27125 82.595 -65.23 83.5025 -65.1875 84.4375 C-65.3125 87.6875 -65.3125 87.6875 -66.30371094 89.48950195 C-67.66030224 92.44530821 -67.57168368 94.85973188 -67.578125 98.10546875 C-67.58070312 99.36037109 -67.58328125 100.61527344 -67.5859375 101.90820312 C-67.57820313 103.21724609 -67.57046875 104.52628906 -67.5625 105.875 C-67.57023437 107.16470703 -67.57796875 108.45441406 -67.5859375 109.78320312 C-67.57178641 116.70662253 -67.33977886 123.04173727 -65.3125 129.6875 C-64.6525 130.0175 -63.9925 130.3475 -63.3125 130.6875 C-62.87769689 132.10805535 -62.51564331 133.5510855 -62.1875 135 C-58.94216926 146.30214684 -50.74328316 156.82172052 -40.53076172 162.71582031 C-33.67535748 166.34422399 -26.85913155 168.89336478 -19.3125 170.6875 C-18.6525 171.0175 -17.9925 171.3475 -17.3125 171.6875 C-14.40367991 171.83951874 -11.53483328 171.91898077 -8.625 171.9375 C-7.83416016 171.958125 -7.04332031 171.97875 -6.22851562 172 C-0.86789343 172.03541286 2.79982969 171.08815785 7.6875 168.6875 C9.81015293 167.91022685 11.93513291 167.13927632 14.0625 166.375 C25.72903968 161.87142168 33.54572753 154.91986407 40.6875 144.6875 C41.1825 143.2025 41.1825 143.2025 41.6875 141.6875 C42.3475 141.0275 43.0075 140.3675 43.6875 139.6875 C43.6875 138.3675 43.6875 137.0475 43.6875 135.6875 C44.3475 135.6875 45.0075 135.6875 45.6875 135.6875 C52.24531661 117.8025456 53.7418399 95.90319359 45.86328125 78.140625 C45.47527344 77.33109375 45.08726562 76.5215625 44.6875 75.6875 C44.28917969 74.81609375 43.89085937 73.9446875 43.48046875 73.046875 C37.49715028 60.97678011 28.95130137 52.25837606 16.6875 46.6875 C15.615 46.11 14.5425 45.5325 13.4375 44.9375 C10.2613511 43.49379595 7.04723265 42.60977955 3.6875 41.6875 C3.1925 41.1925 3.1925 41.1925 2.6875 40.6875 C-0.78236688 40.37642624 -4.26793398 40.40880647 -7.75 40.375 C-8.71099609 40.34599609 -9.67199219 40.31699219 -10.66210938 40.28710938 C-17.75190641 40.22496011 -22.91375067 41.76400171 -29.3125 44.6875 Z " fill="#1A2133" transform="translate(1953.3125,95.3125)"/>
<path d="M0 0 C1.69931168 -0.00021904 1.69931168 -0.00021904 3.43295288 -0.0004425 C7.14461237 0.00024925 10.85622047 0.00800691 14.56787109 0.01586914 C17.15432711 0.01773594 19.74078349 0.01915861 22.32723999 0.02015686 C28.41846293 0.0235734 34.50966494 0.03143959 40.60088003 0.04150635 C47.54172703 0.05272563 54.48257495 0.05819252 61.42342877 0.06320179 C75.68773176 0.07362397 89.95201953 0.09118698 104.21630859 0.11352539 C101.05965723 5.92252568 97.90136401 11.72772129 94.62255859 17.46899414 C93.99212646 18.5732373 93.36169434 19.67748047 92.7121582 20.81518555 C92.04697965 21.97719207 91.38169377 23.13913717 90.71630859 24.30102539 C90.37004425 24.90646179 90.02377991 25.51189819 89.66702271 26.13568115 C84.30508189 35.50963081 78.89050344 44.85181671 73.43701172 54.17285156 C69.16862339 61.47032125 64.93543881 68.78747742 60.71630859 76.11352539 C55.33724704 85.4522028 49.92371383 94.76992908 44.48583984 104.07446289 C40.20408713 111.40636304 35.95426168 118.75623346 31.71630859 126.11352539 C24.02513391 139.46368204 16.26147899 152.77085667 8.48681641 166.07250977 C2.50287387 176.31237534 -3.47152462 186.55727928 -9.39331055 196.83325195 C-10.64792204 199.01030995 -11.90360917 201.18674844 -13.16040039 203.36254883 C-16.32173571 208.83565953 -19.47001446 214.31556085 -22.59619141 219.80883789 C-23.82516046 221.95218038 -25.05431982 224.09541376 -26.28369141 226.23852539 C-27.11030273 227.70418945 -27.11030273 227.70418945 -27.95361328 229.19946289 C-32.1799991 236.5354441 -37.09920908 242.54315016 -43.15869141 248.42602539 C-47.24989695 252.47207414 -50.83408505 256.87723603 -54.40722656 261.38208008 C-55.38155768 262.60768425 -56.360906 263.82930762 -57.34375 265.0480957 C-74.81528698 286.73302584 -88.60051786 310.1346165 -100.78369141 335.11352539 C-102.18995083 330.61885123 -100.92142378 327.07147711 -99.65869141 322.67602539 C-99.1800965 320.93309262 -98.70359932 319.18958271 -98.22900391 317.44555664 C-97.9844043 316.55175293 -97.73980469 315.65794922 -97.48779297 314.73706055 C-96.43010084 310.79602045 -95.47159715 306.83454627 -94.53369141 302.86352539 C-94.33606201 302.02934082 -94.13843262 301.19515625 -93.93481445 300.33569336 C-92.51579309 294.30739514 -91.13042373 288.2715072 -89.74853516 282.23461914 C-88.98998699 278.92329116 -88.23085631 275.61209736 -87.47119141 272.30102539 C-87.27855713 271.4612616 -87.08592285 270.6214978 -86.88745117 269.75628662 C-83.61532379 255.51381047 -80.13734156 241.33196418 -76.55712891 227.16430664 C-74.41734883 218.69236255 -72.39739422 210.19431257 -70.39453125 201.68920898 C-69.74731075 198.96012174 -69.0890961 196.23386893 -68.42822266 193.50805664 C-65.45403474 181.23018029 -62.5856336 168.9316005 -59.78369141 156.61352539 C-55.90795779 139.5888737 -51.92908946 122.59499566 -47.65869141 105.66430664 C-46.88758456 102.60578174 -46.11667921 99.5472063 -45.34619141 96.48852539 C-45.15311401 95.72221802 -44.96003662 94.95591064 -44.7611084 94.16638184 C-41.74555431 82.17666993 -38.92912201 70.15562729 -36.24145508 58.08837891 C-33.5625504 46.0618401 -30.71071215 34.08183281 -27.78369141 22.11352539 C-27.54344238 21.12529785 -27.30319336 20.13707031 -27.05566406 19.11889648 C-26.36519322 16.28268349 -25.66935231 13.44785405 -24.97119141 10.61352539 C-24.76413574 9.7637915 -24.55708008 8.91405762 -24.34375 8.03857422 C-22.89950097 2.22933495 -22.89950097 2.22933495 -21.78369141 1.11352539 C-14.58820355 -0.08803334 -7.27167618 -0.02492883 0 0 Z " fill="#0077E2" transform="translate(590.78369140625,-0.113525390625)"/>
<path d="M0 0 C14.95181031 -0.02341509 29.90361918 -0.04102134 44.85544395 -0.05181217 C51.79865509 -0.05695689 58.7418548 -0.06396464 65.68505859 -0.07543945 C72.38941225 -0.0865142 79.09375159 -0.09228967 85.79811478 -0.09487724 C88.35206921 -0.09672058 90.90602301 -0.10032014 93.45997238 -0.10573006 C97.04543189 -0.11302084 100.63084283 -0.11398755 104.21630859 -0.11352539 C105.2650415 -0.11712067 106.31377441 -0.12071594 107.39428711 -0.12442017 C113.65604904 -0.11572354 119.78306724 0.24705663 126 1 C128.36519758 7.73115188 130.1872315 14.49227035 131.8125 21.4375 C132.07039307 22.52442139 132.32828613 23.61134277 132.59399414 24.73120117 C134.66578106 33.49181033 136.66890085 42.26803462 138.67675781 51.04345703 C140.82106442 60.35353016 143.12774256 69.61940116 145.46240234 78.88330078 C147.84831448 88.35689206 150.12988349 97.85166349 152.37304688 107.35986328 C153.02743272 110.11552081 153.69203374 112.86854603 154.359375 115.62109375 C156.57528887 124.77042979 158.76791984 133.92325067 160.84375 143.10546875 C161.00301971 143.80981049 161.16228943 144.51415222 161.3263855 145.23983765 C161.65490898 146.6930538 161.98343068 148.14627036 162.31195068 149.5994873 C165.28234446 162.73209766 168.39784502 175.8185603 171.6875 188.875 C171.88073853 189.64211304 172.07397705 190.40922607 172.27307129 191.19958496 C173.02191697 194.17114722 173.77109172 197.14262628 174.52075195 200.11398315 C177.43597423 211.68117839 180.16317429 223.28761884 182.796875 234.921875 C183.46834309 237.88550904 184.14029774 240.8490324 184.8125 243.8125 C185.06661652 244.93393906 185.06661652 244.93393906 185.3258667 246.07803345 C187.95946111 257.68066185 190.76890693 269.22951717 193.69830322 280.76071167 C196.08956073 290.18262441 198.27960766 299.62664163 200.26489258 309.14257812 C201.72290873 316.02657347 203.50929962 322.77946894 205.56518555 329.50927734 C207.1036837 334.68894891 207.1036837 334.68894891 206 338 C205.69932617 337.34741211 205.39865234 336.69482422 205.08886719 336.02246094 C190.23990705 303.97878657 171.45789684 276.14958167 148.34082031 249.5625 C147.02428773 248.02830325 145.74112727 246.47081552 144.4609375 244.90625 C142.12650212 242.01684789 142.12650212 242.01684789 139.6171875 239.85546875 C135.62572014 235.50059913 133.00465848 230.44755797 130.125 225.3125 C129.46578814 224.15136509 128.80569632 222.99072936 128.14477539 221.83056641 C126.77324627 219.42136926 125.40551067 217.01007943 124.04052734 214.59716797 C120.87272775 209.00402476 117.65338627 203.4405845 114.4375 197.875 C113.81770264 196.80048584 113.19790527 195.72597168 112.55932617 194.61889648 C106.07949371 183.38927161 99.54234383 172.19328165 93 161 C85.16424334 147.59382119 77.35962289 134.17079317 69.60791016 120.71582031 C63.11500122 109.4520275 56.56057444 98.22447236 50 87 C42.16937928 73.60260825 34.36933477 60.1886826 26.62329102 46.7421875 C21.18758754 37.31170598 15.70994097 27.90606905 10.21875 18.5078125 C9.70054688 17.6199707 9.18234375 16.73212891 8.6484375 15.81738281 C7.44912995 13.76761842 6.24541217 11.72043249 5.0390625 9.67480469 C4.39710938 8.58329102 3.75515625 7.49177734 3.09375 6.3671875 C2.50271484 5.3654248 1.91167969 4.36366211 1.30273438 3.33154297 C0 1 0 1 0 0 Z " fill="#F71622" transform="translate(0,0)"/>
<path d="M0 0 C3.02563516 1.31037435 4.65891763 2.48099957 6.48828125 5.21875 C6.93921143 5.88970703 7.3901416 6.56066406 7.85473633 7.25195312 C8.57632935 8.36473633 8.57632935 8.36473633 9.3125 9.5 C9.83030029 10.28826172 10.34810059 11.07652344 10.8815918 11.88867188 C17.35632195 21.8925468 23.19881278 32.2713113 29.08105469 42.62988281 C32.17316657 48.06035513 35.3078068 53.46613193 38.4375 58.875 C42.41812228 65.7656126 46.384067 72.66430379 50.32421875 79.578125 C50.68460739 80.21021881 51.04499603 80.84231262 51.41630554 81.49356079 C53.15803224 84.5489197 54.89789266 87.60531487 56.63452148 90.66357422 C57.26302002 91.76717285 57.89151855 92.87077148 58.5390625 94.0078125 C59.12848633 95.04583008 59.71791016 96.08384766 60.32519531 97.15332031 C62.16369128 100.27822745 64.14528418 103.27231875 66.26318359 106.21435547 C67.3427993 108.83076014 66.82832566 110.31857233 66 113 C65.05716185 114.91184219 64.03637387 116.78610742 62.96484375 118.62890625 C62.32869141 119.73169922 61.69253906 120.83449219 61.03710938 121.97070312 C60.33729528 123.1680013 59.63742389 124.365266 58.9375 125.5625 C58.21214604 126.8153244 57.48754952 128.06858763 56.76367188 129.32226562 C55.25927818 131.92635289 53.75164289 134.52852171 52.24169922 137.12939453 C48.79718502 143.068768 45.40111604 149.03569957 42 155 C40.66718124 157.33362748 39.33358927 159.66681277 38 162 C37.33331909 163.16665853 36.66665242 164.33332519 36 165.5 C-16 256.5 -16 256.5 -16.99980164 258.24958801 C-17.667204 259.41758542 -18.33453174 260.58562545 -19.00178528 261.75370789 C-20.65659154 264.650369 -22.31292229 267.54613174 -23.97143555 270.44067383 C-27.11432697 275.92919191 -30.24415441 281.4238501 -33.33328247 286.94284058 C-34.80065205 289.56273067 -36.27468281 292.17884345 -37.74926758 294.79467773 C-38.45346846 296.04833318 -39.15436422 297.30385139 -39.85180664 298.5612793 C-40.81611704 300.29937009 -41.79253568 302.0307266 -42.76953125 303.76171875 C-43.32229736 304.75131592 -43.87506348 305.74091309 -44.44458008 306.76049805 C-46 309 -46 309 -49 310 C-51.01323386 306.74903703 -52.978672 303.47148293 -54.9375 300.1875 C-55.78344727 298.82334961 -55.78344727 298.82334961 -56.64648438 297.43164062 C-57.18466797 296.51962891 -57.72285156 295.60761719 -58.27734375 294.66796875 C-58.77484131 293.84578857 -59.27233887 293.0236084 -59.78491211 292.17651367 C-63.1329809 283.42390707 -62.15982626 273.07081505 -62.16796875 263.83984375 C-62.17119813 262.48295561 -62.17456331 261.12606779 -62.17805481 259.7691803 C-62.18400722 256.93099161 -62.18589925 254.09283315 -62.18530273 251.25463867 C-62.18522226 248.40333606 -62.19204426 245.55219679 -62.20581055 242.70092773 C-62.29283037 224.37966849 -61.81950622 206.25115931 -60 188 C-59.92429779 187.23358185 -59.84859558 186.4671637 -59.77059937 185.67752075 C-59.33437782 181.37904969 -58.81683273 177.09553895 -58.25 172.8125 C-58.08371094 171.54204834 -57.91742188 170.27159668 -57.74609375 168.96264648 C-55.07235147 149.11176049 -51.2248967 129.3362319 -46 110 C-45.60489956 108.4640218 -45.21178854 106.92753095 -44.8203125 105.390625 C-23.96301444 23.96301444 -23.96301444 23.96301444 0 0 Z " fill="#FDCD00" transform="translate(281,91)"/>
<path d="M0 0 C3.81097826 1.27032609 4.11429845 2.44569948 6.0390625 5.8984375 C6.61519287 6.92582031 7.19132324 7.95320313 7.78491211 9.01171875 C8.39214111 10.12160156 8.99937012 11.23148438 9.625 12.375 C10.25092041 13.50808594 10.87684082 14.64117187 11.52172852 15.80859375 C16.75173591 25.36495592 21.59812351 35.03666179 26 45 C26.29390625 45.65709961 26.5878125 46.31419922 26.890625 46.99121094 C35.98377488 67.50246378 43.05606472 89.13597469 48.26269531 110.94287109 C49.06196259 114.25691905 49.90190125 117.55940766 50.7421875 120.86328125 C55.5400399 140.0946622 58.68070866 159.33144055 61 179 C61.0835675 179.6899707 61.16713501 180.37994141 61.25323486 181.09082031 C63.80838854 202.2738075 64.26141438 223.36032416 64.25 244.6875 C64.24940582 245.91760803 64.24881165 247.14771606 64.24819946 248.4151001 C64.23549778 255.29251689 64.1750714 262.16712957 64.04928589 269.04342651 C64.01816067 270.91057323 63.99606023 272.77791202 63.98660278 274.64529419 C63.92996771 284.69366765 62.52783633 292.04602191 56.9375 300.5625 C56.36966797 301.48740234 55.80183594 302.41230469 55.21679688 303.36523438 C53.84032366 305.59766572 52.43668525 307.80604238 51 310 C47.22983584 308.74327861 46.99288597 307.70437669 45.13671875 304.27734375 C44.58693359 303.27638672 44.03714844 302.27542969 43.47070312 301.24414062 C42.88224609 300.15294922 42.29378906 299.06175781 41.6875 297.9375 C40.42249688 295.6330574 39.15551998 293.32969734 37.88671875 291.02734375 C37.56339569 290.4387558 37.24007263 289.85016785 36.9069519 289.2437439 C33.70829065 283.43418275 30.36565728 277.71385671 27 272 C21.62664238 262.85170287 16.40921523 253.62593361 11.25 244.35546875 C7.25035548 237.18646305 3.15651956 230.07907237 -1 223 C-6.37196793 213.85086711 -11.59076525 204.62596869 -16.75 195.35546875 C-20.74964452 188.18646305 -24.84348044 181.07907237 -29 174 C-34.3631969 164.86580529 -39.58551045 155.66227601 -44.71923828 146.3972168 C-47.73076614 140.98115219 -50.8042785 135.61524941 -53.9921875 130.30078125 C-54.641875 129.2128125 -55.2915625 128.12484375 -55.9609375 127.00390625 C-57.20747854 124.92548986 -58.46478484 122.85348012 -59.734375 120.7890625 C-60.29382813 119.85449219 -60.85328125 118.91992188 -61.4296875 117.95703125 C-62.17581299 116.73463745 -62.17581299 116.73463745 -62.93701172 115.48754883 C-64.25619308 112.40047054 -64.35506786 110.33294323 -64 107 C-62.93701172 104.40478516 -62.93701172 104.40478516 -61.4296875 101.7890625 C-60.59074951 100.31215942 -60.59074951 100.31215942 -59.73486328 98.80541992 C-59.1211084 97.75588135 -58.50735352 96.70634277 -57.875 95.625 C-57.24190918 94.51938721 -56.60881836 93.41377441 -55.95654297 92.2746582 C-53.98516084 88.84121241 -51.99535962 85.41955499 -50 82 C-49.11924805 80.4843042 -49.11924805 80.4843042 -48.22070312 78.93798828 C-45.95397954 75.03743215 -43.68333839 71.13927604 -41.40063477 67.24804688 C-37.1564435 60.01173912 -32.98978738 52.73434566 -28.84518433 45.44082642 C-10.57765238 13.3200067 -10.57765238 13.3200067 0 0 Z " fill="#00E267" transform="translate(412,91)"/>
<path d="M0 0 C7.61766608 0.11919534 12.24212142 2.96595661 17.75 8.0625 C24.76188452 15.55559228 24.99650645 23.33692183 25.4375 33.3125 C26.39791171 32.21014064 27.35574407 31.10553376 28.3125 30 C28.84617187 29.38511719 29.37984375 28.77023438 29.9296875 28.13671875 C31.6015447 26.17751788 31.6015447 26.17751788 33.4375 23.3125 C34.0975 23.3125 34.7575 23.3125 35.4375 23.3125 C35.9325 21.8275 35.9325 21.8275 36.4375 20.3125 C37.0975 20.3125 37.7575 20.3125 38.4375 20.3125 C38.9325 18.8275 38.9325 18.8275 39.4375 17.3125 C51.50568182 7.3125 51.50568182 7.3125 57.4375 7.3125 C57.4375 6.6525 57.4375 5.9925 57.4375 5.3125 C58.35273438 5.03535156 59.26796875 4.75820312 60.2109375 4.47265625 C61.39945313 4.11042969 62.58796875 3.74820313 63.8125 3.375 C64.99585937 3.01535156 66.17921875 2.65570313 67.3984375 2.28515625 C70.31676818 1.43673726 70.31676818 1.43673726 72.4375 0.3125 C76.20250537 0.04394888 79.97649445 0.08089613 83.75 0.0625 C84.79607422 0.041875 85.84214844 0.02125 86.91992188 0 C87.93248047 -0.00515625 88.94503906 -0.0103125 89.98828125 -0.015625 C91.37527222 -0.02964355 91.37527222 -0.02964355 92.7902832 -0.04394531 C95.97248701 0.38453551 97.8728886 1.40694588 100.4375 3.3125 C100.4375 3.9725 100.4375 4.6325 100.4375 5.3125 C101.04078125 5.57546875 101.6440625 5.8384375 102.265625 6.109375 C106.12166789 8.24545631 107.90087956 11.23711536 109.4375 15.3125 C110.22931748 21.31542399 110.93261256 27.02244007 107.52734375 32.23828125 C105.4375 34.3125 105.4375 34.3125 103.4375 34.3125 C103.1075 35.3025 102.7775 36.2925 102.4375 37.3125 C95.61394005 42.73358913 89.09349012 43.79021868 80.609375 44.05859375 C69.34079517 44.55573698 57.95236896 47.10188056 48.37109375 53.140625 C46.4375 54.3125 46.4375 54.3125 44.4375 54.3125 C44.4375 54.9725 44.4375 55.6325 44.4375 56.3125 C42.45060269 57.66528115 40.45004782 58.99818305 38.4375 60.3125 C37.9425 61.3025 37.9425 61.3025 37.4375 62.3125 C36.7775 62.3125 36.1175 62.3125 35.4375 62.3125 C35.169375 63.03566406 34.90125 63.75882813 34.625 64.50390625 C33.07683258 68.1655259 30.99895032 71.36431212 28.875 74.71484375 C25.34558424 81.09272821 25.15232593 86.75357781 25.18212891 93.87255859 C25.17850845 94.9237236 25.174888 95.97488861 25.17115784 97.0579071 C25.16427759 99.33483387 25.16175582 101.61177708 25.16310501 103.88871384 C25.1640718 107.49563462 25.15110962 111.10225868 25.13412476 114.70913696 C25.08789807 124.96231802 25.0632466 135.21546829 25.05664062 145.46875 C25.05162173 151.74573004 25.02735333 158.02239961 24.99131393 164.29927444 C24.98152604 166.68739583 24.97917844 169.07555998 24.98448563 171.46369553 C24.99156817 174.80735131 24.97424849 178.15008376 24.95166016 181.49365234 C24.95983261 182.47469437 24.96800507 183.45573639 24.97642517 184.46650696 C24.88943966 191.72262454 23.17850205 196.86220355 18.65625 202.5546875 C18.0890625 203.09351563 17.521875 203.63234375 16.9375 204.1875 C16.08671875 205.01894531 16.08671875 205.01894531 15.21875 205.8671875 C13.37944544 207.35960567 11.55867541 208.27799232 9.4375 209.3125 C8.4475 210.3025 8.4475 210.3025 7.4375 211.3125 C0.32915574 212.48000422 -5.37365198 212.06718297 -11.375 207.9375 C-13.83203125 206.0390625 -13.83203125 206.0390625 -15.5625 204.3125 C-15.5625 203.6525 -15.5625 202.9925 -15.5625 202.3125 C-16.5525 201.9825 -17.5425 201.6525 -18.5625 201.3125 C-23.88142609 193.45082547 -23.11662084 183.76122773 -23.04833984 174.69873047 C-23.05048913 173.03537701 -23.0543719 171.37202504 -23.05984497 169.7086792 C-23.06948851 165.21699204 -23.05429865 160.72570611 -23.03393888 156.23406744 C-23.01629126 151.52129462 -23.01989443 146.80853277 -23.0206604 142.09573364 C-23.01879112 134.18566222 -23.0014761 126.27574486 -22.97412109 118.36572266 C-22.94265258 109.23273119 -22.9321259 100.09990814 -22.9335922 90.96686637 C-22.9349451 81.22269571 -22.92105446 71.47858957 -22.90269899 61.73443842 C-22.8984455 58.93495467 -22.8970179 56.1354814 -22.89622116 53.33599472 C-22.89420583 48.93149195 -22.88194381 44.52712944 -22.86188889 40.12267303 C-22.85606916 38.51025121 -22.85358199 36.89781323 -22.85474396 35.28538132 C-22.86146079 20.28498304 -22.86146079 20.28498304 -20.5625 13.3125 C-19.9025 13.3125 -19.2425 13.3125 -18.5625 13.3125 C-18.46453125 12.71695313 -18.3665625 12.12140625 -18.265625 11.5078125 C-17.03020835 7.65056719 -13.76942214 5.60605824 -10.5625 3.3125 C-7.6875 2 -7.6875 2 -5.5625 1.3125 C-3.94996547 -0.30003453 -2.22650957 0.06458577 0 0 Z M23.4375 36.3125 C24.4375 38.3125 24.4375 38.3125 24.4375 38.3125 Z " fill="#1A2133" transform="translate(2105.5625,95.6875)"/>
<path d="M0 0 C1.8133922 3.20010388 2.52213974 6.13283843 3.125 9.75 C3.29257813 10.73484375 3.46015625 11.7196875 3.6328125 12.734375 C3.81457031 13.85585938 3.81457031 13.85585938 4 15 C1.71540242 12.71540242 1.02870252 10.87462656 -0.125 7.875 C-0.47820312 6.96492188 -0.83140625 6.05484375 -1.1953125 5.1171875 C-1.46085938 4.41851562 -1.72640625 3.71984375 -2 3 C-1.34 3 -0.68 3 0 3 C0 2.01 0 1.02 0 0 Z " fill="#FE4126" transform="translate(203,323)"/>
<path d="M0 0 C0.66 0 1.32 0 2 0 C2 0.66 2 1.32 2 2 C1.34 2 0.68 2 0 2 C0 1.34 0 0.68 0 0 Z " fill="#1A2133" transform="translate(741,284)"/>
<path d="M0 0 C0.66 0 1.32 0 2 0 C2 0.66 2 1.32 2 2 C1.34 2 0.68 2 0 2 C0 1.34 0 0.68 0 0 Z " fill="#1A2133" transform="translate(2407,261)"/>
<path d="M0 0 C1 4 1 4 1 4 Z " fill="#1A2133" transform="translate(2227,233)"/>
<path d="M0 0 C1 4 1 4 1 4 Z " fill="#1A2133" transform="translate(1099,167)"/>
<path d="M0 0 C0.66 0 1.32 0 2 0 C2 0.66 2 1.32 2 2 C1.34 2 0.68 2 0 2 C0 1.34 0 0.68 0 0 Z " fill="#1A2133" transform="translate(1322,165)"/>
<path d="M0 0 C1 4 1 4 1 4 Z " fill="#1A2133" transform="translate(1606,146)"/>
<path d="M0 0 C0.33 0.66 0.66 1.32 1 2 C0.34 1.67 -0.32 1.34 -1 1 C-0.67 0.67 -0.34 0.34 0 0 Z " fill="#1A2133" transform="translate(1122,284)"/>
<path d="M0 0 C0.99 0.495 0.99 0.495 2 1 C1.01 1.495 1.01 1.495 0 2 C0 1.34 0 0.68 0 0 Z " fill="#1A2133" transform="translate(1556,240)"/>
<path d="" fill="#1A2133" transform="translate(0,0)"/>
<path d="M0 0 C0.66 0 1.32 0 2 0 C1.67 0.66 1.34 1.32 1 2 C0.67 1.34 0.34 0.68 0 0 Z " fill="#1A2133" transform="translate(1106,110)"/>
<path d="M0 0 C2 1 2 1 2 1 Z " fill="#1A2133" transform="translate(1214,288)"/>
<path d="M0 0 C2 1 2 1 2 1 Z " fill="#1A2133" transform="translate(1027,259)"/>
<path d="" fill="#1A2133" transform="translate(0,0)"/>
<path d="" fill="#1A2133" transform="translate(0,0)"/>
<path d="" fill="#1A2133" transform="translate(0,0)"/>
<path d="M0 0 C2 1 2 1 2 1 Z " fill="#1A2133" transform="translate(2168,143)"/>
<path d="M0 0 C2 1 2 1 2 1 Z " fill="#1A2133" transform="translate(1027,143)"/>
<path d="M0 0 C2 1 2 1 2 1 Z " fill="#1A2133" transform="translate(1877,117)"/>
<path d="M0 0 C2 1 2 1 2 1 Z " fill="#1A2133" transform="translate(1581,117)"/>
<path d="" fill="#1A2133" transform="translate(0,0)"/>
<path d="" fill="#1A2133" transform="translate(0,0)"/>
<path d="" fill="#1A2133" transform="translate(0,0)"/>
<path d="" fill="#1A2133" transform="translate(0,0)"/>
<path d="" fill="#1A2133" transform="translate(0,0)"/>
<path d="" fill="#1A2133" transform="translate(0,0)"/>
<path d="" fill="#1A2133" transform="translate(0,0)"/>
<path d="" fill="#1A2133" transform="translate(0,0)"/>
<path d="" fill="#1A2133" transform="translate(0,0)"/>
<path d="" fill="#1A2133" transform="translate(0,0)"/>
<path d="" fill="#1A2133" transform="translate(0,0)"/>
<path d="" fill="#1A2133" transform="translate(0,0)"/>
<path d="" fill="#1A2133" transform="translate(0,0)"/>
<path d="" fill="#1A2133" transform="translate(0,0)"/>
<path d="" fill="#1A2133" transform="translate(0,0)"/>
</svg>
