<?xml version="1.0" encoding="UTF-8"?>
<svg version="1.1" xmlns="http://www.w3.org/2000/svg" width="1890" height="402">
<path d="M0 0 C14.56844122 -0.02333974 29.13687955 -0.04091804 43.70533562 -0.05181217 C50.46941629 -0.05697284 57.23348536 -0.06401119 63.99755859 -0.07543945 C70.52032554 -0.08645478 77.04308494 -0.09227779 83.56586075 -0.09487724 C86.05944128 -0.09673068 88.55302111 -0.10034974 91.04659653 -0.10573006 C94.52831217 -0.11294639 98.00997735 -0.11399069 101.49169922 -0.11352539 C102.53179138 -0.11712067 103.57188354 -0.12071594 104.64349365 -0.12442017 C105.58862823 -0.1230455 106.53376282 -0.12167084 107.50753784 -0.12025452 C108.33162077 -0.12117631 109.1557037 -0.1220981 110.00475883 -0.12304783 C112 0 112 0 114 1 C116.33077343 1.30791869 118.66241896 1.50895274 121.00390625 1.71875 C123 2 123 2 124 3 C125.010625 3.12375 126.02125 3.2475 127.0625 3.375 C130.51070192 3.92233364 133.29419389 4.82783619 136.51171875 6.12109375 C139.73105365 7.25822146 143.00074304 8.04622192 146.3125 8.875 C152.00318237 10.32457315 157.20594907 12.23287378 162.48828125 14.80078125 C164.7986896 15.90388446 167.09822635 16.80698746 169.5 17.6875 C181.69674134 22.49583072 193.56719708 29.08545985 204 37 C204.99 37.66 205.98 38.32 207 39 C207 39.66 207 40.32 207 41 C207.556875 41.268125 208.11375 41.53625 208.6875 41.8125 C211.21225334 43.10899496 213.63714484 44.42476323 216 46 C216 46.66 216 47.32 216 48 C216.5775 48.268125 217.155 48.53625 217.75 48.8125 C220.05550043 50.02929189 222.02056192 51.30333879 224 53 C224 53.66 224 54.32 224 55 C224.57234375 55.2475 225.1446875 55.495 225.734375 55.75 C228.35010611 57.19316199 230.14773456 58.88216222 232.25 61 C232.95640625 61.70125 233.6628125 62.4025 234.390625 63.125 C236 65 236 65 236 67 C236.99 67.33 237.98 67.66 239 68 C240.76129603 70.00525933 242.38928463 72.00409686 244 74.125 C244.47912842 74.74810059 244.95825684 75.37120117 245.4519043 76.01318359 C246.46318018 77.33395969 247.47049531 78.65777646 248.47412109 79.984375 C249.4745797 81.3059408 250.47995598 82.62380129 251.49072266 83.9375 C256.8814166 90.94558163 261.66078594 97.74030097 265.421875 105.78125 C270.71223059 116.57148021 277.35658383 126.7515295 283.9921875 136.75390625 C285.8038388 139.68286001 287.32419218 142.60335377 288.83056641 145.69116211 C291.29422127 150.55520887 294.05248359 155.26304262 296.75 160 C297.35199219 161.06089844 297.95398438 162.12179688 298.57421875 163.21484375 C300.04767268 165.81092925 301.52297251 168.40594654 303 171 C305.87192801 168.32114278 307.33787273 165.56170128 309 162 C309.66 162 310.32 162 311 162 C311.12375 161.2575 311.2475 160.515 311.375 159.75 C311.95486701 157.19858515 312.73708739 155.2732427 314 153 C314.66 153 315.32 153 316 153 C316 152.01 316 151.02 316 150 C316.66 150 317.32 150 318 150 C318.09925781 149.45472656 318.19851563 148.90945312 318.30078125 148.34765625 C319.18121405 145.39156624 320.59435701 143.07867083 322.1875 140.4375 C324.55913641 136.45411884 326.86700558 132.45815496 329.0625 128.375 C330.95093419 124.87363264 332.91847504 121.45241208 335 118.0625 C337.11578947 114.60128543 338.91227134 111.11335625 340.625 107.4375 C347.67368654 93.15751846 358.32592826 80.81300116 368.55859375 68.73242188 C369.83965666 67.19271618 371.064866 65.60692188 372.28125 64.015625 C372.8484375 63.35046875 373.415625 62.6853125 374 62 C374.66 62 375.32 62 376 62 C376 61.34 376 60.68 376 60 C377.328125 58.625 377.328125 58.625 379.25 57 C379.96929687 56.39027344 380.68859375 55.78054687 381.4296875 55.15234375 C382.27789062 54.44207031 383.12609375 53.73179688 384 53 C385.04482152 52.10611202 386.08906343 51.21154624 387.1328125 50.31640625 C388.2130762 49.39788979 389.29380356 48.47991834 390.375 47.5625 C390.89868164 47.11326172 391.42236328 46.66402344 391.96191406 46.20117188 C395.77106044 43 395.77106044 43 398 43 C398 42.34 398 41.68 398 41 C399.65 40.34 401.3 39.68 403 39 C403 38.34 403 37.68 403 37 C404.52197266 35.7824707 404.52197266 35.7824707 406.6640625 34.42578125 C407.44974609 33.92626953 408.23542969 33.42675781 409.04492188 32.91210938 C409.89634766 32.38423828 410.74777344 31.85636719 411.625 31.3125 C412.48931641 30.77302734 413.35363281 30.23355469 414.24414062 29.67773438 C423.90104413 23.72347781 433.69394626 18.5013803 444.5 14.921875 C447.10878871 14.0196801 447.10878871 14.0196801 449.8515625 12.515625 C453.3206917 10.84562236 456.6403002 9.92404943 460.375 9 C464.44876557 7.967953 468.46531863 6.93571958 472.375 5.375 C478.82914141 2.9268774 485.29386154 1.83880209 492.15234375 1.24609375 C494.09155094 1.089729 494.09155094 1.089729 496 0 C497.49518319 -0.09220893 498.99443931 -0.12193016 500.49246216 -0.12025452 C501.43759674 -0.12162918 502.38273132 -0.12300385 503.35650635 -0.12442017 C504.39659851 -0.12082489 505.43669067 -0.11722961 506.50830078 -0.11352539 C507.60099274 -0.11367142 508.69368469 -0.11381744 509.81948853 -0.1139679 C513.44478312 -0.11326914 517.07002684 -0.10547842 520.6953125 -0.09765625 C523.20352144 -0.09579194 525.71173075 -0.0943681 528.21994019 -0.09336853 C534.15559799 -0.08993561 540.09123937 -0.08204764 546.02688873 -0.07201904 C553.44630797 -0.05975505 560.86572947 -0.05437629 568.28515625 -0.04882812 C581.52344684 -0.0380926 594.76172226 -0.02120871 608 0 C606.78611868 3.74053384 605.54088365 7.0979197 603.5625 10.5 C601.59001309 13.9489342 599.74091828 17.42653617 598 21 C597.34 21 596.68 21 596 21 C595.72236816 21.72960937 595.44473633 22.45921875 595.15869141 23.2109375 C594.07625133 25.81645697 592.86138402 28.1789481 591.4609375 30.625 C590.96674316 31.4900415 590.47254883 32.35508301 589.96337891 33.24633789 C589.43921387 34.15504639 588.91504883 35.06375488 588.375 36 C587.56748291 37.4085022 587.56748291 37.4085022 586.74365234 38.84545898 C583.78966379 43.9754436 580.76941742 49.04727609 577.625 54.0625 C574.62954691 58.85399477 572.09591466 63.74322931 569.6328125 68.82421875 C567.04401469 73.85936855 564.06899409 78.65141251 561.125 83.484375 C558.62755372 87.58922022 556.28060652 91.77113666 554 96 C553.34 96 552.68 96 552 96 C551.73123047 96.8770459 551.46246094 97.7540918 551.18554688 98.65771484 C550.05302316 101.8505175 548.71683342 104.54554336 547.03125 107.4765625 C546.17466797 108.97703125 546.17466797 108.97703125 545.30078125 110.5078125 C544.40939453 112.05082031 544.40939453 112.05082031 543.5 113.625 C542.32213411 115.67923899 541.1450199 117.73390922 539.96875 119.7890625 C539.44732422 120.69350098 538.92589844 121.59793945 538.38867188 122.52978516 C537.19111614 124.66003638 536.06871662 126.80298005 535 129 C534.34 129 533.68 129 533 129 C532.71125 130.175625 532.4225 131.35125 532.125 132.5625 C530.25826927 138.29995182 526.91266993 142.9523724 523.49267578 147.85766602 C521.60995409 150.55992127 520.04800686 152.85597941 519 156 C518.34 156 517.68 156 517 156 C516.87753906 156.57234375 516.75507812 157.1446875 516.62890625 157.734375 C515.97237132 160.09953191 515.06276488 162.07206797 513.9375 164.25 C513.57527344 164.95640625 513.21304688 165.6628125 512.83984375 166.390625 C512.56269531 166.92171875 512.28554688 167.4528125 512 168 C511.34 168 510.68 168 510 168 C509.91105469 168.52464844 509.82210938 169.04929688 509.73046875 169.58984375 C508.73914516 172.86068149 507.04162625 175.63962384 505.3125 178.5625 C504.5784684 179.8223586 503.84540433 181.08278138 503.11328125 182.34375 C502.75186035 182.96507812 502.39043945 183.58640625 502.01806641 184.2265625 C500.62926799 186.64580272 499.31359585 189.10176949 498 191.5625 C495.18237792 196.77663217 492.06930316 201.78263431 488.9375 206.8125 C486.67321704 210.53761067 484.61560376 214.34741578 482.5625 218.19140625 C480.80934472 221.34270287 478.91737264 224.38350304 477 227.4375 C473.76081124 232.63009266 470.97239434 237.92022433 468.30078125 243.421875 C466.7666275 246.4625401 464.93075042 249.19729778 463 252 C462.19674419 253.43105642 461.40613921 254.86925231 460.625 256.3125 C458.91147008 259.45135144 457.08356854 262.42518977 455.0625 265.375 C451.66074263 270.38628451 448.83700442 275.6544864 446 281 C442.07100384 288.3612227 437.92414974 295.56958544 433.66845703 302.74511719 C431.39982276 306.58093933 429.2016249 310.43064146 427.125 314.375 C424.34908496 319.56992671 421.17715693 324.48288904 418 329.4375 C413.51228796 336.43912994 409.4498276 343.41945777 406 351 C403.70703125 350.8046875 403.70703125 350.8046875 401 350 C399.19921875 347.8203125 399.19921875 347.8203125 397.6875 345.125 C397.17574219 344.24070312 396.66398437 343.35640625 396.13671875 342.4453125 C395 340 395 340 395 337 C394.34 337 393.68 337 393 337 C392.70609375 336.44957031 392.4121875 335.89914062 392.109375 335.33203125 C388.00097096 327.71731686 383.70660511 320.21447853 379.39892578 312.71118164 C376.74841067 308.08706367 374.13549855 303.45220363 371.625 298.75 C369.42570738 294.65633143 366.93988264 290.84158634 364.32421875 287.00390625 C361.9265282 283.37554267 360 280.3909231 360 276 C359.34 276 358.68 276 358 276 C357.3490741 274.75264433 356.70448331 273.50198168 356.0625 272.25 C355.70285156 271.55390625 355.34320313 270.8578125 354.97265625 270.140625 C354.04441818 268.09775567 353.46833422 266.18884624 353 264 C352.34 264 351.68 264 351 264 C350.45472656 262.98292969 350.45472656 262.98292969 349.8984375 261.9453125 C347.36323517 257.25193792 344.79356808 252.60759092 342 248.0625 C339.91588669 244.63362463 338.06252074 241.17285797 336.3125 237.5625 C333.55972317 231.94741941 330.50897957 226.53578905 327.375 221.125 C326.67370972 219.91179077 326.67370972 219.91179077 325.95825195 218.67407227 C323.9572374 215.24198166 321.94409359 211.87179652 319.6640625 208.6171875 C318 206 318 206 318 203 C317.34 203 316.68 203 316 203 C315.45472656 201.87464844 315.45472656 201.87464844 314.8984375 200.7265625 C311.5666621 193.9434095 308.00013929 187.41157078 304 181 C299.4267006 187.82365307 295.06997632 194.59124914 291.5 202 C288.78724186 207.62063345 285.70185556 212.75846962 282.2722168 217.95214844 C279.39301723 222.32739663 276.8454404 226.8007874 274.39453125 231.42578125 C273.00789418 233.98542784 271.52529105 236.45840938 270 238.9375 C266.64788893 244.45396624 263.82759727 250.20223754 261 256 C260.00186176 258.0009298 259.00236476 260.00118413 258 262 C257.34 262 256.68 262 256 262 C255.9175 262.515625 255.835 263.03125 255.75 263.5625 C254.6660882 267.08521334 252.95092643 269.86669392 251 273 C250.34 273.33 249.68 273.66 249 274 C248.72671875 274.85335938 248.4534375 275.70671875 248.171875 276.5859375 C246.75017208 280.72783201 244.63835041 283.98233607 242.25 287.625 C238.60068505 293.31607695 235.36010227 299.02801449 232.4296875 305.12890625 C230.3685731 309.26802943 228.01371655 313.21576638 225.65625 317.19140625 C224.20706581 319.64886718 222.8090339 322.123709 221.4375 324.625 C219.69279464 327.79407138 217.87174901 330.90423192 216 334 C210.86315219 342.19333715 210.86315219 342.19333715 207 351 C205.02 351 203.04 351 201 351 C200.4740625 349.63875 200.4740625 349.63875 199.9375 348.25 C197.91272028 343.45343444 195.14121003 339.10201553 192.42578125 334.671875 C191 332 191 332 191 329 C190.34 329 189.68 329 189 329 C187.93602429 327.37342892 186.94731122 325.697168 186 324 C185.47019531 323.15179688 184.94039062 322.30359375 184.39453125 321.4296875 C183.87246094 320.58664062 183.35039062 319.74359375 182.8125 318.875 C182.28269531 318.02679688 181.75289062 317.17859375 181.20703125 316.3046875 C180 314 180 314 180 311 C179.34 311 178.68 311 178 311 C177.15885829 309.56705502 176.32734313 308.12845595 175.5 306.6875 C175.0359375 305.88699219 174.571875 305.08648437 174.09375 304.26171875 C173 302 173 302 173 299 C172.34 299 171.68 299 171 299 C170.46375 297.88625 169.9275 296.7725 169.375 295.625 C167.29661926 291.46089441 164.93952664 287.50858973 162.52734375 283.53125 C161.03357842 281.05564914 159.56258532 278.57114747 158.125 276.0625 C157.71507812 275.35222656 157.30515625 274.64195312 156.8828125 273.91015625 C156 272 156 272 156 269 C155.34 269 154.68 269 154 269 C153.6596875 268.35675781 153.319375 267.71351563 152.96875 267.05078125 C150.11064266 261.72223538 147.12682006 256.51301277 143.9375 251.375 C141.57634625 247.56814942 139.22741852 243.76193996 137 239.875 C136.4121875 238.85019531 136.4121875 238.85019531 135.8125 237.8046875 C135 236 135 236 135 233 C134.34 233 133.68 233 133 233 C132.63648438 232.23816406 132.27296875 231.47632813 131.8984375 230.69140625 C129.50374397 225.77307414 127.12964139 220.99575469 124 216.5 C121.72067529 213.21942154 119.91487242 209.91476148 118.1875 206.3125 C115.59521429 200.96463499 112.57184805 196.08838222 109.31494141 191.13525391 C106.52365574 186.87153868 104.04014164 182.52904104 101.65234375 178.03125 C99.5626116 174.19760426 97.34844377 170.44472755 95.125 166.6875 C88.25815645 155.05511373 88.25815645 155.05511373 85.4375 150.1875 C84.47650391 148.53814453 84.47650391 148.53814453 83.49609375 146.85546875 C82.25616072 144.4889125 81.46083728 142.60720269 81 140 C80.34 140 79.68 140 79 140 C75 133.375 75 133.375 75 130 C74.34 130 73.68 130 73 130 C72.505 128.96875 72.01 127.9375 71.5 126.875 C69.25780056 122.39060113 66.78451653 118.05184331 64.27978516 113.7097168 C62.39276238 110.43792558 60.52425064 107.15798138 58.69140625 103.85546875 C55.03637031 97.27594315 51.4224844 90.80499881 46.99609375 84.69921875 C46 83 46 83 46 80 C45.01 79.67 44.02 79.34 43 79 C41.5841351 76.08961104 40.70077733 73.153498 40 70 C39.34 70 38.68 70 38 70 C37.46761719 68.906875 36.93523438 67.81375 36.38671875 66.6875 C33.717334 61.35107514 30.76602223 56.18292169 27.8125 51 C26.6575006 48.96357087 25.50255297 46.92711237 24.34765625 44.890625 C22.74403355 42.06795673 21.13973926 39.24567289 19.53466797 36.42382812 C18.27089604 34.20046645 17.01017146 31.9754036 15.75 29.75 C15.37979736 29.10160156 15.00959473 28.45320313 14.62817383 27.78515625 C13.16868705 25.20543555 11.94041004 22.82123013 11 20 C10.34 20 9.68 20 9 20 C8.60167969 19.18015625 8.20335937 18.3603125 7.79296875 17.515625 C7.26316406 16.43796875 6.73335937 15.3603125 6.1875 14.25 C5.66542969 13.18265625 5.14335937 12.1153125 4.60546875 11.015625 C3.13994732 8.04388904 3.13994732 8.04388904 1.30078125 5.859375 C0 4 0 4 0 0 Z " fill="#FE7E00" transform="translate(9,25)"/>
<path d="M0 0 C0.94513458 -0.00137466 1.89026917 -0.00274933 2.86404419 -0.00416565 C3.90413635 -0.00057037 4.94422852 0.0030249 6.01583862 0.00672913 C7.10853058 0.0065831 8.20122253 0.00643707 9.32702637 0.00628662 C12.95232096 0.00698538 16.57756468 0.01477609 20.20285034 0.02259827 C22.71105928 0.02446258 25.21926859 0.02588642 27.72747803 0.02688599 C33.66313583 0.03031891 39.59877721 0.03820688 45.53442657 0.04823548 C52.95384581 0.06049947 60.37326731 0.06587822 67.79269409 0.07142639 C81.03098468 0.08216192 94.2692601 0.0990458 107.50753784 0.12025452 C106.29365652 3.86078836 105.0484215 7.21817421 103.07003784 10.62025452 C101.09755094 14.06918872 99.24845612 17.54679069 97.50753784 21.12025452 C96.84753784 21.12025452 96.18753784 21.12025452 95.50753784 21.12025452 C95.22990601 21.84986389 94.95227417 22.57947327 94.66622925 23.33119202 C93.58378918 25.93671148 92.36892186 28.29920261 90.96847534 30.74525452 C90.47428101 31.61029602 89.98008667 32.47533752 89.47091675 33.36659241 C88.94675171 34.2753009 88.42258667 35.1840094 87.88253784 36.12025452 C87.07502075 37.52875671 87.07502075 37.52875671 86.25119019 38.9657135 C83.29720163 44.09569811 80.27695526 49.1675306 77.13253784 54.18275452 C74.13708476 58.97424929 71.60345251 63.86348383 69.14035034 68.94447327 C66.55155253 73.97962307 63.57653194 78.77166703 60.63253784 83.60462952 C58.13509156 87.70947473 55.78814436 91.89139118 53.50753784 96.12025452 C52.84753784 96.12025452 52.18753784 96.12025452 51.50753784 96.12025452 C51.10438354 97.43582336 51.10438354 97.43582336 50.69308472 98.77796936 C49.560561 101.97077201 48.22437127 104.66579788 46.53878784 107.59681702 C45.96773315 108.59712952 45.39667847 109.59744202 44.80831909 110.62806702 C44.21406128 111.65673889 43.61980347 112.68541077 43.00753784 113.74525452 C41.82967195 115.79949351 40.65255774 117.85416373 39.47628784 119.90931702 C38.95486206 120.81375549 38.43343628 121.71819397 37.89620972 122.65003967 C36.69865398 124.7802909 35.57625446 126.92323456 34.50753784 129.12025452 C33.84753784 129.12025452 33.18753784 129.12025452 32.50753784 129.12025452 C32.21878784 130.29587952 31.93003784 131.47150452 31.63253784 132.68275452 C29.76580711 138.42020633 26.42020777 143.07262691 23.00021362 147.97792053 C21.11749193 150.68017578 19.55554471 152.97623393 18.50753784 156.12025452 C17.84753784 156.12025452 17.18753784 156.12025452 16.50753784 156.12025452 C16.32384644 156.97877014 16.32384644 156.97877014 16.13644409 157.85462952 C15.47990916 160.21978643 14.57030272 162.19232249 13.44503784 164.37025452 C13.08281128 165.07666077 12.72058472 165.78306702 12.34738159 166.51087952 C12.07023315 167.04197327 11.79308472 167.57306702 11.50753784 168.12025452 C10.84753784 168.12025452 10.18753784 168.12025452 9.50753784 168.12025452 C9.41859253 168.64490295 9.32964722 169.16955139 9.23800659 169.71009827 C8.246683 172.980936 6.54916409 175.75987836 4.82003784 178.68275452 C4.08600624 179.94261312 3.35294217 181.20303589 2.62081909 182.46400452 C2.25939819 183.08533264 1.89797729 183.70666077 1.52560425 184.34681702 C0.13680583 186.76605724 -1.17886631 189.22202401 -2.49246216 191.68275452 C-5.31008424 196.89688669 -8.423159 201.90288883 -11.55496216 206.93275452 C-13.81924512 210.65786519 -15.87685839 214.46767029 -17.92996216 218.31166077 C-19.68311744 221.46295738 -21.57508951 224.50375756 -23.49246216 227.55775452 C-26.73165091 232.75034718 -29.52006782 238.04047885 -32.19168091 243.54212952 C-33.72583466 246.58279461 -35.56171174 249.31755229 -37.49246216 252.12025452 C-38.29571796 253.55131093 -39.08632295 254.98950683 -39.86746216 256.43275452 C-41.58099208 259.57160595 -43.40889361 262.54544429 -45.42996216 265.49525452 C-48.83171953 270.50653903 -51.65545774 275.77474092 -54.49246216 281.12025452 C-58.42145832 288.48147721 -62.56831242 295.68983995 -66.82400513 302.8653717 C-69.0926394 306.70119385 -71.29083725 310.55089597 -73.36746216 314.49525452 C-76.14337719 319.69018123 -79.31530523 324.60314355 -82.49246216 329.55775452 C-86.9801742 336.55938446 -91.04263456 343.53971229 -94.49246216 351.12025452 C-96.78543091 350.92494202 -96.78543091 350.92494202 -99.49246216 350.12025452 C-101.29324341 347.94056702 -101.29324341 347.94056702 -102.80496216 345.24525452 C-103.31671997 344.36095764 -103.82847778 343.47666077 -104.35574341 342.56556702 C-105.49246216 340.12025452 -105.49246216 340.12025452 -105.49246216 337.12025452 C-106.15246216 337.12025452 -106.81246216 337.12025452 -107.49246216 337.12025452 C-107.93332153 336.29460999 -107.93332153 336.29460999 -108.38308716 335.45228577 C-112.4914912 327.83757138 -116.78585705 320.33473304 -121.09353638 312.83143616 C-123.74405148 308.20731819 -126.35696361 303.57245815 -128.86746216 298.87025452 C-131.06675478 294.77658595 -133.55257952 290.96184085 -136.16824341 287.12416077 C-138.56593396 283.49579718 -140.49246216 280.51117762 -140.49246216 276.12025452 C-141.15246216 276.12025452 -141.81246216 276.12025452 -142.49246216 276.12025452 C-143.14338805 274.87289884 -143.78797885 273.6222362 -144.42996216 272.37025452 C-144.7896106 271.67416077 -145.14925903 270.97806702 -145.51980591 270.26087952 C-146.44804398 268.21801019 -147.02412794 266.30910075 -147.49246216 264.12025452 C-148.15246216 264.12025452 -148.81246216 264.12025452 -149.49246216 264.12025452 C-149.85597778 263.44220764 -150.21949341 262.76416077 -150.59402466 262.06556702 C-153.12922699 257.37219244 -155.69889408 252.72784544 -158.49246216 248.18275452 C-160.57657547 244.75387914 -162.42994142 241.29311249 -164.17996216 237.68275452 C-166.93273899 232.06767392 -169.98348259 226.65604356 -173.11746216 221.24525452 C-173.58498901 220.43644836 -174.05251587 219.62764221 -174.53421021 218.79432678 C-176.53522475 215.36223618 -178.54836857 211.99205104 -180.82839966 208.73744202 C-182.49246216 206.12025452 -182.49246216 206.12025452 -182.49246216 203.12025452 C-183.15246216 203.12025452 -183.81246216 203.12025452 -184.49246216 203.12025452 C-184.85597778 202.37002014 -185.21949341 201.61978577 -185.59402466 200.84681702 C-188.12460804 195.69480879 -190.67455014 190.7694182 -193.86746216 185.99525452 C-196.88760182 181.01481313 -197.75013102 176.84762424 -196.49246216 171.12025452 C-195.10498411 167.91141354 -193.4492874 165.01356041 -191.49246216 162.12025452 C-190.83246216 162.12025452 -190.17246216 162.12025452 -189.49246216 162.12025452 C-189.30683716 161.00650452 -189.30683716 161.00650452 -189.11746216 159.87025452 C-188.53759515 157.31883967 -187.75537477 155.39349721 -186.49246216 153.12025452 C-185.83246216 153.12025452 -185.17246216 153.12025452 -184.49246216 153.12025452 C-184.49246216 152.13025452 -184.49246216 151.14025452 -184.49246216 150.12025452 C-183.83246216 150.12025452 -183.17246216 150.12025452 -182.49246216 150.12025452 C-182.39320435 149.57498108 -182.29394653 149.02970764 -182.19168091 148.46791077 C-181.31124811 145.51182075 -179.89810515 143.19892534 -178.30496216 140.55775452 C-175.93332575 136.57437336 -173.62545658 132.57840948 -171.42996216 128.49525452 C-169.54152797 124.99388715 -167.57398712 121.5726666 -165.49246216 118.18275452 C-163.37667269 114.72153994 -161.58019082 111.23361077 -159.86746216 107.55775452 C-152.81877562 93.27777297 -142.1665339 80.93325567 -131.93386841 68.85267639 C-130.6528055 67.3129707 -129.42759616 65.7271764 -128.21121216 64.13587952 C-127.36043091 63.13814514 -127.36043091 63.13814514 -126.49246216 62.12025452 C-125.83246216 62.12025452 -125.17246216 62.12025452 -124.49246216 62.12025452 C-124.49246216 61.46025452 -124.49246216 60.80025452 -124.49246216 60.12025452 C-123.16433716 58.74525452 -123.16433716 58.74525452 -121.24246216 57.12025452 C-120.52316528 56.51052795 -119.80386841 55.90080139 -119.06277466 55.27259827 C-118.21457153 54.56232483 -117.36636841 53.85205139 -116.49246216 53.12025452 C-115.44764064 52.22636654 -114.40339873 51.33180076 -113.35964966 50.43666077 C-112.27938596 49.5181443 -111.1986586 48.60017286 -110.11746216 47.68275452 C-109.59378052 47.23351624 -109.07009888 46.78427795 -108.5305481 46.32142639 C-104.72140172 43.12025452 -104.72140172 43.12025452 -102.49246216 43.12025452 C-102.49246216 42.46025452 -102.49246216 41.80025452 -102.49246216 41.12025452 C-100.84246216 40.46025452 -99.19246216 39.80025452 -97.49246216 39.12025452 C-97.49246216 38.46025452 -97.49246216 37.80025452 -97.49246216 37.12025452 C-95.9704895 35.90272522 -95.9704895 35.90272522 -93.82839966 34.54603577 C-93.04271606 34.04652405 -92.25703247 33.54701233 -91.44754028 33.03236389 C-90.5961145 32.5044928 -89.74468872 31.9766217 -88.86746216 31.43275452 C-88.00314575 30.89328186 -87.13882935 30.3538092 -86.24832153 29.79798889 C-76.59141803 23.84373233 -66.7985159 18.62163482 -55.99246216 15.04212952 C-53.38367345 14.13993461 -53.38367345 14.13993461 -50.64089966 12.63587952 C-47.17177045 10.96587687 -43.85216195 10.04430395 -40.11746216 9.12025452 C-36.04369659 8.08820752 -32.02714353 7.0559741 -28.11746216 5.49525452 C-21.66332075 3.04713191 -15.19860062 1.95905661 -8.34011841 1.36634827 C-5.30564601 0.96217964 -3.20727472 -0.00358756 0 0 Z " fill="#00A2DE" transform="translate(509.4924621582031,24.879745483398438)"/>
<path d="M0 0 C36.63 0 73.26 0 111 0 C109.63955824 4.08132528 108.63379494 6.93814702 106.5625 10.5 C104.59001309 13.9489342 102.74091828 17.42653617 101 21 C100.34 21 99.68 21 99 21 C98.72236816 21.72960937 98.44473633 22.45921875 98.15869141 23.2109375 C97.07625133 25.81645697 95.86138402 28.1789481 94.4609375 30.625 C93.96674316 31.4900415 93.47254883 32.35508301 92.96337891 33.24633789 C92.43921387 34.15504639 91.91504883 35.06375488 91.375 36 C90.83665527 36.93900146 90.29831055 37.87800293 89.74365234 38.84545898 C86.78966379 43.9754436 83.76941742 49.04727609 80.625 54.0625 C77.62954691 58.85399477 75.09591466 63.74322931 72.6328125 68.82421875 C70.04401469 73.85936855 67.06899409 78.65141251 64.125 83.484375 C61.62755372 87.58922022 59.28060652 91.77113666 57 96 C56.34 96 55.68 96 55 96 C54.5968457 97.31556885 54.5968457 97.31556885 54.18554688 98.65771484 C53.05302316 101.8505175 51.71683342 104.54554336 50.03125 107.4765625 C49.46019531 108.476875 48.88914062 109.4771875 48.30078125 110.5078125 C47.70652344 111.53648437 47.11226562 112.56515625 46.5 113.625 C45.32213411 115.67923899 44.1450199 117.73390922 42.96875 119.7890625 C42.44732422 120.69350098 41.92589844 121.59793945 41.38867188 122.52978516 C40.19111614 124.66003638 39.06871662 126.80298005 38 129 C37.34 129 36.68 129 36 129 C35.71125 130.175625 35.4225 131.35125 35.125 132.5625 C33.25826927 138.29995182 29.91266993 142.9523724 26.49267578 147.85766602 C24.60995409 150.55992127 23.04800686 152.85597941 22 156 C21.34 156 20.68 156 20 156 C19.87753906 156.57234375 19.75507812 157.1446875 19.62890625 157.734375 C18.97237132 160.09953191 18.06276488 162.07206797 16.9375 164.25 C16.57527344 164.95640625 16.21304688 165.6628125 15.83984375 166.390625 C15.42412109 167.18726563 15.42412109 167.18726563 15 168 C14.34 168 13.68 168 13 168 C12.91105469 168.52464844 12.82210937 169.04929688 12.73046875 169.58984375 C11.73914516 172.86068149 10.04162625 175.63962384 8.3125 178.5625 C7.5784684 179.8223586 6.84540433 181.08278138 6.11328125 182.34375 C5.75186035 182.96507812 5.39043945 183.58640625 5.01806641 184.2265625 C3.62926799 186.64580272 2.31359585 189.10176949 1 191.5625 C-2.975654 198.91309104 -7.36498109 206.04747163 -12 213 C-13.32 213 -14.64 213 -16 213 C-16.23847656 213.55816406 -16.47695313 214.11632812 -16.72265625 214.69140625 C-18.28526902 217.51557796 -20.230068 219.58508068 -22.4375 221.9375 C-24.73604331 224.38751239 -26.76790247 226.60537263 -28.47265625 229.50390625 C-30.28913337 232.47252231 -32.53159499 234.54985242 -35 237 C-36.83920454 239.24876944 -38.5482251 241.58364886 -40.25 243.9375 C-40.72236084 244.58702637 -41.19472168 245.23655273 -41.68139648 245.90576172 C-49.80019418 256.75638007 -49.80019418 256.75638007 -56.05859375 268.6484375 C-57 271 -57 271 -58.50390625 272.98046875 C-60.2516086 275.33963877 -61.0201963 277.52909351 -61.9375 280.3125 C-63.53724584 284.92026216 -65.42715875 288.86507657 -68 293 C-68.66 293 -69.32 293 -70 293 C-69.44687265 288.97007218 -68.8441938 284.97977076 -68 281 C-67.34 281 -66.68 281 -66 281 C-65.938125 279.741875 -65.87625 278.48375 -65.8125 277.1875 C-65.20916269 271.02296658 -63.56773004 265.21584933 -61.94750977 259.25927734 C-59.61585943 250.67414251 -57.40728233 242.04010305 -56.375 233.1875 C-56 230 -56 230 -55 229 C-54.7834375 227.4221875 -54.7834375 227.4221875 -54.5625 225.8125 C-54 222 -54 222 -53.0546875 219.23046875 C-51.49879811 214.46483717 -50.75546023 209.5849878 -49.87890625 204.65625 C-49.00792891 201.03298425 -47.6966063 198.29775138 -46 195 C-44.34180012 190.12031417 -43.74024104 185.7633319 -43.5625 180.625 C-43.27299057 175.29276264 -42.6268859 170.83991831 -40.69921875 165.875 C-39.74059678 163.30439361 -39.34775363 160.71247829 -39 158 C-38.34 158 -37.68 158 -37 158 C-37.04125 157.21625 -37.0825 156.4325 -37.125 155.625 C-36.84128448 147.39724979 -34.64722316 138.83871802 -32 131.0625 C-30.92993995 127.7854411 -30.18001562 124.51742896 -29.46484375 121.1484375 C-29.01872993 119.08656692 -28.52248388 117.04369799 -28 115 C-27.34 115 -26.68 115 -26 115 C-26.04640625 114.08347656 -26.0928125 113.16695313 -26.140625 112.22265625 C-26.13521555 106.83620116 -24.88317096 101.68015684 -23.75 96.4375 C-23.52328613 95.36846436 -23.29657227 94.29942871 -23.06298828 93.19799805 C-21.59593512 86.40579927 -19.91698659 79.75231117 -17.90234375 73.1015625 C-16.66655885 68.85388627 -15.72857766 64.55610738 -14.80859375 60.23046875 C-14.16300096 57.65121639 -13.41291003 55.24553116 -12.5390625 52.7421875 C-10.88282259 47.87860967 -9.87537455 42.98195283 -8.9375 37.9375 C-7.79315587 31.90326769 -6.54646018 25.94528023 -5 20 C-4.34 20 -3.68 20 -3 20 C-2.814375 18.1128125 -2.814375 18.1128125 -2.625 16.1875 C-1.97113597 10.76042858 -0.97784485 5.37814669 0 0 Z " fill="#0077E2" transform="translate(506,25)"/>
<path d="M0 0 C36.63 0 73.26 0 111 0 C113.25 10.125 113.25 10.125 113 15 C113.66 15 114.32 15 115 15 C116.85339465 20.69256929 117.7184302 26.37836131 118.53515625 32.3046875 C118.71772372 34.90993824 118.71772372 34.90993824 120 36 C120.49230228 38.35178138 120.94494629 40.69931686 121.375 43.0625 C122.52196128 49.18876944 122.52196128 49.18876944 124.5625 55.0625 C126.45352319 59.59510712 126.7857518 64.31636406 127.40625 69.15625 C128.13371514 73.86562959 129.2568905 78.39891836 130.46191406 83.00415039 C131.96810123 88.76918736 133.20780542 94.56046596 134.38671875 100.40234375 C134.73960526 102.91484299 134.73960526 102.91484299 136 104 C136.23527773 106.34987262 136.41386417 108.70556039 136.5625 111.0625 C136.64628906 112.35285156 136.73007813 113.64320313 136.81640625 114.97265625 C136.87699219 115.97167969 136.93757812 116.97070312 137 118 C137.66 118 138.32 118 139 118 C139.1451001 118.60545654 139.2902002 119.21091309 139.43969727 119.8347168 C140.69521474 125.07247939 141.95228955 130.30986374 143.2109375 135.546875 C144.27358728 139.96928684 145.33278661 144.39248983 146.38691711 148.81694031 C147.15168044 152.02429505 147.92001149 155.23079645 148.6875 158.4375 C148.97246338 159.63785889 149.25742676 160.83821777 149.55102539 162.07495117 C150.78394993 167.21447798 152.05483928 172.30923928 153.6171875 177.359375 C154.89481112 181.49914461 155.72873047 185.53787137 156.4375 189.8125 C157.49876895 195.91605902 158.99565758 201.68229247 161.03515625 207.546875 C161.88745698 210.59721447 162.44464761 213.50295339 162.94140625 216.625 C163.94303358 222.91983133 165.34945139 229.06396824 166.875 235.25 C167.13893555 236.33321533 167.40287109 237.41643066 167.67480469 238.5324707 C168.44555237 241.68939124 169.22239158 244.84476371 170 248 C170.40387434 249.65489217 170.80754393 251.30983432 171.2109375 252.96484375 C172.92860964 260.08506052 172.92860964 260.08506052 175.04296875 267.09375 C177.47018959 274.46457574 178.24324263 282.30630012 179 290 C178.34 290 177.68 290 177 290 C174.96564469 286.27034861 174 284.33094958 174 280 C173.34 280 172.68 280 172 280 C171.01 277.03 170.02 274.06 169 271 C168.34 271 167.68 271 167 271 C166.5875 269.98550781 166.175 268.97101563 165.75 267.92578125 C164.12967822 264.1497849 162.15334108 260.69075756 160 257.1875 C159.319375 256.06730469 158.63875 254.94710937 157.9375 253.79296875 C156.12886534 250.82050381 156.12886534 250.82050381 153 249 C152.03515625 247.328125 152.03515625 247.328125 151.0625 245.25 C147.20286676 237.98825843 141.43200145 232.10699503 136 226 C134.68632314 224.50103057 133.37357142 223.00124881 132.0625 221.5 C131.26779297 220.60087891 131.26779297 220.60087891 130.45703125 219.68359375 C129.00862404 218.00996504 127.63002994 216.29262603 126.25 214.5625 C124.19144128 211.78368524 124.19144128 211.78368524 121 211 C119.63489835 208.89299528 118.42859953 206.83249443 117.25 204.625 C116.54134802 203.33858207 115.83037915 202.05343794 115.1171875 200.76953125 C114.76237305 200.12967285 114.40755859 199.48981445 114.04199219 198.83056641 C112.58003198 196.26220238 110.98745525 193.78851462 109.375 191.3125 C106.60304641 187.02064377 104.13166008 182.63994991 101.72265625 178.13671875 C99.60077963 174.27307493 97.36909804 170.48107417 95.125 166.6875 C88.24224268 155.02765128 88.24224268 155.02765128 85.4375 150.1875 C84.47650391 148.53814453 84.47650391 148.53814453 83.49609375 146.85546875 C82.25616072 144.4889125 81.46083728 142.60720269 81 140 C80.34 140 79.68 140 79 140 C75 133.375 75 133.375 75 130 C74.34 130 73.68 130 73 130 C72.505 128.96875 72.01 127.9375 71.5 126.875 C69.25780056 122.39060113 66.78451653 118.05184331 64.27978516 113.7097168 C62.39276238 110.43792558 60.52425064 107.15798138 58.69140625 103.85546875 C55.03637031 97.27594315 51.4224844 90.80499881 46.99609375 84.69921875 C46 83 46 83 46 80 C45.01 79.67 44.02 79.34 43 79 C41.5841351 76.08961104 40.70077733 73.153498 40 70 C39.34 70 38.68 70 38 70 C37.46761719 68.906875 36.93523438 67.81375 36.38671875 66.6875 C33.717334 61.35107514 30.76602223 56.18292169 27.8125 51 C26.6575006 48.96357087 25.50255297 46.92711237 24.34765625 44.890625 C22.74403355 42.06795673 21.13973926 39.24567289 19.53466797 36.42382812 C18.27089604 34.20046645 17.01017146 31.9754036 15.75 29.75 C15.37979736 29.10160156 15.00959473 28.45320313 14.62817383 27.78515625 C13.16868705 25.20543555 11.94041004 22.82123013 11 20 C10.34 20 9.68 20 9 20 C8.60167969 19.18015625 8.20335937 18.3603125 7.79296875 17.515625 C7.26316406 16.43796875 6.73335937 15.3603125 6.1875 14.25 C5.66542969 13.18265625 5.14335937 12.1153125 4.60546875 11.015625 C3.13994732 8.04388904 3.13994732 8.04388904 1.30078125 5.859375 C0 4 0 4 0 0 Z " fill="#F71521" transform="translate(9,25)"/>
<path d="M0 0 C4.54643628 1.5581683 6.68780293 5.1276396 9.375 8.875 C9.86540771 9.55191895 10.35581543 10.22883789 10.86108398 10.92626953 C14.2310608 15.67723768 16.95189546 20.50060408 19.421875 25.78125 C24.71223059 36.57148021 31.35658383 46.7515295 37.9921875 56.75390625 C39.80548594 59.68552298 41.32718267 62.60930166 42.83496094 65.69995117 C45.27621723 70.51953951 48.0124458 75.18254613 50.6875 79.875 C51.85846291 81.93467417 53.02905515 83.99455912 54.19921875 86.0546875 C54.71315186 86.95687012 55.22708496 87.85905273 55.7565918 88.78857422 C58.0314708 92.83449097 58.35148807 95.27443819 58 100 C56.53125 103.21875 56.53125 103.21875 54.5 106.5 C53.75681165 107.72777562 53.0160003 108.95699262 52.27734375 110.1875 C51.70669189 111.12916016 51.70669189 111.12916016 51.12451172 112.08984375 C49.31526686 115.16312463 47.70031802 118.33316718 46.0625 121.5 C43.07380998 127.21092923 39.76310538 132.62032247 36.22167969 138.00292969 C33.36579912 142.36242766 30.8333857 146.82353525 28.39453125 151.42578125 C27.00789418 153.98542784 25.52529105 156.45840938 24 158.9375 C20.64788893 164.45396624 17.82759727 170.20223754 15 176 C14.00186176 178.0009298 13.00236476 180.00118413 12 182 C11.34 182 10.68 182 10 182 C9.9175 182.515625 9.835 183.03125 9.75 183.5625 C8.6660882 187.08521334 6.95092643 189.86669392 5 193 C4.34 193.33 3.68 193.66 3 194 C2.72671875 194.85335937 2.4534375 195.70671875 2.171875 196.5859375 C0.75017208 200.72783201 -1.36164959 203.98233607 -3.75 207.625 C-7.39931495 213.31607695 -10.63989773 219.02801449 -13.5703125 225.12890625 C-15.6314269 229.26802943 -17.98628345 233.21576638 -20.34375 237.19140625 C-21.79293419 239.64886718 -23.1909661 242.123709 -24.5625 244.625 C-26.30720536 247.79407138 -28.12825099 250.90423192 -30 254 C-35.13684781 262.19333715 -35.13684781 262.19333715 -39 271 C-40.98 271 -42.96 271 -45 271 C-45.37125 270.071875 -45.7425 269.14375 -46.125 268.1875 C-47.08504234 265.86770758 -48.10217954 263.8428169 -49.47377014 261.7328949 C-54.54731537 253.76417853 -54.80829168 246.54958547 -54.62109375 237.41015625 C-54.61241693 235.93331639 -54.60628404 234.45645964 -54.60255432 232.979599 C-54.58547163 229.12551168 -54.53155401 225.27279156 -54.47027588 221.41918945 C-54.42645159 218.26808469 -54.40908012 215.11708814 -54.39300442 211.96573734 C-54.37340174 208.19713322 -54.34290584 204.42865261 -54.30859375 200.66015625 C-54.30216795 199.94559832 -54.29574215 199.23104038 -54.28912163 198.49482918 C-54.26810006 196.4731284 -54.23861018 194.45152104 -54.20874023 192.42993164 C-54.19286362 191.28174454 -54.176987 190.13355743 -54.16062927 188.95057678 C-54.02398282 186.44053705 -53.66762317 184.40147712 -53 182 C-52.81822556 179.55725035 -52.68100803 177.11106359 -52.5703125 174.6640625 C-52.49653045 173.19138431 -52.42229619 171.71872871 -52.34765625 170.24609375 C-52.23539754 167.9518368 -52.12642816 165.65759435 -52.02587891 163.36279297 C-51.62040922 154.28225 -50.80219944 145.73883515 -48.67163086 136.8762207 C-48.09790293 134.41926369 -47.70196321 132.06701715 -47.4375 129.5625 C-47 126 -47 126 -46.0625 122.7734375 C-44.97117299 118.89762173 -44.23710875 115.024819 -43.5625 111.0625 C-42.69899936 106.18502301 -41.65264477 101.70181046 -39.6953125 97.1484375 C-38.01947278 91.97028105 -37.64310088 86.3869156 -37 81 C-36.34 81 -35.68 81 -35 81 C-34.27005441 77.40288072 -33.59025242 73.79939671 -32.9375 70.1875 C-32.76089844 69.21167969 -32.58429688 68.23585938 -32.40234375 67.23046875 C-32.26957031 66.49441406 -32.13679688 65.75835937 -32 65 C-31.34 65 -30.68 65 -30 65 C-30.0825 64.319375 -30.165 63.63875 -30.25 62.9375 C-29.97194152 59.67031281 -28.8719616 57.74820893 -27.0703125 55.0390625 C-25.84704216 52.87859396 -25.84704216 52.87859396 -25.09375 49.80078125 C-23.86187597 45.52001899 -22.20830071 41.61275377 -20.375 37.5625 C-20.02381104 36.78189209 -19.67262207 36.00128418 -19.31079102 35.19702148 C-6.1192837 6.1192837 -6.1192837 6.1192837 0 0 Z " fill="#FDCD00" transform="translate(255,105)"/>
<path d="M0 0 C0.495 0.99 0.495 0.99 1 2 C1.66 2 2.32 2 3 2 C3.495 4.97 3.495 4.97 4 8 C4.66 8 5.32 8 6 8 C7.46234341 10.01558172 8.77305248 12.00283235 10.0625 14.125 C10.42666016 14.69476563 10.79082031 15.26453125 11.16601562 15.8515625 C13.44225184 19.55412788 14.57329735 22.68045625 15 27 C15.66 27 16.32 27 17 27 C17.38671875 27.90621094 17.7734375 28.81242187 18.171875 29.74609375 C21.6650191 37.92427657 21.6650191 37.92427657 25.25 46.0625 C29 54.5 29 54.5 29 59 C29.66 59 30.32 59 31 59 C31.25007813 60.25941406 31.50015625 61.51882812 31.7578125 62.81640625 C32.99246369 68.37233661 34.91702207 73.60269988 36.875 78.9375 C40.04245301 87.75963904 42.48944814 96.4864049 44.30859375 105.67578125 C44.82281418 108.85871895 44.82281418 108.85871895 46 111 C46.64749063 114.27037642 47.08886817 117.57546899 47.5625 120.875 C47.69889893 121.82141357 47.83529785 122.76782715 47.97583008 123.74291992 C48.91004689 130.55751577 49.38469449 137.11824303 49 144 C49.66 144 50.32 144 51 144 C51.06058594 144.98742187 51.12117188 145.97484375 51.18359375 146.9921875 C51.26738281 148.27351562 51.35117187 149.55484375 51.4375 150.875 C51.51871094 152.15117187 51.59992188 153.42734375 51.68359375 154.7421875 C51.79206027 157.88300152 51.79206027 157.88300152 53 160 C54.9604419 171.46602374 55.35272543 182.85320728 55.40625 194.45703125 C55.41473213 195.72178567 55.41473213 195.72178567 55.42338562 197.01209068 C55.45304463 201.45981397 55.4717163 205.90741257 55.48046875 210.35522461 C55.49149763 214.91219464 55.53976717 219.4679876 55.59641266 224.02458668 C55.63382939 227.5687543 55.64408441 231.11263978 55.6471405 234.65698814 C55.65314046 236.33657066 55.6690154 238.01615142 55.69551086 239.69553566 C55.84525454 249.89984262 54.95227722 257.34636443 49 266 C48.35144389 267.21690208 47.72154909 268.44427642 47.125 269.6875 C46.568125 270.8321875 46.568125 270.8321875 46 272 C43.70703125 271.8046875 43.70703125 271.8046875 41 271 C39.19921875 268.8203125 39.19921875 268.8203125 37.6875 266.125 C37.17574219 265.24070312 36.66398437 264.35640625 36.13671875 263.4453125 C35 261 35 261 35 258 C34.34 258 33.68 258 33 258 C32.55914062 257.17435547 32.55914062 257.17435547 32.109375 256.33203125 C28.00097096 248.71731686 23.70660511 241.21447853 19.39892578 233.71118164 C16.74841067 229.08706367 14.13549855 224.45220363 11.625 219.75 C9.42570738 215.65633143 6.93988264 211.84158634 4.32421875 208.00390625 C1.9265282 204.37554267 0 201.3909231 0 197 C-0.66 197 -1.32 197 -2 197 C-2.6509259 195.75264433 -3.29551669 194.50198168 -3.9375 193.25 C-4.29714844 192.55390625 -4.65679687 191.8578125 -5.02734375 191.140625 C-5.95558182 189.09775567 -6.53166578 187.18884624 -7 185 C-7.66 185 -8.32 185 -9 185 C-9.36351562 184.32195312 -9.72703125 183.64390625 -10.1015625 182.9453125 C-12.63676483 178.25193792 -15.20643192 173.60759092 -18 169.0625 C-20.08411331 165.63362463 -21.93747926 162.17285797 -23.6875 158.5625 C-26.44027683 152.94741941 -29.49102043 147.53578905 -32.625 142.125 C-33.09252686 141.31619385 -33.56005371 140.5073877 -34.04174805 139.67407227 C-36.0427626 136.24198166 -38.05590641 132.87179652 -40.3359375 129.6171875 C-42 127 -42 127 -42 124 C-42.66 124 -43.32 124 -44 124 C-44.36351562 123.24976563 -44.72703125 122.49953125 -45.1015625 121.7265625 C-47.63214589 116.57455427 -50.18208798 111.64916369 -53.375 106.875 C-56.39513966 101.89455861 -57.25766886 97.72736972 -56 92 C-54.61252196 88.79115903 -52.95682524 85.89330589 -51 83 C-50.34 83 -49.68 83 -49 83 C-48.87625 82.2575 -48.7525 81.515 -48.625 80.75 C-48.04513299 78.19858515 -47.26291261 76.2732427 -46 74 C-45.34 74 -44.68 74 -44 74 C-44 73.01 -44 72.02 -44 71 C-43.34 71 -42.68 71 -42 71 C-41.90074219 70.45472656 -41.80148437 69.90945312 -41.69921875 69.34765625 C-40.81878595 66.39156624 -39.40564299 64.07867083 -37.8125 61.4375 C-35.44086359 57.45411884 -33.13299442 53.45815496 -30.9375 49.375 C-29.04906581 45.87363264 -27.08152496 42.45241208 -25 39.0625 C-22.88421053 35.60128543 -21.08772866 32.11335625 -19.375 28.4375 C-14.37016529 18.18823744 -7.20608134 8.80934824 0 0 Z " fill="#00E267" transform="translate(369,104)"/>
<path d="M0 0 C0 0.66 0 1.32 0 2 C0.7425 2.268125 1.485 2.53625 2.25 2.8125 C4.89061949 3.95276751 6.85552844 5.09380306 9 7 C9 7.66 9 8.32 9 9 C9.66 9 10.32 9 11 9 C12.625 10.375 12.625 10.375 14 12 C14 12.66 14 13.32 14 14 C14.66 14 15.32 14 16 14 C17.37898043 15.69810754 18.67959478 17.46035459 19.9375 19.25 C20.62714844 20.22453125 21.31679687 21.1990625 22.02734375 22.203125 C23.00380859 23.58757812 23.00380859 23.58757812 24 25 C24.52464844 25.63808594 25.04929687 26.27617187 25.58984375 26.93359375 C27.50108265 29.73427347 28.49719206 32.61935052 29.625 35.8125 C30.26308594 37.58560547 30.26308594 37.58560547 30.9140625 39.39453125 C31.98162669 42.93899798 32.51300353 46.33833789 33 50 C33.33 50.33 33.66 50.66 34 51 C34.1002093 53.27947792 34.13081303 55.56207135 34.1328125 57.84375 C34.13376923 58.52804077 34.13472595 59.21233154 34.13571167 59.9173584 C34.1363933 61.36661877 34.13454023 62.81588218 34.13037109 64.26513672 C34.12502252 66.49062928 34.1303166 68.71592001 34.13671875 70.94140625 C34.13605797 72.34635461 34.1347768 73.75130285 34.1328125 75.15625 C34.13168457 76.44337891 34.13055664 77.73050781 34.12939453 79.05664062 C34 82 34 82 33 83 C32.67454465 84.32549087 32.38998877 85.66110935 32.125 87 C31.25432226 91.10462363 30.07427544 95.00115431 28.68359375 98.95703125 C28.01510257 100.95486489 27.4836134 102.95040034 27 105 C26.34 105 25.68 105 25 105 C24.77699219 105.69222656 24.55398438 106.38445312 24.32421875 107.09765625 C22.68190711 110.69717703 20.38073016 113.47448903 17.8125 116.4375 C17.32144775 117.01008545 16.83039551 117.5826709 16.32446289 118.17260742 C12.82711848 122.1907963 9.28637765 125.80801665 5 129 C4.34 129 3.68 129 3 129 C3 129.66 3 130.32 3 131 C2.01 131 1.02 131 0 131 C0 131.66 0 132.32 0 133 C-0.99 133 -1.98 133 -3 133 C-3 133.66 -3 134.32 -3 135 C-18.48459742 143.47270425 -35.90071915 144.72676634 -53 141 C-58.48979422 139.21463712 -63.42948165 136.51578334 -68 133 C-68 132.34 -68 131.68 -68 131 C-69.65 130.34 -71.3 129.68 -73 129 C-73 128.34 -73 127.68 -73 127 C-73.66 127 -74.32 127 -75 127 C-76.625 125 -76.625 125 -78 123 C-78.97001898 126.25070569 -79.11893058 129.17405321 -79.11010742 132.55957031 C-79.11068649 133.67462952 -79.11126556 134.78968872 -79.11186218 135.9385376 C-79.10975235 137.13960144 -79.10764252 138.34066528 -79.10546875 139.578125 C-79.11892522 142.12631055 -79.13394844 144.67448822 -79.15039062 147.22265625 C-79.17321578 151.23644754 -79.19046445 155.24937089 -79.17504883 159.26318359 C-79.16622242 163.13964588 -79.19516054 167.01434519 -79.23046875 170.890625 C-79.21823776 172.08359192 -79.20600677 173.27655884 -79.19340515 174.50567627 C-79.2911022 181.24806738 -80.08128704 185.45148793 -84.42158508 190.71087646 C-86 192 -86 192 -89 192 C-89 192.66 -89 193.32 -89 194 C-93.8870428 195.5638537 -99.1129572 195.5638537 -104 194 C-104 193.34 -104 192.68 -104 192 C-104.5775 191.731875 -105.155 191.46375 -105.75 191.1875 C-108.11319214 189.9402597 -110.03985403 188.82496349 -112 187 C-113.14647716 182.92076976 -113.13072848 178.94365786 -113.14044189 174.72622681 C-113.14341302 174.00410488 -113.14638414 173.28198294 -113.1494453 172.53797853 C-113.15810114 170.12377724 -113.15963788 167.70962572 -113.16113281 165.29541016 C-113.16576311 163.56220901 -113.17078806 161.82900888 -113.17617798 160.09580994 C-113.18928164 155.39124098 -113.1957427 150.68668627 -113.20018864 145.98210192 C-113.20312201 143.04205541 -113.20722728 140.10201278 -113.21169281 137.16196823 C-113.22536099 127.96065242 -113.23503156 118.75934549 -113.2388947 109.55802023 C-113.24337706 98.94074916 -113.2609361 88.32360672 -113.2898953 77.70637476 C-113.31151269 69.49561411 -113.32159898 61.28488966 -113.32293582 53.07410085 C-113.3239836 48.17167104 -113.32988592 43.26936226 -113.34775543 38.36696243 C-113.36423758 33.75569139 -113.36639092 29.14463237 -113.35761642 24.53334236 C-113.35684619 22.84308746 -113.361187 21.15282114 -113.37107468 19.46259499 C-113.38380358 17.15072527 -113.37791281 14.8396055 -113.36749268 12.52774048 C-113.36895924 11.23542826 -113.3704258 9.94311604 -113.3719368 8.61164284 C-112.68923691 1.98237629 -110.18692699 -2.67756084 -105 -7 C-100.89929274 -9.32742844 -96.62279305 -9.69562029 -92 -9 C-86.33384402 -7.0489731 -82.7706022 -3.21652445 -80 2 C-79.12690947 4.33733611 -78.54864229 6.55604797 -78 9 C-77.34 9 -76.68 9 -76 9 C-75.731875 8.360625 -75.46375 7.72125 -75.1875 7.0625 C-74 5 -74 5 -71 4 C-71 3.34 -71 2.68 -71 2 C-69.35 1.34 -67.7 0.68 -66 0 C-66 -0.66 -66 -1.32 -66 -2 C-45.8849276 -14.6812413 -19.72514832 -11.78930528 0 0 Z M-80 11 C-79 13 -79 13 -79 13 Z M-64 26 C-64 26.66 -64 27.32 -64 28 C-64.598125 28.25523437 -65.19625 28.51046875 -65.8125 28.7734375 C-72.73197912 32.65328829 -76.23064856 41.80943081 -79.1875 48.8125 C-80.16436025 52.64479792 -80.48013415 56.3774403 -80.75390625 60.31640625 C-81 63 -81 63 -81.55078125 65.69921875 C-82.0940541 68.48172054 -81.62857763 70.23425842 -81 73 C-80.979375 74.258125 -80.95875 75.51625 -80.9375 76.8125 C-80.00287137 85.78191989 -74.0510149 97.04987012 -67.83203125 103.54296875 C-56.27918207 112.73105562 -45.27456314 114.20653263 -31 113 C-27.27909678 112.17574929 -24.28940851 110.90001936 -21 109 C-20.22398438 108.5875 -19.44796875 108.175 -18.6484375 107.75 C-8.99261512 102.06630522 -2.92226854 91.64540683 0 81 C2.85653454 64.44508392 1.28160438 48.87917598 -8.5 34.96484375 C-14.16546442 27.54367551 -21.66760954 21.61377798 -31 20 C-42.17856445 19.05890563 -54.66517127 18.84329798 -64 26 Z " fill="#1A2133" transform="translate(1264,134)"/>
<path d="M0 0 C3.19527856 1.50282389 5.77512762 3.23739411 8 6 C8 6.99 8 7.98 8 9 C8.66 9 9.32 9 10 9 C10.11680872 32.86966406 10.20497624 56.73928527 10.25906086 80.60917759 C10.28484094 91.69242978 10.31998791 102.77550438 10.37719727 113.85864258 C10.42703801 123.51886852 10.45929244 133.17896584 10.47044247 142.83931679 C10.47696005 147.95431976 10.49227439 153.06895477 10.52865028 158.1838398 C10.5626202 162.9994903 10.57305089 167.81462169 10.56553841 172.63038063 C10.5669125 174.39644442 10.57683913 176.16252579 10.59602737 177.92848587 C10.62098229 180.34391328 10.61489791 182.75739239 10.60127258 185.17286682 C10.62311889 186.21618372 10.62311889 186.21618372 10.64540654 187.28057772 C10.5619911 192.76786617 8.57768781 196.06218449 5 200 C-0.24695708 204.11361435 -5.61817702 203.58962495 -12 203 C-15.80932373 202.03035396 -17.28431945 201.09111952 -19.4296875 197.8203125 C-22.06698383 192.91821932 -23.63809506 188.54920908 -24 183 C-24.47050781 183.56589844 -24.94101562 184.13179687 -25.42578125 184.71484375 C-26.04839844 185.44832031 -26.67101562 186.18179688 -27.3125 186.9375 C-27.92738281 187.66839844 -28.54226563 188.39929688 -29.17578125 189.15234375 C-31 191 -31 191 -34 192 C-34 192.66 -34 193.32 -34 194 C-47.57192882 204.17186314 -63.26860774 205.24120967 -79.55200195 202.96289062 C-89.1130909 201.45080494 -97.02070029 197.51901563 -105 192 C-105 191.34 -105 190.68 -105 190 C-106.0828125 189.6596875 -106.0828125 189.6596875 -107.1875 189.3125 C-110.58568303 187.72668125 -112.45230999 185.73876676 -115 183 C-115.763125 182.29875 -116.52625 181.5975 -117.3125 180.875 C-123.62299927 174.12423334 -128.90466013 166.74244772 -132 158 C-132.27457031 157.26394531 -132.54914062 156.52789062 -132.83203125 155.76953125 C-137.74671393 140.54127801 -137.89588008 123.60465667 -135 108 C-134.82597656 107.02160156 -134.65195312 106.04320312 -134.47265625 105.03515625 C-130.48231017 87.27420411 -118.81970633 72.9281669 -104 63 C-103.34 63 -102.68 63 -102 63 C-102 62.34 -102 61.68 -102 61 C-101.01 61 -100.02 61 -99 61 C-99 60.34 -99 59.68 -99 59 C-83.42040233 50.47531448 -66.19907321 49.48960601 -49 53 C-45.8093177 54.06500976 -42.93358745 55.36739481 -40 57 C-38.66853406 57.67038845 -37.335689 58.33806563 -36 59 C-36 59.66 -36 60.32 -36 61 C-35.42765625 61.24492187 -34.8553125 61.48984375 -34.265625 61.7421875 C-31.61975598 63.21110099 -29.85146861 64.95348244 -27.75 67.125 C-27.04359375 67.84945312 -26.3371875 68.57390625 -25.609375 69.3203125 C-25.07828125 69.87460938 -24.5471875 70.42890625 -24 71 C-23.99191315 70.31397202 -23.98382629 69.62794403 -23.97549438 68.92112732 C-23.88929114 61.76681298 -23.78978051 54.61277067 -23.68261719 47.45874023 C-23.64332411 44.79045663 -23.60952379 42.1222642 -23.578125 39.45385742 C-23.53234788 35.61358618 -23.47437301 31.7736609 -23.4140625 27.93359375 C-23.40251129 26.74479111 -23.39096008 25.55598846 -23.37905884 24.3311615 C-23.21494232 15.0751315 -22.52370111 8.84193043 -16 2 C-11.08904146 -1.27397236 -5.72700795 -0.7883058 0 0 Z M-90 91 C-95.09665491 96.79636516 -98.78455954 102.61519848 -101 110 C-101.34675781 111.0209375 -101.69351563 112.041875 -102.05078125 113.09375 C-103.37635075 117.7729607 -103.34280646 122.41611951 -103.3125 127.25 C-103.30686035 128.18368408 -103.3012207 129.11736816 -103.29541016 130.0793457 C-103.09599193 141.39978517 -100.47829321 149.67445694 -94 159 C-93.57074219 159.63808594 -93.14148438 160.27617187 -92.69921875 160.93359375 C-88.14959147 166.95950127 -80.90077358 171.5668326 -73.67578125 173.6796875 C-64.0092417 174.8368499 -52.85177615 175.51847988 -44 171 C-43.34257813 170.70609375 -42.68515625 170.4121875 -42.0078125 170.109375 C-33.39534486 165.61882767 -27.02347051 156.07041154 -24 147 C-23.65453125 146.03320312 -23.3090625 145.06640625 -22.953125 144.0703125 C-21.44145822 138.70858633 -21.67113603 133.21524987 -21.6875 127.6875 C-21.67138672 126.61048828 -21.65527344 125.53347656 -21.63867188 124.42382812 C-21.63093417 111.6488691 -25.39982918 102.20166299 -33 92 C-35.47287537 89.56943618 -38.01643793 87.74939784 -41 86 C-41.62132812 85.60296875 -42.24265625 85.2059375 -42.8828125 84.796875 C-57.32707396 75.9177186 -77.92385303 80.30231997 -90 91 Z " fill="#1A2133" transform="translate(785,73)"/>
<path d="M0 0 C1.33098596 0.6713409 2.66374278 1.33921346 4 2 C4 2.66 4 3.32 4 4 C4.99 4 5.98 4 7 4 C7 4.66 7 5.32 7 6 C7.680625 6.20625 8.36125 6.4125 9.0625 6.625 C12.91639375 8.42895027 16.07787764 10.9010345 19 14 C19 14.66 19 15.32 19 16 C19.66 16 20.32 16 21 16 C27.40758548 22.5082941 31.71751596 29.53672791 35 38 C35.52400391 39.28197266 35.52400391 39.28197266 36.05859375 40.58984375 C38.73042421 47.43017318 39.2232588 53.93482351 39.3125 61.1875 C39.33006348 61.95989014 39.34762695 62.73228027 39.36572266 63.52807617 C39.36044073 68.42812193 38.66238661 71.73627572 36 76 C30.49530725 81.13771324 24.5837094 81.30166171 17.4362793 81.31884766 C16.47969925 81.32889328 15.5231192 81.3389389 14.53755188 81.34928894 C11.38311348 81.38012184 8.22875997 81.39715653 5.07421875 81.4140625 C2.88417328 81.43277404 0.69413501 81.45234744 -1.49589539 81.4727478 C-7.25468699 81.52407635 -13.01350197 81.56369833 -18.7723999 81.60089111 C-24.65105984 81.64092612 -30.52962247 81.69202079 -36.40820312 81.7421875 C-47.93873374 81.83895541 -59.46931928 81.92335755 -71 82 C-70.69707031 83.24652344 -70.39414062 84.49304688 -70.08203125 85.77734375 C-69.9116333 86.47851318 -69.74123535 87.17968262 -69.56567383 87.90209961 C-67.88526135 94.13420339 -64.91773813 98.97725881 -61 104 C-60.01 104.495 -60.01 104.495 -59 105 C-59 105.66 -59 106.32 -59 107 C-58.41089844 107.28875 -57.82179688 107.5775 -57.21484375 107.875 C-55.295368 108.84997181 -53.42335128 109.91732289 -51.5625 111 C-40.22237706 116.64898317 -23.99709777 116.6574595 -12 113 C-8.29495775 111.30900117 -4.74290292 109.50150825 -1.1640625 107.55859375 C1.65945562 106.16774964 3.90552865 105.42302698 7 105 C7 104.34 7 103.68 7 103 C14.42857143 102.71428571 14.42857143 102.71428571 18 105 C18 105.66 18 106.32 18 107 C18.66 107 19.32 107 20 107 C23.50173915 111.3098328 23.42198681 114.68296623 23 120 C22 122.5 22 122.5 21 124 C20.34 124 19.68 124 19 124 C19 124.66 19 125.32 19 126 C18.34 126 17.68 126 17 126 C17 126.66 17 127.32 17 128 C-1.1051167 143.63075075 -19.70126449 145.36326485 -43 144 C-51.0007362 143.19442648 -58.05698019 141.00788053 -65 137 C-66.49583642 136.24172998 -67.99583063 135.49160267 -69.5 134.75 C-70.655 134.1725 -71.81 133.595 -73 133 C-73 132.34 -73 131.68 -73 131 C-73.71285156 130.75507813 -74.42570313 130.51015625 -75.16015625 130.2578125 C-87.56141164 124.76509691 -95.46084313 112.86493957 -101 101 C-101.93565437 98.31634019 -102.74142384 95.64810475 -103.45703125 92.8984375 C-103.83211006 91.00608815 -103.83211006 91.00608815 -105 90 C-105.31923492 87.9427083 -105.51161352 85.88386479 -105.71875 83.8125 C-105.81998043 81.9832467 -105.81998043 81.9832467 -107 81 C-107.09959621 79.15840977 -107.13080411 77.31303033 -107.1328125 75.46875 C-107.13410156 74.34855469 -107.13539063 73.22835937 -107.13671875 72.07421875 C-107.13285156 70.89472656 -107.12898437 69.71523437 -107.125 68.5 C-107.12886719 67.32050781 -107.13273438 66.14101562 -107.13671875 64.92578125 C-107.13542969 63.80558594 -107.13414062 62.68539062 -107.1328125 61.53125 C-107.13168457 60.49548828 -107.13055664 59.45972656 -107.12939453 58.39257812 C-107 56 -107 56 -106 55 C-105.814375 53.4840625 -105.814375 53.4840625 -105.625 51.9375 C-103.95251708 41.40085758 -98.44945872 31.0824312 -93 22 C-92.34 22 -91.68 22 -91 22 C-90.61328125 21.12601563 -90.61328125 21.12601563 -90.21875 20.234375 C-88.90165983 17.8197097 -87.44911616 16.18259823 -85.5 14.25 C-84.58734375 13.32960937 -84.58734375 13.32960937 -83.65625 12.390625 C-82 11 -82 11 -80 11 C-80 10.34 -80 9.68 -80 9 C-75.61538462 6 -75.61538462 6 -73 6 C-73 5.34 -73 4.68 -73 4 C-70 2 -70 2 -67 2 C-67 1.34 -67 0.68 -67 0 C-63.91190305 -1.76462683 -62.76687864 -2 -59 -2 C-59 -2.66 -59 -3.32 -59 -4 C-39.29680197 -9.64469998 -18.31481399 -10.07518721 0 0 Z M-64.30859375 35.71875 C-69.15422986 42.25420378 -71.01167038 48.04668153 -73 56 C-46.6 56 -20.2 56 7 56 C5.17292057 47.63315627 5.17292057 47.63315627 1.5625 40.5 C0.96566406 39.4790625 0.36882812 38.458125 -0.24609375 37.40625 C-1.83964255 34.73102219 -1.83964255 34.73102219 -5 34 C-5.66666667 32.66666667 -6.33333333 31.33333333 -7 30 C-9.60319658 27.64872567 -10.42129926 27 -14 27 C-14 26.34 -14 25.68 -14 25 C-20.20446418 22.43894353 -26.04440319 21.69905447 -32.6875 21.6875 C-33.39962646 21.68234375 -34.11175293 21.6771875 -34.84545898 21.671875 C-46.80503246 21.82732031 -56.67020899 26.66112465 -64.30859375 35.71875 Z " fill="#1A2133" transform="translate(1088,132)"/>
<path d="M0 0 C0 0.66 0 1.32 0 2 C0.54785156 2.08636719 1.09570312 2.17273438 1.66015625 2.26171875 C4.74453376 3.23491967 6.85063474 4.87862985 9.4375 6.8125 C10.36433594 7.49957031 11.29117188 8.18664062 12.24609375 8.89453125 C17.15091165 12.64445586 21.26316317 16.08872873 25 21 C25 21.66 25 22.32 25 23 C25.66 23 26.32 23 27 23 C35.961936 37.07214632 40.45361496 54.67088864 37.609375 71.28125 C36.0974371 75.7007608 33.13602965 77.66073753 29.32614136 79.94638634 C25.2805244 81.77882755 21.38490943 81.70155382 17.00390625 81.65942383 C16.03713455 81.66990753 15.07036285 81.68039124 14.07429504 81.69119263 C10.90336512 81.71981627 7.73353532 81.7136658 4.5625 81.70703125 C2.35431559 81.72015391 0.14614318 81.73545988 -2.06201172 81.75285339 C-7.85539096 81.79264926 -13.64845578 81.80289042 -19.44195557 81.80688477 C-25.36113998 81.8162263 -31.28014045 81.85364634 -37.19921875 81.88867188 C-48.79947062 81.95319281 -60.39958439 81.98647803 -72 82 C-71.70347302 83.44398919 -71.40026177 84.88660681 -71.09423828 86.32861328 C-70.92610626 87.13211212 -70.75797424 87.93561096 -70.58474731 88.76345825 C-69.84816825 91.58072612 -68.62771144 93.56345303 -66.875 95.875 C-64 99.71291866 -64 99.71291866 -64 103 C-63.34 103 -62.68 103 -62 103 C-62 103.66 -62 104.32 -62 105 C-61.46375 105.268125 -60.9275 105.53625 -60.375 105.8125 C-57.58333333 107.20833333 -54.79166667 108.60416667 -52 110 C-52 110.66 -52 111.32 -52 112 C-38.28460459 114.80369961 -25.73650062 116.26152614 -12 113 C-10.33442021 112.6612776 -8.6680106 112.32654176 -7 112 C-7 111.34 -7 110.68 -7 110 C-1.375 107 -1.375 107 2 107 C2 106.34 2 105.68 2 105 C6.1205746 103.00214565 9.45194365 102.82164485 14 103 C14 103.66 14 104.32 14 105 C14.5775 105.0825 15.155 105.165 15.75 105.25 C18.76433488 106.25477829 20.01626437 107.52033046 22 110 C22.390625 113.015625 22.390625 113.015625 22.25 116.25 C22.21390625 117.32765625 22.1778125 118.4053125 22.140625 119.515625 C22.09421875 120.33546875 22.0478125 121.1553125 22 122 C21.34 122 20.68 122 20 122 C20 122.99 20 123.98 20 125 C19.34 125 18.68 125 18 125 C17.67 125.99 17.34 126.98 17 128 C15.44140625 129.38671875 15.44140625 129.38671875 13.5625 130.6875 C12.94503906 131.12449219 12.32757812 131.56148437 11.69140625 132.01171875 C10 133 10 133 8 133 C8 133.66 8 134.32 8 135 C7.01 135 6.02 135 5 135 C5 135.66 5 136.32 5 137 C3.68 137 2.36 137 1 137 C1 137.66 1 138.32 1 139 C-1.06152389 139.64894237 -3.12426258 140.2940264 -5.1875 140.9375 C-6.33605469 141.29714844 -7.48460937 141.65679687 -8.66796875 142.02734375 C-28.82441943 147.91123146 -51.59407151 144.51492914 -70 135 C-70 134.34 -70 133.68 -70 133 C-70.515625 132.9175 -71.03125 132.835 -71.5625 132.75 C-75.04455732 131.67859775 -77.87200885 129.86476395 -81 128 C-81 127.34 -81 126.68 -81 126 C-81.59167969 125.731875 -82.18335938 125.46375 -82.79296875 125.1875 C-93.96844543 119.17450016 -100.61064635 105.495501 -104.42919922 93.95117188 C-110.32378498 73.80167256 -108.25559031 49.70179919 -99 31 C-96.89039031 27.45870013 -94.56867381 24.21972016 -92 21 C-91.56429687 20.401875 -91.12859375 19.80375 -90.6796875 19.1875 C-80.43299346 5.93429094 -61.84653187 -5.20174911 -45.29296875 -7.3515625 C-29.52046791 -8.74033616 -14.03461806 -7.82699853 0 0 Z M-48 24 C-49.33130115 24.34135927 -50.66358148 24.67925956 -52 25 C-52 25.66 -52 26.32 -52 27 C-52.763125 27.12375 -53.52625 27.2475 -54.3125 27.375 C-57.20267136 27.88102792 -57.20267136 27.88102792 -60 30 C-60 30.66 -60 31.32 -60 32 C-60.66 32 -61.32 32 -62 32 C-68.27797641 39.38229515 -71.41269088 46.47614528 -73 56 C-46.93 56 -20.86 56 6 56 C3.81738343 45.08691717 0.0294958 35.11036638 -9.14453125 28.140625 C-16.8360399 23.41237126 -23.89579002 21.82089179 -32.875 21.8125 C-33.55691406 21.80025391 -34.23882813 21.78800781 -34.94140625 21.77539062 C-39.61442239 21.76203915 -43.51898438 22.53601602 -48 24 Z " fill="#1A2133" transform="translate(927,132)"/>
<path d="M0 0 C0 0.66 0 1.32 0 2 C0.56203125 2.10441406 1.1240625 2.20882812 1.703125 2.31640625 C4.42380471 3.12613235 6.39257807 4.36203338 8.75 5.9375 C9.54921875 6.46214844 10.3484375 6.98679688 11.171875 7.52734375 C11.77515625 8.01332031 12.3784375 8.49929687 13 9 C13 9.66 13 10.32 13 11 C13.87398437 11.38671875 13.87398437 11.38671875 14.765625 11.78125 C17.1802903 13.09834017 18.81740177 14.55088384 20.75 16.5 C21.36359375 17.1084375 21.9771875 17.716875 22.609375 18.34375 C24 20 24 20 24 22 C24.66 22 25.32 22 26 22 C26 22.99 26 23.98 26 25 C26.66 25 27.32 25 28 25 C29.13011652 27.2058424 30.25415788 29.41445027 31.375 31.625 C31.69210937 32.24246094 32.00921875 32.85992187 32.3359375 33.49609375 C32.6453125 34.10839844 32.9546875 34.72070312 33.2734375 35.3515625 C33.55622559 35.90666504 33.83901367 36.46176758 34.13037109 37.03369141 C37.44811089 44.53539728 37.4362858 51.46681405 37.5 59.5625 C37.54125 60.87669922 37.5825 62.19089844 37.625 63.54492188 C37.70118395 72.89173982 37.70118395 72.89173982 35.76953125 75.94482422 C34.21875 77.27734375 34.21875 77.27734375 31 79 C30.36183475 79.36056929 29.72366951 79.72113857 29.06616592 80.0926342 C26.77019034 81.10092192 25.2193963 81.2467824 22.72259521 81.24050903 C21.87568115 81.24325836 21.02876709 81.24600769 20.15618896 81.24884033 C19.23549622 81.24164978 18.31480347 81.23445923 17.36621094 81.22705078 C16.39026978 81.22734283 15.41432861 81.22763489 14.40881348 81.22793579 C11.18391012 81.22654277 7.95923798 81.2109827 4.734375 81.1953125 C2.4980685 81.19158228 0.26176037 81.18873535 -1.97454834 81.18673706 C-7.86003126 81.17910137 -13.74541546 81.15945333 -19.63085938 81.1373291 C-25.63670516 81.11686936 -31.64256691 81.10773506 -37.6484375 81.09765625 C-49.43233504 81.07620746 -61.21615931 81.0420722 -73 81 C-72.23199553 83.06583004 -71.45723419 85.12914881 -70.6796875 87.19140625 C-70.03362549 88.91532593 -70.03362549 88.91532593 -69.37451172 90.67407227 C-65.39509363 100.30313311 -58.86838734 107.757936 -49.36328125 112.1875 C-37.27188201 116.34454305 -20.57494922 116.97066614 -8.828125 111.53125 C-6.94351428 110.47427256 -5.07849158 109.38102297 -3.2421875 108.2421875 C-1 107 -1 107 2 107 C2 106.34 2 105.68 2 105 C6.1205746 103.00214565 9.45194365 102.82164485 14 103 C14 103.66 14 104.32 14 105 C14.598125 105.103125 15.19625 105.20625 15.8125 105.3125 C18.38529526 106.12109279 19.2770315 106.94729898 21 109 C22.74593429 113.28325002 23.38329797 116.82755914 21.9375 121.25 C18.63541009 125.93683729 14.62300354 129.62645688 10 133 C9.34 133 8.68 133 8 133 C8 133.66 8 134.32 8 135 C-10.68434582 145.5741078 -33.73964737 147.17954866 -54.5859375 142.16796875 C-73.26956926 135.77619999 -89.95116083 122.80451305 -99.41015625 105.40625 C-100.73894637 102.64301672 -101.89044894 99.85805049 -103 97 C-103.39445312 96.06800781 -103.78890625 95.13601562 -104.1953125 94.17578125 C-110.93067468 75.40625799 -108.6933354 52.22945618 -100.765625 34.19140625 C-99.62983383 32.00463949 -98.41206511 30.01723587 -97 28 C-96.2884375 26.9790625 -96.2884375 26.9790625 -95.5625 25.9375 C-94.09084968 23.91398081 -92.5638815 21.9528469 -91 20 C-90.53851562 19.40316406 -90.07703125 18.80632812 -89.6015625 18.19140625 C-85.66944432 13.31427624 -81.05830452 9.662285 -76 6 C-75.40445312 5.56171875 -74.80890625 5.1234375 -74.1953125 4.671875 C-71.55080314 2.80361465 -70.31587686 2 -67 2 C-67 1.34 -67 0.68 -67 0 C-47.13228982 -11.08006914 -19.85463577 -11.07277764 0 0 Z M-64.88671875 35.1015625 C-68.99507548 40.79324059 -73 48.85875709 -73 56 C-46.93 56 -20.86 56 6 56 C4.75654289 46.05234312 0.83312628 36.69497973 -7 30 C-25.41155706 17.94879901 -49.52894033 17.99496873 -64.88671875 35.1015625 Z " fill="#1A2133" transform="translate(1842,132)"/>
<path d="M0 0 C3.18606201 1.51943345 5.77522461 3.23751454 8 6 C8 6.99 8 7.98 8 9 C8.66 9 9.32 9 10 9 C10.33 44.31 10.66 79.62 11 116 C18.92 108.08 26.84 100.16 35 92 C38.39273701 88.60726299 41.79027424 85.22015338 45.1953125 81.83984375 C46.66786702 80.37465529 48.13994591 78.90899082 49.61181641 77.44311523 C50.62330037 76.43669032 51.63567565 75.43116043 52.64892578 74.42651367 C54.12510421 72.96249762 55.59799912 71.49524544 57.0703125 70.02734375 C58.38153076 68.72398071 58.38153076 68.72398071 59.71923828 67.39428711 C62.00478941 65.10038533 62.00478941 65.10038533 63.68310547 62.68579102 C64.11768066 62.12947998 64.55225586 61.57316895 65 61 C65.66 61 66.32 61 67 61 C67.25523438 60.39671875 67.51046875 59.7934375 67.7734375 59.171875 C69.87180088 55.45630162 73.16724851 53.70044609 77 52 C82.27958022 50.93620399 86.48130287 52.16267854 91 55 C93.48716103 57.04302513 94.77949442 59.03010308 96 62 C96.265625 64.91015625 96.265625 64.91015625 96.25 68.0625 C96.25773437 69.62677734 96.25773437 69.62677734 96.265625 71.22265625 C96 74 96 74 94 77 C93.34 77 92.68 77 92 77 C92 77.66 92 78.32 92 79 C89.625 81.625 89.625 81.625 87 84 C86.34 84 85.68 84 85 84 C85 84.66 85 85.32 85 86 C83.28515625 87.65625 83.28515625 87.65625 81.0625 89.5 C78.07954821 91.88926999 78.07954821 91.88926999 76 95 C75.34 95 74.68 95 74 95 C74 95.66 74 96.32 74 97 C72.53125 98.4453125 72.53125 98.4453125 70.5 100.125 C67.53322639 102.64257902 64.72425751 105.22168976 62 108 C58.1780051 111.88266149 54.14752953 115.47018764 50 119 C51.55636242 122.62590381 53.7792923 125.16858915 56.4375 128.0625 C57.21996094 128.91972656 58.00242187 129.77695313 58.80859375 130.66015625 C60.09757962 132.03645311 61.4133482 133.38983167 62.78515625 134.68359375 C64 136 64 136 64 138 C64.99 138.33 65.98 138.66 67 139 C68.3671875 140.390625 68.3671875 140.390625 69.875 142.25 C73.17913367 146.16315831 76.7198389 149.73421207 80.375 153.3125 C85.2939178 158.1511951 89.75072623 163.11811798 94 168.5625 C96.94859862 172.15610456 100.11355119 175.29487026 103.75 178.1875 C106.97829989 182.22287486 107.28565 185.91384298 107 191 C105.6015163 196.68928597 102.74867268 199.83421821 98 203 C93.62643823 203.57078688 89.43181871 203.56606786 85.3125 201.9375 C78.2634156 196.03151037 72.22842461 189.04489093 66.5 181.875 C64.07362367 179.08466722 61.54492788 176.86886782 58.71484375 174.515625 C56.12201273 172.22401125 54.07645356 169.76860474 52 167 C52 166.34 52 165.68 52 165 C51.34 165 50.68 165 50 165 C47 161.53846154 47 161.53846154 47 159 C46.34 159 45.68 159 45 159 C45 158.34 45 157.68 45 157 C44.01 156.67 43.02 156.34 42 156 C40.38671875 154.3984375 40.38671875 154.3984375 38.6875 152.375 C38.08164063 151.66085938 37.47578125 150.94671875 36.8515625 150.2109375 C36.24054688 149.48132813 35.62953125 148.75171875 35 148 C33.85546987 146.66554784 32.70974983 145.33211473 31.5625 144 C30.716875 143.01 29.87125 142.02 29 141 C25.32310696 142.5278414 23.09801192 144.75627506 20.375 147.625 C18.95489873 149.12058838 17.50405032 150.58886398 16 152 C15.34 152 14.68 152 14 152 C14 152.66 14 153.32 14 154 C13.34 154 12.68 154 12 154 C12 154.66 12 155.32 12 156 C11.34 156 10.68 156 10 156 C10.05498657 157.56512329 10.05498657 157.56512329 10.11108398 159.16186523 C10.23872857 163.06963306 10.31848042 166.97722083 10.38452148 170.88647461 C10.41951243 172.57136112 10.46712421 174.25603835 10.52807617 175.94018555 C11.12263824 192.80276535 11.12263824 192.80276535 4.90649414 199.48852539 C0.58007021 202.91852802 -2.96821323 203.49502587 -8.39453125 203.3828125 C-13.82439227 202.58502183 -17.6790273 199.74709293 -20.9375 195.4375 C-22.94190949 190.83914881 -23.13044486 186.91591889 -23.14717102 181.89117432 C-23.15084771 181.17469593 -23.1545244 180.45821754 -23.1583125 179.72002769 C-23.16932677 177.31887836 -23.17318932 174.91777234 -23.17700195 172.51660156 C-23.18326827 170.79502221 -23.18991522 169.0734442 -23.19691467 167.35186768 C-23.21793605 161.69812966 -23.22831471 156.04439144 -23.23828125 150.390625 C-23.24232941 148.44307186 -23.24644635 146.49551886 -23.25063133 144.547966 C-23.26967814 135.39843896 -23.2839107 126.24891997 -23.2922433 117.09937692 C-23.30201664 106.54262781 -23.32834084 95.98608832 -23.36874419 85.42941308 C-23.3989136 77.26621583 -23.41371293 69.10307864 -23.41702431 60.93982673 C-23.41937369 56.06581044 -23.42831973 51.19201824 -23.45348549 46.31806183 C-23.47678588 41.7313794 -23.48099154 37.14506829 -23.47072411 32.55834198 C-23.47022913 30.87817651 -23.47653838 29.19799264 -23.49028015 27.5178833 C-23.56897066 17.32379712 -23.26401064 10.2480131 -16.5625 2 C-11.82068613 -1.53524546 -5.54558927 -0.97030967 0 0 Z " fill="#1A2133" transform="translate(1345,73)"/>
<path d="M0 0 C0 0.66 0 1.32 0 2 C0.53625 2.0825 1.0725 2.165 1.625 2.25 C4.87340691 3.27581271 7.28751859 4.96563894 10 7 C10 7.66 10 8.32 10 9 C10.56976562 9.24621094 11.13953125 9.49242187 11.7265625 9.74609375 C19.32109387 13.93483013 24.58541746 21.75555686 29 29 C29.61875 29.9075 30.2375 30.815 30.875 31.75 C32.1756045 34.35120899 32.24612214 36.12857503 32 39 C32.66 39 33.32 39 34 39 C36.64591152 47.55852928 37.47616851 55.54683793 37.39111328 64.49072266 C37.37501274 66.49841196 37.39106395 68.50408948 37.41015625 70.51171875 C37.3539476 89.49150477 31.48706751 104.58317763 18 118 C17.01 119.06154297 17.01 119.06154297 16 120.14453125 C11.24877128 125.1543954 6.02217667 129.57709319 0 133 C-0.99 133 -1.98 133 -3 133 C-3 133.66 -3 134.32 -3 135 C-6.08809695 136.76462683 -7.23312136 137 -11 137 C-11 137.66 -11 138.32 -11 139 C-28.72525921 144.43028172 -51.04499978 145.56215417 -68 137 C-84.94463697 127.28949458 -101.8923529 114.43342258 -108 95 C-108 93.68 -108 92.36 -108 91 C-108.66 91 -109.32 91 -110 91 C-115.26313155 67.15926722 -113.29526867 45.33447805 -101 24 C-98.54947388 20.47018078 -96.04693938 17.03993492 -93 14 C-92.34 14 -91.68 14 -91 14 C-91 13.34 -91 12.68 -91 12 C-88.93217973 10.20061289 -86.86674414 8.52853912 -84.6875 6.875 C-83.79514648 6.17310547 -83.79514648 6.17310547 -82.88476562 5.45703125 C-78.37449891 2 -78.37449891 2 -75 2 C-75 1.34 -75 0.68 -75 0 C-72.35261084 -1.4606285 -71.10551666 -2 -68 -2 C-68 -2.66 -68 -3.32 -68 -4 C-44.33087927 -12.23405869 -22.32216774 -12.03760878 0 0 Z M-67.9609375 32.11328125 C-71.36336558 36.24480106 -73.85743661 39.44002766 -74 45 C-74.66 45 -75.32 45 -76 45 C-76.28875 45.86625 -76.5775 46.7325 -76.875 47.625 C-77.54775573 49.64326718 -78.260163 51.64992394 -79.05078125 53.625 C-80.26628918 57.94680597 -80.33005602 61.90874942 -80.3125 66.375 C-80.32861328 67.18710938 -80.34472656 67.99921875 -80.36132812 68.8359375 C-80.36593318 74.5830513 -79.23582825 78.71325674 -77 84 C-76.64460003 85.32762184 -76.30519553 86.65994605 -76 88 C-75.34 88 -74.68 88 -74 88 C-73.979375 88.804375 -73.95875 89.60875 -73.9375 90.4375 C-71.74410408 98.77240449 -65.33270762 103.92534293 -58.4296875 108.58984375 C-49.01433975 114.05437838 -36.93013491 114.27115398 -26.34375 112.57421875 C-20.04676438 110.71478278 -14.15779663 107.00090766 -9 103 C-9 102.34 -9 101.68 -9 101 C-8.34 101 -7.68 101 -7 101 C-0.12816978 93.0449256 4.57773101 83.59344386 5 73 C5.03996094 71.99839844 5.07992188 70.99679688 5.12109375 69.96484375 C5.37222315 57.33451207 2.71155902 48.15113905 -3 37 C-3.66 37 -4.32 37 -5 37 C-5.99 34.525 -5.99 34.525 -7 32 C-7.66 32 -8.32 32 -9 32 C-9 31.34 -9 30.68 -9 30 C-17.84286053 22.99940208 -25.54249901 19.82309112 -36.875 19.8125 C-37.55691406 19.80025391 -38.23882813 19.78800781 -38.94140625 19.77539062 C-49.81273528 19.74432968 -60.54216493 24.11814986 -67.9609375 32.11328125 Z " fill="#1A2133" transform="translate(1571,134)"/>
<path d="M0 0 C4.67719515 2.65769593 8.14918606 5.87348562 9.77734375 11.125 C10.36347757 15.12273323 10.64477823 19.08837989 10.77734375 23.125 C11.14085937 22.60550781 11.504375 22.08601563 11.87890625 21.55078125 C15.13322548 17.03645636 18.26662908 13.40551976 22.77734375 10.125 C23.43734375 10.125 24.09734375 10.125 24.77734375 10.125 C24.77734375 9.465 24.77734375 8.805 24.77734375 8.125 C33.02837058 0.97012408 41.90232214 -1.10537126 52.52734375 -1.3125 C53.24857422 -1.33489746 53.96980469 -1.35729492 54.71289062 -1.38037109 C59.89509506 -1.35760008 62.78368817 -0.11021654 66.77734375 3.125 C70.18993079 6.8070018 71.09385453 9.72516064 71.33984375 14.625 C71.19696748 18.25110113 70.89208356 20.72566044 68.65234375 23.625 C63.45437563 28.14497227 58.59629984 29.58024993 51.83984375 30.1875 C46.5961136 30.69141698 41.83393761 31.52850038 36.77734375 33.125 C36.03226563 33.35960937 35.2871875 33.59421875 34.51953125 33.8359375 C30.26096572 35.35049009 27.25564458 37.158214 23.77734375 40.125 C23.11734375 40.125 22.45734375 40.125 21.77734375 40.125 C21.77734375 40.785 21.77734375 41.445 21.77734375 42.125 C21.22046875 42.640625 20.66359375 43.15625 20.08984375 43.6875 C13.72316283 50.39832583 10.468936 58.70161073 10.52197266 67.84936523 C10.51654198 68.99180191 10.51654198 68.99180191 10.51100159 70.15731812 C10.50412753 71.80511213 10.50159841 73.45292882 10.50294876 75.10073662 C10.5039166 77.71152435 10.4909418 80.32190331 10.47396851 82.93263245 C10.4277713 90.3532497 10.40308934 97.77382389 10.39648438 105.19458008 C10.39146459 109.73926157 10.36719369 114.2835144 10.33115768 118.82805061 C10.32137293 120.55633023 10.31902052 122.2846689 10.32432938 124.01296806 C10.33141501 126.4328571 10.31408918 128.85147158 10.29150391 131.27124023 C10.29967636 131.9805217 10.30784882 132.68980316 10.31626892 133.420578 C10.23385649 138.398153 8.95333028 141.3173034 5.77734375 145.125 C5.11734375 145.125 4.45734375 145.125 3.77734375 145.125 C3.44734375 146.115 3.11734375 147.105 2.77734375 148.125 C-1.72716937 151.16197943 -7.01837065 150.73505374 -12.22265625 150.125 C-16.08450451 148.29570346 -17.69281384 147.18468482 -19.59765625 143.375 C-19.90703125 142.26125 -19.90703125 142.26125 -20.22265625 141.125 C-20.88265625 141.125 -21.54265625 141.125 -22.22265625 141.125 C-23.11443094 138.04989872 -23.36567803 135.27014519 -23.40779114 132.07295227 C-23.4233606 131.05393326 -23.43893005 130.03491425 -23.45497131 128.98501587 C-23.46701096 127.87274628 -23.4790506 126.76047668 -23.49145508 125.61450195 C-23.50777985 124.43843887 -23.52410461 123.26237579 -23.54092407 122.05067444 C-23.59298169 118.15493179 -23.63723288 114.25913663 -23.6796875 110.36328125 C-23.69489414 109.01876452 -23.71015507 107.6742484 -23.72546959 106.32973289 C-23.79678384 100.01064209 -23.86328056 93.69152228 -23.92405874 87.37232143 C-23.99424282 80.09416494 -24.08113227 72.816457 -24.18224126 65.53866607 C-24.25942997 59.90293857 -24.32084952 54.26717103 -24.37064761 48.63113564 C-24.40073054 45.26993499 -24.43746789 41.90912878 -24.49094582 38.54821205 C-24.5467961 34.79286899 -24.5768563 31.03813429 -24.60083008 27.2824707 C-24.62299088 26.18032227 -24.64515167 25.07817383 -24.66798401 23.94262695 C-24.67972291 15.69439848 -23.12658591 9.53711734 -17.72265625 3.1875 C-12.35395872 -1.24167546 -6.64822116 -2.6172259 0 0 Z " fill="#1A2133" transform="translate(1656.22265625,125.875)"/>
<path d="M0 0 C2.02173932 3.03260897 2.29338438 4.08690037 2.5625 7.5625 C2.81460438 10.90657232 2.81460438 10.90657232 4 14 C5.48948813 21.48499078 6.28201557 29.10163518 7.0625 36.6875 C7.14169678 37.4388623 7.22089355 38.19022461 7.30249023 38.96435547 C8.93406517 55.51294234 9.13319225 72.0109875 9.0625 88.625 C9.05746856 90.71093641 9.0529086 92.79687401 9.04882812 94.8828125 C9.03796746 99.92190524 9.02079613 104.96093888 9 110 C8.34 110 7.68 110 7 110 C6.99191315 109.25878906 6.98382629 108.51757812 6.97549438 107.75390625 C6.89685664 100.69500455 6.80937178 93.63627707 6.71247292 86.5776062 C6.66297983 82.95053768 6.61665512 79.32349192 6.578125 75.69628906 C7.85822515 52.21587919 7.85822515 52.21587919 3 30 C2.92883618 27.62597499 2.91590915 25.24999323 2.9375 22.875 C2.94652344 21.59367187 2.95554687 20.31234375 2.96484375 18.9921875 C2.97644531 18.00476563 2.98804688 17.01734375 3 16 C2.34 16 1.68 16 1 16 C0.67 10.72 0.34 5.44 0 0 Z " fill="#00BBB1" transform="translate(417,232)"/>
<path d="M0 0 C0.33 0 0.66 0 1 0 C1.39396404 21.05518918 1.39396404 21.05518918 -0.50694275 27.79827881 C-1.162861 30.72724721 -1.16522713 33.51128833 -1.20532227 36.51269531 C-1.21522186 37.15701508 -1.22512146 37.80133484 -1.23532104 38.46517944 C-1.26680429 40.58612445 -1.29164103 42.70709181 -1.31640625 44.828125 C-1.33698718 46.30215015 -1.35798395 47.77616955 -1.37937927 49.25018311 C-1.4344824 53.12332491 -1.48394334 56.99651895 -1.53222656 60.86975098 C-1.58252763 64.82467274 -1.63816871 68.77951898 -1.69335938 72.734375 C-1.80079705 80.48951932 -1.90227374 88.24472658 -2 96 C-2.33 96 -2.66 96 -3 96 C-3.04678608 86.8101429 -3.0821002 77.62032815 -3.10362434 68.43037701 C-3.11396604 64.16097937 -3.1279443 59.89166449 -3.15087891 55.62231445 C-3.37919508 11.97162533 -3.37919508 11.97162533 0 0 Z " fill="#FE9C00" transform="translate(203,261)"/>
<path d="M0 0 C3.66336097 1.22112032 4.35042014 2.86720482 6.23046875 6.11328125 C7 8 7 8 7 12 C7.66 12 8.32 12 9 12 C9.45375 13.134375 9.9075 14.26875 10.375 15.4375 C11.57095806 19.04721692 11.57095806 19.04721692 14 20 C15.0703125 21.7421875 15.0703125 21.7421875 16.125 23.875 C16.47820312 24.57367188 16.83140625 25.27234375 17.1953125 25.9921875 C18 28 18 28 18 31 C18.99 31.33 19.98 31.66 21 32 C22.31640625 34.46875 22.31640625 34.46875 23.5625 37.5 C24.93602872 41.50788201 24.93602872 41.50788201 28 44 C28 43.34 28 42.68 28 42 C28.99 42 29.98 42 31 42 C30.67 43.32 30.34 44.64 30 46 C27.70703125 45.8046875 27.70703125 45.8046875 25 45 C23.19921875 42.8203125 23.19921875 42.8203125 21.6875 40.125 C21.17574219 39.24070312 20.66398437 38.35640625 20.13671875 37.4453125 C19 35 19 35 19 32 C18.34 32 17.68 32 17 32 C16.69449219 31.42636719 16.38898438 30.85273438 16.07421875 30.26171875 C13.50769349 25.49738031 10.88445013 20.7806566 8.15234375 16.109375 C7.65452393 15.25770752 7.1567041 14.40604004 6.64379883 13.52856445 C5.63569077 11.80873633 4.62383757 10.09109772 3.6081543 8.37573242 C2.90879761 7.18234253 2.90879761 7.18234253 2.1953125 5.96484375 C1.77266113 5.2493335 1.35000977 4.53382324 0.91455078 3.79663086 C0 2 0 2 0 0 Z " fill="#00D77A" transform="translate(385,330)"/>
<path d="M0 0 C1.32 0.33 2.64 0.66 4 1 C4 2.32 4 3.64 4 5 C4.66 5 5.32 5 6 5 C6.38091797 5.79664063 6.38091797 5.79664063 6.76953125 6.609375 C8.95561474 11.11304013 8.95561474 11.11304013 11.75 15.25 C13 17 13 17 13 21 C13.66 21 14.32 21 15 21 C16.06069266 22.62871387 17.05046961 24.30407258 18 26 C18.77730469 27.20269531 18.77730469 27.20269531 19.5703125 28.4296875 C22.71410755 33.37445057 24.74386283 37.10884516 25 43 C21 37 21 37 21 34 C20.34 34 19.68 34 19 34 C18.3490741 32.75264433 17.70448331 31.50198168 17.0625 30.25 C16.70285156 29.55390625 16.34320313 28.8578125 15.97265625 28.140625 C15.04441818 26.09775567 14.46833422 24.18884624 14 22 C13.34 22 12.68 22 12 22 C8 14.66666667 4 7.33333333 0 0 Z " fill="#00D57F" transform="translate(348,267)"/>
<path d="M0 0 C1.04802409 3.14407227 1.00264591 3.90814633 0.3125 7 C-0.4193272 10.34136895 -1.13779275 13.67965341 -1.78125 17.0390625 C-3.62475715 26.47481349 -5.9362658 35.70564509 -8.625 44.9375 C-8.92623779 45.97406738 -9.22747559 47.01063477 -9.5378418 48.07861328 C-10.7744276 52.24007423 -11.95096579 56.15792204 -14 60 C-14.37001662 55.18978396 -13.33030074 51.64042564 -11.734375 47.19140625 C-10.83093225 44.49549463 -10.36104451 41.81614714 -10 39 C-9.34 39 -8.68 39 -8 39 C-8.04125 38.21625 -8.0825 37.4325 -8.125 36.625 C-7.84128448 28.39724979 -5.64722316 19.83871802 -3 12.0625 C-1.7057662 8.09890898 -0.85186581 4.07808103 0 0 Z " fill="#008CE0" transform="translate(477,144)"/>
<path d="M0 0 C4.7302274 9.46045479 5.97471128 19.57623134 7 30 C6.34 30 5.68 30 5 30 C2.96564469 26.27034861 2 24.33094958 2 20 C1.34 20 0.68 20 0 20 C-0.33 18.02 -0.66 16.04 -1 14 C-0.34 14 0.32 14 1 14 C0.67 9.38 0.34 4.76 0 0 Z " fill="#FE3030" transform="translate(181,285)"/>
<path d="M0 0 C0.33 0.66 0.66 1.32 1 2 C1.66 2 2.32 2 3 2 C3.33 3.32 3.66 4.64 4 6 C3.34 6 2.68 6 2 6 C2 5.01 2 4.02 2 3 C-4.11490275 8.74746936 -4.11490275 8.74746936 -8 16 C-10.0625 16.6875 -10.0625 16.6875 -12 17 C-8.31121019 11.02564878 -4.68056077 5.24790147 0 0 Z M-13 17 C-11.875 20.75 -11.875 20.75 -13 23 C-13.66 23 -14.32 23 -15 23 C-15.33 25.31 -15.66 27.62 -16 30 C-16.99 30 -17.98 30 -19 30 C-17.31326082 25.50202887 -15.18326108 21.27113698 -13 17 Z " fill="#00D57E" transform="translate(369,104)"/>
<path d="M0 0 C1.1484375 3.7109375 1.1484375 3.7109375 -0.1875 6.3125 C-0.785625 7.199375 -1.38375 8.08625 -2 9 C-2.67556158 10.16153868 -3.34183459 11.32851639 -4 12.5 C-5.11525396 14.47028199 -6.25323091 16.41835133 -7.42578125 18.35546875 C-9.08326752 21.13988116 -10.64310053 23.96394099 -12.1875 26.8125 C-12.71730469 27.78832031 -13.24710937 28.76414063 -13.79296875 29.76953125 C-14.19128906 30.50558594 -14.58960938 31.24164063 -15 32 C-15.99 32 -16.98 32 -18 32 C-14.81398795 25.9779545 -11.48163492 20.09392227 -7.875 14.3125 C-4.96435998 9.63986334 -2.34311077 4.97911038 0 0 Z " fill="#00D77B" transform="translate(349,134)"/>
<path d="M0 0 C3.85103301 0.53675903 5.31797587 2.11600923 7.75 5.0625 C8.36359375 5.79597656 8.9771875 6.52945313 9.609375 7.28515625 C10.06828125 7.85105469 10.5271875 8.41695312 11 9 C10.34 9.66 9.68 10.32 9 11 C9.66 12.65 10.32 14.3 11 16 C11.66 16 12.32 16 13 16 C13 17.65 13 19.3 13 21 C9.7454822 17.16040035 7.24892518 13.18709456 4.8125 8.8125 C4.45736328 8.18408203 4.10222656 7.55566406 3.73632812 6.90820312 C2.44930755 4.62477953 1.17239242 2.34478485 0 0 Z " fill="#FD7105" transform="translate(130,236)"/>
<path d="M0 0 C3.53586014 3.17320782 5.58578031 5.16743695 6 10 C6.66 10 7.32 10 8 10 C8.84114171 11.43294498 9.67265687 12.87154405 10.5 14.3125 C10.9640625 15.11300781 11.428125 15.91351563 11.90625 16.73828125 C13 19 13 19 13 22 C13.66 22 14.32 22 15 22 C17 25 17 25 16.625 27.1875 C16.315625 28.0846875 16.315625 28.0846875 16 29 C11.73008011 22.16358571 7.5306459 15.29297886 3.5 8.3125 C3.15001953 7.7129248 2.80003906 7.11334961 2.43945312 6.49560547 C0 2.23637921 0 2.23637921 0 0 Z " fill="#FE6C08" transform="translate(144,259)"/>
<path d="M0 0 C2.02173932 3.03260897 2.29338438 4.08690037 2.5625 7.5625 C2.81460438 10.90657232 2.81460438 10.90657232 4 14 C4.15004973 15.3734635 4.24838006 16.7528526 4.31640625 18.1328125 C4.35830078 18.93847656 4.40019531 19.74414062 4.44335938 20.57421875 C4.48267578 21.41597656 4.52199219 22.25773437 4.5625 23.125 C4.60568359 23.97449219 4.64886719 24.82398438 4.69335938 25.69921875 C4.79954236 27.79928223 4.90028497 29.89961948 5 32 C3 30 3 30 2.8046875 26.7421875 C2.82789063 25.46601563 2.85109375 24.18984375 2.875 22.875 C2.89304687 21.59367187 2.91109375 20.31234375 2.9296875 18.9921875 C2.95289063 18.00476563 2.97609375 17.01734375 3 16 C2.34 16 1.68 16 1 16 C0.67 10.72 0.34 5.44 0 0 Z " fill="#00C799" transform="translate(417,232)"/>
<path d="M0 0 C0.33 1.32 0.66 2.64 1 4 C1.66 4 2.32 4 3 4 C3.33 2.68 3.66 1.36 4 0 C4.33 0.66 4.66 1.32 5 2 C4.00390625 4.3828125 4.00390625 4.3828125 2.5625 7.125 C2.08941406 8.03507812 1.61632812 8.94515625 1.12890625 9.8828125 C0.75636719 10.58148438 0.38382812 11.28015625 0 12 C-0.66 12 -1.32 12 -2 12 C-1.44687265 7.97007218 -0.8441938 3.97977076 0 0 Z " fill="#008BE0" transform="translate(438,306)"/>
<path d="M0 0 C5.13688276 5.13688276 4.57993518 13.16841955 5 20 C2.21433885 17.21433885 2.50759286 14.87039553 2 11 C1.649375 9.783125 1.29875 8.56625 0.9375 7.3125 C0 4 0 4 0 0 Z " fill="#FB4218" transform="translate(131,76)"/>
<path d="M0 0 C2.29013653 3.4352048 2.17842973 4.985331 2 9 C2.66 9 3.32 9 4 9 C6.42857143 16.42857143 6.42857143 16.42857143 5 20 C2.21433885 17.21433885 2.50759286 14.87039553 2 11 C1.649375 9.783125 1.29875 8.56625 0.9375 7.3125 C0 4 0 4 0 0 Z " fill="#FA3C19" transform="translate(120,31)"/>
<path d="M0 0 C3.49903901 6.49821531 4.45450873 12.73635303 5 20 C4.34 19.67 3.68 19.34 3 19 C2.1484375 16.26953125 2.1484375 16.26953125 1.375 12.8125 C1.11460937 11.68457031 0.85421875 10.55664062 0.5859375 9.39453125 C0.03120793 6.18079796 -0.1085757 3.25233567 0 0 Z " fill="#FE3C27" transform="translate(181,285)"/>
<path d="M0 0 C1.30415252 4.22471944 0.26779592 6.7740136 -1 11 C-1.4292212 13.6639707 -1.71734314 16.31475987 -2 19 C-2.33 19 -2.66 19 -3 19 C-3.39325819 12.02330843 -2.63096039 6.48343811 0 0 Z " fill="#FEA200" transform="translate(210,220)"/>
<path d="M0 0 C0.33 0.66 0.66 1.32 1 2 C0.07421875 4.12890625 0.07421875 4.12890625 -1.3125 6.5625 C-1.98732422 7.77099609 -1.98732422 7.77099609 -2.67578125 9.00390625 C-4 11 -4 11 -6 12 C-5.21910455 8.09552275 -3.69382187 4.59090237 -2 1 C-1.34 0.67 -0.68 0.34 0 0 Z " fill="#FEBC00" transform="translate(232,343)"/>
<path d="M0 0 C1 3 1 3 -0.21484375 5.48046875 C-0.78332031 6.37378906 -1.35179687 7.26710938 -1.9375 8.1875 C-2.50339844 9.08855469 -3.06929688 9.98960937 -3.65234375 10.91796875 C-4.09707031 11.60503906 -4.54179687 12.29210937 -5 13 C-5.33 11.68 -5.66 10.36 -6 9 C-5.34 9 -4.68 9 -4 9 C-4 7.68 -4 6.36 -4 5 C-3.34 5 -2.68 5 -2 5 C-1.855625 4.360625 -1.71125 3.72125 -1.5625 3.0625 C-1 1 -1 1 0 0 Z " fill="#FEBD00" transform="translate(274,269)"/>
<path d="M0 0 C1.80937684 3.61875369 0.48774807 7.52127172 -0.73828125 11.23828125 C-1.46235843 13.17029761 -2.22794648 15.08664997 -3 17 C-4.6244365 13.75112699 -3.7217372 10.43596258 -3 7 C-2.13743292 4.56746955 -1.11803057 2.33328119 0 0 Z " fill="#FEA500" transform="translate(217,191)"/>
<path d="M0 0 C0.33 0.99 0.66 1.98 1 3 C-0.21484375 5.26171875 -0.21484375 5.26171875 -1.9375 7.6875 C-2.50339844 8.49574219 -3.06929687 9.30398438 -3.65234375 10.13671875 C-4.09707031 10.75160156 -4.54179687 11.36648438 -5 12 C-6 9 -6 9 -5.0625 6.8125 C-4.711875 6.214375 -4.36125 5.61625 -4 5 C-3.34 5 -2.68 5 -2 5 C-1.855625 4.360625 -1.71125 3.72125 -1.5625 3.0625 C-1 1 -1 1 0 0 Z " fill="#FEBC00" transform="translate(253,306)"/>
<path d="M0 0 C0.33 0 0.66 0 1 0 C1.48990279 5.06232884 -0.2893678 9.32630846 -2 14 C-3.15431591 10.05102453 -2.80958981 7.04794905 -2 3 C-1.34 2.01 -0.68 1.02 0 0 Z " fill="#008DE0" transform="translate(462,208)"/>
<path d="M0 0 C0 3.44360632 -0.79591532 4.74795392 -2.5 7.6875 C-2.9640625 8.49574219 -3.428125 9.30398438 -3.90625 10.13671875 C-4.2671875 10.75160156 -4.628125 11.36648438 -5 12 C-5.33 11.01 -5.66 10.02 -6 9 C-4.78515625 6.73828125 -4.78515625 6.73828125 -3.0625 4.3125 C-2.49660156 3.50425781 -1.93070313 2.69601562 -1.34765625 1.86328125 C-0.90292969 1.24839844 -0.45820313 0.63351562 0 0 Z " fill="#FEBB00" transform="translate(225,355)"/>
<path d="M0 0 C0 3.44360632 -0.79591532 4.74795392 -2.5 7.6875 C-2.9640625 8.49574219 -3.428125 9.30398438 -3.90625 10.13671875 C-4.2671875 10.75160156 -4.628125 11.36648438 -5 12 C-5.33 11.01 -5.66 10.02 -6 9 C-4.78515625 6.73828125 -4.78515625 6.73828125 -3.0625 4.3125 C-2.49660156 3.50425781 -1.93070313 2.69601562 -1.34765625 1.86328125 C-0.90292969 1.24839844 -0.45820313 0.63351562 0 0 Z " fill="#FEBD00" transform="translate(246,318)"/>
<path d="M0 0 C0.66 0 1.32 0 2 0 C3.32421875 1.609375 3.32421875 1.609375 4.6875 3.75 C5.14511719 4.44609375 5.60273438 5.1421875 6.07421875 5.859375 C7.16906025 8.39090725 6.9435441 9.46100862 6 12 C4.99747693 10.18889433 3.99804504 8.37607722 3 6.5625 C2.443125 5.55316406 1.88625 4.54382813 1.3125 3.50390625 C0 1 0 1 0 0 Z " fill="#00D67C" transform="translate(378,318)"/>
<path d="M0 0 C1.875 0.25 1.875 0.25 4 1 C5.25 3.0625 5.25 3.0625 6 5 C5.34 5.66 4.68 6.32 4 7 C2.02 3.535 2.02 3.535 0 0 Z " fill="#FC580F" transform="translate(130,236)"/>
<path d="M0 0 C0.33 0 0.66 0 1 0 C1.33 2.97 1.66 5.94 2 9 C1.34 9 0.68 9 0 9 C0 8.01 0 7.02 0 6 C-0.66 6 -1.32 6 -2 6 C-2 5.34 -2 4.68 -2 4 C-1.34 4 -0.68 4 0 4 C0 2.68 0 1.36 0 0 Z " fill="#FE6211" transform="translate(188,311)"/>
<path d="" fill="#FEA700" transform="translate(0,0)"/>
<path d="" fill="#009ADF" transform="translate(0,0)"/>
<path d="" fill="#1A2133" transform="translate(0,0)"/>
<path d="" fill="#00D87F" transform="translate(0,0)"/>
<path d="" fill="#009BDF" transform="translate(0,0)"/>
<path d="" fill="#FEBF00" transform="translate(0,0)"/>
<path d="" fill="#0097E0" transform="translate(0,0)"/>
<path d="" fill="#1A2133" transform="translate(0,0)"/>
<path d="" fill="#1A2133" transform="translate(0,0)"/>
<path d="" fill="#1A2133" transform="translate(0,0)"/>
<path d="" fill="#1A2133" transform="translate(0,0)"/>
<path d="" fill="#1A2133" transform="translate(0,0)"/>
<path d="" fill="#1A2133" transform="translate(0,0)"/>
<path d="" fill="#1A2133" transform="translate(0,0)"/>
<path d="" fill="#1A2133" transform="translate(0,0)"/>
<path d="" fill="#1A2133" transform="translate(0,0)"/>
<path d="" fill="#1A2133" transform="translate(0,0)"/>
<path d="" fill="#1A2133" transform="translate(0,0)"/>
<path d="" fill="#1A2133" transform="translate(0,0)"/>
<path d="" fill="#1A2133" transform="translate(0,0)"/>
<path d="" fill="#F91928" transform="translate(0,0)"/>
<path d="" fill="#1A2133" transform="translate(0,0)"/>
<path d="" fill="#1A2133" transform="translate(0,0)"/>
<path d="" fill="#1A2133" transform="translate(0,0)"/>
<path d="" fill="#1A2133" transform="translate(0,0)"/>
<path d="" fill="#1A2133" transform="translate(0,0)"/>
<path d="" fill="#1A2133" transform="translate(0,0)"/>
<path d="" fill="#1A2133" transform="translate(0,0)"/>
<path d="" fill="#1A2133" transform="translate(0,0)"/>
<path d="" fill="#1A2133" transform="translate(0,0)"/>
<path d="" fill="#1A2133" transform="translate(0,0)"/>
<path d="" fill="#1A2133" transform="translate(0,0)"/>
<path d="" fill="#0077E3" transform="translate(0,0)"/>
<path d="" fill="#1A2133" transform="translate(0,0)"/>
<path d="" fill="#1A2133" transform="translate(0,0)"/>
<path d="" fill="#1A2133" transform="translate(0,0)"/>
<path d="" fill="#1A2133" transform="translate(0,0)"/>
<path d="" fill="#1A2133" transform="translate(0,0)"/>
<path d="" fill="#FF7F00" transform="translate(0,0)"/>
<path d="" fill="#1A2133" transform="translate(0,0)"/>
<path d="" fill="#FF7F00" transform="translate(0,0)"/>
<path d="" fill="#00A3DF" transform="translate(0,0)"/>
<path d="" fill="#00A3DF" transform="translate(0,0)"/>
<path d="" fill="#FF7F00" transform="translate(0,0)"/>
</svg>
