<?xml version="1.0" encoding="UTF-8"?>
<svg version="1.1" xmlns="http://www.w3.org/2000/svg" width="1563" height="354">
<path d="M0 0 C-0.01047363 0.88558594 -0.02094727 1.77117187 -0.03173828 2.68359375 C-0.59377725 25.45546013 -0.59377725 25.45546013 2 48 C2.34998047 49.73443359 2.34998047 49.73443359 2.70703125 51.50390625 C6.01101702 65.48927067 11.57859047 79.68551685 19 92 C19.62261719 93.05703125 20.24523437 94.1140625 20.88671875 95.203125 C22.09382502 97.24551739 23.3021721 99.28717691 24.51171875 101.328125 C26 104 26 104 27 107 C27.66 107 28.32 107 29 107 C30.7265625 109.1171875 30.7265625 109.1171875 32.625 111.875 C33.25664063 112.77992188 33.88828125 113.68484375 34.5390625 114.6171875 C36 117 36 117 36 119 C37.485 119.495 37.485 119.495 39 120 C39.33333333 121.33333333 39.66666667 122.66666667 40 124 C41.485 124.495 41.485 124.495 43 125 C43 125.66 43 126.32 43 127 C43.66 127 44.32 127 45 127 C46.4453125 128.50390625 46.4453125 128.50390625 48.125 130.5625 C51.29312862 134.31756613 54.69430236 137.45265657 58.49609375 140.5546875 C58.99238281 141.03164063 59.48867187 141.50859375 60 142 C60 142.66 60 143.32 60 144 C60.56460938 144.24363281 61.12921875 144.48726562 61.7109375 144.73828125 C64.42689068 146.23529981 66.37279238 148.05633937 68.625 150.1875 C73.47091902 154.62840819 78.55637691 158.33684205 84 162 C85.64742218 163.16442202 87.29325048 164.33110224 88.9375 165.5 C103.57255764 175.72855822 119.26013935 185.58566087 136 192 C136 192.66 136 193.32 136 194 C138.97 194.66 141.94 195.32 145 196 C145 196.99 145 197.98 145 199 C130.02149576 199.09388771 115.04301452 199.16419507 100.06427765 199.20724869 C93.10769246 199.22778016 86.15129123 199.2557178 79.19482422 199.30175781 C72.4709676 199.34623672 65.74734073 199.36919371 59.02333069 199.37950897 C56.46872466 199.38685226 53.91412805 199.4011908 51.35960388 199.42292023 C33.12256152 199.57176204 17.90110423 198.40607921 1.25 190.375 C0.40179688 189.98054687 -0.44640625 189.58609375 -1.3203125 189.1796875 C-3.55538895 188.13618177 -5.7815623 187.07836288 -8 186 C-8.70568115 185.66798584 -9.4113623 185.33597168 -10.13842773 184.99389648 C-12.54600922 183.70848478 -14.10520159 181.95366593 -16 180 C-17.37927692 178.91609404 -18.77584392 177.85388564 -20.1875 176.8125 C-33.01132987 166.9660104 -33.01132987 166.9660104 -35 161 C-35.433125 160.58878906 -35.86625 160.17757812 -36.3125 159.75390625 C-47.44611883 148.1821589 -51.28653454 128.46322654 -51.1003418 113.10693359 C-50.51589878 100.83505217 -47.45397106 89.38799418 -43 78 C-42.53398764 76.6432383 -42.07597239 75.2837097 -41.625 73.921875 C-38.45840693 64.40358408 -34.55555248 55.57977057 -29.89013672 46.70410156 C-28.72167974 44.46717625 -27.61061404 42.20360137 -26.5 39.9375 C-21.59353309 30.1574955 -16.54880726 20.52573459 -10.54296875 11.3671875 C-7.30776213 6.41505762 -7.30776213 6.41505762 -5 1 C-3 0 -3 0 0 0 Z " fill="#0071B9" transform="translate(59,147)"/>
<path d="M0 0 C15.16073033 -0.0703257 30.32145311 -0.12310293 45.4823103 -0.15543652 C52.52301194 -0.17085386 59.56361178 -0.19184413 66.60424805 -0.22631836 C73.40588144 -0.25960622 80.20740926 -0.27688145 87.00911903 -0.28463173 C89.59689302 -0.29015108 92.18466159 -0.30092872 94.77239037 -0.31719017 C98.41243084 -0.33914321 102.05204207 -0.34195943 105.69213867 -0.34057617 C106.74878723 -0.351362 107.80543579 -0.36214783 108.894104 -0.3732605 C120.19657752 -0.3271445 130.74894309 2.3060153 141 7 C142.06863281 7.48210938 143.13726562 7.96421875 144.23828125 8.4609375 C156.45919117 14.25193597 167.54685242 21.26623782 176 32 C176.55300781 32.50660156 177.10601562 33.01320312 177.67578125 33.53515625 C179 35 179 35 179 38 C179.99 38.33 180.98 38.66 182 39 C183.48894369 41.31042986 184.74909463 43.56052673 186 46 C186.50144531 46.95261719 187.00289062 47.90523437 187.51953125 48.88671875 C196.42455642 66.15510089 198.08363443 88.51358946 192.29882812 107.27392578 C190.6030834 112.43740746 188.75284093 117.54028637 186.86523438 122.63623047 C186.09514541 124.74006833 185.35770567 126.85029363 184.640625 128.97265625 C182.36584267 135.64190445 179.72323666 141.87324433 176.47265625 148.125 C175.02891187 150.94355667 173.72010967 153.79258163 172.4375 156.6875 C170.21382647 161.62743297 167.70112943 166.30779414 165 171 C164.39027344 172.08410156 163.78054688 173.16820312 163.15234375 174.28515625 C152.09986659 193.90013341 152.09986659 193.90013341 148 198 C147.01 198 146.02 198 145 198 C145.01571045 196.71706055 145.01571045 196.71706055 145.03173828 195.40820312 C145.43535082 173.11455113 145.43535082 173.11455113 143 151 C142.87157715 150.2766748 142.7431543 149.55334961 142.61083984 148.80810547 C141.78956597 144.19513777 140.91654445 139.59494285 140 135 C139.34 135 138.68 135 138 135 C137.8865625 134.49082031 137.773125 133.98164063 137.65625 133.45703125 C134.92788531 123.24190393 130.79461533 113.91896534 125.07226562 105.04956055 C122.76996883 101.46000662 121.17224117 98.10284411 120 94 C119.34 94 118.68 94 118 94 C115.57946401 91.33741041 113.74357843 88.5954773 112.0625 85.4375 C110.25475282 82.11729501 107.98459669 80.32135298 105 78 C105 77.01 105 76.02 105 75 C104.34 75 103.68 75 103 75 C101.61219183 73.39983325 100.29034296 71.74225003 99 70.0625 C94.46456468 64.39138585 89.50450519 59.70803338 84 55 C83.23945313 54.31421875 82.47890625 53.6284375 81.6953125 52.921875 C80.99148437 52.28765625 80.28765625 51.6534375 79.5625 51 C78.94503906 50.443125 78.32757813 49.88625 77.69140625 49.3125 C75.92212083 47.78972717 75.92212083 47.78972717 73 47 C72.443125 46.2575 71.88625 45.515 71.3125 44.75 C68.70610831 41.65050718 66.10573778 40.07201003 62.609375 38.11328125 C62.07828125 37.74589844 61.5471875 37.37851562 61 37 C61 36.34 61 35.68 61 35 C60.319375 34.773125 59.63875 34.54625 58.9375 34.3125 C55.89096348 32.95128155 53.49646192 31.31219659 50.84375 29.31640625 C48.63522648 27.73955789 46.33757024 26.37774973 44 25 C43.22140625 24.52820313 42.4428125 24.05640625 41.640625 23.5703125 C30.65693482 16.92984621 19.23856387 10.07952129 7 6 C7 5.34 7 4.68 7 4 C4.69 3.34 2.38 2.68 0 2 C0 1.34 0 0.68 0 0 Z " fill="#CC2627" transform="translate(154,5)"/>
<path d="M0 0 C0.99 0 1.98 0 3 0 C3.04683702 14.43026319 3.08191278 28.86051449 3.10362434 43.29083824 C3.11391236 49.99193434 3.12817729 56.69297609 3.15087891 63.39404297 C3.17266288 69.86498134 3.18458038 76.33587058 3.18975449 82.8068428 C3.19344026 85.27148842 3.20063761 87.73613146 3.21146011 90.20075607 C3.22604869 93.66172783 3.22797484 97.12249837 3.22705078 100.58349609 C3.23424133 101.59482605 3.24143188 102.60615601 3.24884033 103.64813232 C3.22508922 111.90803919 1.86253069 119.59065812 -0.5 127.5 C-0.7371875 128.3146875 -0.974375 129.129375 -1.21875 129.96875 C-2 132 -2 132 -4 134 C-4.2475 135.11375 -4.495 136.2275 -4.75 137.375 C-6.10669874 143.31602756 -8.92071078 148.7702289 -12 154 C-12.66 154.33 -13.32 154.66 -14 155 C-15.02137457 156.65365406 -16.01612294 158.32376502 -17 160 C-17.83831355 161.28134634 -18.69317903 162.55198459 -19.5625 163.8125 C-19.97628906 164.41707031 -20.39007813 165.02164063 -20.81640625 165.64453125 C-21.20699219 166.09183594 -21.59757813 166.53914062 -22 167 C-22.66 167 -23.32 167 -24 167 C-24.24621094 167.59554687 -24.49242187 168.19109375 -24.74609375 168.8046875 C-26.20175975 171.3532367 -27.66327972 172.46165672 -30.0625 174.125 C-33.04627522 176.11074647 -33.04627522 176.11074647 -35 179 C-37.60605764 180.45169654 -40.20179965 181.80932052 -42.875 183.125 C-43.60847656 183.49753906 -44.34195313 183.87007812 -45.09765625 184.25390625 C-45.80535156 184.60582031 -46.51304687 184.95773437 -47.2421875 185.3203125 C-47.8904248 185.64273926 -48.53866211 185.96516602 -49.20654297 186.29736328 C-51 187 -51 187 -54 187 C-54 187.66 -54 188.32 -54 189 C-64.75657036 192.27618417 -74.74503282 193.35594897 -86 192.9375 C-87.13219971 192.89955322 -88.26439941 192.86160645 -89.4309082 192.82250977 C-98.311813 192.367196 -105.88105729 190.48173641 -113.96484375 186.8125 C-116.71837941 185.71319977 -119.53299003 184.90555278 -122.375 184.0625 C-129.63926901 181.87076626 -136.18824228 178.92702993 -142.9375 175.5 C-147.84105692 173.01358103 -152.86483234 170.95573407 -158 169 C-158 168.34 -158 167.68 -158 167 C-158.83789062 166.74476563 -159.67578125 166.48953125 -160.5390625 166.2265625 C-164.33207838 164.88231082 -167.80224791 163.20985807 -171.375 161.375 C-172.01566406 161.05015625 -172.65632813 160.7253125 -173.31640625 160.390625 C-174.87947501 159.59742593 -176.44000622 158.79922969 -178 158 C-178 157.34 -178 156.68 -178 156 C-178.71542969 155.72414063 -179.43085938 155.44828125 -180.16796875 155.1640625 C-182.95738855 154.01751478 -185.62290358 152.73772885 -188.3125 151.375 C-189.63701172 150.70597656 -189.63701172 150.70597656 -190.98828125 150.0234375 C-191.65214844 149.68570313 -192.31601563 149.34796875 -193 149 C-193 147.35 -193 145.7 -193 144 C-189.39524313 142.79841438 -186.43562163 143.15924796 -182.6875 143.5625 C-168.83241042 144.72537212 -154.61679481 143.04538009 -141.0625 140.125 C-140.36020264 139.97587158 -139.65790527 139.82674316 -138.93432617 139.6730957 C-134.58832596 138.64726982 -130.89416612 137.05631031 -126.94848633 134.98095703 C-123.99930801 133.49620594 -120.93110293 132.44799324 -117.8125 131.375 C-113.83536134 129.99812951 -109.89383736 128.5985999 -106 127 C-106 126.34 -106 125.68 -106 125 C-105.04738281 124.55269531 -104.09476562 124.10539062 -103.11328125 123.64453125 C-101.84609015 123.0344022 -100.57917772 122.42369415 -99.3125 121.8125 C-98.68666016 121.52052734 -98.06082031 121.22855469 -97.41601562 120.92773438 C-93.14469338 118.84798061 -90.32382739 116.45546412 -87 113 C-85.30296825 111.88689315 -83.57220654 110.82361646 -81.8125 109.8125 C-76.41656791 106.50767438 -72.29557541 102.55732976 -67.99609375 97.94140625 C-66 96 -66 96 -64 96 C-63.62875 95.13375 -63.62875 95.13375 -63.25 94.25 C-61.19121309 90.54418357 -58.49990645 88.33327097 -55 86 C-53.97698139 84.76419352 -53.00062214 83.48892674 -52.0625 82.1875 C-51.54300781 81.47980469 -51.02351562 80.77210938 -50.48828125 80.04296875 C-49.99714844 79.36878906 -49.50601563 78.69460937 -49 78 C-47.71937515 76.2925002 -46.40549561 74.60628069 -45 73 C-44.34 73 -43.68 73 -43 73 C-42.62875 72.2265625 -42.62875 72.2265625 -42.25 71.4375 C-39.2866977 65.65906051 -36.66156816 61.54502895 -32 57 C-29.8484943 53.9357343 -27.86982503 50.79325152 -25.875 47.625 C-24.946875 46.325625 -24.946875 46.325625 -24 45 C-23.34 45 -22.68 45 -22 45 C-21.773125 44.21625 -21.54625 43.4325 -21.3125 42.625 C-18.74091213 35.52251922 -15.17841502 29.26762254 -11 23 C-8.38347113 18.1078839 -6.00992615 13.17233289 -4 8 C-3.34 8 -2.68 8 -2 8 C-1.855625 7.236875 -1.71125 6.47375 -1.5625 5.6875 C-1 3 -1 3 0 0 Z " fill="#43AC34" transform="translate(347,152)"/>
<path d="M0 0 C2.02753946 0.01609545 4.0530867 0.00006109 6.08056641 -0.01904297 C16.8700366 0.01272191 25.67764883 2.08409374 35.56103516 6.20751953 C42.1310986 8.82690009 48.85086717 11.06666387 55.52978516 13.39111328 C55.52978516 14.05111328 55.52978516 14.71111328 55.52978516 15.39111328 C56.62291016 15.61798828 57.71603516 15.84486328 58.84228516 16.07861328 C63.54112662 17.23654207 67.75286286 19.19813329 72.11181641 21.27001953 C74.58652763 22.47233906 74.58652763 22.47233906 77.52978516 23.39111328 C77.52978516 24.05111328 77.52978516 24.71111328 77.52978516 25.39111328 C78.39216797 25.65537109 79.25455078 25.91962891 80.14306641 26.19189453 C89.05672876 29.34817405 97.20504606 34.6670457 105.09228516 39.81298828 C107.54271757 41.45571228 107.54271757 41.45571228 110.34228516 42.84423828 C111.06416016 43.35470703 111.78603516 43.86517578 112.52978516 44.39111328 C112.52978516 45.71111328 112.52978516 47.03111328 112.52978516 48.39111328 C106.55419686 49.46407803 100.83526709 49.39067625 94.77978516 49.26611328 C83.18920944 49.14149343 71.32549161 49.77086391 60.25244141 53.49267578 C57.52978516 54.39111328 57.52978516 54.39111328 53.52978516 54.39111328 C53.52978516 55.05111328 53.52978516 55.71111328 53.52978516 56.39111328 C52.34642578 56.75462891 51.16306641 57.11814453 49.94384766 57.49267578 C42.11653703 59.95870123 34.80925355 62.32321151 27.90869141 66.87158203 C22.52549623 70.310109 16.59472674 73.36946609 10.52978516 75.39111328 C10.52978516 76.05111328 10.52978516 76.71111328 10.52978516 77.39111328 C8.41259766 79.11767578 8.41259766 79.11767578 5.65478516 81.01611328 C4.74986328 81.64775391 3.84494141 82.27939453 2.91259766 82.93017578 C0.52978516 84.39111328 0.52978516 84.39111328 -1.47021484 84.39111328 C-1.72158203 84.99052734 -1.97294922 85.58994141 -2.23193359 86.20751953 C-3.63672294 88.68473481 -4.95326832 89.72071616 -7.28271484 91.32861328 C-13.42003487 95.76112219 -18.18159348 101.2490047 -23.18896484 106.89111328 C-24.71597155 108.56454529 -26.2863456 110.19935871 -27.89599609 111.79345703 C-30.80588303 114.72983762 -33.48955584 117.7990144 -36.15771484 120.95361328 C-36.64304688 121.51757812 -37.12837891 122.08154297 -37.62841797 122.66259766 C-39.99516072 125.45372186 -41.91975867 128.0819307 -43.47021484 131.39111328 C-44.39833984 132.00986328 -44.39833984 132.00986328 -45.34521484 132.64111328 C-48.5308842 135.2646057 -49.74307384 138.70750134 -51.47021484 142.39111328 C-53.09521484 145.39111328 -53.09521484 145.39111328 -54.47021484 147.39111328 C-55.13021484 147.39111328 -55.79021484 147.39111328 -56.47021484 147.39111328 C-56.59396484 148.19548828 -56.59396484 148.19548828 -56.72021484 149.01611328 C-57.73498145 152.22954088 -59.57918586 154.6101883 -61.47021484 157.39111328 C-61.98583984 158.42236328 -62.50146484 159.45361328 -63.03271484 160.51611328 C-64.47021484 163.39111328 -64.47021484 163.39111328 -65.86474609 165.19970703 C-67.76129501 167.78842708 -69.15600797 170.46104782 -70.59521484 173.32861328 C-71.37251953 174.85808594 -71.37251953 174.85808594 -72.16552734 176.41845703 C-73.35362825 179.12547736 -74.03074406 181.48095918 -74.47021484 184.39111328 C-75.13021484 184.39111328 -75.79021484 184.39111328 -76.47021484 184.39111328 C-76.71771484 185.03048828 -76.96521484 185.66986328 -77.22021484 186.32861328 C-78.47021484 188.39111328 -78.47021484 188.39111328 -80.54833984 189.02001953 C-81.49966797 189.20371094 -81.49966797 189.20371094 -82.47021484 189.39111328 C-82.54050625 175.23890948 -82.59310126 161.08673302 -82.62565136 146.93439007 C-82.64127728 140.36220412 -82.66245957 133.79013583 -82.6965332 127.21801758 C-82.72923599 120.87026126 -82.74709096 114.5226178 -82.75484657 108.17478371 C-82.76037048 105.75840289 -82.77115716 103.34202793 -82.78740501 100.92569542 C-82.80932409 97.52951295 -82.81217568 94.13379116 -82.81079102 90.73754883 C-82.82157684 89.74851562 -82.83236267 88.75948242 -82.84347534 87.74047852 C-82.81331224 80.86030911 -81.47182632 74.94732328 -79.47021484 68.39111328 C-79.14497698 67.01907043 -78.82969884 65.64454781 -78.53271484 64.26611328 C-77.41207497 59.71872339 -75.4489212 55.61899666 -73.47021484 51.39111328 C-72.71688791 49.70509585 -71.96677443 48.01763816 -71.22021484 46.32861328 C-70.34521484 44.35986328 -70.34521484 44.35986328 -69.47021484 42.39111328 C-68.81021484 42.39111328 -68.15021484 42.39111328 -67.47021484 42.39111328 C-67.09896484 41.33923828 -67.09896484 41.33923828 -66.72021484 40.26611328 C-62.28818788 30.07245127 -53.67663312 21.40346808 -44.47021484 15.39111328 C-43.84953125 14.70082031 -43.84953125 14.70082031 -43.21630859 13.99658203 C-40.63647467 11.62451997 -37.58903721 10.23426483 -34.47021484 8.70361328 C-33.84115234 8.38328125 -33.21208984 8.06294922 -32.56396484 7.73291016 C-29.67577591 6.29799426 -27.73774624 5.39111328 -24.47021484 5.39111328 C-24.47021484 4.73111328 -24.47021484 4.07111328 -24.47021484 3.39111328 C-16.28173794 0.56209332 -8.63459117 -0.08136 0 0 Z " fill="#FAC400" transform="translate(90.47021484375,5.60888671875)"/>
<path d="M0 0 C1.17949219 1.16015625 1.17949219 1.16015625 2.3828125 2.34375 C3.46949219 3.41109375 3.46949219 3.41109375 4.578125 4.5 C19.66902334 20.33683628 23.01505156 40.82373816 22.6875 61.74609375 C22.43388266 69.22361338 21.39573996 75.42925076 18.3828125 82.34375 C18.10373047 82.98844238 17.82464844 83.63313477 17.53710938 84.29736328 C8.98305673 103.65295055 -4.28152426 117.62679786 -24.359375 125.40625 C-39.61364271 130.11379849 -56.18561179 129.1929884 -70.6171875 122.34375 C-74.13039763 120.23582392 -77.53793385 118.05563065 -80.6171875 115.34375 C-80.6171875 114.68375 -80.6171875 114.02375 -80.6171875 113.34375 C-81.2771875 113.34375 -81.9371875 113.34375 -82.6171875 113.34375 C-84.00656827 111.38227126 -85.3432286 109.38208424 -86.6171875 107.34375 C-86.62083313 108.0821109 -86.62447876 108.8204718 -86.62823486 109.58120728 C-86.66617289 116.55503342 -86.72309146 123.52847714 -86.80109024 130.50196266 C-86.84052351 134.08677571 -86.87273188 137.67134467 -86.88818359 141.25634766 C-86.90337824 144.7190774 -86.93787158 148.18113592 -86.98549652 151.64356613 C-87.00745503 153.60094741 -87.00965883 155.55851819 -87.01153564 157.51602173 C-87.19190697 168.49997193 -87.19190697 168.49997193 -91.6171875 173.34375 C-92.4628125 174.2925 -93.3084375 175.24125 -94.1796875 176.21875 C-97.80422862 179.06858004 -101.52855144 178.98384959 -105.99609375 178.765625 C-110.99775948 177.96058789 -113.63706699 175.42982949 -116.9296875 171.78125 C-119.76954972 167.6792268 -119.74594389 164.45438131 -119.75762939 159.57623291 C-119.76060052 158.8844047 -119.76357164 158.19257648 -119.7666328 157.47978377 C-119.77532065 155.15610669 -119.77682812 152.83248111 -119.77832031 150.50878906 C-119.78294847 148.84484751 -119.78797312 147.18090702 -119.79336548 145.51696777 C-119.80649272 140.99202674 -119.8129352 136.46710054 -119.81737614 131.94214344 C-119.82030666 129.11500918 -119.82441146 126.28787898 -119.82888031 123.46074677 C-119.8425568 114.61502547 -119.85222242 105.76931345 -119.8560822 96.92358232 C-119.86056188 86.71323255 -119.87810495 76.50301672 -119.9070828 66.29270768 C-119.92870395 58.40045594 -119.93878673 50.50824188 -119.94012332 42.61596084 C-119.94117114 37.90241203 -119.94707398 33.18898911 -119.96494293 28.4754715 C-119.98143083 24.03987045 -119.98357563 19.6044898 -119.97480392 15.16886902 C-119.9740339 13.54311787 -119.97837167 11.91735485 -119.98826218 10.29163361 C-120.00099848 8.06722849 -119.99509636 5.84360201 -119.98468018 3.61920166 C-119.98614674 2.37591221 -119.9876133 1.13262276 -119.9891243 -0.14834213 C-119.28833896 -6.7577726 -116.72259197 -11.29797789 -111.6171875 -15.65625 C-108.58116304 -17.85475047 -105.50245575 -18.1395131 -101.7734375 -18.03515625 C-96.42187626 -17.09475509 -92.64821654 -13.8458989 -89.1796875 -9.84375 C-87.26820733 -5.94433045 -86.91470447 -2.97024604 -86.6171875 1.34375 C-86.08544922 0.61671875 -86.08544922 0.61671875 -85.54296875 -0.125 C-77.35229443 -10.43771343 -65.42825503 -16.83582627 -52.4296875 -18.40625 C-32.06882606 -19.70889204 -14.87545991 -13.98946073 0 0 Z M-63.6171875 11.34375 C-63.6171875 12.00375 -63.6171875 12.66375 -63.6171875 13.34375 C-64.3184375 13.42625 -65.0196875 13.50875 -65.7421875 13.59375 C-73.34412075 15.57686302 -78.96312212 21.88196206 -82.87890625 28.46484375 C-83.8632852 30.40066704 -84.76032096 32.34872234 -85.6171875 34.34375 C-86.205 35.58125 -86.205 35.58125 -86.8046875 36.84375 C-90.64383244 48.65650366 -90.50457251 65.15243759 -85.04125977 76.3815918 C-84.52196899 77.38379761 -84.52196899 77.38379761 -83.9921875 78.40625 C-83.6324585 79.1072583 -83.27272949 79.8082666 -82.90209961 80.53051758 C-77.75420604 90.21553769 -70.74134342 95.97181532 -60.28515625 99.453125 C-49.39721008 102.09684356 -39.32312041 100.87209342 -29.6171875 95.34375 C-19.03389227 88.56206463 -13.20273429 79.45946591 -10.08203125 67.25 C-9.78291875 65.26153381 -9.66379313 63.35496231 -9.6171875 61.34375 C-9.57658203 59.81041016 -9.57658203 59.81041016 -9.53515625 58.24609375 C-9.49340646 54.94026973 -9.52967172 51.64851259 -9.6171875 48.34375 C-9.63394531 47.62058594 -9.65070313 46.89742187 -9.66796875 46.15234375 C-10.39745249 36.16883776 -15.6715857 26.37303375 -22.6171875 19.34375 C-28.0934653 14.77015535 -33.79614833 12.24761435 -40.6171875 10.34375 C-41.6071875 10.01375 -42.5971875 9.68375 -43.6171875 9.34375 C-50.61592194 8.89790469 -56.91586959 9.28180603 -63.6171875 11.34375 Z " fill="#1A2133" transform="translate(977.6171875,123.65625)"/>
<path d="M0 0 C4.63337064 2.15691392 6.77650708 4.46163293 9 9 C9.38031673 12.3471365 9.38031673 12.3471365 9.38768005 16.24253845 C9.39575836 17.32065437 9.39575836 17.32065437 9.40399987 18.42055041 C9.41828124 20.82342964 9.41117551 23.22575811 9.40405273 25.62866211 C9.40975622 27.35363711 9.4167204 29.07860834 9.42485046 30.80357361 C9.4427994 35.48540365 9.44161023 40.16704644 9.43590808 44.84890056 C9.43281873 48.75802097 9.43890586 52.66710529 9.44494683 56.57622057 C9.45899615 65.7984842 9.45742738 75.02065521 9.44604492 84.24291992 C9.43456305 93.75593074 9.44863961 103.26865965 9.4754414 112.78163332 C9.49759507 120.95078261 9.50423653 129.1198434 9.49836498 137.2890206 C9.49499344 142.16740357 9.49742363 147.04560584 9.51461601 151.92396355 C9.53007776 156.51150938 9.52613822 161.09863748 9.50731087 165.68616676 C9.50362285 167.36877233 9.50673969 169.05140879 9.51719666 170.7339859 C9.53039437 173.03329817 9.51887157 175.33122498 9.50120544 177.63047791 C9.50099616 178.91633758 9.50078688 180.20219725 9.50057125 181.52702236 C8.74267426 186.78533332 6.26481172 189.82773548 2.4375 193.375 C-2.46288279 195.69154459 -6.6776039 196.00124283 -12 195 C-16.10707426 193.0028605 -19.07056318 190.53559127 -21.4375 186.625 C-22.19497386 183.09012196 -22.63412226 179.59779773 -23 176 C-23.60585938 176.65226563 -24.21171875 177.30453125 -24.8359375 177.9765625 C-36.13617936 189.76358401 -46.84624397 195.20349795 -63.1484375 196.00390625 C-77.96430435 195.98888002 -91.71407996 191.19061336 -104 183 C-104 182.34 -104 181.68 -104 181 C-104.59425781 180.71640625 -105.18851562 180.4328125 -105.80078125 180.140625 C-112.22401873 176.80921231 -115.9356182 171.98645096 -119.75 166.0625 C-120.12664795 165.47758789 -120.5032959 164.89267578 -120.89135742 164.29003906 C-123.35210894 160.33920549 -125.25346428 156.32641848 -127 152 C-127.56074219 150.69289062 -127.56074219 150.69289062 -128.1328125 149.359375 C-131.67264139 140.04990374 -131.94692376 130.84360144 -132 121 C-132.0093457 120.29262695 -132.01869141 119.58525391 -132.02832031 118.85644531 C-132.13064705 99.460878 -124.29822155 82.65891504 -110.9296875 68.83203125 C-97.57558305 55.57996813 -81.60885397 49.33605154 -63 49 C-47.95513056 49.31100505 -35.57625186 55.29413721 -25 66 C-24.01 67.485 -24.01 67.485 -23 69 C-22.99453156 67.91125076 -22.99453156 67.91125076 -22.98895264 66.80050659 C-22.95101178 59.94440556 -22.89409005 53.08869341 -22.81609726 46.23293877 C-22.77666697 42.70865959 -22.74445718 39.18462859 -22.72900391 35.66015625 C-22.71089674 31.60376248 -22.66092678 27.54829512 -22.609375 23.4921875 C-22.60814636 22.23260223 -22.60691772 20.97301697 -22.60565186 19.67526245 C-22.46553101 11.28468586 -21.60256448 7.5965702 -15.65234375 1.65625 C-10.80821254 -1.36865668 -5.5076019 -0.68585231 0 0 Z M-74 79 C-74 79.66 -74 80.32 -74 81 C-75.2684375 81.0928125 -75.2684375 81.0928125 -76.5625 81.1875 C-80.76787691 82.18149818 -83.86388926 84.02162264 -87 87 C-87 87.66 -87 88.32 -87 89 C-87.99 89.33 -88.98 89.66 -90 90 C-99.52232433 101.90290541 -101.11822959 116.31606849 -100 131 C-98.60989576 139.87277475 -94.88773728 149.12575355 -89 156 C-88.34 156 -87.68 156 -87 156 C-86.67 156.99 -86.34 157.98 -86 159 C-77.77752306 166.01328916 -67.17328948 168.74182595 -56.59375 168.47265625 C-50.65492772 167.69157202 -45.40253884 165.51280876 -40 163 C-40 162.34 -40 161.68 -40 161 C-39.42121094 160.91621094 -38.84242188 160.83242187 -38.24609375 160.74609375 C-32.26517931 158.75939 -28.01814913 151.49303758 -25.125 146.1875 C-19.50075996 133.85962032 -18.92223159 117.24281011 -23.1015625 104.37890625 C-23.39804687 103.59386719 -23.69453125 102.80882812 -24 102 C-24.25523437 101.30777344 -24.51046875 100.61554688 -24.7734375 99.90234375 C-28.08515024 92.26109831 -34.48882046 84.67821629 -42 81 C-43.32 81 -44.64 81 -46 81 C-46 80.34 -46 79.68 -46 79 C-55.05308969 75.63140849 -64.8741791 76.13699736 -74 79 Z " fill="#1A2133" transform="translate(506,56)"/>
<path d="M0 0 C3.91979179 1.82473066 5.45265502 2.90531005 7.375 6.75 C7.58125 7.4925 7.7875 8.235 8 9 C8.66 9 9.32 9 10 9 C10.33 42.66 10.66 76.32 11 111 C18.425 103.575 18.425 103.575 26 96 C26.66 96 27.32 96 28 96 C28.25344177 95.42222305 28.50688354 94.84444611 28.76800537 94.24916077 C30.14425564 91.73664323 31.69414362 90.04506773 33.71191406 88.01342773 C34.47320618 87.24260361 35.23449829 86.47177948 36.01885986 85.67759705 C36.84279236 84.85457596 37.66672485 84.03155487 38.515625 83.18359375 C39.36421082 82.33072281 40.21279663 81.47785187 41.08709717 80.59913635 C42.88347171 78.79701993 44.68247162 76.99751728 46.48388672 75.20043945 C49.23422296 72.45325893 51.97098903 69.69304849 54.70703125 66.93164062 C56.45491763 65.18148081 58.20359003 63.43210556 59.953125 61.68359375 C60.76896057 60.85854843 61.58479614 60.03350311 62.425354 59.18345642 C67.32080147 54.32741028 71.35048744 50.46448342 78.4375 49.5625 C83.76188395 50.21637171 87.35762049 52.02914459 90.875 56.25 C93.00337146 61.4526858 93.63732435 65.0990153 91.8671875 70.37890625 C90.04293714 74.36140966 87.40683754 77.08542341 84.25 80.0625 C83.71721436 80.58054199 83.18442871 81.09858398 82.63549805 81.63232422 C78.88704999 85.24817954 74.97867752 88.64022787 71 92 C70.67 92.66 70.34 93.32 70 94 C69.34 94 68.68 94 68 94 C68 94.66 68 95.32 68 96 C66.63671875 97.33984375 66.63671875 97.33984375 64.6875 98.9375 C60.42465257 102.5368989 56.5384439 106.4186798 52.68237305 110.44311523 C51.49090704 111.66490714 50.24906136 112.83715331 49 114 C48.34 114 47.68 114 47 114 C49.22598844 116.72550218 51.45351728 119.44971592 53.68359375 122.171875 C54.97011916 123.74260754 56.25531875 125.31443836 57.53515625 126.890625 C60.63108654 130.67343371 64.03619635 134.05906082 67.50976562 137.4921875 C73.90004554 143.81120036 80.22775957 150.10072582 86 157 C90.35426028 162.15380186 94.86375094 166.96085317 99.75 171.625 C103.0443044 175.10232131 103.35080184 178.15026229 103.28125 182.87109375 C102.66733333 187.51810191 100.30770148 190.84175011 96.8125 193.9375 C92.79155676 195.456523 89.24294568 195.66954285 85 195 C80.17789804 192.54167351 76.62055878 188.9653739 73 185 C73 184.34 73 183.68 73 183 C72.34 183 71.68 183 71 183 C69.51953125 181.53125 69.51953125 181.53125 67.8125 179.5 C67.19246094 178.77167969 66.57242187 178.04335937 65.93359375 177.29296875 C65.29550781 176.53628906 64.65742187 175.77960938 64 175 C60.85318701 171.34542101 57.72385059 167.72385059 54.3125 164.3125 C51.99962077 161.99962077 50.04155326 159.55194158 48 157 C46.35697047 155.31002677 44.68528688 153.64783606 43 152 C37.42091967 146.5259871 32.05452355 140.96466283 27 135 C23.63251488 136.51947499 22.39159663 137.52100842 21 141 C20.34 141 19.68 141 19 141 C18.79375 141.556875 18.5875 142.11375 18.375 142.6875 C17 145 17 145 13.96435547 147.13549805 C11.15516578 149.43572606 11.0137551 149.93272342 10.22705078 153.78051758 C10.18642241 155.23465981 10.17743136 156.68993146 10.1953125 158.14453125 C10.18160614 158.91431808 10.16789978 159.68410492 10.15377808 160.47721863 C10.11654735 162.92291071 10.12018754 165.36656531 10.125 167.8125 C10.10686807 169.4759431 10.0860638 171.13935936 10.0625 172.80273438 C10.01071513 176.86882991 9.9955645 180.93359285 10 185 C9.34 185 8.68 185 8 185 C7.814375 185.721875 7.62875 186.44375 7.4375 187.1875 C5.42177983 191.13130033 3.02934528 193.17455076 -1 195 C-5.43759408 195.96689042 -9.1836328 195.87136534 -13.3125 193.890625 C-17.97560275 190.70188562 -20.23615644 187.38372987 -22 182 C-22.37752342 178.50326538 -22.37752342 178.50326538 -22.38095093 174.75146484 C-22.3856309 174.05621893 -22.39031087 173.36097301 -22.39513266 172.64465904 C-22.40702388 170.33321993 -22.39764896 168.02238019 -22.38818359 165.7109375 C-22.39225192 164.04640357 -22.39759527 162.38187233 -22.40411377 160.71734619 C-22.41776212 156.20910235 -22.41249899 151.70106503 -22.40297651 147.19281769 C-22.39536706 142.46887161 -22.4024291 137.74494289 -22.40713501 133.02099609 C-22.41258881 125.08883498 -22.40541079 117.15675774 -22.39111328 109.22460938 C-22.37478749 100.06152563 -22.38007627 90.89864217 -22.3965925 81.73556328 C-22.41021805 73.86020128 -22.41212179 65.98489948 -22.40427649 58.1095295 C-22.39960586 53.4094731 -22.39895835 48.70951076 -22.40888596 44.00946045 C-22.4175689 39.5901937 -22.4115095 35.1711845 -22.39420319 30.7519455 C-22.39024543 29.13265154 -22.3913602 27.51333581 -22.39799118 25.8940506 C-22.40622524 23.6785888 -22.39586372 21.46394524 -22.38095093 19.24853516 C-22.37981985 18.01044098 -22.37868877 16.7723468 -22.37752342 15.49673462 C-21.93599972 11.4072103 -20.78399175 8.68229098 -19 5 C-18.34 5 -17.68 5 -17 5 C-17 4.34 -17 3.68 -17 3 C-11.6840639 -0.98939058 -6.38791047 -0.77795933 0 0 Z " fill="#1A2133" transform="translate(1045,56)"/>
<path d="M0 0 C11.80043217 12.27641599 17.89291198 27.26249955 18.13671875 44.16796875 C18.16463501 45.44716187 18.16463501 45.44716187 18.19311523 46.75219727 C18.13800487 52.17494986 17.52971816 55.65123017 13.63671875 59.73046875 C7.58983186 63.3167401 2.13403606 64.30811486 -4.79858398 64.20043945 C-5.69401413 64.20262985 -6.58944427 64.20482025 -7.51200867 64.20707703 C-10.44068642 64.20936913 -13.36833319 64.18324818 -16.296875 64.15625 C-18.3418801 64.15132173 -20.38688973 64.1480257 -22.43190002 64.14628601 C-26.70108627 64.13867159 -30.96993418 64.11818118 -35.23901367 64.0871582 C-40.71917164 64.04740915 -46.19911085 64.0295183 -51.67939663 64.01984882 C-56.90608581 64.00989793 -62.13272139 63.99001037 -67.359375 63.96875 C-68.35911283 63.96535425 -69.35885067 63.9619585 -70.38888359 63.95845985 C-73.20390149 63.9469258 -76.01877855 63.92841548 -78.83374023 63.9074707 C-79.67267822 63.9047818 -80.51161621 63.9020929 -81.37597656 63.89932251 C-87.13343958 63.84538959 -87.13343958 63.84538959 -89.36328125 62.73046875 C-86.2543426 74.83763634 -81.48604637 83.15660132 -71.36328125 90.73046875 C-58.34132451 97.37578642 -45.38124773 98.10869195 -31.5859375 93.87890625 C-27.09148108 92.36225841 -23.15506928 90.73187482 -19.23828125 88.04296875 C-15.13925198 85.32431073 -11.27818443 84.41034096 -6.36328125 84.73046875 C-2.21875197 86.38828046 0.38268503 88.89026315 2.63671875 92.73046875 C3.4058088 95.92280285 3.44431714 98.54230257 2.63671875 101.73046875 C0.67407055 104.80953243 -1.55185259 107.39609246 -4.36328125 109.73046875 C-5.02328125 109.73046875 -5.68328125 109.73046875 -6.36328125 109.73046875 C-6.36328125 110.39046875 -6.36328125 111.05046875 -6.36328125 111.73046875 C-7.97265625 112.94921875 -7.97265625 112.94921875 -10.11328125 114.23046875 C-10.809375 114.65328125 -11.50546875 115.07609375 -12.22265625 115.51171875 C-13.28226563 116.115 -13.28226563 116.115 -14.36328125 116.73046875 C-15.0284375 117.11203125 -15.69359375 117.49359375 -16.37890625 117.88671875 C-18.36328125 118.73046875 -18.36328125 118.73046875 -22.36328125 118.73046875 C-22.36328125 119.39046875 -22.36328125 120.05046875 -22.36328125 120.73046875 C-45.40898719 127.54680431 -68.29796694 124.49915183 -89.36328125 113.73046875 C-89.36328125 113.07046875 -89.36328125 112.41046875 -89.36328125 111.73046875 C-89.915 111.64539063 -90.46671875 111.5603125 -91.03515625 111.47265625 C-102.08073444 107.95141488 -109.93199072 95.54291196 -115.11328125 85.85546875 C-121.28212127 72.72584304 -122.75568986 60.04403993 -122.36328125 45.73046875 C-122.34652344 44.84617187 -122.32976563 43.961875 -122.3125 43.05078125 C-121.33586159 24.24351579 -111.49327135 8.5789583 -98.36328125 -4.26953125 C-94.76455514 -7.26953125 -94.76455514 -7.26953125 -92.36328125 -7.26953125 C-92.36328125 -7.92953125 -92.36328125 -8.58953125 -92.36328125 -9.26953125 C-60.30867433 -27.19455763 -27.2786374 -26.19650964 0 0 Z M-82.48828125 19.91796875 C-86.67345407 26.19572798 -88.29858761 32.27761325 -89.36328125 39.73046875 C-64.28328125 39.73046875 -39.20328125 39.73046875 -13.36328125 39.73046875 C-15.67298336 27.02710714 -18.79608403 19.23558041 -29.36328125 11.73046875 C-46.91965024 0.43917498 -68.56558069 5.585777 -82.48828125 19.91796875 Z " fill="#1A2133" transform="translate(661.36328125,127.26953125)"/>
<path d="M0 0 C0.86753906 0.7734375 1.73507812 1.546875 2.62890625 2.34375 C13.16821422 12.27049015 21.59622013 27.65088174 22.3359375 42.41015625 C22.3595316 43.96081267 22.37241312 45.51166625 22.375 47.0625 C22.39949219 47.83916016 22.42398438 48.61582031 22.44921875 49.41601562 C22.47641474 54.76909278 21.4937877 57.72763415 18 62 C13.15038339 66.84961661 5.83650355 67.22421103 -0.68466187 67.25994873 C-1.49432404 67.25432922 -2.30398621 67.24870972 -3.13818359 67.24291992 C-4.45184906 67.24576744 -4.45184906 67.24576744 -5.79205322 67.24867249 C-8.66094163 67.25235067 -11.52957195 67.24172243 -14.3984375 67.23046875 C-16.40003428 67.22927566 -18.40163164 67.22882406 -20.40322876 67.2290802 C-24.58412209 67.22752071 -28.76492914 67.21926854 -32.94580078 67.20581055 C-38.31275925 67.1887554 -43.67962366 67.18499838 -49.04660606 67.18575573 C-53.17287092 67.18548439 -57.29911509 67.18001007 -61.42537308 67.17275429 C-63.4053901 67.16956719 -65.38540947 67.16760012 -67.36542892 67.16686058 C-70.12305487 67.1647012 -72.88057933 67.15596761 -75.63818359 67.14526367 C-76.45999115 67.14571686 -77.28179871 67.14617004 -78.12850952 67.14663696 C-83.771032 67.114484 -83.771032 67.114484 -86 66 C-85.01 67.485 -85.01 67.485 -84 69 C-83.54669289 70.53129353 -83.13384997 72.07483665 -82.75 73.625 C-80.52797355 81.34005632 -75.87748386 89.2490316 -68.7421875 93.2734375 C-57.52007287 99.06873849 -44.57089811 102.14815238 -32 99 C-24.58653708 96.41824858 -17.66536811 92.8969024 -10.7890625 89.13671875 C-7.57028862 87.82486553 -5.44512235 87.58509352 -2 88 C0.08203125 89.2421875 0.08203125 89.2421875 1.8125 90.875 C2.39644531 91.40867187 2.98039063 91.94234375 3.58203125 92.4921875 C6.32721515 95.41130867 6.28776894 98.05939151 6.203125 101.98828125 C5.65837869 107.38336493 1.28578547 111.32930893 -2.44921875 114.94140625 C-18.32152103 127.75105909 -38.6946227 128.4424432 -58.14404297 126.82128906 C-71.12685421 125.30657165 -84.13551197 118.42638499 -94 110 C-94.95712891 109.29037109 -94.95712891 109.29037109 -95.93359375 108.56640625 C-104.89655369 101.56027187 -111.06182027 90.5236914 -115 80 C-115.391875 78.989375 -115.78375 77.97875 -116.1875 76.9375 C-121.46884743 57.84339774 -119.17320439 35.40111835 -109.8125 18.15234375 C-100.13519951 1.32134914 -85.29610674 -9.91778073 -67 -16 C-65.824375 -16.4125 -64.64875 -16.825 -63.4375 -17.25 C-39.69256196 -22.43071375 -17.95273894 -16.06144553 0 0 Z M-61 11 C-61 11.66 -61 12.32 -61 13 C-61.86625 13.0825 -62.7325 13.165 -63.625 13.25 C-71.58687466 15.01930548 -77.01423144 21.31336019 -81.26171875 27.98046875 C-83.97059742 33.02562939 -84.70464566 37.17090548 -86 43 C-60.59 43 -35.18 43 -9 43 C-10.5800701 34.32020383 -10.5800701 34.32020383 -13.9375 26.9375 C-14.44152344 26.01839844 -14.94554687 25.09929687 -15.46484375 24.15234375 C-16.88803488 21.71025104 -16.88803488 21.71025104 -20 21 C-20 20.34 -20 19.68 -20 19 C-21.87410321 17.40268298 -21.87410321 17.40268298 -24.25 15.875 C-25.03890625 15.33617187 -25.8278125 14.79734375 -26.640625 14.2421875 C-29.14550338 12.68942188 -29.14550338 12.68942188 -33 13 C-33 12.34 -33 11.68 -33 11 C-42.99761747 8.97516608 -51.03532037 8.75443839 -61 11 Z " fill="#1A2133" transform="translate(813,124)"/>
<path d="M0 0 C9.84855822 9.2769198 19.66006367 21.73158474 20.97802734 35.70532227 C21.02706293 39.1997666 21.05879198 42.69268667 21.0625 46.1875 C21.08699219 47.40630859 21.11148437 48.62511719 21.13671875 49.88085938 C21.14058594 51.05583984 21.14445312 52.23082031 21.1484375 53.44140625 C21.15665527 54.50818604 21.16487305 55.57496582 21.17333984 56.67407227 C20.56531607 60.36712921 19.29697559 61.98306897 16.6875 64.625 C9.22978624 69.51206641 -1.59588169 67.98574809 -10.125 67.875 C-11.89379252 67.86296614 -13.66259201 67.85192258 -15.43139648 67.84179688 C-38.72709993 67.67543475 -62.022497 67.14564807 -85.3125 66.625 C-84.84365706 68.06164222 -84.37220342 69.49743262 -83.8996582 70.93286133 C-83.63739944 71.73250809 -83.37514069 72.53215485 -83.10493469 73.35603333 C-79.68134534 83.15874668 -74.52722475 90.60210365 -65.3125 95.375 C-54.15832965 100.7375819 -40.42622242 102.79886976 -28.51953125 98.65234375 C-23.17066514 96.50034199 -18.13036433 93.99163152 -13.0625 91.25 C-9.542186 89.46913527 -6.85590493 88.161152 -2.875 88.4375 C1.31605134 89.83451711 3.0654602 91.07753439 5.6875 94.625 C7.51356316 98.73364212 7.91840438 100.76295696 6.75 105.125 C1.70371311 114.869554 -8.94849693 120.93443676 -19 124.4375 C-20.43511299 124.84190199 -21.87288518 125.23692857 -23.3125 125.625 C-24.28558105 125.89461548 -24.28558105 125.89461548 -25.27832031 126.16967773 C-31.66711277 127.77144145 -37.81157396 127.92413357 -44.375 127.875 C-45.41205078 127.88273438 -46.44910156 127.89046875 -47.51757812 127.8984375 C-53.48340145 127.88330542 -58.59712804 127.33445098 -64.3125 125.625 C-65.405625 125.356875 -66.49875 125.08875 -67.625 124.8125 C-86.17745027 118.83798212 -101.34080315 107.12487021 -110.7578125 89.99609375 C-116.20902212 78.78357577 -117.81501918 67.42477627 -117.6875 55.0625 C-117.69910156 53.93392578 -117.71070313 52.80535156 -117.72265625 51.64257812 C-117.68576079 40.94904401 -115.67112537 31.15180996 -110.75 21.625 C-110.40557861 20.95202881 -110.06115723 20.27905762 -109.70629883 19.58569336 C-100.98890736 3.22773042 -87.39731943 -7.77062597 -70.3125 -14.375 C-67.29962722 -15.24099953 -64.40595112 -15.84164636 -61.3125 -16.375 C-60.9825 -16.705 -60.6525 -17.035 -60.3125 -17.375 C-37.89462885 -20.54734026 -16.90631956 -15.29581734 0 0 Z M-76.81640625 22.6484375 C-81.82638427 29.26736408 -83.49890279 35.46381256 -85.3125 43.625 C-59.9025 43.625 -34.4925 43.625 -8.3125 43.625 C-11.94828405 30.29379181 -14.7779405 22.45414405 -26.09375 14.76171875 C-28.4903335 13.32102221 -28.4903335 13.32102221 -32.3125 13.625 C-32.3125 12.965 -32.3125 12.305 -32.3125 11.625 C-48.71165364 7.86125982 -64.75173692 9.51328192 -76.81640625 22.6484375 Z " fill="#1A2133" transform="translate(1538.3125,123.375)"/>
<path d="M0 0 C0.83660156 0.72960937 1.67320313 1.45921875 2.53515625 2.2109375 C13.51620371 12.42823359 19.83757355 24.43024956 23 39 C23.28810547 40.12148437 23.28810547 40.12148437 23.58203125 41.265625 C26.64141222 61.28026687 22.82429436 80.82430585 11.2890625 97.46875 C6.31834808 104.04226622 0.58004389 109.07680169 -6 114 C-6.74121094 114.5671875 -7.48242188 115.134375 -8.24609375 115.71875 C-22.8339406 126.21129305 -41.70361142 129.46762427 -59.31640625 127.45703125 C-64.28680334 126.61054441 -69.14457897 125.34731578 -74 124 C-74 123.34 -74 122.68 -74 122 C-74.66 121.9175 -75.32 121.835 -76 121.75 C-83.89080422 119.77729894 -89.79403411 115.06151971 -96 110 C-97.5159375 108.8553125 -97.5159375 108.8553125 -99.0625 107.6875 C-99.701875 107.130625 -100.34125 106.57375 -101 106 C-101 105.34 -101 104.68 -101 104 C-102.485 103.505 -102.485 103.505 -104 103 C-105.1875 100.4375 -105.1875 100.4375 -106 98 C-106.66 98 -107.32 98 -108 98 C-115.4328806 87.94595243 -120.73043094 74.56606559 -121 62 C-121.04060547 60.36417969 -121.04060547 60.36417969 -121.08203125 58.6953125 C-121.32192078 38.41374354 -116.55995634 19.8593747 -102.05517578 4.95263672 C-100.71630078 3.62203489 -99.35871639 2.3103348 -98 1 C-97.37867188 0.34773438 -96.75734375 -0.30453125 -96.1171875 -0.9765625 C-88.16100594 -8.79003229 -75.77704286 -15.43252181 -64.6875 -16.78125 C-62.96679122 -16.82976273 -62.96679122 -16.82976273 -62 -18 C-39.04131655 -21.67665749 -17.34244177 -15.31329491 0 0 Z M-62 11 C-62 11.66 -62 12.32 -62 13 C-62.804375 13.020625 -63.60875 13.04125 -64.4375 13.0625 C-72.94702066 15.30184754 -79.53682336 22.66184204 -84 30 C-89.7952345 42.98202987 -91.65962779 58.79883037 -87.1015625 72.515625 C-81.58961063 84.94683561 -72.78115727 93.80125315 -60.07421875 98.75 C-49.07155801 102.03029637 -38.67987471 100.03652118 -28.7109375 94.796875 C-19.41735071 89.2972993 -11.74616311 80.56636268 -9 70 C-5.72282693 54.56224762 -6.42220949 40.62138406 -15 27 C-21.7528815 17.69836557 -30.40472178 11.23796501 -41.890625 9.2421875 C-48.96801168 8.42959866 -55.10551488 9.41765915 -62 11 Z " fill="#1A2133" transform="translate(1275,124)"/>
<path d="M0 0 C4.50544666 2.61416775 7.64999046 5.26357276 9.84375 10.08984375 C10.44250186 14.08664037 10.713092 18.05251168 10.84375 22.08984375 C11.95169922 20.80400391 11.95169922 20.80400391 13.08203125 19.4921875 C19.32735253 12.39292048 25.30048791 6.43321211 33.84375 2.08984375 C34.53339844 1.73277344 35.22304687 1.37570313 35.93359375 1.0078125 C43.38007032 -2.12228034 51.93277644 -1.15538735 59.84375 -0.91015625 C59.84375 -0.25015625 59.84375 0.40984375 59.84375 1.08984375 C60.400625 1.13109375 60.9575 1.17234375 61.53125 1.21484375 C65.12215229 2.57356353 67.17763314 4.71825294 68.84375 8.08984375 C69.67182815 12.51940465 69.89417292 16.88217523 67.921875 21.02734375 C65.18127198 24.58656845 62.02746271 26.64456118 57.84375 28.08984375 C54.87437725 28.45080947 51.91439527 28.66407931 48.9296875 28.859375 C36.85626762 29.76106079 26.06417168 33.89908276 17.84375 43.08984375 C15.8949584 45.97584048 14.28719013 48.92322704 12.84375 52.08984375 C12.4982309 52.80680923 12.15271179 53.52377472 11.79672241 54.26246643 C10.62798828 57.72998799 10.56656413 60.9245967 10.58837891 64.53881836 C10.58294823 65.63736397 10.58294823 65.63736397 10.57740784 66.75810242 C10.57053561 68.34205318 10.56800431 69.92602751 10.56935501 71.5099926 C10.57032322 74.01997161 10.55734385 76.52952586 10.54037476 79.03944397 C10.49418857 86.17331683 10.46949635 93.30714479 10.46289062 100.44116211 C10.45786973 104.81078708 10.43359347 109.17996646 10.39756393 113.54944038 C10.38778189 115.21073288 10.38542529 116.87208678 10.39073563 118.53339958 C10.39782451 120.85990767 10.38048927 123.18509158 10.35791016 125.51147461 C10.36608261 126.19270386 10.37425507 126.87393311 10.38267517 127.57580566 C10.29782788 132.50613494 8.88997307 135.27352917 5.84375 139.08984375 C1.14521447 143.22902981 -1.60511103 144.42049248 -7.7578125 144.390625 C-11.57883577 143.9114413 -13.99948997 142.23912718 -17.15625 140.08984375 C-17.15625 139.42984375 -17.15625 138.76984375 -17.15625 138.08984375 C-17.81625 138.08984375 -18.47625 138.08984375 -19.15625 138.08984375 C-22.44182197 131.8934653 -22.57859306 126.58424937 -22.52856445 119.65014648 C-22.53221512 118.5175943 -22.53586578 117.38504211 -22.53962708 116.21817017 C-22.54771197 112.48643858 -22.53413985 108.75514397 -22.51953125 105.0234375 C-22.51901243 102.42464702 -22.51953096 99.82585614 -22.52104187 97.22706604 C-22.52095224 91.78583429 -22.51088135 86.34476168 -22.49243164 80.90356445 C-22.47125609 74.62269863 -22.46775748 68.3420157 -22.4739936 62.0611214 C-22.47969781 56.0046635 -22.47392425 49.94828646 -22.46282005 43.89183235 C-22.4589724 41.32062094 -22.45781803 38.74940403 -22.4594059 36.17819023 C-22.4597769 32.5854026 -22.44714651 28.99289242 -22.4309082 25.40014648 C-22.43338562 24.33867905 -22.43586304 23.27721161 -22.43841553 22.18357849 C-22.38917645 15.35463985 -21.9912906 9.65999324 -17.28125 4.33984375 C-16.78882813 3.7675 -16.29640625 3.19515625 -15.7890625 2.60546875 C-11.3009544 -1.56052633 -5.60942275 -2.36774547 0 0 Z " fill="#1A2133" transform="translate(1344.15625,106.91015625)"/>
<path d="" fill="#1A2133" transform="translate(0,0)"/>
<path d="M0 0 C0.66 0.66 1.32 1.32 2 2 C1.34 2 0.68 2 0 2 C0 1.34 0 0.68 0 0 Z " fill="#1A2133" transform="translate(797,153)"/>
<path d="" fill="#1A2133" transform="translate(0,0)"/>
<path d="M0 0 C2 1 2 1 2 1 Z " fill="#1A2133" transform="translate(658,236)"/>
<path d="M0 0 C2 1 2 1 2 1 Z " fill="#1A2133" transform="translate(396,236)"/>
<path d="" fill="#1A2133" transform="translate(0,0)"/>
<path d="" fill="#1A2133" transform="translate(0,0)"/>
<path d="" fill="#1A2133" transform="translate(0,0)"/>
<path d="" fill="#1A2133" transform="translate(0,0)"/>
<path d="" fill="#1A2133" transform="translate(0,0)"/>
<path d="" fill="#1A2133" transform="translate(0,0)"/>
<path d="" fill="#1A2133" transform="translate(0,0)"/>
<path d="" fill="#1A2133" transform="translate(0,0)"/>
<path d="" fill="#1A2133" transform="translate(0,0)"/>
<path d="" fill="#1A2133" transform="translate(0,0)"/>
<path d="" fill="#1A2133" transform="translate(0,0)"/>
<path d="" fill="#1A2133" transform="translate(0,0)"/>
<path d="" fill="#1A2133" transform="translate(0,0)"/>
<path d="" fill="#1A2133" transform="translate(0,0)"/>
<path d="" fill="#1A2133" transform="translate(0,0)"/>
</svg>
