<?xml version="1.0" encoding="UTF-8"?>
<svg version="1.1" xmlns="http://www.w3.org/2000/svg" width="2438" height="401">
<path d="M0 0 C1.57798906 0.51661878 3.16130933 1.01729265 4.75 1.5 C8.87533588 2.84810083 12.27648506 4.78021225 16 7 C17.19882813 7.45246094 17.19882813 7.45246094 18.421875 7.9140625 C21.17410946 9.07333701 23.16557866 10.45893658 25.5 12.3125 C26.2321875 12.88613281 26.964375 13.45976563 27.71875 14.05078125 C30.28549 16.24393752 32.62029539 18.605785 35 21 C36.82525243 22.65479064 38.65874113 24.30053811 40.5 25.9375 C48.20901574 32.96539788 52.55509473 39.52651504 57 49 C57.79664063 50.69382812 57.79664063 50.69382812 58.609375 52.421875 C60.0915737 55.60640091 61.54747728 58.80186392 63 62 C63.48146484 63.00160156 63.48146484 63.00160156 63.97265625 64.0234375 C65.92142487 68.19517335 66.78400842 72.35927629 67.5703125 76.86328125 C67.91102351 79.04046364 67.91102351 79.04046364 69 81 C69.11145671 83.94283167 69.16412462 86.86126505 69.16796875 89.8046875 C69.17129715 90.68021271 69.17462555 91.55573792 69.17805481 92.45779419 C69.1831227 94.31218947 69.18546318 96.16659389 69.18530273 98.02099609 C69.18748583 100.8565987 69.20563353 103.6918102 69.22460938 106.52734375 C69.227544 108.32812367 69.22952833 110.12890544 69.23046875 111.9296875 C69.23765427 112.77771942 69.24483978 113.62575134 69.25224304 114.4994812 C69.24916641 115.29355377 69.24608978 116.08762634 69.24291992 116.90576172 C69.24434494 117.60144257 69.24576996 118.29712341 69.24723816 119.0138855 C68.9567681 121.34729069 68.06374969 122.91673968 67 125 C66.87625 126.216875 66.7525 127.43375 66.625 128.6875 C66.20728666 132.77349594 64.85365992 135.97115552 63.03515625 139.62890625 C61.88053796 142.10805539 61.88053796 142.10805539 61.125 145.32421875 C59.87925727 149.39451012 58.12637097 152.63190202 55.9375 156.25 C53.10772209 160.94743361 53.10772209 160.94743361 51 166 C50.34 166 49.68 166 49 166 C48.73960937 166.5775 48.47921875 167.155 48.2109375 167.75 C45.35193752 173.06220642 40.49047904 178.00846308 36 182 C35.34 182 34.68 182 34 182 C34 182.66 34 183.32 34 184 C26.58188574 190.88607738 18.56461538 196.58999604 8.78515625 199.32421875 C6.79373236 199.84739691 6.79373236 199.84739691 6 202 C3.59423559 202.59328345 1.24901144 203.07967291 -1.1875 203.5 C-4.88196146 204.15599218 -8.47010806 204.81675995 -12.02734375 206.046875 C-25.41845759 210.34047786 -43.17344533 208.2893009 -56 203 C-56.7940625 202.69578125 -57.588125 202.3915625 -58.40625 202.078125 C-70.71637986 196.96126379 -82.85270151 189.29459698 -89 177 C-89.00142502 178.04268036 -89.00285004 179.08536072 -89.00431824 180.15963745 C-89.02103387 190.01655086 -89.0639466 199.87305384 -89.13209057 209.72974968 C-89.16628845 214.79645508 -89.19145934 219.86286125 -89.19555664 224.9296875 C-89.19985504 229.82533899 -89.22844524 234.7203163 -89.27343178 239.61575699 C-89.28635762 241.47747995 -89.29073199 243.33928379 -89.28615379 245.20104599 C-89.26487579 256.48777273 -89.35895402 265.56615837 -97.16796875 274.47265625 C-97.83441406 274.99730469 -98.50085937 275.52195312 -99.1875 276.0625 C-100.19876953 276.88427734 -100.19876953 276.88427734 -101.23046875 277.72265625 C-105.05975659 280.48684416 -108.68092982 280.25490668 -113.25 280.3125 C-114.00152344 280.34150391 -114.75304688 280.37050781 -115.52734375 280.40039062 C-120.94175769 280.46181068 -123.86048343 279.55286534 -128 276 C-128 275.34 -128 274.68 -128 274 C-128.99 273.67 -129.98 273.34 -131 273 C-136.97891264 266.65872901 -137.29489466 260.27964811 -137.26742554 251.99992371 C-137.27195665 250.99659337 -137.27648776 249.99326303 -137.28115618 248.95952874 C-137.29381043 245.59951849 -137.29217913 242.23967011 -137.29052734 238.87963867 C-137.29651194 236.4697397 -137.30331732 234.05984265 -137.31088257 231.64994812 C-137.32672091 225.78427841 -137.33299126 219.91864661 -137.33410732 214.05295988 C-137.3350587 209.2834373 -137.33917345 204.51392795 -137.34550858 199.74440956 C-137.36311584 186.21241072 -137.37234825 172.68044355 -137.37084763 159.14843317 C-137.37076772 158.41938919 -137.3706878 157.69034521 -137.37060547 156.93920898 C-137.37052371 156.20927155 -137.37044195 155.47933412 -137.37035771 154.72727738 C-137.36954495 142.89994075 -137.38868121 131.07273152 -137.4168822 119.24543174 C-137.44563164 107.09190589 -137.45942137 94.93844213 -137.45769465 82.78488141 C-137.45703146 75.96532485 -137.46249258 69.14590184 -137.48405075 62.32637596 C-137.5041992 55.91184124 -137.50356778 49.49751554 -137.48901749 43.08296394 C-137.48692641 40.73078881 -137.49164797 38.3785961 -137.5037384 36.02645111 C-137.51919393 32.81097898 -137.5098798 29.5964787 -137.49447632 26.38102722 C-137.50476344 25.45416223 -137.51505057 24.52729724 -137.52564943 23.57234544 C-137.44683437 16.10750887 -135.14894369 10.69618315 -131.4375 4.3125 C-126.33982718 -0.52375371 -120.06523727 -4.28832981 -112.9375 -4.75 C-106.39631534 -4.34248211 -101.0250361 -0.66759201 -96.21484375 3.57421875 C-95 5 -95 5 -95 7 C-94.34 7 -93.68 7 -93 7 C-90.16625922 12.66748157 -89.36776168 17.69732561 -89 24 C-88.46632813 23.28714844 -87.93265625 22.57429688 -87.3828125 21.83984375 C-82.22039557 15.20372648 -77.17892469 10.35293529 -70 6 C-69.27039062 5.52820313 -68.54078125 5.05640625 -67.7890625 4.5703125 C-62.64157081 1.42978508 -57.58311981 -0.0705248 -51.69921875 -1.32421875 C-49.04907682 -1.87507029 -49.04907682 -1.87507029 -47.01953125 -3.0390625 C-34.62976922 -8.93438447 -11.93101633 -5.35185556 0 0 Z M-91 26 C-90 28 -90 28 -90 28 Z M-78.30078125 55.81640625 C-80.70185599 58.90192528 -83 61.98479042 -83 66 C-83.66 66 -84.32 66 -85 66 C-85 67.65 -85 69.3 -85 71 C-85.66 71 -86.32 71 -87 71 C-90.24785529 78.08622972 -90.99846057 85.34127767 -91.7734375 93.01000977 C-91.99563718 94.96167957 -92.31340473 96.90170897 -92.6328125 98.83984375 C-93.26250633 103.84682672 -92.50735235 108.60431944 -91.75 113.5625 C-91.62753906 114.46935547 -91.50507812 115.37621094 -91.37890625 116.31054688 C-90.59128518 121.68742535 -89.36385642 126.10839311 -87 131 C-86.32723284 132.6642135 -85.65793165 134.32986582 -85 136 C-84.34 136 -83.68 136 -83 136 C-82.88785156 136.56074219 -82.77570313 137.12148437 -82.66015625 137.69921875 C-79.97814561 147.04658129 -73.22044143 154.0341451 -64.9609375 158.7265625 C-60.71004378 160.9088948 -56.68261697 162.96840836 -52 164 C-47.22222222 165.77777778 -47.22222222 165.77777778 -46 167 C-42.46646242 167.28159078 -38.91840847 167.2318983 -35.375 167.25 C-34.38886719 167.270625 -33.40273437 167.29125 -32.38671875 167.3125 C-26.48616486 167.34401164 -22.32674234 166.78688065 -17 164 C-15.70102197 163.39714096 -14.40014981 162.79835055 -13.09765625 162.203125 C2.14377737 154.91698534 11.3654587 145.91619756 18 130 C18.74738618 127.68130191 19.37493675 125.35600762 20 123 C20.33 122.67 20.66 122.34 21 122 C23.94410075 108.71931193 24.33892814 94.25265921 21 81 C20.34 80.34 19.68 79.68 19 79 C18.55324809 77.17840513 18.16616989 75.3419318 17.8125 73.5 C16.21814784 66.80211855 13.29844791 62.29246398 9 57 C8.46375 56.28972656 7.9275 55.57945312 7.375 54.84765625 C0.03430655 45.65414354 -10.82577327 40.06743479 -22 37 C-22.495 36.505 -22.495 36.505 -23 36 C-45.29063009 33.5539862 -63.48169629 38.55173556 -78.30078125 55.81640625 Z M-91 173 C-90 175 -90 175 -90 175 Z " fill="#1A2133" transform="translate(1529,100)"/>
<path d="M0 0 C1.2375 -0.0299707 1.2375 -0.0299707 2.5 -0.06054688 C8.38155708 -0.05587897 11.79655362 1.05944701 16.625 4.4375 C23.60075479 11.97885653 23.77459911 19.57417399 23.76544189 29.40634155 C23.76841302 30.4062939 23.77138414 31.40624625 23.7744453 32.43650019 C23.78311243 35.7849865 23.78463885 39.13343697 23.78613281 42.48193359 C23.7907623 44.88360164 23.79578713 47.28526896 23.80117798 49.68693542 C23.81428922 56.20963569 23.82078108 62.73232852 23.82518864 69.25503874 C23.82795515 73.32997613 23.83219316 77.40491116 23.83669281 81.47984695 C23.84888015 92.7691934 23.85918152 104.05853797 23.8625679 115.34789085 C23.86289725 116.43065316 23.86289725 116.43065316 23.86323325 117.53528944 C23.86345153 118.25881943 23.86366981 118.98234941 23.8638947 119.72780454 C23.86433816 121.19386188 23.86478473 122.65991922 23.86523438 124.12597656 C23.86556652 125.21679025 23.86556652 125.21679025 23.86590537 126.32964058 C23.86985426 138.11559416 23.88731343 149.90148594 23.9105939 161.68741564 C23.93431983 173.79685957 23.94677026 185.90627249 23.94793582 198.01574004 C23.94885172 204.81121098 23.95458278 211.60660132 23.97275543 218.40205002 C23.98921906 224.79276153 23.99139982 231.18332003 23.98261642 237.57404518 C23.98184521 239.91857754 23.98619986 242.26311808 23.99607468 244.60762978 C24.0087718 247.8101661 24.00292918 251.01215859 23.99249268 254.21469116 C24.00457728 255.60352149 24.00457728 255.60352149 24.01690602 257.02040899 C23.96692778 263.58568937 22.98032814 269.12215204 19.08203125 274.609375 C13.67317322 279.79982308 8.54142249 283.51051758 0.875 284.0625 C-6.19338486 283.73475418 -13.28269698 280.69749841 -18.17578125 275.5390625 C-22.77230584 268.67817329 -23.66343694 261.51373425 -23.375 253.4375 C-23.76171875 253.99179687 -24.1484375 254.54609375 -24.546875 255.1171875 C-25.32804687 256.20386719 -25.32804687 256.20386719 -26.125 257.3125 C-26.89070313 258.39144531 -26.89070313 258.39144531 -27.671875 259.4921875 C-29.375 261.4375 -29.375 261.4375 -31.453125 262.4453125 C-33.9097451 263.71356759 -34.2126837 264.98268797 -35.375 267.4375 C-40.04135089 271.81905013 -45.57720268 274.83082903 -51.375 277.4375 C-53.1384375 278.241875 -53.1384375 278.241875 -54.9375 279.0625 C-58.38135124 280.4400405 -61.79072516 281.49071042 -65.375 282.4375 C-65.94476562 282.60636719 -66.51453125 282.77523438 -67.1015625 282.94921875 C-78.96568272 285.49735454 -91.52995262 284.5362584 -103.375 282.4375 C-103.705 282.1075 -104.035 281.7775 -104.375 281.4375 C-107.9559009 280.64526529 -111.55226019 279.95341384 -115.15234375 279.25390625 C-118.375 278.4375 -118.375 278.4375 -120.375 276.4375 C-121.48875 276.06625 -122.6025 275.695 -123.75 275.3125 C-133.13386608 271.91254852 -140.94647819 265.25862571 -148.13671875 258.515625 C-150.03333664 256.75471624 -151.96752094 255.15912012 -154 253.5625 C-162.13429419 246.59571627 -166.87611417 236.94712096 -171.375 227.4375 C-172.08240503 226.1661497 -172.79063521 224.89525788 -173.5 223.625 C-176.02749977 218.63345234 -177.19347847 213.13051458 -178.54296875 207.73046875 C-179.32510172 204.46353951 -179.32510172 204.46353951 -180.375 201.4375 C-180.47167452 199.87862749 -180.51312513 198.31600137 -180.52026367 196.75415039 C-180.52664352 195.80629166 -180.53302338 194.85843292 -180.53959656 193.8818512 C-180.54070938 192.85994186 -180.5418222 191.83803253 -180.54296875 190.78515625 C-180.54629715 189.73347763 -180.54962555 188.68179901 -180.55305481 187.59825134 C-180.55811926 185.37320391 -180.56046328 183.14814889 -180.56030273 180.9230957 C-180.56248911 177.51696277 -180.5806498 174.11115373 -180.59960938 170.70507812 C-180.60254339 168.54427194 -180.60452813 166.38346422 -180.60546875 164.22265625 C-180.61265427 163.20277115 -180.61983978 162.18288605 -180.62724304 161.13209534 C-180.62416641 160.18108444 -180.62108978 159.23007355 -180.61791992 158.25024414 C-180.61934494 157.41546036 -180.62076996 156.58067657 -180.62223816 155.72059631 C-180.34990026 153.20571897 -179.57922689 151.64064443 -178.375 149.4375 C-177.92128443 147.44557799 -177.50861504 145.44410176 -177.125 143.4375 C-175.81049216 137.45143351 -173.68049592 132.4715993 -170.77734375 127.09375 C-169.45432595 124.58775528 -168.37758037 122.08546347 -167.375 119.4375 C-166.715 119.4375 -166.055 119.4375 -165.375 119.4375 C-165.28734375 118.7053125 -165.1996875 117.973125 -165.109375 117.21875 C-164.23518483 113.90798721 -162.95332463 112.42338043 -160.625 109.9375 C-159.54025391 108.76960938 -159.54025391 108.76960938 -158.43359375 107.578125 C-156.11173794 105.16374742 -153.7759014 102.77351217 -151.375 100.4375 C-150.075625 99.07625 -150.075625 99.07625 -148.75 97.6875 C-146.375 95.4375 -146.375 95.4375 -143.375 94.4375 C-143.375 93.7775 -143.375 93.1175 -143.375 92.4375 C-139.80591133 88.09608394 -134.25568076 85.98876494 -129.375 83.4375 C-128.3953125 82.90382813 -127.415625 82.37015625 -126.40625 81.8203125 C-120.32475012 78.60351914 -114.61434625 76.47513349 -107.87109375 75.078125 C-105.15030359 74.52635644 -105.15030359 74.52635644 -102.375 72.4375 C-100.45239258 72.1027832 -100.45239258 72.1027832 -98.26953125 71.98828125 C-97.45798584 71.94421143 -96.64644043 71.9001416 -95.81030273 71.85473633 C-94.94477783 71.82017334 -94.07925293 71.78561035 -93.1875 71.75 C-91.85730835 71.69138794 -91.85730835 71.69138794 -90.50024414 71.6315918 C-68.7826192 70.83242053 -68.7826192 70.83242053 -63.375 74.4375 C-61.59176886 74.85075674 -59.79820332 75.22021465 -58 75.5625 C-43.62855599 79.03386329 -32.55615164 89.32557268 -23.375 100.4375 C-23.38499275 99.00835518 -23.38499275 99.00835518 -23.39518738 97.55033875 C-23.45623498 88.532806 -23.50108553 79.51531567 -23.53043652 70.49762249 C-23.54603387 65.86250321 -23.56716265 61.22755192 -23.60131836 56.5925293 C-23.63412481 52.11211834 -23.65189751 47.63186809 -23.65963173 43.15134621 C-23.66513729 41.44947597 -23.67588739 39.74761366 -23.69219017 38.04581261 C-23.80283874 26.00711572 -23.77742948 15.03298283 -16.0703125 5.09375 C-11.06620382 0.20494336 -6.69099316 -0.05696666 0 0 Z M-101.375 117.4375 C-102.48875 117.953125 -103.6025 118.46875 -104.75 119 C-115.01724726 124.62254017 -121.91148435 131.10991398 -127.375 141.4375 C-127.9525 142.51 -128.53 143.5825 -129.125 144.6875 C-134.03607058 155.49185529 -134.69733069 166.20787388 -134.625 177.9375 C-134.63273438 179.19175781 -134.64046875 180.44601563 -134.6484375 181.73828125 C-134.61244271 198.92579189 -129.66549261 214.9202171 -117.625 227.6875 C-110.17190485 234.67653451 -101.75918816 238.27203806 -92.18359375 241.45703125 C-89.375 242.4375 -89.375 242.4375 -88.375 243.4375 C-84.73600825 243.68906269 -81.08416327 243.62272226 -77.4375 243.625 C-76.40947266 243.63724609 -75.38144531 243.64949219 -74.32226562 243.66210938 C-72.84983398 243.66500977 -72.84983398 243.66500977 -71.34765625 243.66796875 C-70.44281494 243.67207764 -69.53797363 243.67618652 -68.60571289 243.68041992 C-66.17081222 243.65091297 -66.17081222 243.65091297 -64.375 241.4375 C-62.40823719 240.8523953 -60.42608115 240.31851233 -58.4375 239.8125 C-44.38988296 235.61061896 -34.65846089 225.1905394 -27.5546875 212.7109375 C-24.99910649 207.78594363 -23.93319536 202.68743909 -22.83984375 197.29296875 C-22.375 195.4375 -22.375 195.4375 -21.375 194.4375 C-21.26170962 192.03593439 -21.21082825 189.66422116 -21.20703125 187.26171875 C-21.20370285 186.54015091 -21.20037445 185.81858307 -21.19694519 185.07514954 C-21.19187197 183.5443282 -21.18953699 182.01349575 -21.18969727 180.48266602 C-21.18751879 178.14515771 -21.16939006 175.80812733 -21.15039062 173.47070312 C-21.14745514 171.98437662 -21.14547138 170.49804786 -21.14453125 169.01171875 C-21.13375298 167.96463997 -21.13375298 167.96463997 -21.12275696 166.89640808 C-21.14004668 163.20339783 -21.43263531 160.6001102 -23.375 157.4375 C-23.66361911 156.11198999 -23.91186269 154.77722022 -24.125 153.4375 C-26.99105847 140.01111839 -35.60517488 128.83073129 -46.39453125 120.71484375 C-48.44529249 119.27604083 -48.44529249 119.27604083 -51.375 118.4375 C-52.73625 117.7259375 -52.73625 117.7259375 -54.125 117 C-57.48787334 115.38323397 -60.78466153 114.42308311 -64.375 113.4375 C-64.87 112.9425 -64.87 112.9425 -65.375 112.4375 C-77.90112111 111.30124605 -90.31161146 110.92500887 -101.375 117.4375 Z " fill="#1A2133" transform="translate(872.375,23.5625)"/>
<path d="M0 0 C0.83789062 -0.02449219 1.67578125 -0.04898437 2.5390625 -0.07421875 C8.08461846 -0.10037703 11.24729952 0.66775816 15.625 4.375 C17.453125 6.2265625 17.453125 6.2265625 18.875 8 C20.4126251 9.89309757 21.89674012 11.64674012 23.625 13.375 C23.88671303 15.94808388 23.88671303 15.94808388 23.9034729 19.27212524 C23.91463638 20.52858353 23.92579987 21.78504181 23.93730164 23.07957458 C23.93966683 24.47964448 23.94184244 25.8797147 23.94384766 27.27978516 C23.95314165 28.74804744 23.96330953 30.21630441 23.97428894 31.68455505 C24.00166275 35.67809962 24.0167601 39.67160877 24.02971697 43.66522264 C24.04531534 47.83596913 24.07211598 52.00664293 24.0977478 56.17733765 C24.1445941 64.07854609 24.18130981 71.97976811 24.21442068 79.88104475 C24.25260082 88.87491887 24.30202167 97.8687201 24.35240483 106.86253285 C24.45581166 125.36663528 24.54504351 143.87078214 24.625 162.375 C24.955 161.715 25.285 161.055 25.625 160.375 C26.285 160.375 26.945 160.375 27.625 160.375 C27.625 159.715 27.625 159.055 27.625 158.375 C28.72997417 157.20096494 29.84735731 156.03703807 31.01171875 154.921875 C32.85876148 153.15086066 34.64407965 151.32525622 36.4375 149.5 C38.9953443 146.93262928 41.59793057 144.51423384 44.375 142.1875 C48.65597284 138.52049773 52.34601848 134.38698467 56.12084961 130.21533203 C59.73299335 126.25517444 63.53916839 122.69110463 67.609375 119.19921875 C70.27803921 116.78397421 72.55593112 114.11862143 74.8828125 111.37890625 C79.11816065 106.50730625 83.74327293 102.07996052 88.6875 97.9375 C92.3537416 94.79603416 95.15178686 91.29587077 98.04296875 87.4453125 C102.91235466 81.0730297 109.03934927 76.05228849 116.625 73.375 C116.955 73.045 117.285 72.715 117.625 72.375 C122.65797064 71.79682446 126.52048805 71.76138225 131 74.25 C131.86625 74.95125 132.7325 75.6525 133.625 76.375 C134.28371094 76.67535156 134.94242188 76.97570312 135.62109375 77.28515625 C139.26606985 79.26751167 140.9387842 82.68679765 142.625 86.375 C143.38766957 89.40492538 143.60233013 92.25789311 143.625 95.375 C143.66625 96.509375 143.7075 97.64375 143.75 98.8125 C141.94099668 104.54101053 137.73417712 108.12152067 133.625 112.375 C132.59324504 113.59501356 131.57079208 114.82302492 130.5625 116.0625 C128.51552961 118.47592893 126.3547692 120.53722797 123.94140625 122.58203125 C119.6257785 126.31724919 115.61985531 130.30212018 111.625 134.375 C107.10230232 138.98603162 102.5100596 143.39213304 97.61572266 147.60693359 C94.19425351 150.64572186 91.01434674 153.92064115 87.8125 157.1875 C86.51669363 158.5088395 85.21860845 159.82794908 83.91796875 161.14453125 C83.3561792 161.71792236 82.79438965 162.29131348 82.21557617 162.88208008 C80.625 164.375 80.625 164.375 77.625 166.375 C78.35330406 169.48990816 78.35330406 169.48990816 80.8125 171.0625 C83.88772711 173.59102006 85.88964109 176.2658318 88.19921875 179.4765625 C89.68136595 181.54280873 89.68136595 181.54280873 92 183.75 C92.804375 184.554375 92.804375 184.554375 93.625 185.375 C93.625 186.035 93.625 186.695 93.625 187.375 C94.285 187.375 94.945 187.375 95.625 187.375 C95.625 188.035 95.625 188.695 95.625 189.375 C96.17027344 189.58253906 96.71554687 189.79007813 97.27734375 190.00390625 C100.51003309 191.89188289 102.7335644 194.53931762 105.1875 197.3125 C109.11760471 201.67364065 113.11095151 205.89905197 117.3125 210 C120.7490372 213.3925417 123.88437632 216.83501335 126.875 220.625 C131.39834206 226.33913046 136.50609149 231.37062823 141.74902344 236.42480469 C142.37969727 237.0387207 143.01037109 237.65263672 143.66015625 238.28515625 C144.2312915 238.83308838 144.80242676 239.38102051 145.39086914 239.94555664 C146.625 241.375 146.625 241.375 146.625 243.375 C147.285 243.375 147.945 243.375 148.625 243.375 C149.98676922 245.01851457 151.31462066 246.69022656 152.625 248.375 C153.511875 249.179375 154.39875 249.98375 155.3125 250.8125 C158.06504488 253.8626173 158.38637738 255.31841548 158.625 259.375 C158.66367188 260.02984375 158.70234375 260.6846875 158.7421875 261.359375 C158.96046193 267.8105971 157.58290861 272.00699787 153.30078125 276.8828125 C149.01148809 280.7021831 143.39432215 283.5592934 137.625 284.0625 C128.62675914 283.39126026 121.24852557 275.77648366 115.625 269.375 C114.22043029 267.65292219 112.82510934 265.92327314 111.4375 264.1875 C107.36515816 259.10589493 102.93084297 254.56838303 98.2956543 250.01220703 C94.80044323 246.57113333 91.45104256 243.07094969 88.27880859 239.32543945 C82.91186598 232.99586985 77.34275935 226.88850552 71.625 220.875 C67.00564846 216.01671649 62.46651398 211.11784177 58.08862305 206.03979492 C56.9204631 204.71107387 55.68851904 203.43851904 54.4375 202.1875 C52.30533009 200.05533009 50.49372853 197.73896093 48.625 195.375 C47.89796875 196.04144531 47.1709375 196.70789063 46.421875 197.39453125 C44.421875 199.22786458 42.421875 201.06119792 40.421875 202.89453125 C39.8662085 203.43537354 39.31054199 203.97621582 38.73803711 204.53344727 C36.625 206.375 36.625 206.375 33.54516602 208.33959961 C29.04622579 211.40642512 25.31062628 214.41047746 24.03814697 219.91244507 C23.26868957 227.35813342 23.6992264 234.85174841 24.0625 242.3125 C25.21758452 266.79079808 25.21758452 266.79079808 19.91749573 273.24012756 C13.808164 279.50381583 7.37454278 282.99805216 -1.3125 283.6875 C-4.375 283.375 -4.375 283.375 -7.375 282.375 C-7.375 281.715 -7.375 281.055 -7.375 280.375 C-8.096875 280.313125 -8.81875 280.25125 -9.5625 280.1875 C-13.2749813 279.1150054 -14.80115096 277.21283356 -17.375 274.375 C-18.096875 273.75625 -18.81875 273.1375 -19.5625 272.5 C-24.13639031 267.13750791 -23.66117453 259.98914849 -23.62896729 253.31713867 C-23.63208727 252.31970988 -23.63520725 251.32228109 -23.63842177 250.29462719 C-23.64638328 246.96068049 -23.64008525 243.62691673 -23.63378906 240.29296875 C-23.63649974 237.89938246 -23.6400611 235.50579701 -23.64440918 233.11221313 C-23.65257985 227.29078782 -23.65138708 221.4694204 -23.6455839 215.64799333 C-23.6410622 210.91566434 -23.6404567 206.18334981 -23.64263153 201.45101929 C-23.642938 200.77680063 -23.64324446 200.10258198 -23.64356022 199.40793246 C-23.64419968 198.03815531 -23.64484811 196.66837817 -23.6455054 195.29860103 C-23.65120482 182.46229481 -23.6446569 169.62601718 -23.63390467 156.78971565 C-23.6249695 145.78199664 -23.62652166 134.77431981 -23.63574219 123.76660156 C-23.64645168 110.97538337 -23.65065553 98.18419023 -23.64451766 85.39296818 C-23.64388058 84.02830569 -23.64325184 82.66364321 -23.64263153 81.29898071 C-23.64232298 80.62758771 -23.64201443 79.9561947 -23.64169653 79.26445645 C-23.63997163 74.53928442 -23.64288028 69.81412831 -23.64759064 65.08895874 C-23.6533677 58.7261605 -23.64936048 52.36344194 -23.63780212 46.00065231 C-23.63515749 43.66537992 -23.63591728 41.33010082 -23.64032745 38.99483109 C-23.64579195 35.80741729 -23.63893754 32.62025886 -23.62896729 29.43286133 C-23.63342873 28.50863467 -23.63789017 27.58440802 -23.64248681 26.63217449 C-23.5955825 18.90184497 -22.56318338 13.20519229 -17.5 7.0625 C-16.82195312 6.22074219 -16.14390625 5.37898438 -15.4453125 4.51171875 C-10.84223439 -0.23900526 -6.26198123 0.0095457 0 0 Z " fill="#1A2133" transform="translate(1654.375,23.625)"/>
<path d="M0 0 C0.84876709 0.03456299 1.69753418 0.06912598 2.57202148 0.10473633 C6.93314135 0.34345669 10.28975819 0.88038191 14.3125 2.6875 C16.18421879 3.03879033 18.0596861 3.37040214 19.9375 3.6875 C28.82779009 5.63256919 36.44607764 10.16120892 44.32055664 14.59008789 C45.66680965 15.33177281 47.03669801 16.03185398 48.42480469 16.69189453 C51.2429975 18.17826162 53.09984013 20.40459696 55.3125 22.6875 C56.48886791 23.7825537 57.67294666 24.86936337 58.86328125 25.94921875 C59.47880859 26.51060547 60.09433594 27.07199219 60.72851562 27.65039062 C62.00936644 28.81516021 63.29330538 29.9765416 64.58007812 31.13476562 C65.18916016 31.69228516 65.79824219 32.24980469 66.42578125 32.82421875 C66.98048096 33.32655029 67.53518066 33.82888184 68.10668945 34.34643555 C69.3125 35.6875 69.3125 35.6875 69.3125 37.6875 C69.9725 37.6875 70.6325 37.6875 71.3125 37.6875 C76.38195865 43.68912611 80.0629923 50.57695363 83.3125 57.6875 C83.61027344 58.33847656 83.90804688 58.98945313 84.21484375 59.66015625 C85.80939648 63.2697159 87.0658776 66.94763281 88.3125 70.6875 C88.6425 71.0175 88.9725 71.3475 89.3125 71.6875 C89.68228426 73.32552872 90.00918783 74.97337044 90.3125 76.625 C90.9628519 80.27282599 90.9628519 80.27282599 92.3125 83.6875 C92.58278031 87.57748885 92.54416578 91.476687 92.5625 95.375 C92.5934375 96.99051758 92.5934375 96.99051758 92.625 98.63867188 C92.65989147 105.75217019 92.44019299 111.18998248 87.50911427 116.70412159 C79.65643106 123.79450727 70.51454431 124.40054702 60.39575195 124.25512695 C59.03454135 124.25371314 57.67332694 124.25451496 56.31211853 124.25733948 C52.65138715 124.25876209 48.99149084 124.22956293 45.33095193 124.19446969 C41.49266671 124.16301083 37.65435801 124.16026019 33.81596375 124.15434265 C26.56295724 124.1388611 19.31033184 124.09791075 12.05749243 124.0475952 C3.79384523 123.99152342 -4.46982109 123.96417063 -12.73361146 123.93911803 C-29.71846066 123.88698897 -46.70293991 123.79915882 -63.6875 123.6875 C-63.37554688 124.28304687 -63.06359375 124.87859375 -62.7421875 125.4921875 C-61.62268916 127.82240255 -60.9942596 130.16177287 -60.30078125 132.64453125 C-56.50475115 145.28990539 -50.01696305 156.04611134 -38.30859375 162.5703125 C-33.17845205 165.2494538 -28.40296816 167.6096695 -22.6875 168.6875 C-21.2025 169.6775 -21.2025 169.6775 -19.6875 170.6875 C-8.81563629 172.4415602 3.44636587 172.50998452 14.3125 170.6875 C14.9725 170.0275 15.6325 169.3675 16.3125 168.6875 C17.488125 168.31625 18.66375 167.945 19.875 167.5625 C28.78337587 164.74780144 37.3338175 160.31662505 45.58203125 155.9609375 C50.41266593 153.70802347 54.45730202 154.05673269 59.4375 155.75 C63.59172393 158.54958569 67.05638159 162.17526317 69.3125 166.6875 C70.29824079 173.98697292 69.44007048 178.85565778 64.97265625 184.73828125 C62.84247834 187.23936073 60.80596074 189.54035325 58.3125 191.6875 C57.6525 191.6875 56.9925 191.6875 56.3125 191.6875 C55.9825 192.6775 55.6525 193.6675 55.3125 194.6875 C48.56525827 199.4783751 41.08358609 202.9304315 33.3125 205.6875 C32.55195312 205.97496094 31.79140625 206.26242187 31.0078125 206.55859375 C26.53930546 208.17436879 22.39795326 209.04845217 17.6640625 209.41748047 C15.47359269 209.66900244 13.55081249 210.13968293 11.43359375 210.734375 C4.94604423 212.2162313 -1.52426557 211.69126394 -8.125 211.375 C-9.40310547 211.32666016 -10.68121094 211.27832031 -11.99804688 211.22851562 C-21.39203477 210.83523261 -21.39203477 210.83523261 -23.6875 209.6875 C-25.03757394 209.50768043 -26.39306104 209.36726633 -27.75 209.25 C-40.43907942 207.93592058 -40.43907942 207.93592058 -43.6875 204.6875 C-45.5128125 204.130625 -45.5128125 204.130625 -47.375 203.5625 C-54.59684793 201.30123286 -61.09829974 197.3423792 -67.6875 193.6875 C-67.6875 193.0275 -67.6875 192.3675 -67.6875 191.6875 C-68.23535156 191.44644531 -68.78320312 191.20539063 -69.34765625 190.95703125 C-72.23539508 189.39022804 -74.59134057 187.46588399 -77.125 185.375 C-78.05183594 184.61574219 -78.97867187 183.85648438 -79.93359375 183.07421875 C-84.21895241 179.36024124 -87.92840699 175.62890269 -91.125 170.9375 C-91.71796875 170.06738281 -92.3109375 169.19726562 -92.921875 168.30078125 C-93.50453125 167.43839844 -94.0871875 166.57601562 -94.6875 165.6875 C-95.22890625 164.91792969 -95.7703125 164.14835938 -96.328125 163.35546875 C-104.51078568 151.55673328 -109.68175951 137.01930195 -110.6875 122.6875 C-111.0175 122.3575 -111.3475 122.0275 -111.6875 121.6875 C-113.4295765 98.7979379 -110.85192924 77.43407474 -100.6875 56.6875 C-100.26855469 55.81996094 -99.84960938 54.95242187 -99.41796875 54.05859375 C-98.5310715 52.25659403 -97.61409452 50.46941255 -96.6875 48.6875 C-96.0275 48.6875 -95.3675 48.6875 -94.6875 48.6875 C-94.419375 48.130625 -94.15125 47.57375 -93.875 47 C-89.00517343 37.51665352 -81.34017041 28.95394236 -72.6875 22.6875 C-72.0275 22.6875 -71.3675 22.6875 -70.6875 22.6875 C-70.6875 22.0275 -70.6875 21.3675 -70.6875 20.6875 C-64.89880097 16.16232411 -58.64070689 12.31574983 -51.8203125 9.57421875 C-49.53609729 8.66563067 -49.53609729 8.66563067 -46.87890625 7.1796875 C-43.41045998 5.55796599 -40.25706599 4.82970155 -36.5 4.125 C-31.29682365 3.16010743 -31.29682365 3.16010743 -26.6875 0.6875 C-17.86444116 -0.5952456 -8.88356324 -0.39545922 0 0 Z M-28.6875 44.6875 C-30.39583333 45.33333333 -32.10416667 45.97916667 -33.8125 46.625 C-46.21502982 51.64044309 -52.2396885 59.20771692 -58.6875 70.6875 C-59.265 71.698125 -59.8425 72.70875 -60.4375 73.75 C-61.82625537 77.01357512 -62.5744838 80.16612825 -63.2578125 83.63671875 C-63.6875 85.6875 -63.6875 85.6875 -64.6875 88.6875 C-62.31145744 89.87552128 -60.92024086 89.79694723 -58.27096558 89.76979065 C-56.87850616 89.75923141 -56.87850616 89.75923141 -55.45791626 89.74845886 C-53.92583023 89.72903984 -53.92583023 89.72903984 -52.36279297 89.70922852 C-50.75301575 89.6948172 -50.75301575 89.6948172 -49.11071777 89.68011475 C-45.55030945 89.64703596 -41.99002046 89.60673745 -38.4296875 89.56640625 C-35.96632309 89.54211381 -33.50295423 89.51826983 -31.0395813 89.49485779 C-24.54578585 89.43192967 -18.05206904 89.36288778 -11.55834961 89.29260254 C-4.93607169 89.22199782 1.68626213 89.15713385 8.30859375 89.09179688 C21.30995697 88.96267207 34.31124728 88.82728775 47.3125 88.6875 C47.16039062 88.10742188 47.00828125 87.52734375 46.8515625 86.9296875 C46.36636336 84.91154037 46.01801132 82.86167015 45.6875 80.8125 C42.80385983 68.19916746 35.56131196 56.62610126 24.57714844 49.57324219 C18.17117812 45.84480792 11.59368049 43.11518245 4.3125 41.6875 C3.8175 41.1925 3.8175 41.1925 3.3125 40.6875 C-0.15736688 40.37642624 -3.64293398 40.40880647 -7.125 40.375 C-8.08599609 40.34599609 -9.04699219 40.31699219 -10.03710938 40.28710938 C-17.11133744 40.22509659 -22.31508025 41.71089486 -28.6875 44.6875 Z " fill="#1A2133" transform="translate(1266.6875,95.3125)"/>
<path d="M0 0 C1.2981665 0.05196533 1.2981665 0.05196533 2.62255859 0.10498047 C3.43418457 0.14896973 4.24581055 0.19295898 5.08203125 0.23828125 C6.16254761 0.29495972 6.16254761 0.29495972 7.26489258 0.3527832 C9.1875 0.6875 9.1875 0.6875 12.1875 2.6875 C14.42594262 3.19930472 16.67856346 3.65046222 18.9375 4.0625 C24.58536435 5.21062848 28.38404758 6.61329045 33.1875 9.6875 C34.44912044 10.15089774 35.72094423 10.58715626 37 11 C45.37271261 14.04171204 52.09649147 20.32525284 58.8125 26 C59.4410791 26.52779053 60.0696582 27.05558105 60.71728516 27.59936523 C62.24783339 28.91645233 63.7232422 30.29708805 65.1875 31.6875 C65.1875 32.3475 65.1875 33.0075 65.1875 33.6875 C65.785625 33.94144531 66.38375 34.19539063 67 34.45703125 C72.13705111 37.3466225 75.39311946 43.68039599 78.125 48.734375 C78.92332516 50.20188448 79.76410726 51.64642294 80.625 53.078125 C84.35263384 59.45237886 86.57153606 65.67325918 88.42578125 72.81640625 C89.06166554 75.60491216 89.06166554 75.60491216 90.1875 77.6875 C91.21725974 84.20931167 91.31114291 90.84730532 91.375 97.4375 C91.38797119 98.14592041 91.40094238 98.85434082 91.41430664 99.58422852 C91.42439291 105.3340741 90.6156409 110.41305338 87.5 115.375 C83.00050053 119.87449947 76.84932085 123.35851427 70.44829845 123.93359566 C68.95084575 123.93083028 68.95084575 123.93083028 67.42314148 123.92800903 C65.69634407 123.93213303 65.69634407 123.93213303 63.93466187 123.93634033 C62.68093781 123.92914978 61.42721375 123.92195923 60.13549805 123.91455078 C58.79487619 123.91398631 57.45425371 123.91430392 56.1136322 123.91543579 C52.48175831 123.91600892 48.85001689 123.90426116 45.21817374 123.89028788 C41.41985482 123.87777381 37.62153277 123.87660948 33.82319641 123.87423706 C26.63389232 123.86802428 19.44464915 123.8516162 12.25537187 123.83153808 C4.06920501 123.8091728 -4.11696478 123.79818407 -12.30315459 123.78814721 C-29.13963871 123.76724979 -45.97606157 123.73207774 -62.8125 123.6875 C-62.51843763 125.43851362 -62.21754712 127.18838134 -61.91381836 128.93774414 C-61.74700058 129.91232071 -61.5801828 130.88689728 -61.40830994 131.89100647 C-60.58950781 135.73413614 -59.21090623 138.64664862 -57.375 142.125 C-56.77816406 143.27871094 -56.18132813 144.43242187 -55.56640625 145.62109375 C-53.93010686 148.63137547 -53.93010686 148.63137547 -52.08984375 150.97265625 C-50.8125 152.6875 -50.8125 152.6875 -50.8125 154.6875 C-50.22597656 154.95949219 -49.63945313 155.23148438 -49.03515625 155.51171875 C-46.85561667 156.66469136 -45.15340291 157.94192289 -43.25 159.5 C-36.84942661 164.39314863 -29.45047882 167.27550669 -21.8125 169.6875 C-21.4825 170.0175 -21.1525 170.3475 -20.8125 170.6875 C-9.41471276 172.07998984 2.81632774 172.59469028 14.1875 170.6875 C14.8475 170.0275 15.5075 169.3675 16.1875 168.6875 C17.38375 168.31625 18.58 167.945 19.8125 167.5625 C25.28508575 165.83899085 30.25324344 163.26321253 35.33837891 160.64404297 C48.371066 153.94307771 48.371066 153.94307771 56.1875 154.6875 C60.90314914 156.44431046 63.80046087 159.01014323 67.1875 162.6875 C67.5175 163.0175 67.8475 163.3475 68.1875 163.6875 C68.26075168 166.55017567 68.27988205 169.388219 68.25 172.25 C68.24548828 173.05630859 68.24097656 173.86261719 68.23632812 174.69335938 C68.22450518 176.69143756 68.20656914 178.68947783 68.1875 180.6875 C67.1975 181.0175 66.2075 181.3475 65.1875 181.6875 C64.8884375 182.44417969 64.589375 183.20085937 64.28125 183.98046875 C62.96357925 187.24170385 61.33707193 188.71603459 58.6875 191 C57.49640625 192.04607422 57.49640625 192.04607422 56.28125 193.11328125 C54.1875 194.6875 54.1875 194.6875 52.1875 194.6875 C52.1875 195.3475 52.1875 196.0075 52.1875 196.6875 C46.04688796 200.30660468 39.87457998 203.22606298 33.1875 205.6875 C32.42308594 205.97753906 31.65867187 206.26757812 30.87109375 206.56640625 C26.3014799 208.21146723 22.08255222 209.08725096 17.23046875 209.37890625 C15.15395819 209.56646528 15.15395819 209.56646528 13.43798828 210.69018555 C10.5544139 211.96805508 8.28671017 211.94645684 5.13671875 211.953125 C3.37618164 211.95699219 3.37618164 211.95699219 1.58007812 211.9609375 C0.35740234 211.95320312 -0.86527344 211.94546875 -2.125 211.9375 C-3.33607422 211.94523438 -4.54714844 211.95296875 -5.79492188 211.9609375 C-11.90553502 211.94755904 -17.03515787 211.64861614 -22.8125 209.6875 C-24.59906669 209.488713 -26.39211068 209.33896073 -28.1875 209.25 C-36.03859202 208.63696953 -42.66005549 205.86636423 -49.8125 202.6875 C-50.905625 202.23375 -51.99875 201.78 -53.125 201.3125 C-60.39582079 198.16836128 -66.85199217 195.00012654 -72.8125 189.6875 C-74.15952508 188.67790068 -75.5141382 187.67836958 -76.875 186.6875 C-85.35610178 180.3628833 -96.73550591 169.51230448 -98.8125 158.6875 C-99.4725 158.6875 -100.1325 158.6875 -100.8125 158.6875 C-101.77350105 156.00092788 -102.73136249 153.31330289 -103.6875 150.625 C-104.09162109 149.49674805 -104.09162109 149.49674805 -104.50390625 148.34570312 C-106.10788999 143.82716357 -107.52960526 139.30707163 -108.8125 134.6875 C-109.163125 133.65625 -109.51375 132.625 -109.875 131.5625 C-116.6743502 103.45851916 -110.44031623 72.88290959 -96.41015625 48.22265625 C-94.50096767 45.19316142 -92.44055339 42.31746559 -90.3125 39.4375 C-89.5390625 38.38046875 -88.765625 37.3234375 -87.96875 36.234375 C-85.8125 33.6875 -85.8125 33.6875 -82.8125 32.6875 C-82.8125 32.0275 -82.8125 31.3675 -82.8125 30.6875 C-80.6953125 28.7421875 -80.6953125 28.7421875 -77.9375 26.5625 C-77.03257812 25.83804688 -76.12765625 25.11359375 -75.1953125 24.3671875 C-72.8125 22.6875 -72.8125 22.6875 -70.8125 22.6875 C-70.8125 22.0275 -70.8125 21.3675 -70.8125 20.6875 C-70.1525 20.6875 -69.4925 20.6875 -68.8125 20.6875 C-68.3175 19.2025 -68.3175 19.2025 -67.8125 17.6875 C-65.4765625 16.29296875 -65.4765625 16.29296875 -62.4375 14.875 C-58.3447301 12.93454557 -54.44417627 10.8926856 -50.5625 8.5625 C-44.70217305 5.29341571 -38.61657112 3.88965835 -32.12109375 2.44921875 C-28.95544083 1.85694686 -28.95544083 1.85694686 -26.8125 0.6875 C-17.87627472 -0.36244814 -8.9766287 -0.40320554 0 0 Z M-22.8125 42.6875 C-24.8021995 43.07763716 -26.80269869 43.41952649 -28.8125 43.6875 C-28.8125 44.3475 -28.8125 45.0075 -28.8125 45.6875 C-30.09125 45.873125 -31.37 46.05875 -32.6875 46.25 C-41.66532785 48.25764024 -48.44159681 54.47918255 -53.8125 61.6875 C-53.8125 62.3475 -53.8125 63.0075 -53.8125 63.6875 C-54.4725 63.6875 -55.1325 63.6875 -55.8125 63.6875 C-60.30894896 72.37148159 -62.70821242 78.74891177 -63.8125 88.6875 C-27.5125 88.6875 8.7875 88.6875 46.1875 88.6875 C44.43877748 74.69771986 38.34704958 61.14470381 27.16015625 52.11328125 C22.18777097 48.51937902 16.89181653 45.94955656 11.1875 43.6875 C10.55295898 43.4282373 9.91841797 43.16897461 9.26464844 42.90185547 C3.04421074 40.56955417 -2.58800806 40.26427027 -9.1875 40.375 C-10.17105469 40.37177734 -11.15460938 40.36855469 -12.16796875 40.36523438 C-17.82043332 40.27640576 -17.82043332 40.27640576 -22.8125 42.6875 Z " fill="#1A2133" transform="translate(1041.8125,95.3125)"/>
<path d="M0 0 C0.86165771 0.03456299 1.72331543 0.06912598 2.61108398 0.10473633 C3.41747314 0.14880615 4.2238623 0.19287598 5.0546875 0.23828125 C6.12565674 0.29495972 6.12565674 0.29495972 7.21826172 0.3527832 C9.125 0.6875 9.125 0.6875 12.125 2.6875 C13.176875 2.831875 14.22875 2.97625 15.3125 3.125 C22.40455673 4.17136903 28.40754656 7.22497568 34.73046875 10.50390625 C37.09636756 11.72636566 37.09636756 11.72636566 39.5703125 12.5859375 C51.64877246 17.79408079 67.32457213 31.48679528 74.125 42.6875 C74.125 43.6775 74.125 44.6675 74.125 45.6875 C74.785 45.6875 75.445 45.6875 76.125 45.6875 C80.36722062 53.89393163 84.51218727 61.95567337 87.43359375 70.74609375 C87.96120366 72.66666792 87.96120366 72.66666792 89.125 73.6875 C89.49101909 79.1161019 89.56762354 84.54650484 89.63989258 89.98608398 C89.67142109 91.81651608 89.71905921 93.6467474 89.78344727 95.47631836 C90.30320268 110.4488028 90.30320268 110.4488028 87.58544922 115.61279297 C82.93530346 120.58379537 76.97428502 123.32923044 70.20817471 123.95898151 C66.68224668 124.05595525 63.16778153 124.05845518 59.640625 124.02807617 C58.28970865 124.02722867 56.93879092 124.02770744 55.58787537 124.02940369 C51.94164832 124.03026027 48.29572065 124.01268964 44.64956284 123.99168181 C40.83125091 123.97285843 37.01293124 123.97116013 33.19458008 123.96760559 C25.97346497 123.95830168 18.75248702 123.93371047 11.53143215 123.90355712 C3.3065132 123.86996142 -4.91841248 123.85351414 -13.14338303 123.83847082 C-30.05400119 123.80715931 -46.96448607 123.75443123 -63.875 123.6875 C-63.37743908 126.44391416 -63.37743908 126.44391416 -61.875 128.6875 C-61.5346875 130.5746875 -61.5346875 130.5746875 -61.1875 132.5 C-59.62314975 139.88325915 -56.31392159 147.39469869 -50.875 152.6875 C-50.875 153.3475 -50.875 154.0075 -50.875 154.6875 C-50.215 154.6875 -49.555 154.6875 -48.875 154.6875 C-48.875 155.3475 -48.875 156.0075 -48.875 156.6875 C-48.215 156.6875 -47.555 156.6875 -46.875 156.6875 C-46.875 157.3475 -46.875 158.0075 -46.875 158.6875 C-43.11835786 160.59442495 -39.31175172 162.39417587 -35.5 164.1875 C-34.85289062 164.49558594 -34.20578125 164.80367187 -33.5390625 165.12109375 C-29.71047419 166.91960398 -25.90275879 168.3733068 -21.875 169.6875 C-21.545 170.0175 -21.215 170.3475 -20.875 170.6875 C-17.47382165 171.07795459 -14.04431319 171.16404008 -10.625 171.3125 C-9.12984863 171.37787964 -9.12984863 171.37787964 -7.60449219 171.44458008 C3.30685832 171.9073737 3.30685832 171.9073737 14.125 170.6875 C14.785 170.0275 15.445 169.3675 16.125 168.6875 C18.10522636 167.86720274 20.10960346 167.10463059 22.125 166.375 C27.35138712 164.42598105 32.27720155 162.22356301 37.19921875 159.60546875 C39.125 158.6875 39.125 158.6875 41.125 158.6875 C41.125 158.0275 41.125 157.3675 41.125 156.6875 C47.08873589 154.74015767 52.15310118 153.55817845 58.25 155.875 C63.48861712 159.17760644 66.91302609 162.86651603 69.125 168.6875 C69.73481144 174.27743818 68.53168303 177.77385548 66.125 182.6875 C65.465 182.6875 64.805 182.6875 64.125 182.6875 C63.86976563 183.26628906 63.61453125 183.84507812 63.3515625 184.44140625 C57.36168785 195.41012575 44.23841667 201.30948737 33.125 205.6875 C32.795 206.0175 32.465 206.3475 32.125 206.6875 C26.82605561 208.20148411 21.4520582 208.96787769 15.97265625 209.44140625 C14.03344906 209.597771 14.03344906 209.597771 12.125 210.6875 C9.5221719 210.78631797 6.94670686 210.82734733 4.34375 210.8203125 C3.1898175 210.82174759 3.1898175 210.82174759 2.01257324 210.82321167 C0.38517169 210.82389254 -1.24223257 210.82204473 -2.86962891 210.81787109 C-5.36497073 210.8125215 -7.86013255 210.81781919 -10.35546875 210.82421875 C-11.93489623 210.82355795 -13.5143236 210.82227675 -15.09375 210.8203125 C-16.21722839 210.82334885 -16.21722839 210.82334885 -17.36340332 210.82644653 C-22.64507757 210.80246122 -22.64507757 210.80246122 -24.875 209.6875 C-26.20520196 209.53269201 -27.53957074 209.41265719 -28.875 209.3125 C-36.45143795 208.53167548 -43.14490232 206.20550561 -49.875 202.6875 C-50.79410156 202.38972656 -51.71320312 202.09195313 -52.66015625 201.78515625 C-63.59117864 198.05293597 -71.67212787 191.59419307 -79.875 183.6875 C-81.24409235 182.55531798 -82.61858847 181.4296178 -84 180.3125 C-90.40079498 174.76954352 -95.90152529 167.13306461 -99.875 159.6875 C-99.875 158.6975 -99.875 157.7075 -99.875 156.6875 C-100.535 156.6875 -101.195 156.6875 -101.875 156.6875 C-108.95838037 140.14094743 -112.21578053 126.15600601 -112.08081055 108.15942383 C-112.06231231 105.59902189 -112.06030304 103.03897808 -112.06054688 100.47851562 C-112.05563913 98.84895519 -112.04981409 97.2193972 -112.04296875 95.58984375 C-112.04185593 94.82534409 -112.0407431 94.06084442 -112.03959656 93.2731781 C-111.99115938 87.91981876 -111.99115938 87.91981876 -110.875 85.6875 C-110.72074643 84.33635301 -110.60045985 82.98120801 -110.5 81.625 C-110.01164013 76.69336589 -108.61222764 72.30918108 -106.875 67.6875 C-106.215 67.6875 -105.555 67.6875 -104.875 67.6875 C-104.813125 66.90375 -104.75125 66.12 -104.6875 65.3125 C-101.71089065 52.0322429 -92.07964763 40.2735078 -82.875 30.6875 C-82.36582031 30.14996094 -81.85664063 29.61242187 -81.33203125 29.05859375 C-79.02101054 26.67646471 -76.65482321 24.50876348 -73.875 22.6875 C-73.215 22.6875 -72.555 22.6875 -71.875 22.6875 C-71.875 22.0275 -71.875 21.3675 -71.875 20.6875 C-66.08630097 16.16232411 -59.82820689 12.31574983 -53.0078125 9.57421875 C-50.72359729 8.66563067 -50.72359729 8.66563067 -48.06640625 7.1796875 C-44.59795998 5.55796599 -41.44456599 4.82970155 -37.6875 4.125 C-32.48432365 3.16010743 -32.48432365 3.16010743 -27.875 0.6875 C-25.36249044 0.34636824 -22.96195547 0.12337564 -20.4375 0 C-19.70192871 -0.03907471 -18.96635742 -0.07814941 -18.20849609 -0.1184082 C-12.12707416 -0.37947614 -6.07941998 -0.26865774 0 0 Z M-52.875 59.6875 C-58.75294714 67.32333788 -62.25208497 75.22049566 -63.875 84.6875 C-64.205 86.0075 -64.535 87.3275 -64.875 88.6875 C-28.245 89.0175 8.385 89.3475 46.125 89.6875 C42.49836761 73.19540696 42.49836761 73.19540696 34.125 58.6875 C33.465 58.6875 32.805 58.6875 32.125 58.6875 C32.125 58.0275 32.125 57.3675 32.125 56.6875 C31.465 56.6875 30.805 56.6875 30.125 56.6875 C30.125 56.0275 30.125 55.3675 30.125 54.6875 C19.1425617 45.37879447 5.3720983 40.08707175 -9 40.125 C-9.90508301 40.1259668 -10.81016602 40.12693359 -11.74267578 40.12792969 C-27.65682735 40.53706266 -42.02076449 48.27574357 -52.875 59.6875 Z " fill="#1A2133" transform="translate(2319.875,95.3125)"/>
<path d="M0 0 C1.36958862 0.05196533 1.36958862 0.05196533 2.7668457 0.10498047 C3.62366943 0.14896973 4.48049316 0.19295898 5.36328125 0.23828125 C6.12552002 0.27606689 6.88775879 0.31385254 7.6730957 0.3527832 C9.6875 0.6875 9.6875 0.6875 12.6875 2.6875 C14.2653125 2.9040625 14.2653125 2.9040625 15.875 3.125 C23.15006369 4.19837005 29.57208457 7.49023272 36.171875 10.6015625 C38.35442977 11.54372124 40.36838514 12.19983566 42.6875 12.6875 C42.6875 13.3475 42.6875 14.0075 42.6875 14.6875 C43.49960938 14.80931641 43.49960938 14.80931641 44.328125 14.93359375 C52.04696724 17.400045 59.35010518 24.97083156 64.7734375 30.765625 C66.77817503 32.85110194 66.77817503 32.85110194 69.63671875 35.04296875 C74.7878512 39.27987962 78.10662185 45.13507359 81.6875 50.6875 C82.34492187 51.69683594 83.00234375 52.70617187 83.6796875 53.74609375 C88.02455073 60.7668706 90.69115295 67.69365272 92.6875 75.6875 C93.06588013 77.01793335 93.06588013 77.01793335 93.4519043 78.37524414 C95.73090895 87.00256759 96.12146489 95.10804085 96.02368164 103.96264648 C95.99999124 106.25084603 96.00315984 108.53787957 96.00976562 110.82617188 C95.97012623 132.26356065 95.97012623 132.26356065 91.6875 138.6875 C91.15954207 140.42340355 90.68542801 142.17610761 90.25 143.9375 C89.08126691 148.42758173 87.6472382 152.48806101 85.6875 156.6875 C85.0275 156.6875 84.3675 156.6875 83.6875 156.6875 C83.30851562 157.75871094 83.30851562 157.75871094 82.921875 158.8515625 C78.14607898 169.82380271 68.72989399 179.10413771 59.6875 186.6875 C59.10226562 187.19925781 58.51703125 187.71101562 57.9140625 188.23828125 C53.93045775 191.6875 53.93045775 191.6875 51.6875 191.6875 C51.3575 192.6775 51.0275 193.6675 50.6875 194.6875 C43.69373685 199.48997151 35.54152714 202.5921541 27.6875 205.6875 C26.94371094 205.99816406 26.19992187 206.30882812 25.43359375 206.62890625 C20.79608554 208.50750547 16.61280496 209.16904685 11.6875 209.6875 C11.3575 210.0175 11.0275 210.3475 10.6875 210.6875 C1.58678463 212.33601668 -7.39004911 212.90828738 -16.625 212.4375 C-17.43050293 212.39898926 -18.23600586 212.36047852 -19.06591797 212.32080078 C-23.01679887 212.06468629 -25.84605495 211.51194476 -29.3125 209.6875 C-32.20589792 209.00872328 -35.12992346 208.53910448 -38.0625 208.0625 C-38.85527344 207.9284375 -39.64804688 207.794375 -40.46484375 207.65625 C-42.41310858 207.32762702 -44.36268439 207.00679295 -46.3125 206.6875 C-46.3125 205.6975 -46.3125 204.7075 -46.3125 203.6875 C-47.13105469 203.60242188 -47.94960937 203.51734375 -48.79296875 203.4296875 C-53.14007849 202.51298289 -56.68384603 200.81355907 -60.625 198.8125 C-61.35267578 198.46058594 -62.08035156 198.10867188 -62.83007812 197.74609375 C-68.18854322 195.05937034 -68.18854322 195.05937034 -69.3125 191.6875 C-70.3334375 191.31625 -70.3334375 191.31625 -71.375 190.9375 C-75.76727006 189.06844891 -78.85198752 185.92109363 -82.3125 182.6875 C-83.55 181.5428125 -83.55 181.5428125 -84.8125 180.375 C-88.56411819 176.34201045 -91.93813621 172.03774904 -95.3125 167.6875 C-95.79074219 167.08808594 -96.26898437 166.48867188 -96.76171875 165.87109375 C-100.54629445 160.91652304 -102.88732226 155.40130885 -105.3125 149.6875 C-105.98345703 148.13869141 -105.98345703 148.13869141 -106.66796875 146.55859375 C-110.39513133 137.82544742 -112.51304877 130.28215173 -113.06640625 120.7734375 C-113.24251053 117.76752233 -113.24251053 117.76752233 -113.828125 115.1796875 C-115.42586229 106.95907143 -114.40355699 98.0897764 -113.5 89.8125 C-113.42998779 89.12381836 -113.35997559 88.43513672 -113.2878418 87.72558594 C-112.76604242 83.39928126 -111.68628826 79.65946416 -110.05908203 75.62158203 C-109.18169394 73.44338438 -109.18169394 73.44338438 -108.32421875 70.109375 C-103.00262917 52.11048514 -89.62400341 33.58591346 -74.3125 22.6875 C-73.6525 22.6875 -72.9925 22.6875 -72.3125 22.6875 C-72.3125 22.0275 -72.3125 21.3675 -72.3125 20.6875 C-70.44921875 19.1796875 -70.44921875 19.1796875 -68 17.5625 C-67.19949219 17.02367188 -66.39898438 16.48484375 -65.57421875 15.9296875 C-63.3125 14.6875 -63.3125 14.6875 -60.3125 14.6875 C-60.3125 14.0275 -60.3125 13.3675 -60.3125 12.6875 C-58.95861467 12.08270315 -57.60437368 11.47870246 -56.25 10.875 C-55.49589844 10.53855469 -54.74179688 10.20210937 -53.96484375 9.85546875 C-53.08957031 9.47003906 -52.21429687 9.08460937 -51.3125 8.6875 C-50.21679688 8.19121094 -49.12109375 7.69492188 -47.9921875 7.18359375 C-44.19306668 5.63894059 -40.46916766 4.54985514 -36.5 3.5625 C-31.79098564 2.45535279 -31.79098564 2.45535279 -27.3125 0.6875 C-18.2122569 -0.39443115 -9.14239565 -0.38997871 0 0 Z M-29.3125 44.6875 C-30.64024509 45.14167729 -31.97280687 45.58238016 -33.3125 46 C-44.85158676 50.35042182 -53.03275138 59.71565759 -59.5 69.86328125 C-60.58374287 71.96366236 -60.58374287 71.96366236 -60.3125 75.6875 C-60.9725 75.6875 -61.6325 75.6875 -62.3125 75.6875 C-62.3125 77.6675 -62.3125 79.6475 -62.3125 81.6875 C-63.3025 81.6875 -64.2925 81.6875 -65.3125 81.6875 C-65.27125 82.595 -65.23 83.5025 -65.1875 84.4375 C-65.3125 87.6875 -65.3125 87.6875 -66.30371094 89.48950195 C-67.66030224 92.44530821 -67.57168368 94.85973188 -67.578125 98.10546875 C-67.58070312 99.36037109 -67.58328125 100.61527344 -67.5859375 101.90820312 C-67.57820313 103.21724609 -67.57046875 104.52628906 -67.5625 105.875 C-67.57023437 107.16470703 -67.57796875 108.45441406 -67.5859375 109.78320312 C-67.57178641 116.70662253 -67.33977886 123.04173727 -65.3125 129.6875 C-64.6525 130.0175 -63.9925 130.3475 -63.3125 130.6875 C-62.87769689 132.10805535 -62.51564331 133.5510855 -62.1875 135 C-58.94216926 146.30214684 -50.74328316 156.82172052 -40.53076172 162.71582031 C-33.67535748 166.34422399 -26.85913155 168.89336478 -19.3125 170.6875 C-18.6525 171.0175 -17.9925 171.3475 -17.3125 171.6875 C-14.40367991 171.83951874 -11.53483328 171.91898077 -8.625 171.9375 C-7.83416016 171.958125 -7.04332031 171.97875 -6.22851562 172 C-0.86789343 172.03541286 2.79982969 171.08815785 7.6875 168.6875 C9.81015293 167.91022685 11.93513291 167.13927632 14.0625 166.375 C25.72903968 161.87142168 33.54572753 154.91986407 40.6875 144.6875 C41.1825 143.2025 41.1825 143.2025 41.6875 141.6875 C42.3475 141.0275 43.0075 140.3675 43.6875 139.6875 C43.6875 138.3675 43.6875 137.0475 43.6875 135.6875 C44.3475 135.6875 45.0075 135.6875 45.6875 135.6875 C52.24531661 117.8025456 53.7418399 95.90319359 45.86328125 78.140625 C45.47527344 77.33109375 45.08726562 76.5215625 44.6875 75.6875 C44.28917969 74.81609375 43.89085937 73.9446875 43.48046875 73.046875 C37.49715028 60.97678011 28.95130137 52.25837606 16.6875 46.6875 C15.615 46.11 14.5425 45.5325 13.4375 44.9375 C10.2613511 43.49379595 7.04723265 42.60977955 3.6875 41.6875 C3.1925 41.1925 3.1925 41.1925 2.6875 40.6875 C-0.78236688 40.37642624 -4.26793398 40.40880647 -7.75 40.375 C-8.71099609 40.34599609 -9.67199219 40.31699219 -10.66210938 40.28710938 C-17.75190641 40.22496011 -22.91375067 41.76400171 -29.3125 44.6875 Z " fill="#1A2133" transform="translate(1935.3125,95.3125)"/>
<path d="M0 0 C0.66 0 1.32 0 2 0 C2.09393704 15.59590647 2.1642187 31.19173506 2.20724869 46.78785515 C2.22776991 54.03135579 2.25568736 61.27467946 2.30175781 68.51806641 C2.34194903 74.84017449 2.3675084 81.16215425 2.37635398 87.48438656 C2.38151505 90.82414969 2.39560286 94.16325845 2.42292023 97.50295639 C2.62723788 123.53985971 -0.84610142 145.11103539 -16 167 C-16.66 167 -17.32 167 -18 167 C-18.24878906 167.56332031 -18.49757813 168.12664062 -18.75390625 168.70703125 C-25.43184724 180.99528003 -38.74504516 190.02776419 -51 196 C-51.77214844 196.39058594 -52.54429687 196.78117188 -53.33984375 197.18359375 C-67.89733847 204.16812109 -85.12152827 203.95916293 -100.75 201.5625 C-102.12865234 201.36043945 -102.12865234 201.36043945 -103.53515625 201.15429688 C-106.02653473 200.78473639 -108.5150857 200.41079997 -111 200 C-111.88204102 199.86070068 -112.76408203 199.72140137 -113.67285156 199.57788086 C-116 199 -116 199 -118 197 C-119.82209972 196.24292527 -119.82209972 196.24292527 -121.9375 195.625 C-131.98027897 192.40554454 -141.45952386 188.49648814 -151 184 C-152.89446357 183.14279962 -154.79022662 182.28846324 -156.6875 181.4375 C-167.69894765 176.4294241 -178.32710739 170.68312959 -189 165 C-189 164.34 -189 163.68 -189 163 C-189.78375 162.79375 -190.5675 162.5875 -191.375 162.375 C-194.55823467 161.16756616 -197.34751607 159.84227583 -200.3125 158.1875 C-201.17488281 157.70667969 -202.03726562 157.22585938 -202.92578125 156.73046875 C-205.50399522 154.57952941 -205.49990405 153.22969018 -206 150 C-204.13251099 150.01571045 -204.13251099 150.01571045 -202.22729492 150.03173828 C-197.56244843 150.06822219 -192.89761428 150.09100281 -188.23266602 150.10986328 C-186.2222277 150.11985664 -184.21180367 150.13345588 -182.20141602 150.15087891 C-167.99883709 150.43172657 -167.99883709 150.43172657 -153.98632812 148.4453125 C-151.30836072 147.84494223 -148.73041718 147.85240988 -146 148 C-146 147.34 -146 146.68 -146 146 C-145.33355469 145.84144531 -144.66710937 145.68289063 -143.98046875 145.51953125 C-136.88745755 143.72395779 -130.55664365 141.22022498 -124 138 C-123.06849121 137.54850586 -123.06849121 137.54850586 -122.11816406 137.08789062 C-104.67794374 128.62537209 -88.92124373 118.70107929 -74.44238281 105.75927734 C-70.20006983 102 -70.20006983 102 -68 102 C-67.73703125 101.40832031 -67.4740625 100.81664062 -67.203125 100.20703125 C-65.94622604 97.90135622 -64.65231376 96.4827015 -62.75 94.6875 C-59.92448048 91.93725047 -57.29869222 89.12845006 -54.76953125 86.10546875 C-53.41034459 84.48824665 -52.02831993 82.89019681 -50.63671875 81.30078125 C-33.77020165 62.67464182 -33.77020165 62.67464182 -22 41 C-21.34 41 -20.68 41 -20 41 C-19.76667969 40.19433594 -19.53335938 39.38867188 -19.29296875 38.55859375 C-17.69028505 34.14758212 -15.54790453 30.18010931 -13.3125 26.0625 C-9.68046558 19.28419844 -6.24039362 12.46339083 -3.06958008 5.45727539 C-1.08696204 1.08696204 -1.08696204 1.08696204 0 0 Z " fill="#00E367" transform="translate(554,177)"/>
<path d="M0 0 C0 0.66 0 1.32 0 2 C0.57105469 2.08636719 1.14210938 2.17273438 1.73046875 2.26171875 C16.47205264 4.81630165 30.10303337 12.03829189 43.5 18.4375 C44.48097656 18.90220703 45.46195313 19.36691406 46.47265625 19.84570312 C52.44199222 22.69524633 58.26375847 25.70749167 64 29 C64.77553223 29.4427124 65.55106445 29.8854248 66.35009766 30.34155273 C68.75807993 31.7211412 71.16091848 33.10930316 73.5625 34.5 C74.36107422 34.96019531 75.15964844 35.42039063 75.98242188 35.89453125 C77.55990941 36.80733985 79.13376463 37.72645948 80.70361328 38.65234375 C82.24850391 39.55897742 83.8045807 40.44678673 85.37060547 41.31640625 C86.1029541 41.73792969 86.83530273 42.15945312 87.58984375 42.59375 C88.57585571 43.14579102 88.57585571 43.14579102 89.58178711 43.70898438 C90.04979736 44.13501953 90.51780762 44.56105469 91 45 C91 46.32 91 47.64 91 49 C90.40276123 48.96447021 89.80552246 48.92894043 89.19018555 48.89233398 C72.51143358 47.93712102 55.91902124 47.30771733 39.4453125 50.59765625 C36.9205152 51.01307817 34.55398013 51.06865538 32 51 C32 51.66 32 52.32 32 53 C31.2265625 53.17015625 30.453125 53.3403125 29.65625 53.515625 C24.21507743 54.7816404 19.28379508 56.08712487 14.3828125 58.7734375 C11.72004322 60.1441089 9.00372231 61.30522351 6.24755859 62.47363281 C-8.08099783 68.5584074 -20.35312047 76.99654636 -32.53442383 86.62402344 C-35.24480779 88.74617506 -37.83788997 90.61753161 -41 92 C-41 92.66 -41 93.32 -41 94 C-42.36328125 95.33984375 -42.36328125 95.33984375 -44.3125 96.9375 C-53.09798307 104.45017457 -60.59708636 112.33256233 -67.22265625 121.76171875 C-67.80917969 122.50035156 -68.39570313 123.23898438 -69 124 C-69.66 124 -70.32 124 -71 124 C-71.27529541 124.58378418 -71.55059082 125.16756836 -71.83422852 125.76904297 C-72.95997309 127.92339981 -74.195382 129.75353984 -75.65234375 131.6953125 C-76.17594482 132.40163818 -76.6995459 133.10796387 -77.23901367 133.83569336 C-77.79951416 134.59116455 -78.36001465 135.34663574 -78.9375 136.125 C-93.03122027 155.42195357 -104.1235922 176.28398407 -114 198 C-114.495 198.99 -114.495 198.99 -115 200 C-115.66 200 -116.32 200 -117 200 C-117.09397452 184.42136433 -117.16423668 168.8428068 -117.20724869 153.26395702 C-117.22776213 146.0283319 -117.25566416 138.79288419 -117.30175781 131.55737305 C-117.34197343 125.2414813 -117.367514 118.92571819 -117.37635398 112.60970193 C-117.38151104 109.27381875 -117.39557869 105.9385913 -117.42292023 102.60277367 C-117.71296885 65.71338865 -117.71296885 65.71338865 -109 50 C-108.52304688 49.08863281 -108.04609375 48.17726562 -107.5546875 47.23828125 C-97.49963156 28.31557546 -82.04825841 9.13500285 -61 2 C-60.01 2 -59.02 2 -58 2 C-58 1.34 -58 0.68 -58 0 C-39.89858315 -5.7162369 -18.23531389 -4.75703841 0 0 Z " fill="#F6141F" transform="translate(317,28)"/>
<path d="M0 0 C15.1261887 -0.07038313 30.25236981 -0.12313066 45.37868595 -0.15543652 C52.40363636 -0.17084186 59.42848445 -0.1918086 66.45336914 -0.22631836 C73.24204403 -0.25965156 80.03061292 -0.27689034 86.81936455 -0.28463173 C89.39990338 -0.29014349 91.98043691 -0.30090597 94.56093025 -0.31719017 C107.75134595 -0.39706253 120.19416867 -0.38811235 133 3 C134.66438919 3.34452505 136.33034665 3.68196449 138 4 C138 4.66 138 5.32 138 6 C139.01320313 6.16435547 139.01320313 6.16435547 140.046875 6.33203125 C140.93890625 6.49058594 141.8309375 6.64914063 142.75 6.8125 C143.63171875 6.96332031 144.5134375 7.11414063 145.421875 7.26953125 C148.21852753 8.06191613 149.7511354 9.20090832 152 11 C153.98014432 11.72351427 155.97821315 12.40265389 158 13 C158 13.66 158 14.32 158 15 C158.7425 15.268125 159.485 15.53625 160.25 15.8125 C162.89061949 16.95276751 164.85552844 18.09380306 167 20 C167 20.66 167 21.32 167 22 C167.804375 22.0928125 167.804375 22.0928125 168.625 22.1875 C176.59871707 24.91535058 182.98646254 33.97630945 187 41 C187.46792969 41.45117188 187.93585938 41.90234375 188.41796875 42.3671875 C192.76635474 46.85515131 195.21938156 53.11026209 197 59 C197.48581543 59.90613037 197.48581543 59.90613037 197.98144531 60.83056641 C201.89714007 69.17065835 201.31094344 79.62568589 201.25 88.625 C201.25773438 89.77484375 201.26546875 90.9246875 201.2734375 92.109375 C201.25531051 100.06712308 200.52304629 107.43086114 198 115 C197.34 115 196.68 115 196 115 C195.95875 116.155 195.9175 117.31 195.875 118.5 C195.34586211 123.43598778 193.79707294 127.82024681 192.0625 132.4375 C191.79743652 133.14777344 191.53237305 133.85804688 191.25927734 134.58984375 C190.11940388 137.53327864 189.2558306 139.7441694 187 142 C186.46765195 143.41866575 185.99454594 144.86014218 185.5625 146.3125 C184.42559475 149.90121607 183.0339207 152.81647195 181 156 C180.57460938 157.09248047 180.57460938 157.09248047 180.140625 158.20703125 C178.76197069 161.58284574 177.05566497 164.74114284 175.3125 167.9375 C172.56633489 173.01809347 169.92148841 178.12877972 167.375 183.3125 C163.7768774 190.56624944 159.94508183 197.57139362 155 204 C153.35 203.67 151.7 203.34 150 203 C149.97313447 201.02090602 149.95366625 199.04171029 149.9375 197.0625 C149.92589844 195.96035156 149.91429687 194.85820312 149.90234375 193.72265625 C150 191 150 191 151 190 C151.16666667 187 151.16666667 187 151 184 C150.67 183.67 150.34 183.34 150 183 C149.8671918 181.64203153 149.79669534 180.27783868 149.75390625 178.9140625 C149.72224365 178.07037109 149.69058105 177.22667969 149.65795898 176.35742188 C149.62645752 175.45572266 149.59495605 174.55402344 149.5625 173.625 C149.29026539 166.98788485 148.84891586 160.59804501 147.40234375 154.09375 C147 152 147 152 147 148 C146.34 148 145.68 148 145 148 C145 145.69 145 143.38 145 141 C144.34 141 143.68 141 143 141 C142.5978125 139.71802734 142.5978125 139.71802734 142.1875 138.41015625 C140.98663514 134.96162 139.55883634 131.73833596 138 128.4375 C135.17070379 122.4323188 135.17070379 122.4323188 133.98046875 119.41796875 C130.53487617 110.92067071 125.24989056 99.95432031 118.54296875 93.625 C116.61001349 91.58928003 115.45445931 89.25672723 114.10253906 86.81494141 C112.36306392 83.95150956 110.1620633 81.62458932 107.875 79.1875 C107.40143066 78.67832031 106.92786133 78.16914062 106.43994141 77.64453125 C102.40148356 73.33398348 98.18857409 69.21631617 93.8984375 65.15625 C91.95684709 62.95098682 91.58552215 61.78732942 91 59 C88.60931266 57.89363605 88.60931266 57.89363605 86 57 C84.5625 55.6875 84.5625 55.6875 83 54 C69.48453735 42.52058265 54.71633447 30.65806275 39.0625 22.25 C38.11761719 21.74210937 37.17273438 21.23421875 36.19921875 20.7109375 C35.14347656 20.14632812 34.08773437 19.58171875 33 19 C31.75626941 18.32596536 30.51279074 17.65146571 29.26953125 16.9765625 C23.26747088 13.73073529 17.27563955 10.56476789 11.00390625 7.86328125 C8.81838807 6.92176172 6.65300048 5.95134679 4.5 4.9375 C3.52546875 4.48697266 3.52546875 4.48697266 2.53125 4.02734375 C1 3 1 3 0 0 Z " fill="#FECE00" transform="translate(354,24)"/>
<path d="M0 0 C3.875 0.875 3.875 0.875 5 2 C5.04092937 4.33297433 5.04241723 6.66705225 5 9 C4.34 9 3.68 9 3 9 C3.14053872 11.62538284 3.28718947 14.25017427 3.4375 16.875 C3.47681641 17.62136719 3.51613281 18.36773437 3.55664062 19.13671875 C3.71573624 23.19986864 3.71573624 23.19986864 5 27 C5.2308173 28.62263834 5.41629386 30.25184883 5.578125 31.8828125 C7.19042613 46.99048997 9.28002211 60.98121679 16.69140625 74.49609375 C17.84922266 76.71149769 18.85131471 78.92643077 19.84375 81.21875 C21.94416936 85.99225162 24.37901437 90.52148186 26.9375 95.0625 C27.35451172 95.81337891 27.77152344 96.56425781 28.20117188 97.33789062 C33.26242906 106.78368804 33.26242906 106.78368804 40 115 C41.45062798 116.76009528 42.88676631 118.53217969 44.3125 120.3125 C46.93878505 123.55673447 49.55384998 126.66846521 52.5625 129.5625 C53.7690625 130.7690625 53.7690625 130.7690625 55 132 C55 132.66 55 133.32 55 134 C56.98 134.99 56.98 134.99 59 136 C59 136.66 59 137.32 59 138 C60.98 138.99 60.98 138.99 63 140 C63 140.66 63 141.32 63 142 C63.66 142 64.32 142 65 142 C65 142.66 65 143.32 65 144 C65.99 144.33 66.98 144.66 68 145 C69.3565164 146.30973998 70.68557638 147.64802142 72 149 C74.87752478 151.52919283 77.80826932 153.87217955 81 156 C81 156.66 81 157.32 81 158 C82.0828125 158.37125 82.0828125 158.37125 83.1875 158.75 C87.54726687 160.68767416 90.3581595 163.03723926 93 167 C94.98485356 168.02973606 96.98858675 169.02315981 99 170 C101.06425773 171.26978138 103.08662806 172.5960789 105.11547852 173.92163086 C114.98256823 180.36309443 125.17070087 185.95182108 135.66015625 191.30859375 C136.54074707 191.75831543 137.42133789 192.20803711 138.32861328 192.67138672 C140.16145701 193.58295093 142.01003204 194.4633537 143.87060547 195.31689453 C144.7782666 195.7395459 145.68592773 196.16219727 146.62109375 196.59765625 C147.43892334 196.96511963 148.25675293 197.33258301 149.09936523 197.71118164 C151.46091927 199.31254885 151.46179755 200.29007322 152 203 C137.22095911 203.09405098 122.44195861 203.16427331 107.66267776 203.20724869 C100.79812783 203.22774629 93.93376539 203.25561675 87.06933594 203.30175781 C80.42978133 203.34636549 73.79036849 203.36921876 67.15065765 203.37950897 C64.63285023 203.38683082 62.11505193 203.40112583 59.59732819 203.42292023 C44.54316412 203.54790818 30.62829573 202.69008887 16 199 C16 198.34 16 197.68 16 197 C14.906875 196.79375 13.81375 196.5875 12.6875 196.375 C3.62679592 194.10181982 -4.46328857 188.34863392 -12 183 C-13.10988281 182.23429687 -13.10988281 182.23429687 -14.2421875 181.453125 C-20.61174594 176.82472614 -25.23727011 171.22749399 -30 165 C-30.58007812 164.26136719 -31.16015625 163.52273438 -31.7578125 162.76171875 C-45.54015729 144.92778014 -48.10807626 123.58406812 -45.74072266 101.59130859 C-44.69309413 94.05000741 -42.75804728 87.07614999 -40 80 C-39.53188163 78.7264593 -39.06699149 77.45172697 -38.60546875 76.17578125 C-35.84022174 68.61537533 -32.84439538 61.27627815 -29.390625 53.99609375 C-27.41242074 49.73406379 -25.6829571 45.38558821 -24 41 C-23.34 41 -22.68 41 -22 41 C-21.67 39.824375 -21.34 38.64875 -21 37.4375 C-18.81129427 30.8506368 -15.35814295 24.89402042 -12.01220703 18.84375 C-11.06236521 17.11359915 -10.1376796 15.36970497 -9.21484375 13.625 C-8.69019531 12.635 -8.16554687 11.645 -7.625 10.625 C-7.16351563 9.75101563 -6.70203125 8.87703125 -6.2265625 7.9765625 C-5 6 -5 6 -3 5 C-1.9590934 3.35857037 -0.95495674 1.69287785 0 0 Z " fill="#0077E3" transform="translate(247,177)"/>
<path d="M0 0 C7.61766608 0.11919534 12.24212142 2.96595661 17.75 8.0625 C24.76188452 15.55559228 24.99650645 23.33692183 25.4375 33.3125 C26.39791171 32.21014064 27.35574407 31.10553376 28.3125 30 C28.84617187 29.38511719 29.37984375 28.77023438 29.9296875 28.13671875 C31.6015447 26.17751788 31.6015447 26.17751788 33.4375 23.3125 C34.0975 23.3125 34.7575 23.3125 35.4375 23.3125 C35.9325 21.8275 35.9325 21.8275 36.4375 20.3125 C37.0975 20.3125 37.7575 20.3125 38.4375 20.3125 C38.9325 18.8275 38.9325 18.8275 39.4375 17.3125 C51.50568182 7.3125 51.50568182 7.3125 57.4375 7.3125 C57.4375 6.6525 57.4375 5.9925 57.4375 5.3125 C58.35273438 5.03535156 59.26796875 4.75820312 60.2109375 4.47265625 C61.39945313 4.11042969 62.58796875 3.74820313 63.8125 3.375 C64.99585937 3.01535156 66.17921875 2.65570313 67.3984375 2.28515625 C70.31676818 1.43673726 70.31676818 1.43673726 72.4375 0.3125 C76.20250537 0.04394888 79.97649445 0.08089613 83.75 0.0625 C84.79607422 0.041875 85.84214844 0.02125 86.91992188 0 C87.93248047 -0.00515625 88.94503906 -0.0103125 89.98828125 -0.015625 C91.37527222 -0.02964355 91.37527222 -0.02964355 92.7902832 -0.04394531 C95.97248701 0.38453551 97.8728886 1.40694588 100.4375 3.3125 C100.4375 3.9725 100.4375 4.6325 100.4375 5.3125 C101.04078125 5.57546875 101.6440625 5.8384375 102.265625 6.109375 C106.12166789 8.24545631 107.90087956 11.23711536 109.4375 15.3125 C110.22931748 21.31542399 110.93261256 27.02244007 107.52734375 32.23828125 C105.4375 34.3125 105.4375 34.3125 103.4375 34.3125 C103.1075 35.3025 102.7775 36.2925 102.4375 37.3125 C95.61394005 42.73358913 89.09349012 43.79021868 80.609375 44.05859375 C69.34079517 44.55573698 57.95236896 47.10188056 48.37109375 53.140625 C46.4375 54.3125 46.4375 54.3125 44.4375 54.3125 C44.4375 54.9725 44.4375 55.6325 44.4375 56.3125 C42.45060269 57.66528115 40.45004782 58.99818305 38.4375 60.3125 C37.9425 61.3025 37.9425 61.3025 37.4375 62.3125 C36.7775 62.3125 36.1175 62.3125 35.4375 62.3125 C35.169375 63.03566406 34.90125 63.75882813 34.625 64.50390625 C33.07683258 68.1655259 30.99895032 71.36431212 28.875 74.71484375 C25.34558424 81.09272821 25.15232593 86.75357781 25.18212891 93.87255859 C25.17850845 94.9237236 25.174888 95.97488861 25.17115784 97.0579071 C25.16427759 99.33483387 25.16175582 101.61177708 25.16310501 103.88871384 C25.1640718 107.49563462 25.15110962 111.10225868 25.13412476 114.70913696 C25.08789807 124.96231802 25.0632466 135.21546829 25.05664062 145.46875 C25.05162173 151.74573004 25.02735333 158.02239961 24.99131393 164.29927444 C24.98152604 166.68739583 24.97917844 169.07555998 24.98448563 171.46369553 C24.99156817 174.80735131 24.97424849 178.15008376 24.95166016 181.49365234 C24.95983261 182.47469437 24.96800507 183.45573639 24.97642517 184.46650696 C24.88943966 191.72262454 23.17850205 196.86220355 18.65625 202.5546875 C18.0890625 203.09351563 17.521875 203.63234375 16.9375 204.1875 C16.08671875 205.01894531 16.08671875 205.01894531 15.21875 205.8671875 C13.37944544 207.35960567 11.55867541 208.27799232 9.4375 209.3125 C8.4475 210.3025 8.4475 210.3025 7.4375 211.3125 C0.32915574 212.48000422 -5.37365198 212.06718297 -11.375 207.9375 C-13.83203125 206.0390625 -13.83203125 206.0390625 -15.5625 204.3125 C-15.5625 203.6525 -15.5625 202.9925 -15.5625 202.3125 C-16.5525 201.9825 -17.5425 201.6525 -18.5625 201.3125 C-23.88142609 193.45082547 -23.11662084 183.76122773 -23.04833984 174.69873047 C-23.05048913 173.03537701 -23.0543719 171.37202504 -23.05984497 169.7086792 C-23.06948851 165.21699204 -23.05429865 160.72570611 -23.03393888 156.23406744 C-23.01629126 151.52129462 -23.01989443 146.80853277 -23.0206604 142.09573364 C-23.01879112 134.18566222 -23.0014761 126.27574486 -22.97412109 118.36572266 C-22.94265258 109.23273119 -22.9321259 100.09990814 -22.9335922 90.96686637 C-22.9349451 81.22269571 -22.92105446 71.47858957 -22.90269899 61.73443842 C-22.8984455 58.93495467 -22.8970179 56.1354814 -22.89622116 53.33599472 C-22.89420583 48.93149195 -22.88194381 44.52712944 -22.86188889 40.12267303 C-22.85606916 38.51025121 -22.85358199 36.89781323 -22.85474396 35.28538132 C-22.86146079 20.28498304 -22.86146079 20.28498304 -20.5625 13.3125 C-19.9025 13.3125 -19.2425 13.3125 -18.5625 13.3125 C-18.46453125 12.71695313 -18.3665625 12.12140625 -18.265625 11.5078125 C-17.03020835 7.65056719 -13.76942214 5.60605824 -10.5625 3.3125 C-7.6875 2 -7.6875 2 -5.5625 1.3125 C-3.94996547 -0.30003453 -2.22650957 0.06458577 0 0 Z M23.4375 36.3125 C24.4375 38.3125 24.4375 38.3125 24.4375 38.3125 Z " fill="#1A2133" transform="translate(2087.5625,95.6875)"/>
<path d="M0 0 C0.66 0 1.32 0 2 0 C2 0.66 2 1.32 2 2 C1.34 2 0.68 2 0 2 C0 1.34 0 0.68 0 0 Z " fill="#1A2133" transform="translate(723,284)"/>
<path d="M0 0 C0.66 0 1.32 0 2 0 C2 0.66 2 1.32 2 2 C1.34 2 0.68 2 0 2 C0 1.34 0 0.68 0 0 Z " fill="#1A2133" transform="translate(2389,261)"/>
<path d="M0 0 C1 4 1 4 1 4 Z " fill="#1A2133" transform="translate(2209,233)"/>
<path d="M0 0 C1 4 1 4 1 4 Z " fill="#1A2133" transform="translate(1081,167)"/>
<path d="M0 0 C0.66 0 1.32 0 2 0 C2 0.66 2 1.32 2 2 C1.34 2 0.68 2 0 2 C0 1.34 0 0.68 0 0 Z " fill="#1A2133" transform="translate(1304,165)"/>
<path d="M0 0 C1 4 1 4 1 4 Z " fill="#1A2133" transform="translate(1588,146)"/>
<path d="M0 0 C0.33 0.66 0.66 1.32 1 2 C0.34 1.67 -0.32 1.34 -1 1 C-0.67 0.67 -0.34 0.34 0 0 Z " fill="#1A2133" transform="translate(1104,284)"/>
<path d="M0 0 C0.99 0.495 0.99 0.495 2 1 C1.01 1.495 1.01 1.495 0 2 C0 1.34 0 0.68 0 0 Z " fill="#1A2133" transform="translate(1538,240)"/>
<path d="" fill="#1A2133" transform="translate(0,0)"/>
<path d="M0 0 C0.66 0 1.32 0 2 0 C1.67 0.66 1.34 1.32 1 2 C0.67 1.34 0.34 0.68 0 0 Z " fill="#1A2133" transform="translate(1088,110)"/>
<path d="M0 0 C2 1 2 1 2 1 Z " fill="#1A2133" transform="translate(1196,288)"/>
<path d="M0 0 C2 1 2 1 2 1 Z " fill="#1A2133" transform="translate(1009,259)"/>
<path d="" fill="#1A2133" transform="translate(0,0)"/>
<path d="" fill="#1A2133" transform="translate(0,0)"/>
<path d="" fill="#1A2133" transform="translate(0,0)"/>
<path d="M0 0 C2 1 2 1 2 1 Z " fill="#1A2133" transform="translate(2150,143)"/>
<path d="M0 0 C2 1 2 1 2 1 Z " fill="#1A2133" transform="translate(1009,143)"/>
<path d="M0 0 C2 1 2 1 2 1 Z " fill="#1A2133" transform="translate(1859,117)"/>
<path d="M0 0 C2 1 2 1 2 1 Z " fill="#1A2133" transform="translate(1563,117)"/>
<path d="" fill="#1A2133" transform="translate(0,0)"/>
<path d="" fill="#1A2133" transform="translate(0,0)"/>
<path d="" fill="#1A2133" transform="translate(0,0)"/>
<path d="" fill="#1A2133" transform="translate(0,0)"/>
<path d="" fill="#1A2133" transform="translate(0,0)"/>
<path d="" fill="#1A2133" transform="translate(0,0)"/>
<path d="" fill="#1A2133" transform="translate(0,0)"/>
<path d="" fill="#1A2133" transform="translate(0,0)"/>
<path d="" fill="#0077E3" transform="translate(0,0)"/>
<path d="" fill="#1A2133" transform="translate(0,0)"/>
<path d="" fill="#1A2133" transform="translate(0,0)"/>
<path d="" fill="#1A2133" transform="translate(0,0)"/>
<path d="" fill="#1A2133" transform="translate(0,0)"/>
<path d="" fill="#1A2133" transform="translate(0,0)"/>
<path d="" fill="#1A2133" transform="translate(0,0)"/>
<path d="" fill="#1A2133" transform="translate(0,0)"/>
</svg>
