<?xml version="1.0" encoding="utf-8"?>
<!-- Generator: Adobe Illustrator 23.0.2, SVG Export Plug-In . SVG Version: 6.00 Build 0)  -->
<svg version="1.1" id="Layer_1" xmlns="http://www.w3.org/2000/svg" xmlns:xlink="http://www.w3.org/1999/xlink" x="0px" y="0px"
	 viewBox="0 0 534.47 110.13" style="enable-background:new 0 0 534.47 110.13;" xml:space="preserve">
<style type="text/css">
	.st0{fill:#00A551;}
	.st1{fill:#C5FF28;}
	.st2{fill:#FFFFFF;}
	.st3{fill:none;stroke:#231F20;stroke-miterlimit:10;}
	.st4{fill:#B5D333;}
	.st5{fill:#231F20;}
	.st6{fill:url(#SVGID_1_);}
	.st7{fill:url(#SVGID_2_);}
	.st8{fill:url(#SVGID_3_);}
	.st9{fill:url(#SVGID_4_);}
	.st10{fill:url(#SVGID_5_);}
	.st11{fill:url(#SVGID_6_);}
	.st12{fill:url(#SVGID_7_);}
	.st13{fill:url(#SVGID_8_);}
	.st14{fill:#EC1C2A;}
	.st15{fill:#89181F;}
	.st16{opacity:0.58;fill:#89181F;}
	.st17{fill:none;stroke:#89181F;stroke-miterlimit:10;}
	.st18{fill:#F8C312;}
	.st19{opacity:0.58;fill:#CF9E2B;}
	.st20{fill:#2791D0;}
	.st21{opacity:0.58;fill:#0B64AA;}
	.st22{fill:#5BB948;}
	.st23{fill:#35A248;}
	.st24{opacity:0.27;fill:#89181F;}
	.st25{opacity:0.13;fill:#89181F;}
	.st26{opacity:0.3;fill:#268742;}
	.st27{fill:#929497;}
	.st28{opacity:0.81;fill:#58595B;}
	.st29{fill:#3F444A;}
	.st30{fill:url(#SVGID_9_);}
	.st31{fill:url(#SVGID_10_);}
	.st32{fill:url(#SVGID_11_);}
	.st33{fill:#D92D29;}
	.st34{fill:#7AC043;}
	.st35{fill:#2AC4F3;}
	.st36{fill:#91C855;}
	.st37{fill:#7ECFDD;}
	.st38{fill:#3EB66F;}
	.st39{fill:#FCB912;}
	.st40{fill:#D13D4F;}
	.st41{fill:#F9A61A;}
	.st42{fill:#EC5A26;}
	.st43{fill:#9267AB;}
	.st44{fill:#AE67A9;}
	.st45{fill:#14499C;}
	.st46{fill:#915CA5;}
	.st47{fill:#804C9D;}
	.st48{fill:#7D2A8F;}
	.st49{opacity:0.76;}
	.st50{fill:#FDD600;}
	.st51{fill:#FAAC18;}
	.st52{fill:#F27021;}
	.st53{fill:#31C4F3;}
	.st54{fill:#1F93D1;}
	.st55{fill:#156CB4;}
	.st56{fill:#7BC043;}
	.st57{fill:#4BAA48;}
	.st58{fill:#2C8842;}
	.st59{fill:#224090;}
	.st60{fill:url(#SVGID_12_);}
	.st61{fill:url(#SVGID_13_);}
	.st62{fill:url(#SVGID_14_);}
	.st63{fill:url(#SVGID_15_);}
	.st64{fill:url(#SVGID_16_);}
	.st65{fill:url(#SVGID_17_);}
	.st66{fill:#F8A133;}
	.st67{fill:#4373B8;}
	.st68{fill:#7651A0;}
	.st69{fill:#8FB03D;}
	.st70{fill:#EA2127;}
	.st71{fill:url(#SVGID_18_);}
	.st72{fill:url(#SVGID_19_);}
	.st73{fill:none;stroke:#C6202C;stroke-miterlimit:10;}
	.st74{fill:url(#SVGID_20_);}
	.st75{fill:#EC1968;}
	.st76{fill:#3279BD;}
	.st77{fill:#F16622;}
	.st78{fill:#D44C27;}
	.st79{fill:#E15326;}
	.st80{fill:#F7B0AD;}
	.st81{fill:#F16764;}
	.st82{fill:#B92027;}
	.st83{fill:#F7EAA9;}
	.st84{fill:#F2D660;}
	.st85{fill:#D9B727;}
	.st86{fill:#B8972F;}
	.st87{fill:#AFD8F3;}
	.st88{fill:#6BBAE8;}
	.st89{fill:#3195D2;}
	.st90{fill:#0F6AA0;}
	.st91{fill:#C8E1A9;}
	.st92{fill:#A2CE5F;}
	.st93{fill:#569843;}
	.st94{opacity:0.72;fill:#1987C0;}
	.st95{opacity:0.72;fill:#9A4545;}
	.st96{opacity:0.72;fill:#C6202C;}
	.st97{fill:#F5DB0F;}
	.st98{opacity:0.72;fill:#26A54A;}
	.st99{fill:#E7AD22;}
	.st100{fill:#479A45;}
	.st101{fill:#73BE44;}
	.st102{fill:none;stroke:#73BE44;stroke-width:8;stroke-miterlimit:10;}
	.st103{fill:none;stroke:#B9D432;stroke-width:4;stroke-miterlimit:10;}
	.st104{fill:none;stroke:#B9D432;stroke-width:6;stroke-miterlimit:10;}
	.st105{fill:#221F1F;}
	.st106{fill:url(#SVGID_21_);}
	.st107{fill:url(#SVGID_22_);}
	.st108{fill:url(#SVGID_23_);}
	.st109{fill:#B9D432;}
	.st110{fill:url(#SVGID_24_);}
	.st111{fill:url(#SVGID_25_);}
	.st112{fill:url(#SVGID_26_);}
	.st113{fill:url(#SVGID_27_);}
	.st114{fill:url(#SVGID_28_);}
	.st115{fill:url(#SVGID_29_);}
	.st116{fill:url(#SVGID_30_);}
	.st117{fill:url(#SVGID_31_);}
	.st118{fill:url(#SVGID_32_);}
	.st119{fill:url(#SVGID_33_);}
	.st120{fill:url(#SVGID_34_);}
	.st121{fill:url(#SVGID_35_);}
	.st122{fill:url(#SVGID_36_);}
	.st123{fill:url(#SVGID_37_);}
	.st124{fill:url(#SVGID_38_);}
	.st125{fill:none;stroke:#FFFFFF;stroke-width:10;stroke-miterlimit:10;}
	.st126{fill:url(#SVGID_39_);}
	.st127{fill:url(#SVGID_40_);}
	.st128{fill:url(#SVGID_41_);}
	.st129{fill:none;stroke:#221F1F;stroke-miterlimit:10;}
	.st130{fill:url(#SVGID_42_);}
	.st131{fill:url(#SVGID_43_);}
	.st132{fill:url(#SVGID_44_);}
	.st133{fill:url(#SVGID_45_);}
	.st134{fill:url(#SVGID_46_);}
	.st135{fill:#CB2529;}
	.st136{fill:#43AB48;}
	.st137{fill:#0071B7;}
	.st138{fill:url(#SVGID_47_);}
	.st139{fill:url(#SVGID_48_);}
	.st140{fill:url(#SVGID_49_);}
	.st141{fill:url(#SVGID_50_);}
	.st142{fill:url(#SVGID_51_);}
	.st143{fill:url(#SVGID_52_);}
	.st144{fill:url(#SVGID_53_);}
	.st145{fill:url(#SVGID_54_);}
	.st146{fill:url(#SVGID_55_);}
	.st147{fill:url(#SVGID_56_);}
	.st148{fill:url(#SVGID_57_);}
	.st149{fill:url(#SVGID_58_);}
	.st150{fill:url(#SVGID_59_);}
	.st151{fill:#E21E2C;}
	.st152{fill:#B42029;}
	.st153{fill:#DBA428;}
	.st154{fill:none;stroke:#73BE44;stroke-width:14;stroke-miterlimit:10;}
	.st155{fill:none;stroke:#73BE44;stroke-width:16;stroke-miterlimit:10;}
	.st156{fill:none;stroke:#231F20;stroke-width:11;stroke-miterlimit:10;}
	.st157{fill:url(#SVGID_60_);}
	.st158{fill:url(#SVGID_61_);}
	.st159{fill:#58595B;}
	.st160{fill:none;stroke:#231F20;stroke-width:13;stroke-miterlimit:10;}
	.st161{fill:url(#SVGID_62_);}
	.st162{fill:url(#SVGID_63_);}
	.st163{fill:url(#SVGID_64_);}
	.st164{fill:url(#SVGID_65_);}
	.st165{fill:url(#SVGID_66_);}
	.st166{fill:url(#SVGID_67_);}
	.st167{fill:url(#SVGID_68_);}
	.st168{fill:url(#SVGID_69_);}
	.st169{fill:url(#SVGID_70_);}
	.st170{fill:url(#SVGID_71_);}
	.st171{fill:url(#SVGID_72_);}
	.st172{fill:url(#SVGID_73_);}
	.st173{fill:url(#SVGID_74_);}
	.st174{fill:url(#SVGID_75_);}
	.st175{fill:url(#SVGID_76_);}
	.st176{fill:url(#SVGID_77_);}
	.st177{fill:#E81D2E;}
	.st178{opacity:0.72;fill:#F8C312;}
	.st179{opacity:0.72;fill:#269DD8;}
	.st180{opacity:0.72;fill:#2791D0;}
	.st181{opacity:0.72;fill:#5BB948;}
	.st182{opacity:0.72;fill:#B5202A;}
	.st183{fill:url(#SVGID_78_);}
	.st184{fill:url(#SVGID_79_);}
	.st185{fill:url(#SVGID_80_);}
	.st186{fill:none;stroke:#231F20;stroke-width:3;stroke-miterlimit:10;}
	.st187{fill:url(#SVGID_81_);}
	.st188{fill:url(#SVGID_82_);}
	.st189{fill:url(#SVGID_83_);}
	.st190{fill:url(#SVGID_84_);}
	.st191{fill:url(#SVGID_85_);}
	.st192{fill:url(#SVGID_86_);}
	.st193{fill:url(#SVGID_87_);}
	.st194{opacity:0.38;fill:#399A46;}
	.st195{fill:url(#SVGID_88_);}
	.st196{fill:url(#SVGID_89_);}
	.st197{fill:url(#SVGID_90_);}
	.st198{fill:url(#SVGID_91_);}
	.st199{fill:url(#SVGID_92_);}
	.st200{fill:url(#SVGID_93_);}
	.st201{fill:url(#SVGID_94_);}
	.st202{fill:url(#SVGID_95_);}
	.st203{fill:url(#SVGID_96_);}
	.st204{fill:url(#SVGID_97_);}
	.st205{fill:url(#SVGID_98_);}
	.st206{fill:url(#SVGID_99_);}
	.st207{opacity:0.56;fill:#E4AC23;}
	.st208{opacity:0.72;fill:#0D8BBA;}
	.st209{opacity:0.72;fill:#399A46;}
	.st210{fill:url(#SVGID_100_);}
	.st211{fill:url(#SVGID_101_);}
	.st212{fill:url(#SVGID_102_);}
	.st213{fill:url(#SVGID_103_);}
	.st214{fill:url(#SVGID_104_);}
	.st215{fill:url(#SVGID_105_);}
	.st216{fill:url(#SVGID_106_);}
	.st217{fill:url(#SVGID_107_);}
	.st218{fill:url(#SVGID_108_);}
	.st219{fill:url(#SVGID_109_);}
	.st220{fill:#0F6793;}
	.st221{fill:#085472;}
	.st222{fill:#20A1E2;}
	.st223{fill:none;stroke:#F6921E;stroke-width:9;stroke-miterlimit:10;}
	.st224{fill:none;stroke:#2791D0;stroke-width:9;stroke-miterlimit:10;}
	.st225{fill:url(#SVGID_110_);}
	.st226{fill:url(#SVGID_111_);}
	.st227{fill:url(#SVGID_112_);}
	.st228{fill:none;stroke:#0088C4;stroke-width:8;stroke-linecap:round;stroke-linejoin:round;stroke-miterlimit:10;}
	.st229{fill:none;stroke:#73FF0F;stroke-width:11;stroke-linecap:round;stroke-linejoin:round;stroke-miterlimit:10;}
	.st230{fill:#ADD145;}
	.st231{fill:url(#SVGID_113_);}
	.st232{fill:url(#SVGID_114_);}
	.st233{fill:url(#SVGID_115_);}
	.st234{fill:url(#SVGID_116_);}
	.st235{fill:url(#SVGID_117_);}
	.st236{fill:url(#SVGID_118_);}
	.st237{fill:url(#SVGID_119_);}
	.st238{fill:url(#SVGID_120_);}
	.st239{fill:url(#SVGID_121_);}
	.st240{fill:none;stroke:#73FF0F;stroke-width:12;stroke-linecap:round;stroke-linejoin:round;stroke-miterlimit:10;}
	.st241{fill:none;stroke:#ADD145;stroke-miterlimit:10;}
	.st242{fill:#8832EC;}
	.st243{fill:#F84112;}
	.st244{fill:#46D027;}
	.st245{fill:#B9A548;}
	.st246{fill:#8FBD2A;}
	.st247{fill:#371FAD;}
	.st248{fill:#D80F5C;}
	.st249{fill:#FFA22B;}
	.st250{fill:#4EDE32;}
	.st251{fill:#142CEA;}
	.st252{fill:#C25127;}
	.st253{fill:#AB459D;}
	.st254{fill:#1F78B4;}
	.st255{fill:#B2DF8A;}
	.st256{fill:#33A02C;}
	.st257{fill:#A6CEE3;}
	.st258{fill:#F2AD22;}
	.st259{fill:#39BEB9;}
	.st260{fill:#5B64AF;}
	.st261{fill:#F47621;}
	.st262{fill:#FF0B84;}
	.st263{fill:#9038EC;}
	.st264{fill:#0CE5D5;}
	.st265{fill:#0059C9;}
	.st266{fill:#36DF98;}
	.st267{fill:#8B4CDC;}
	.st268{fill:#D7DF3C;}
	.st269{fill:#DF6646;}
	.st270{fill:#BB1621;}
	.st271{fill:#C79C0E;}
	.st272{fill:#1E6F9F;}
	.st273{fill:#438835;}
</style>
<g>
	<g>
		<path class="st14" d="M110.05,27.08c0.02-1,0.01-1.99-0.05-2.98c-0.42-6.88-2.88-13.36-8.43-18.16c-2.53-2.18-5.51-3.8-8.7-4.77
			C87.39-0.51,81.09,0.11,75.4,0.11H46.84h-4.13c0,0,28.6,7.03,40,32.86c3.82,9.03,4.02,18.39,2.82,26.53l-0.16,0.19
			c-1.01,6.61-4.12,12.53-8.63,17.05c-2.85,2.85-6.26,5.13-10.04,6.69c25.19-5.65,37.58-32.64,37.58-32.64l0,0
			c3.14-6.28,5.43-13.88,5.75-22.92c0.01-0.15,0.02-0.31,0.02-0.46c0-0.11,0.01-0.22,0.02-0.33H110.05z"/>
		<path class="st18" d="M27.08,0.08c-1-0.02-1.99-0.01-2.98,0.05C17.22,0.55,10.74,3.01,5.94,8.56c-2.18,2.53-3.8,5.51-4.77,8.7
			c-1.68,5.48-1.06,11.78-1.06,17.47v28.56v4.13c0,0,7.03-28.6,32.86-40C42,23.59,51.36,23.4,59.5,24.6l0.19,0.16
			c6.61,1.01,12.53,4.12,17.05,8.63c2.85,2.85,5.13,6.26,6.69,10.04C77.78,18.24,50.79,5.85,50.79,5.85l0,0
			C44.51,2.71,36.91,0.42,27.87,0.1c-0.15-0.01-0.31-0.02-0.46-0.02c-0.11,0-0.22-0.01-0.33-0.02V0.08z"/>
		<path class="st20" d="M0.08,83.05c-0.02,1-0.01,1.99,0.05,2.98c0.42,6.88,2.88,13.36,8.43,18.16c2.53,2.18,5.51,3.8,8.7,4.77
			c5.48,1.68,11.78,1.06,17.47,1.06h28.56h4.13c0,0-28.6-7.03-40-32.86c-3.82-9.03-4.02-18.39-2.82-26.53l0.16-0.19
			c1.01-6.61,4.12-12.53,8.63-17.05c2.85-2.85,6.26-5.13,10.04-6.69C18.24,32.35,5.85,59.34,5.85,59.34l0,0
			C2.71,65.62,0.42,73.22,0.1,82.25c-0.01,0.15-0.02,0.31-0.02,0.46c0,0.11-0.01,0.22-0.02,0.33H0.08z"/>
		<path class="st22" d="M83.05,110.05c1,0.02,1.99,0.01,2.98-0.05c6.88-0.42,13.36-2.88,18.16-8.43c2.18-2.53,3.8-5.51,4.77-8.7
			c1.68-5.48,1.06-11.78,1.06-17.47V46.84v-4.13c0,0-7.03,28.6-32.86,40c-9.03,3.82-18.39,4.02-26.53,2.82l-0.19-0.16
			c-6.61-1.01-12.53-4.12-17.05-8.63c-2.85-2.85-5.13-6.26-6.69-10.04c5.65,25.19,32.64,37.58,32.64,37.58l0,0
			c6.28,3.14,13.88,5.43,22.92,5.75c0.15,0.01,0.31,0.02,0.46,0.02c0.11,0,0.22,0.01,0.33,0.02V110.05z"/>
	</g>
	<g>
		<g>
			<g>
				<path class="st5" d="M157.75,88c-4.8,0-8.94-1.18-12.41-3.55c-3.47-2.37-6.13-5.53-7.99-9.49c-1.86-3.96-2.79-8.31-2.79-13.04
					c0-4.7,0.9-9.04,2.69-13.02c1.79-3.98,4.42-7.16,7.89-9.57c3.47-2.4,7.67-3.6,12.61-3.6c3.59,0,6.76,0.65,9.52,1.95
					c2.76,1.3,5.12,3.17,7.08,5.61l-2.64,2.18V10.86h11.32v76.13h-10.51l-1.01-9.34l3.2,2.28c-2.06,2.57-4.47,4.56-7.21,5.96
					C164.76,87.29,161.51,88,157.75,88z M159.53,78.46c2.6,0,4.87-0.64,6.8-1.93c1.93-1.29,3.43-3.16,4.52-5.63
					c1.08-2.47,1.62-5.46,1.62-8.98c0-3.45-0.54-6.42-1.62-8.91c-1.08-2.49-2.59-4.4-4.52-5.74c-1.93-1.34-4.2-2-6.8-2
					c-2.81,0-5.21,0.71-7.21,2.13c-2,1.42-3.53,3.38-4.59,5.89c-1.07,2.5-1.6,5.38-1.6,8.63c0,3.15,0.53,5.97,1.6,8.48
					c1.07,2.5,2.6,4.47,4.59,5.91C154.32,77.74,156.72,78.46,159.53,78.46z"/>
				<path class="st5" d="M219.16,88c-6.02,0-11.06-1.22-15.1-3.65c-4.04-2.44-7.09-5.66-9.14-9.67c-2.05-4.01-3.07-8.42-3.07-13.22
					c0-4.63,0.96-8.91,2.87-12.81c1.91-3.91,4.7-7.04,8.37-9.39c3.67-2.35,8.13-3.53,13.37-3.53c4.6,0,8.52,0.93,11.77,2.79
					c3.25,1.86,5.73,4.42,7.43,7.69c1.71,3.27,2.56,7,2.56,11.19c0,0.95-0.06,1.94-0.18,2.97c-0.12,1.03-0.28,2.09-0.48,3.17h-34
					c0.47,3.69,1.51,6.61,3.1,8.78c1.59,2.17,3.57,3.73,5.94,4.69c2.37,0.96,4.92,1.45,7.66,1.45c2.71,0,5.32-0.33,7.84-0.99
					c2.52-0.66,4.86-1.56,7.03-2.71l0.86,9.39c-1.93,0.95-4.31,1.83-7.16,2.64C226.01,87.59,222.78,88,219.16,88z M204.09,55.82
					h22.58c0-1.83-0.35-3.54-1.04-5.15c-0.69-1.61-1.79-2.91-3.3-3.91c-1.51-1-3.48-1.5-5.91-1.5c-3.55,0-6.32,0.96-8.3,2.89
					C206.14,50.09,204.8,52.64,204.09,55.82z"/>
				<path class="st5" d="M271.33,88c-6.02,0-11.06-1.22-15.1-3.65c-4.04-2.44-7.09-5.66-9.14-9.67c-2.05-4.01-3.07-8.42-3.07-13.22
					c0-4.63,0.96-8.91,2.87-12.81c1.91-3.91,4.7-7.04,8.37-9.39c3.67-2.35,8.13-3.53,13.37-3.53c4.6,0,8.52,0.93,11.77,2.79
					c3.25,1.86,5.73,4.42,7.43,7.69c1.71,3.27,2.56,7,2.56,11.19c0,0.95-0.06,1.94-0.18,2.97c-0.12,1.03-0.28,2.09-0.48,3.17h-34
					c0.47,3.69,1.51,6.61,3.1,8.78c1.59,2.17,3.57,3.73,5.94,4.69c2.37,0.96,4.92,1.45,7.66,1.45c2.71,0,5.32-0.33,7.84-0.99
					c2.52-0.66,4.86-1.56,7.03-2.71l0.86,9.39c-1.93,0.95-4.31,1.83-7.16,2.64C278.18,87.59,274.95,88,271.33,88z M256.26,55.82
					h22.58c0-1.83-0.35-3.54-1.04-5.15c-0.69-1.61-1.79-2.91-3.3-3.91c-1.51-1-3.48-1.5-5.91-1.5c-3.55,0-6.32,0.96-8.3,2.89
					C258.31,50.09,256.97,52.64,256.26,55.82z"/>
				<path class="st5" d="M345.12,48.77c-1.73-3.96-4.26-7.12-7.59-9.49c-3.33-2.37-7.42-3.55-12.26-3.55
					c-4.13,0-7.62,0.8-10.48,2.41c-1.89,1.06-3.63,2.39-5.26,3.93l-1.26-5.47h-9.03v62.68h11.32V82.84
					c1.46,1.34,3.01,2.43,4.69,3.23c2.72,1.29,6.07,1.93,10.02,1.93c4.94,0,9.07-1.18,12.38-3.55c3.32-2.37,5.82-5.53,7.51-9.49
					c1.69-3.96,2.54-8.32,2.54-13.09S346.85,52.73,345.12,48.77z M332.79,73.91c-2.23,3.03-5.35,4.54-9.34,4.54
					c-2.84,0-5.27-0.65-7.28-1.95c-2.01-1.3-3.54-3.19-4.59-5.66c-1.05-2.47-1.57-5.46-1.57-8.98c0-3.45,0.52-6.41,1.57-8.88
					c1.05-2.47,2.58-4.37,4.59-5.71c2.01-1.34,4.44-2,7.28-2c3.99,0,7.1,1.51,9.34,4.52c2.23,3.01,3.35,7.04,3.35,12.08
					C336.14,66.87,335.02,70.89,332.79,73.91z"/>
				<path class="st5" d="M356.64,86.98V10.86h11.32V58l16.7-21.42h13.09l-18.98,23.95l19.44,26.44h-13.15l-17.1-23.55v23.55H356.64z
					"/>
				<path class="st5" d="M424.95,88c-5.41,0-10.02-1.18-13.83-3.55c-3.81-2.37-6.72-5.53-8.73-9.49c-2.01-3.96-3.02-8.32-3.02-13.09
					s1.01-9.15,3.02-13.14c2.01-3.99,4.92-7.18,8.73-9.57s8.42-3.58,13.83-3.58c5.38,0,9.98,1.19,13.8,3.58
					c3.82,2.39,6.74,5.57,8.76,9.57c2.01,3.99,3.02,8.37,3.02,13.14s-1.01,9.14-3.02,13.09c-2.01,3.96-4.93,7.12-8.76,9.49
					C434.93,86.81,430.33,88,424.95,88z M424.95,78.46c4.47,0,7.91-1.51,10.33-4.54c2.42-3.03,3.63-7.05,3.63-12.05
					c0-5.07-1.21-9.13-3.63-12.18c-2.42-3.04-5.86-4.57-10.33-4.57c-4.47,0-7.92,1.52-10.35,4.57c-2.44,3.05-3.65,7.11-3.65,12.18
					c0,5.01,1.22,9.03,3.65,12.05C417.03,76.94,420.48,78.46,424.95,78.46z"/>
				<path class="st5" d="M459.46,86.98v-50.4h10.25l0.56,6.45c1.76-2.06,3.81-3.82,6.14-5.28c2.33-1.45,4.85-2.18,7.56-2.18
					c0.81,0,1.57,0.08,2.28,0.25l-0.91,11.52c-0.64-0.17-1.29-0.28-1.93-0.33c-0.64-0.05-1.3-0.08-1.98-0.08
					c-2.3,0-4.41,0.52-6.34,1.57c-1.93,1.05-3.28,2.27-4.06,3.65v34.81H459.46z"/>
				<path class="st5" d="M515.39,88c-6.02,0-11.06-1.22-15.1-3.65c-4.04-2.44-7.09-5.66-9.14-9.67c-2.05-4.01-3.07-8.42-3.07-13.22
					c0-4.63,0.96-8.91,2.87-12.81c1.91-3.91,4.7-7.04,8.37-9.39c3.67-2.35,8.13-3.53,13.37-3.53c4.6,0,8.52,0.93,11.77,2.79
					c3.25,1.86,5.73,4.42,7.43,7.69c1.71,3.27,2.56,7,2.56,11.19c0,0.95-0.06,1.94-0.18,2.97c-0.12,1.03-0.28,2.09-0.48,3.17h-34
					c0.47,3.69,1.51,6.61,3.1,8.78c1.59,2.17,3.57,3.73,5.94,4.69c2.37,0.96,4.92,1.45,7.66,1.45c2.71,0,5.32-0.33,7.84-0.99
					c2.52-0.66,4.86-1.56,7.03-2.71l0.86,9.39c-1.93,0.95-4.31,1.83-7.16,2.64C522.24,87.59,519.01,88,515.39,88z M500.32,55.82
					h22.58c0-1.83-0.35-3.54-1.04-5.15c-0.69-1.61-1.79-2.91-3.3-3.91c-1.51-1-3.48-1.5-5.91-1.5c-3.55,0-6.32,0.96-8.3,2.89
					C502.37,50.09,501.03,52.64,500.32,55.82z"/>
			</g>
		</g>
	</g>
</g>
</svg>
