<?xml version="1.0" encoding="UTF-8"?>
<svg version="1.1" xmlns="http://www.w3.org/2000/svg" width="1772" height="417">
<path d="M0 0 C16.72535451 -0.07029151 33.45066061 -0.12308634 50.17612743 -0.15543652 C57.9432337 -0.17086103 65.71024782 -0.19186532 73.47729492 -0.22631836 C80.25238576 -0.25635678 87.02740981 -0.27560704 93.8025654 -0.28226548 C97.38514087 -0.28615347 100.96752542 -0.29519683 104.55003929 -0.31719017 C108.56363526 -0.34162676 112.57690591 -0.34196082 116.59057617 -0.34057617 C118.3438623 -0.35675491 118.3438623 -0.35675491 120.13256836 -0.3732605 C136.61039006 -0.3121345 151.64817259 5.33061549 166.3125 12.4375 C167.46363281 12.99308594 168.61476563 13.54867187 169.80078125 14.12109375 C173.1237174 16.07265943 175.36311953 18.21244065 178 21 C179.26795039 21.98949854 180.55815487 22.95156919 181.875 23.875 C185.93679114 26.85570605 189.78424947 30.10090249 193 34 C193 34.66 193 35.32 193 36 C193.66 36 194.32 36 195 36 C196.69140625 38.046875 196.69140625 38.046875 198.5625 40.75 C199.18253906 41.63171875 199.80257812 42.5134375 200.44140625 43.421875 C201.82663759 45.71323511 202.55473941 47.38943105 203 50 C203.66 50 204.32 50 205 50 C207.76877096 55.15564247 209.75975498 60.05368309 211.2890625 65.703125 C211.87660625 67.96480368 211.87660625 67.96480368 213.02563477 69.59423828 C214.50298768 73.24190444 214.30507571 76.91147632 214.30078125 80.7890625 C214.30506638 81.64752777 214.3093515 82.50599304 214.31376648 83.39047241 C214.31950485 85.20773438 214.32001366 87.02501931 214.31567383 88.84228516 C214.3125348 91.59448622 214.33590545 94.34558966 214.36132812 97.09765625 C214.3922907 105.86191097 214.34868891 113.76031683 211 122 C210.690625 123.155 210.38125 124.31 210.0625 125.5 C208.65886548 130.12373724 206.83832175 134.53454934 205 139 C202.6631459 144.70647517 200.47727641 150.37311601 198.7109375 156.28515625 C198 158 198 158 196 159 C195.07558135 160.93630997 195.07558135 160.93630997 194.25 163.3125 C188.62577064 177.93549634 180.39863956 191.51710948 172.390625 204.9375 C170.94126925 207.37350638 169.56890923 209.80877206 168.234375 212.3125 C167.49960937 213.67375 167.49960937 213.67375 166.75 215.0625 C166.35296875 215.83722656 165.9559375 216.61195313 165.546875 217.41015625 C164 219 164 219 160.90332031 219.09936523 C159.94522461 219.06657471 158.98712891 219.03378418 158 219 C158.01571045 217.86272461 158.0314209 216.72544922 158.04760742 215.55371094 C158.10296851 211.2297305 158.13672519 206.90577933 158.16479492 202.58154297 C158.17964495 200.72960094 158.19993027 198.87769247 158.22631836 197.02587891 C158.46837171 179.56956046 157.44220984 162.40207077 151 146 C150.45268579 144.51887146 149.90726728 143.03704165 149.36328125 141.5546875 C148.76462765 139.95252369 148.16436477 138.35096028 147.5625 136.75 C147.14822754 135.63214111 147.14822754 135.63214111 146.72558594 134.49169922 C144.96106569 129.91758244 142.82818646 125.90990638 140.15307617 121.80371094 C138.70299895 119.53541314 137.52775085 117.18097117 136.375 114.75 C135.17671754 112.22476045 134.04404099 110.05802557 132.3515625 107.828125 C131 106 131 106 131 104 C130.34 104 129.68 104 129 104 C127.95747381 102.35959855 126.96704058 100.68600424 126 99 C116.22387551 85.20971045 104.49420225 72.67020976 91.9375 61.375 C91.10089844 60.61960938 90.26429688 59.86421875 89.40234375 59.0859375 C87.07454943 56.99816608 87.07454943 56.99816608 84.69140625 55.3515625 C83.85416016 54.68253906 83.85416016 54.68253906 83 54 C83 53.34 83 52.68 83 52 C82.34 51.79375 81.68 51.5875 81 51.375 C76.92819814 49.50875748 73.31203002 47.02438473 70 44 C70 43.34 70 42.68 70 42 C69.29875 41.7525 68.5975 41.505 67.875 41.25 C64.60485452 39.82819762 61.858878 38.12753712 59 36 C59 35.34 59 34.68 59 34 C58.360625 33.773125 57.72125 33.54625 57.0625 33.3125 C52.86370624 31.51301696 48.96414402 29.26233091 45 27 C44.29488281 26.59910156 43.58976562 26.19820312 42.86328125 25.78515625 C41.24029338 24.86008609 39.61985073 23.93055255 38 23 C38 22.34 38 21.68 38 21 C37.401875 20.855625 36.80375 20.71125 36.1875 20.5625 C34.43849596 20.1127561 32.71322977 19.57107659 31 19 C31 18.34 31 17.68 31 17 C30.484375 16.90074219 29.96875 16.80148438 29.4375 16.69921875 C26.1285141 15.75000645 23.09934259 14.28678401 20 12.8125 C19.34443115 12.50368896 18.6888623 12.19487793 18.01342773 11.87670898 C11.96146791 9.01222697 5.96861521 6.03432393 0 3 C0 2.01 0 1.02 0 0 Z " fill="#CC2627" transform="translate(169,23)"/>
<path d="M0 0 C0 0.66 0 1.32 0 2 C-0.66 2 -1.32 2 -2 2 C-2.05003082 7.58266953 -2.08601313 13.165204 -2.10986328 18.74804688 C-2.11982267 20.64097369 -2.13339507 22.53388554 -2.15087891 24.42675781 C-2.2714302 37.82922564 -2.27856657 51.05225236 1.9375 63.9375 C2.28167969 64.99839844 2.62585938 66.05929688 2.98046875 67.15234375 C3.81844067 69.492886 4.72008268 71.74003925 5.75 74 C6.98226994 76.95744785 7.28727418 78.83998401 7 82 C7.66 82 8.32 82 9 82 C9.41378906 83.15113281 9.82757813 84.30226563 10.25390625 85.48828125 C11.89526688 89.85978778 13.84261366 94.01767862 15.9375 98.1875 C16.27201172 98.87263672 16.60652344 99.55777344 16.95117188 100.26367188 C18.9427455 104.25065646 21.13623033 107.55763197 24 111 C24.93547448 112.51793971 25.83462723 114.05915789 26.6875 115.625 C27.10386719 116.38039063 27.52023438 117.13578125 27.94921875 117.9140625 C29 120 29 120 30 123 C30.66 123 31.32 123 32 123 C33.55078125 125.01171875 33.55078125 125.01171875 35.3125 127.6875 C37.94247665 131.5538368 40.60196955 134.77187107 44 138 C45.11197592 139.28494995 46.21541193 140.57731569 47.3125 141.875 C50.42271481 145.49216613 53.80382908 148.54202373 57.49609375 151.5546875 C57.99238281 152.03164063 58.48867187 152.50859375 59 153 C59 153.66 59 154.32 59 155 C59.66 155 60.32 155 61 155 C62.68762851 156.6454378 64.3540349 158.31288577 66 160 C66.66 160.33 67.32 160.66 68 161 C68 161.66 68 162.32 68 163 C68.99 163.33 69.98 163.66 71 164 C72.33333333 165.33333333 73.66666667 166.66666667 75 168 C76.84382695 169.3272375 78.71304007 170.60061887 80.609375 171.8515625 C81.06828125 172.23054687 81.5271875 172.60953125 82 173 C82 173.66 82 174.32 82 175 C82.99 175 83.98 175 85 175 C85 175.66 85 176.32 85 177 C85.87591797 177.42539062 85.87591797 177.42539062 86.76953125 177.859375 C94.8852243 182.00960682 102.52649814 187.44422601 109.875 192.8125 C112.82864004 195.10119683 112.82864004 195.10119683 116 196 C116 196.66 116 197.32 116 198 C117.09441406 198.16242188 117.09441406 198.16242188 118.2109375 198.328125 C121.1872389 199.04510517 123.06720402 200.09042669 125.625 201.75 C130.87448176 205.02302026 136.32327762 207.56095198 142 210 C142 210.66 142 211.32 142 212 C142.9590625 212.1546875 142.9590625 212.1546875 143.9375 212.3125 C148.06477326 213.23903073 152.00642949 214.61660629 156 216 C156 216.99 156 217.98 156 219 C138.29287893 219.07017676 120.58579411 219.12303056 102.87856388 219.15543652 C94.65621852 219.17088516 86.43395972 219.19193624 78.21166992 219.22631836 C71.04254977 219.2562822 63.87349234 219.27558955 56.70431131 219.28226548 C52.91059918 219.28616595 49.11706641 219.29529047 45.32341194 219.31719017 C41.74719728 219.33766593 38.17123461 219.34381162 34.59496689 219.33932304 C32.66793847 219.34053222 30.74093702 219.35661604 28.8139801 219.3732605 C21.94000939 219.34892959 16.35099138 218.64302639 10 216 C8.95714844 215.64679688 7.91429688 215.29359375 6.83984375 214.9296875 C-17.75447386 205.99231771 -38.54000263 189.25653729 -51 166 C-54.02126875 159.47434792 -56.34775463 153.17469909 -57 146 C-57.33 145.67 -57.66 145.34 -58 145 C-62.00035952 123.25518861 -57.66476835 100.58089574 -48.2265625 80.8359375 C-46.41736484 76.65288814 -45.20998307 72.33153194 -43.9921875 67.9453125 C-42.98496103 64.95535676 -41.82920456 62.56846858 -40 60 C-39.34 60 -38.68 60 -38 60 C-37.87625 58.824375 -37.87625 58.824375 -37.75 57.625 C-36.75634931 52.822355 -34.91286482 48.50190511 -33 44 C-32.34 44 -31.68 44 -31 44 C-30.79375 43.071875 -30.5875 42.14375 -30.375 41.1875 C-28.84204366 35.70943544 -25.81814597 30.90073812 -23 26 C-22.34 26 -21.68 26 -21 26 C-20.8453125 25.195625 -20.8453125 25.195625 -20.6875 24.375 C-19.81907303 21.37497956 -18.44379704 18.7620465 -17 16 C-16.34 16 -15.68 16 -15 16 C-14.79375 15.195625 -14.5875 14.39125 -14.375 13.5625 C-12.60357695 8.97290391 -10.37592291 4.6197819 -7 1 C-4.55558626 0.27669093 -2.53764794 0 0 0 Z " fill="#0071B9" transform="translate(68,178)"/>
<path d="M0 0 C2.14851637 0.01605367 4.29514505 0.00011119 6.44360352 -0.01904297 C13.88606054 -0.02993353 20.26705468 0.54265127 27.21899414 3.39111328 C29.17105652 3.87545959 31.12894712 4.33747696 33.09399414 4.76611328 C38.21206024 6.00351914 42.67328049 7.84000057 47.40258789 10.12548828 C51.42334204 11.93231816 55.57411935 13.20964959 59.78540039 14.49658203 C62.21899414 15.39111328 62.21899414 15.39111328 64.21899414 17.39111328 C65.02336914 17.65923828 65.82774414 17.92736328 66.65649414 18.20361328 C70.81373247 19.58935939 74.67385416 21.40132032 78.63305664 23.27001953 C80.84368325 24.22840297 82.86877956 24.90010601 85.21899414 25.39111328 C85.21899414 26.05111328 85.21899414 26.71111328 85.21899414 27.39111328 C85.91379883 27.65666016 86.60860352 27.92220703 87.32446289 28.19580078 C90.4757549 29.49714404 93.48899585 30.97814711 96.53149414 32.51611328 C97.60012695 33.05494141 98.66875977 33.59376953 99.76977539 34.14892578 C100.57801758 34.55884766 101.38625977 34.96876953 102.21899414 35.39111328 C102.21899414 36.05111328 102.21899414 36.71111328 102.21899414 37.39111328 C102.79262695 37.51099609 103.36625977 37.63087891 103.95727539 37.75439453 C111.3287955 39.82962385 117.98212733 45.10050278 124.21899414 49.39111328 C123.34399414 54.26611328 123.34399414 54.26611328 122.21899414 55.39111328 C120.54087526 55.46661919 118.8596222 55.47419843 117.17993164 55.45361328 C116.13200439 55.44491211 115.08407715 55.43621094 114.00439453 55.42724609 C112.8789624 55.41532227 111.75353027 55.40339844 110.59399414 55.39111328 C97.68468364 55.34384308 85.32622043 55.53846949 72.65649414 58.26611328 C71.9056958 58.42756836 71.15489746 58.58902344 70.38134766 58.75537109 C65.94660489 59.78496312 62.27902692 61.28121836 58.21899414 63.39111328 C56.06752996 64.12480434 53.89979391 64.8123543 51.71899414 65.45361328 C47.52529837 66.69674453 43.36196497 67.98724515 39.21899414 69.39111328 C39.21899414 70.05111328 39.21899414 70.71111328 39.21899414 71.39111328 C38.68532227 71.53806641 38.15165039 71.68501953 37.60180664 71.83642578 C32.18845492 73.46605069 27.68253746 75.70791726 22.90649414 78.71533203 C19.95516529 80.55562284 16.93771221 82.24855312 13.90649414 83.95361328 C9.71780546 86.38230378 6.51068764 88.80897623 3.21899414 92.39111328 C1.22527589 93.73382149 -0.77446206 95.06764822 -2.78100586 96.39111328 C-4.13533261 97.70311732 -5.46834068 99.03742732 -6.78100586 100.39111328 C-7.75038086 101.19548828 -8.71975586 101.99986328 -9.71850586 102.82861328 C-13.2066739 105.7472845 -16.37130523 108.87699039 -19.46850586 112.20361328 C-20.78100586 113.39111328 -20.78100586 113.39111328 -22.78100586 113.39111328 C-23.15225586 114.25736328 -23.15225586 114.25736328 -23.53100586 115.14111328 C-24.96400574 117.72051307 -26.56525262 119.4523292 -28.78100586 121.39111328 C-29.44100586 121.39111328 -30.10100586 121.39111328 -30.78100586 121.39111328 C-31.12131836 122.47392578 -31.12131836 122.47392578 -31.46850586 123.57861328 C-33.02927512 126.92311885 -35.15439296 128.83184943 -37.78100586 131.39111328 C-38.11100586 132.38111328 -38.44100586 133.37111328 -38.78100586 134.39111328 C-40.44767253 136.05777995 -42.11433919 137.72444661 -43.78100586 139.39111328 C-44.55444336 140.75236328 -44.55444336 140.75236328 -45.34350586 142.14111328 C-46.78100586 144.39111328 -46.78100586 144.39111328 -48.96850586 145.20361328 C-49.56663086 145.26548828 -50.16475586 145.32736328 -50.78100586 145.39111328 C-51.04913086 146.46361328 -51.31725586 147.53611328 -51.59350586 148.64111328 C-52.64942792 151.97560401 -53.45067088 153.86658372 -55.78100586 156.39111328 C-56.44100586 156.72111328 -57.10100586 157.05111328 -57.78100586 157.39111328 C-58.49348318 159.03871708 -59.15500969 160.70874857 -59.78100586 162.39111328 C-60.43314125 163.73161381 -61.09480555 165.06772696 -61.78100586 166.39111328 C-62.44100586 166.39111328 -63.10100586 166.39111328 -63.78100586 166.39111328 C-64.05299805 167.10654297 -64.32499023 167.82197266 -64.60522461 168.55908203 C-67.23629403 174.89637549 -70.76048008 180.87681867 -74.46850586 186.64111328 C-77.21155499 190.95413908 -79.35268275 195.20190627 -80.34350586 200.26611328 C-80.48788086 200.96736328 -80.63225586 201.66861328 -80.78100586 202.39111328 C-81.44100586 202.72111328 -82.10100586 203.05111328 -82.78100586 203.39111328 C-83.82908627 205.36634174 -84.83304696 207.36592837 -85.78100586 209.39111328 C-87.43100586 209.39111328 -89.08100586 209.39111328 -90.78100586 209.39111328 C-90.82777097 193.47481082 -90.86301679 177.55852697 -90.8846302 161.64217281 C-90.89493338 154.25157814 -90.90897535 146.86102622 -90.93188477 139.47045898 C-90.95184804 133.02723443 -90.96472927 126.58404085 -90.96918285 120.14078623 C-90.97178526 116.73059255 -90.97788201 113.32048743 -90.99246597 109.91032219 C-91.00698328 106.09909691 -91.00898366 102.28805512 -91.00805664 98.47680664 C-91.01524719 97.35183273 -91.02243774 96.22685883 -91.02984619 95.0677948 C-91.01239555 88.43770307 -90.42733419 83.19824754 -87.78100586 77.07861328 C-86.82935364 74.52104794 -86.33219662 72.19381554 -85.84350586 69.51611328 C-85.00319591 65.13357369 -83.729299 61.43201757 -81.78100586 57.39111328 C-81.43166992 56.64345703 -81.08233398 55.89580078 -80.72241211 55.12548828 C-74.82159174 42.82082678 -67.30630913 33.03569584 -57.78100586 23.39111328 C-57.14807617 22.73369141 -56.51514648 22.07626953 -55.86303711 21.39892578 C-51.38450615 17.11511356 -46.12298817 13.88067627 -40.90600586 10.57861328 C-40.1627002 10.09763184 -39.41939453 9.61665039 -38.65356445 9.12109375 C-33.86274335 6.1810106 -29.70008835 4.72544205 -24.15576172 3.85180664 C-21.50085178 3.42799469 -21.50085178 3.42799469 -18.15209961 1.78955078 C-12.38592098 -0.5053449 -6.11002384 -0.05431132 0 0 Z " fill="#FAC400" transform="translate(99.781005859375,23.60888671875)"/>
<path d="M0 0 C1.32 0 2.64 0 4 0 C4.11713551 17.24685028 4.2051353 34.49357527 4.25906086 51.74073315 C4.28477216 59.75006141 4.31978599 67.75914159 4.37719727 75.76831055 C4.42725043 82.75435337 4.45934235 89.7402164 4.47044247 96.72643358 C4.47692451 100.42093421 4.49200804 104.11492079 4.52865028 107.8092556 C4.56935748 111.94752553 4.56993552 116.08491882 4.56762695 120.22338867 C4.59459152 122.03277924 4.59459152 122.03277924 4.62210083 123.87872314 C4.57667569 131.448349 3.16250422 137.32858844 0.1653471 144.28658009 C-1.12302755 147.09689693 -1.12302755 147.09689693 -1.9375 150.625 C-3.56924224 155.80818123 -6.2954808 160.3070518 -9 165 C-9.53496094 165.96679688 -10.06992187 166.93359375 -10.62109375 167.9296875 C-11.13800781 168.83976563 -11.65492188 169.74984375 -12.1875 170.6875 C-12.65542969 171.51636719 -13.12335938 172.34523438 -13.60546875 173.19921875 C-14.06566406 173.79347656 -14.52585937 174.38773438 -15 175 C-15.99 175 -16.98 175 -18 175 C-18.11408203 175.83337891 -18.11408203 175.83337891 -18.23046875 176.68359375 C-19.27715145 179.83426807 -21.06984761 181.62898358 -23.3125 184.0625 C-24.09238281 184.91972656 -24.87226563 185.77695312 -25.67578125 186.66015625 C-27.69773287 188.69570082 -29.59826798 190.43810604 -32 192 C-32.66 192 -33.32 192 -34 192 C-34.33 192.99 -34.66 193.98 -35 195 C-38.47407075 197.63150175 -42.24757401 199.78911117 -46 202 C-46.66515625 202.39703125 -47.3303125 202.7940625 -48.015625 203.203125 C-54.25465603 206.62102896 -61.17496843 208.15281865 -68 210 C-68.99 210.33 -69.98 210.66 -71 211 C-73.52985774 211.13252506 -76.03130406 211.21215211 -78.5625 211.23828125 C-79.30902832 211.246353 -80.05555664 211.25442474 -80.82470703 211.26274109 C-82.40834239 211.27656985 -83.9920074 211.28729742 -85.57568359 211.29516602 C-87.17766193 211.30662024 -88.77960412 211.32696672 -90.38134766 211.35668945 C-99.03305194 211.51710535 -106.62634728 211.57704343 -114.68945312 207.98608398 C-117.26415598 206.88726479 -119.7615311 206.31069917 -122.5 205.75 C-134.53391997 202.87880397 -146.14960406 197.29850987 -156.84375 191.17578125 C-159.46982102 189.74381137 -162.14237105 188.86393433 -165 188 C-167.01005993 187.0203781 -169.00877521 186.01736121 -171 185 C-173.06199371 183.95733148 -175.1244901 182.91565645 -177.1875 181.875 C-178.21230469 181.35679687 -179.23710937 180.83859375 -180.29296875 180.3046875 C-182.99964273 178.9295529 -182.99964273 178.9295529 -186 178 C-186.495 177.01 -186.495 177.01 -187 176 C-187.99 175.67 -188.98 175.34 -190 175 C-190 174.34 -190 173.68 -190 173 C-190.8353125 172.814375 -190.8353125 172.814375 -191.6875 172.625 C-194.22114364 171.94023145 -196.57921032 171.00866237 -199 170 C-199 169.34 -199 168.68 -199 168 C-200.299375 167.62875 -200.299375 167.62875 -201.625 167.25 C-205.82930947 165.69284834 -210.00623668 164.11174706 -212 159.875 C-212 158 -212 158 -210 156 C-207.35817618 155.765771 -204.8137134 155.65045401 -202.16796875 155.62109375 C-201.38037674 155.60409927 -200.59278473 155.5871048 -199.78132629 155.56959534 C-197.25013369 155.51639036 -194.71895171 155.47625285 -192.1875 155.4375 C-172.22908148 155.78002693 -172.22908148 155.78002693 -152.9765625 151.6796875 C-151 151 -151 151 -147.5 150.625 C-143.41705407 149.89590251 -140.73093627 148.29186631 -137.19921875 146.19921875 C-134.26002047 144.59649429 -131.22628966 143.85222746 -128 143 C-125.97676387 142.04788888 -123.97300116 141.05226728 -122 140 C-121.40832031 139.70480469 -120.81664062 139.40960938 -120.20703125 139.10546875 C-112.04791615 135.01869074 -104.2552752 130.74329004 -96.92578125 125.28515625 C-95 124 -95 124 -93 124 C-92.505 122.515 -92.505 122.515 -92 121 C-90.0282696 119.94535351 -88.02237052 118.95394836 -86 118 C-80.94114274 114.90274045 -76.82363305 111.49905269 -73.3125 106.6875 C-72.879375 106.130625 -72.44625 105.57375 -72 105 C-71.34 105 -70.68 105 -70 105 C-69.67 104.01 -69.34 103.02 -69 102 C-67.01739574 100.31267723 -65.0167658 98.64633943 -63 97 C-62.01 95.515 -62.01 95.515 -61 94 C-60.01 93.67 -59.02 93.34 -58 93 C-55.97590666 90.55444831 -55.97590666 90.55444831 -54 87.625 C-51.81834573 84.49300391 -49.73823324 81.65060978 -47 79 C-43.68500316 74.96201081 -40.48421977 70.85337333 -37.6875 66.4375 C-37.130625 65.633125 -36.57375 64.82875 -36 64 C-35.34 64 -34.68 64 -34 64 C-33.79375 63.154375 -33.5875 62.30875 -33.375 61.4375 C-31.88818156 57.72045389 -30.09123626 55.57832616 -27.44921875 52.6484375 C-23.70725889 48.39208423 -21.47097618 43.0548396 -19 38 C-18.34 38 -17.68 38 -17 38 C-16.86875732 37.41299316 -16.73751465 36.82598633 -16.60229492 36.22119141 C-15.65461513 32.72626203 -13.94141817 29.59228235 -12.3125 26.375 C-11.77665283 25.30475586 -11.77665283 25.30475586 -11.22998047 24.21289062 C-9.19222161 20.19015988 -7.03294035 16.31703137 -4.625 12.5 C-2.06090025 8.38907921 -0.88051874 4.7548012 0 0 Z " fill="#43AC34" transform="translate(379,186)"/>
<path d="M0 0 C2.49162683 1.93034712 4.8513154 3.94019143 7.19140625 6.05078125 C7.87589844 6.64246094 8.56039063 7.23414063 9.265625 7.84375 C24.44745344 21.83250745 31.62152551 42.17744557 32.4765625 62.43359375 C33.03507321 85.58276164 27.92621779 108.4937069 11.59155273 125.796875 C-3.07230973 140.64183405 -20.65343564 148.21888278 -41.37109375 148.36328125 C-50.26559377 148.37643339 -57.59425603 147.70792745 -65.80859375 144.05078125 C-66.76894531 143.62667969 -67.72929688 143.20257813 -68.71875 142.765625 C-78.39349446 137.98813771 -84.61001534 131.32328139 -89.80859375 122.05078125 C-89.81223938 122.93725845 -89.81588501 123.82373566 -89.81964111 124.73707581 C-89.85757425 133.1086039 -89.91448735 141.47974453 -89.99249649 149.85099888 C-90.03193459 154.1543431 -90.0641409 158.45748382 -90.07958984 162.76098633 C-90.09478083 166.91743932 -90.129269 171.07333272 -90.17690277 175.22953606 C-90.19169154 176.81182924 -90.19963333 178.39420234 -90.2004776 179.97656441 C-90.20285673 182.20055281 -90.23000827 184.42300649 -90.26269531 186.64672852 C-90.27601898 188.54202049 -90.27601898 188.54202049 -90.28961182 190.4756012 C-91.11511297 196.1623411 -93.30917121 199.85736331 -97.87109375 203.48828125 C-102.62300295 205.85399467 -107.64113678 205.81575222 -112.80859375 205.05078125 C-117.72865442 202.72493439 -120.1209081 199.72934517 -122.80859375 195.05078125 C-124.00154135 191.47193846 -123.9567068 188.2175547 -123.95576477 184.49275208 C-123.95944146 183.71587483 -123.96311815 182.93899758 -123.96690625 182.13857859 C-123.97794744 179.52703078 -123.98178768 176.91552275 -123.9855957 174.30395508 C-123.99186006 172.43474196 -123.99850683 170.56553008 -124.00550842 168.69631958 C-124.02292132 163.61141583 -124.03347113 158.52652149 -124.04171395 153.44159532 C-124.04686385 150.26469335 -124.0529396 147.0877943 -124.05922508 143.91089439 C-124.07827858 133.97113847 -124.09250899 124.03138999 -124.10083705 114.09161931 C-124.11060892 102.61796946 -124.13692654 91.14451255 -124.17733794 79.67093068 C-124.20750036 70.80287634 -124.22230608 61.93487729 -124.22561806 53.06677264 C-124.22796852 47.77021045 -124.2369284 42.47385435 -124.26207924 37.17734718 C-124.28536688 32.19261042 -124.28959033 27.20821534 -124.27931786 22.22343826 C-124.27882255 20.39653194 -124.28514155 18.56960876 -124.2988739 16.74275398 C-124.3166113 14.24267153 -124.3094782 11.74381289 -124.29634094 9.24372864 C-124.30731019 8.5259066 -124.31827943 7.80808457 -124.32958108 7.06851035 C-124.26160617 1.68648021 -122.8089999 -2.54037437 -119.80859375 -6.94921875 C-114.3991211 -11.25471739 -109.68153105 -12.65480547 -102.80859375 -11.94921875 C-97.1335215 -9.94625207 -93.50184286 -6.33571696 -90.80859375 -0.94921875 C-90.57909056 1.25514525 -90.39783442 3.46470298 -90.24609375 5.67578125 C-90.16230469 6.86429688 -90.07851563 8.0528125 -89.9921875 9.27734375 C-89.93160156 10.19257813 -89.87101563 11.1078125 -89.80859375 12.05078125 C-89.47988281 11.56609375 -89.15117188 11.08140625 -88.8125 10.58203125 C-79.71148046 -2.24325374 -67.93516368 -9.63800748 -52.43359375 -12.4765625 C-33.60437984 -14.93166475 -15.63724127 -10.85254992 0 0 Z M-78.7734375 28.71875 C-90.99670633 42.72506764 -92.83631872 59.24830098 -91.80859375 77.05078125 C-89.93744672 91.21124141 -82.81766347 103.50614879 -71.91015625 112.640625 C-62.97749321 118.84072234 -51.51485186 121.39765326 -40.80859375 120.05078125 C-32.3745006 118.28665836 -25.62020392 115.28163801 -18.80859375 110.05078125 C-17.94234375 109.47328125 -17.07609375 108.89578125 -16.18359375 108.30078125 C-6.41633269 99.04758656 -1.05303504 85.79049575 -0.5078125 72.4375 C-0.30332904 56.0822596 -2.90417245 41.18539632 -14.49609375 28.67578125 C-20.9528661 22.74660508 -29.13668779 17.68698992 -37.80859375 16.05078125 C-38.45699219 15.91929687 -39.10539062 15.7878125 -39.7734375 15.65234375 C-54.26838275 13.29331107 -68.28219192 18.76063487 -78.7734375 28.71875 Z " fill="#000000" transform="translate(1108.80859375,140.94921875)"/>
<path d="M0 0 C3.83084349 2.61193874 6.65161815 5.67823629 8.75 9.875 C8.85425686 12.43078755 8.89779715 14.95971734 8.89717102 17.51605225 C8.90084771 18.31390396 8.9045244 19.11175568 8.9083125 19.93378472 C8.91937468 22.62220404 8.92319746 25.31058474 8.92700195 27.99902344 C8.93326469 29.92059452 8.93991132 31.84216438 8.94691467 33.76373291 C8.96434208 38.99525124 8.97488119 44.22676041 8.9831202 49.45830059 C8.98826669 52.72513425 8.99434258 55.99196505 9.00063133 59.25879669 C9.0196883 69.47513081 9.03391834 79.69145768 9.0422433 89.90780616 C9.05201845 101.70975655 9.07834316 113.51151951 9.11874419 125.31340384 C9.14888215 134.4293877 9.16370998 143.54531777 9.16702431 152.66135049 C9.16937746 158.10876791 9.1783723 163.55598522 9.20348549 169.0033493 C9.22673056 174.12841657 9.23101376 179.25315148 9.22072411 184.37825775 C9.22022777 186.25921737 9.22657703 188.14019314 9.24028015 190.02110291 C9.25794673 192.58980602 9.25091913 195.15730963 9.23774719 197.72601318 C9.24871644 198.46979776 9.25968568 199.21358234 9.27098733 199.97990584 C9.20783943 205.08315656 7.92920359 207.92803732 4.75 211.875 C0.06377258 216.32691605 -4.18833748 216.3165208 -10.34765625 216.30859375 C-16.5695414 215.37907928 -19.66750552 211.65165931 -23.25 206.875 C-24.3041518 203.71254459 -24.56275672 201.00551782 -24.8125 197.6875 C-24.93818359 196.05748047 -24.93818359 196.05748047 -25.06640625 194.39453125 C-25.12699219 193.56308594 -25.18757812 192.73164063 -25.25 191.875 C-25.57871094 192.3596875 -25.90742187 192.844375 -26.24609375 193.34375 C-35.37532354 206.20878927 -47.14593406 213.53848013 -62.6796875 216.40625 C-82.541059 219.01386989 -101.14725348 213.59685225 -117.25 201.875 C-134.51281016 188.38193001 -143.59231465 170.13326908 -146.54345703 148.74853516 C-148.99935308 127.36983602 -145.59410015 102.64828256 -131.98974609 85.26464844 C-128.92875974 81.6082555 -125.63530024 78.23060462 -122.25 74.875 C-121.61578125 74.20726562 -120.9815625 73.53953125 -120.328125 72.8515625 C-107.11458707 59.93035948 -87.89872684 55.59341415 -70.12646484 55.5559082 C-62.14333519 55.65326344 -55.60079978 56.57419774 -48.25 59.875 C-47.04923828 60.4009375 -47.04923828 60.4009375 -45.82421875 60.9375 C-37.5280632 65.06408514 -30.9303282 71.67031733 -25.25 78.875 C-25.24120064 77.6613678 -25.24120064 77.6613678 -25.23222351 76.42321777 C-25.17415735 68.77311034 -25.10200179 61.12332343 -25.01428509 53.47350311 C-24.96968601 49.5412758 -24.93040742 45.6091496 -24.90356445 41.67675781 C-24.87742628 37.87697039 -24.83695116 34.07757425 -24.78681374 30.2780304 C-24.77021568 28.83332715 -24.75865764 27.38855634 -24.75238609 25.94377136 C-24.68410533 11.6511102 -24.68410533 11.6511102 -21.25 4.875 C-14.97502444 -1.23907875 -8.3050022 -2.87480845 0 0 Z M-101.5 99.0625 C-111.73469404 111.34413284 -115.26118098 126.38387082 -114.02978516 142.07177734 C-112.55033341 156.04897531 -107.11595925 168.01814726 -96.95703125 177.76171875 C-85.55607314 186.66203381 -73.40804594 189.09157758 -59.25 187.875 C-47.61227137 185.42421479 -38.19551122 178.35547629 -31.25 168.875 C-22.2816277 154.9354711 -20.51236681 138.09131899 -23.50390625 122.01953125 C-26.74361318 108.36526904 -33.17403443 97.37530674 -45.25 89.875 C-64.46544294 78.54089108 -86.40035085 83.30634437 -101.5 99.0625 Z " fill="#000000" transform="translate(589.25,73.125)"/>
<path d="M0 0 C4.04720614 4.52090377 6.01354144 7.75439699 6.06056213 13.91410828 C6.07035095 14.88585999 6.08013977 15.85761169 6.09022522 16.85881042 C6.09885841 18.45563408 6.09885841 18.45563408 6.10766602 20.0847168 C6.11756561 21.20681549 6.12746521 22.32891418 6.13766479 23.48501587 C6.16930868 27.20222854 6.19404874 30.91945399 6.21875 34.63671875 C6.23931702 37.2107629 6.26031343 39.78480366 6.28172302 42.35884094 C6.3313197 48.44672358 6.3765783 54.53462438 6.41974539 60.62255555 C6.46913198 67.55360046 6.52404483 74.48459812 6.57942498 81.41559732 C6.69321949 95.67285383 6.80006405 109.93015647 6.90234375 124.1875 C13.30363732 117.80947657 19.70215175 111.4286814 26.09722996 105.04442596 C29.06747202 102.07938083 32.03862784 99.11526406 35.01196289 96.15332031 C37.88657545 93.28965082 40.75866865 90.42347592 43.62910271 87.55561829 C44.71932343 86.46723138 45.81041717 85.37971817 46.90243721 84.2931366 C52.78823741 78.43545986 58.51935895 72.51773326 63.90234375 66.1875 C74.94548974 54.11891903 74.94548974 54.11891903 83.96484375 53.6875 C88.61997023 53.88559049 91.34479942 55.06380254 94.90234375 58.1875 C97.75743095 61.43639233 98.78890929 64.03046852 99.21484375 68.375 C98.29142962 79.64065238 89.29407107 86.42131727 81.19921875 93.37109375 C76.18861972 97.73267284 71.56195193 102.4572917 66.90234375 107.1875 C61.55098154 112.61994345 56.2486368 117.93069907 50.30078125 122.71484375 C48.55804485 124.21159707 48.55804485 124.21159707 48.90234375 127.1875 C50.84253096 129.49753539 52.80596606 131.65146402 54.90234375 133.8125 C56.19661892 135.17187087 57.49088959 136.53124603 58.78515625 137.890625 C59.46352539 138.59767578 60.14189453 139.30472656 60.84082031 140.03320312 C64.17744436 143.51998316 67.47447665 147.04378585 70.77734375 150.5625 C72.12596767 151.99510655 73.47492864 153.42739588 74.82421875 154.859375 C75.49646484 155.57287109 76.16871094 156.28636719 76.86132812 157.02148438 C77.87163086 158.09366211 77.87163086 158.09366211 78.90234375 159.1875 C80.26175855 160.63017083 81.62113363 162.07287909 82.98046875 163.515625 C83.65078125 164.2269458 84.32109375 164.9382666 85.01171875 165.67114258 C86.34635172 167.08902845 87.67970407 168.50812093 89.01171875 169.9284668 C92.30100461 173.43516205 95.60615419 176.92338139 98.94921875 180.37890625 C99.59358887 181.05163574 100.23795898 181.72436523 100.90185547 182.41748047 C102.11445466 183.68311706 103.33438399 184.94178883 104.56298828 186.19189453 C108.35123466 190.16915944 110.76751527 193.63701658 110.984375 199.34765625 C110.22799789 204.68614396 109.08871086 208.43840631 104.71484375 211.9375 C99.5140227 214.24897602 95.80864358 214.83965521 90.48828125 213.01953125 C86.77092848 211.31619951 84.23802859 208.95661846 81.40234375 206 C80.52578125 205.09894531 79.64921875 204.19789063 78.74609375 203.26953125 C76.61734629 200.99655152 74.56274356 198.66641581 72.51953125 196.31640625 C68.9554214 192.21767992 65.25976831 188.25768098 61.52734375 184.3125 C57.42157322 179.95409752 53.32792758 175.59195318 49.33984375 171.125 C45.49886272 166.82310124 41.58516263 162.59276888 37.65234375 158.375 C37.06122803 157.74005615 36.4701123 157.1051123 35.86108398 156.45092773 C32.6027554 152.96378265 29.29933705 149.53979602 25.90234375 146.1875 C25.36754395 146.73277344 24.83274414 147.27804688 24.28173828 147.83984375 C21.86879024 150.29422254 19.44820344 152.74092556 17.02734375 155.1875 C15.76470703 156.47527344 15.76470703 156.47527344 14.4765625 157.7890625 C13.67089844 158.60117188 12.86523438 159.41328125 12.03515625 160.25 C11.29152832 161.00410156 10.54790039 161.75820312 9.78173828 162.53515625 C7.90234375 164.1875 7.90234375 164.1875 5.90234375 164.1875 C5.92852783 165.29673828 5.95471191 166.40597656 5.98168945 167.54882812 C6.07269794 171.69347692 6.12977538 175.83803875 6.17700195 179.98339844 C6.2020315 181.77196136 6.23606619 183.56042317 6.27954102 185.34863281 C6.34070786 187.93059323 6.3686682 190.51119322 6.390625 193.09375 C6.41643143 193.88366333 6.44223785 194.67357666 6.46882629 195.48742676 C6.4718274 201.52836448 4.66866405 205.48215987 0.90234375 210.1875 C-3.12936411 213.65924844 -7.88931634 214.3306846 -13.09765625 214.1875 C-18.3375824 212.61552215 -21.60161808 210.38274581 -25.09765625 206.1875 C-27.2798749 201.954161 -27.38722308 197.97756969 -27.37181091 193.31303406 C-27.37704759 192.52628085 -27.38228427 191.73952765 -27.38767964 190.92893344 C-27.40266651 188.29591378 -27.4033845 185.66308867 -27.40405273 183.0300293 C-27.41167509 181.14081495 -27.42010273 179.2516037 -27.42927551 177.36239624 C-27.45121964 172.2321475 -27.4600193 167.10195837 -27.46510196 161.971668 C-27.46874559 158.76560303 -27.47498568 155.55955367 -27.48210335 152.35349464 C-27.50659742 141.16607604 -27.51964968 129.97870381 -27.52319336 118.79125977 C-27.52682872 108.36713524 -27.55672438 97.94330513 -27.59859794 87.5192706 C-27.63330018 78.56624235 -27.64874179 69.61331168 -27.64943939 60.66021663 C-27.65023222 55.31446368 -27.65897363 49.96901065 -27.68743706 44.62332726 C-27.71361642 39.59417202 -27.71582349 34.56556542 -27.69978142 29.53637314 C-27.69796684 27.69333894 -27.70465843 25.8502732 -27.72060013 24.00730705 C-27.86102115 6.71591007 -27.86102115 6.71591007 -22.09765625 0.1875 C-15.74113887 -4.86511638 -6.3076341 -5.45017174 0 0 Z " fill="#000000" transform="translate(1197.09765625,74.8125)"/>
<path d="M0 0 C15.52547014 12.24537603 25.49892787 29.48035189 28.125 49.125 C28.75478869 56.9325543 29.29475204 64.18555864 25.125 71.125 C20.50747516 76.16229983 14.17924403 76.85665772 7.61306763 77.29125977 C4.90721258 77.34123192 2.20990523 77.32338515 -0.49609375 77.28125 C-1.5487291 77.27315308 -2.60136444 77.26505615 -3.68589783 77.25671387 C-6.72836964 77.23018673 -9.77052749 77.19335733 -12.81282806 77.15197754 C-15.7767736 77.11320291 -18.74078865 77.08180928 -21.704813 77.04972839 C-31.89876174 76.93865369 -42.09231581 76.8023575 -52.28588867 76.66143799 C-56.76544569 76.59988068 -61.24502861 76.5402688 -65.72460938 76.48046875 C-74.44143197 76.36382926 -83.15822464 76.24511751 -91.875 76.125 C-91.40552742 78.05703176 -90.9324189 79.98818027 -90.45776367 81.91894531 C-90.19468918 82.99444641 -89.93161469 84.06994751 -89.66056824 85.17803955 C-86.93778942 95.39220185 -80.58784234 103.71213315 -71.56640625 109.1015625 C-57.61871878 116.62312017 -42.41082419 118.68991042 -26.96875 114.3203125 C-21.74322167 112.30135837 -16.89461988 109.62515943 -12.02734375 106.8671875 C-6.64138251 103.8905596 -1.93348655 103.42817727 4.125 104.125 C7.27837491 105.89877339 8.6340514 107.32162956 10.5 110.375 C11.5656213 115.06373372 11.23258555 118.90982889 9.1015625 123.171875 C1.65478956 134.27746702 -12.66729434 139.6909464 -25.125 142.9375 C-49.14059942 147.55997157 -74.3846339 143.79291528 -94.84375 130.14453125 C-97.30799599 128.23930403 -99.59741636 126.24858332 -101.875 124.125 C-102.64070313 123.44953125 -103.40640625 122.7740625 -104.1953125 122.078125 C-117.17308882 110.02419038 -124.82752406 92.67289156 -126.09619141 75.05297852 C-126.21467432 71.6989036 -126.25474066 68.35615242 -126.25 65 C-126.24838867 63.81092041 -126.24677734 62.62184082 -126.24511719 61.39672852 C-126.11526076 52.04133686 -124.95318138 43.96408334 -121.875 35.125 C-121.58625 34.21363281 -121.2975 33.30226562 -121 32.36328125 C-114.28556225 13.26909889 -98.77458007 -0.58254934 -80.99243164 -9.18945312 C-54.00888322 -21.61261912 -23.64805834 -17.92092858 0 0 Z M-82.01953125 26.66015625 C-88.05745271 34.68105823 -90.75817993 42.07361934 -91.875 52.125 C-62.835 52.125 -33.795 52.125 -3.875 52.125 C-6.25200089 39.05149512 -9.75555382 29.8050422 -19.875 21.125 C-39.71768962 8.58423472 -65.18195516 8.57278069 -82.01953125 26.66015625 Z " fill="#000000" transform="translate(1741.875,143.875)"/>
<path d="M0 0 C16.07432213 12.65288007 27.17895825 29.55214903 30 50 C30.27792883 53.04476274 30.40323666 56.06824446 30.4375 59.125 C30.44773193 59.82343018 30.45796387 60.52186035 30.46850586 61.24145508 C30.3884821 65.86324713 29.44759945 69.08959994 27 73 C22.5646097 76.41894669 19.11945519 78.12673572 13.53913879 78.12025452 C12.62628616 78.12162918 11.71343353 78.12300385 10.7729187 78.12442017 C9.77382477 78.12082489 8.77473083 78.11722961 7.74536133 78.11352539 C6.16462578 78.11374443 6.16462578 78.11374443 4.55195618 78.1139679 C1.0619604 78.11327015 -2.42798228 78.10548416 -5.91796875 78.09765625 C-8.33506745 78.09579158 -10.75216653 78.09436791 -13.16926575 78.09336853 C-19.53641805 78.08954721 -25.90354761 78.07972018 -32.27069092 78.06866455 C-38.76574394 78.05844218 -45.26080063 78.05386914 -51.75585938 78.04882812 C-64.50391596 78.03809759 -77.25195677 78.02121751 -90 78 C-89.41030193 80.21212476 -88.80906262 82.42117453 -88.203125 84.62890625 C-87.86958008 85.85939697 -87.53603516 87.0898877 -87.19238281 88.35766602 C-83.61685463 99.27971864 -76.31731917 107.24999365 -66.375 112.75 C-51.97412627 119.45271081 -36.96707794 119.44691311 -22.06396484 114.76708984 C-17.8690205 113.2080036 -14.05232014 110.94509565 -10.1730957 108.73706055 C-5.18530788 105.94868593 -1.70884049 104.72815045 4 105 C7.93017196 106.23727636 9.49739264 107.3190481 11.9375 110.625 C13.52714862 115.67447208 13.32847481 120.01556589 11.16015625 124.88671875 C4.47699087 135.47037923 -9.26652255 140.87708462 -20.78515625 144.0390625 C-44.06023819 149.02491589 -69.13479556 146.1461302 -89.75 133.8125 C-107.53164324 121.58428288 -119.32162645 104.74561613 -123.49609375 83.30078125 C-126.52349882 61.4575464 -124.16685867 37.49634118 -111.125 19.125 C-109.77037384 17.40046651 -108.39603033 15.69119103 -107 14 C-106.39542969 13.22140625 -105.79085937 12.4428125 -105.16796875 11.640625 C-79.30519034 -19.93918864 -32.22928488 -22.1810861 0 0 Z M-82 31 C-86.75279577 38.03878722 -90 45.46720529 -90 54 C-60.96 54 -31.92 54 -2 54 C-3.71951997 40.24384027 -8.57150106 31.1890138 -19.125 22.1875 C-38.96894106 7.59636687 -66.71733874 12.3169466 -82 31 Z " fill="#000000" transform="translate(926,143)"/>
<path d="M0 0 C0.58910156 0.44601563 1.17820312 0.89203125 1.78515625 1.3515625 C15.40939968 11.96543779 23.17006233 29.22842198 25.6875 46 C27.25857682 62.31245715 27.25857682 62.31245715 23 69 C18.66515426 72.52206216 15.08170966 74.11315683 9.53913879 74.15821838 C8.62628616 74.1680072 7.71343353 74.17779602 6.7729187 74.18788147 C5.77382477 74.19363693 4.77473083 74.1993924 3.74536133 74.20532227 C2.69153763 74.21522186 1.63771393 74.22512146 0.55195618 74.23532104 C-2.93799579 74.26695706 -6.42796139 74.29170188 -9.91796875 74.31640625 C-12.33507139 74.33697395 -14.75217041 74.35797038 -17.16926575 74.37937927 C-23.53637775 74.43461886 -29.9035223 74.48401986 -36.27069092 74.53222656 C-42.76577661 74.58242778 -49.26081492 74.63812105 -55.75585938 74.69335938 C-68.50386551 74.80096405 -81.25191209 74.90259036 -94 75 C-93.54864982 76.7277124 -93.09183622 78.45399797 -92.6328125 80.1796875 C-92.37902832 81.14116699 -92.12524414 82.10264648 -91.86376953 83.09326172 C-88.8344119 93.28758956 -83.21331316 101.06947869 -74.171875 106.7890625 C-60.38588718 114.11512409 -45.40283537 116.42060824 -30.22265625 112.19140625 C-24.78639112 110.18163551 -19.68719896 107.54052702 -14.56640625 104.83984375 C-8.42450329 101.63460348 -3.86273116 99.92752965 3 102 C6.41883228 104.72111141 7.6656086 106.15786167 8.4375 110.41015625 C8.71287865 116.11565769 7.88347912 119.63108599 4 124 C-7.65594262 136.53453126 -24.86976508 141.53208879 -41.51171875 142.34375 C-63.74900228 142.93797101 -86.4353773 138.04124105 -103.25 122.625 C-105.19474301 120.77569317 -107.09783457 118.89396644 -109 117 C-109.6703125 116.36449219 -110.340625 115.72898437 -111.03125 115.07421875 C-122.94931293 102.85820425 -128.34067637 83.65508822 -129 67 C-129.03996094 66.24074219 -129.07992187 65.48148437 -129.12109375 64.69921875 C-129.72732402 42.91058955 -122.69565446 22.19413801 -108 6 C-95.84181357 -6.5127133 -80.29288729 -15.17733359 -63 -18 C-62.34386719 -18.12246094 -61.68773437 -18.24492187 -61.01171875 -18.37109375 C-39.11115013 -21.71185845 -16.60730637 -14.23483403 0 0 Z M-84 24 C-89.56933158 31.16225481 -95 40.64767048 -95 50 C-65.63 50 -36.26 50 -6 50 C-9.26827 35.83749667 -13.17819474 24.79906856 -25.625 16.75 C-44.25690353 6.41776259 -69.01586385 7.3548865 -84 24 Z " fill="#000000" transform="translate(756,147)"/>
<path d="M0 0 C15.96701431 13.69871979 25.18132226 32.83036718 26.84790039 53.78466797 C28.16666572 76.03185974 22.86803264 97.0949046 8.265625 114.3828125 C-6.49732241 130.4341626 -26.26363591 140.83177358 -48.18359375 141.96875 C-65.98004074 142.58823497 -80.48608014 138.49758862 -95.8828125 129.71875 C-97.15898438 129.01105469 -97.15898438 129.01105469 -98.4609375 128.2890625 C-114.58436078 118.48741309 -125.95620012 101.52317182 -130.6328125 83.46875 C-135.8543882 61.48955928 -133.43165812 37.53211984 -121.6328125 18.03125 C-117.88619679 12.44789861 -113.59068974 7.50893279 -108.8828125 2.71875 C-108.26921875 2.09226563 -107.655625 1.46578125 -107.0234375 0.8203125 C-97.50297164 -8.17123859 -85.27455141 -13.55769828 -72.8828125 -17.28125 C-72.09132813 -17.52746094 -71.29984375 -17.77367187 -70.484375 -18.02734375 C-45.52929834 -24.37556501 -19.54348959 -15.46530884 0 0 Z M-87.171875 24.07421875 C-98.57328271 37.50396678 -100.8552515 52.27765098 -100.078125 69.32910156 C-99.04711734 81.94348032 -92.12783836 94.20745635 -82.8828125 102.71875 C-79.70059148 105.07272171 -76.42137744 106.95208095 -72.8828125 108.71875 C-72.06167969 109.13382812 -71.24054688 109.54890625 -70.39453125 109.9765625 C-59.50078618 114.70434867 -46.48885826 114.26086624 -35.5234375 109.9765625 C-24.0728041 104.52226671 -14.39148058 95.70378516 -9.7265625 83.7578125 C-4.22217747 67.83441294 -4.00318215 51.09170912 -11.0078125 35.53125 C-17.30258164 23.90577546 -27.54983581 15.23929597 -39.8828125 10.71875 C-57.23591885 5.81656486 -74.82867383 11.37293836 -87.171875 24.07421875 Z " fill="#000000" transform="translate(1449.8828125,147.28125)"/>
<path d="M0 0 C3.61850958 2.83713476 4.3857198 5.60837067 5.39453125 10.00390625 C5.78781791 14.63594915 4.9752145 18.24065694 2.51953125 22.19140625 C-3.15935704 27.35646909 -9.46901786 28.1303119 -16.85546875 28.75390625 C-32.05425726 30.10736037 -43.00608636 35.17290033 -52.91015625 47.01171875 C-58.63061674 54.95205943 -60.66004388 62.19651647 -60.54638672 71.8840332 C-60.54171387 72.64244507 -60.53704102 73.40085693 -60.53222656 74.18225098 C-60.5217538 75.82351952 -60.50910107 77.46477531 -60.49450302 79.10601234 C-60.47240917 81.70879461 -60.45837559 84.31150326 -60.44680786 86.91435242 C-60.41328535 94.31303952 -60.37170188 101.71160505 -60.30908203 109.11010742 C-60.27130455 113.64163593 -60.2483716 118.17303968 -60.23477554 122.70470238 C-60.22675296 124.42580837 -60.21318923 126.14689824 -60.19384384 127.8679142 C-60.16718106 130.28229552 -60.15945529 132.69608471 -60.15576172 135.1105957 C-60.14340485 135.81268661 -60.13104797 136.51477753 -60.11831665 137.23814392 C-60.14042607 142.75544221 -61.0711392 148.58686828 -64.9325695 152.76115894 C-70.15610663 157.19762328 -73.72556048 157.59942695 -80.42578125 157.53515625 C-84.7914324 157.04388093 -87.66559773 155.56297878 -90.48046875 152.19140625 C-94.56640161 146.2376674 -93.90931113 139.87277719 -93.88452148 132.9375 C-93.89022884 131.58675574 -93.89719452 130.2360163 -93.90531921 128.88528442 C-93.923224 125.22825882 -93.92208757 121.5714735 -93.91637683 117.91441727 C-93.91328158 114.85771051 -93.91938104 111.80104969 -93.92541558 108.74434948 C-93.9394499 101.53232675 -93.93790819 94.32042252 -93.92651367 87.10839844 C-93.91502862 79.67492137 -93.92911688 72.24180492 -93.95591015 64.80837536 C-93.97807771 58.41837878 -93.98470231 52.02849532 -93.97883373 45.63846302 C-93.97546604 41.82536491 -93.97786676 38.01249805 -93.99508476 34.19943237 C-94.0105693 30.61400037 -94.00658235 27.02910227 -93.98777962 23.44369125 C-93.98234626 21.50543128 -93.9965957 19.56714725 -94.01147461 17.62893677 C-93.95703128 11.20295102 -93.90753815 7.02510975 -89.48046875 2.19140625 C-85.66116703 -1.43693038 -82.59767869 -2.11859833 -77.48046875 -2.30859375 C-72.36325881 -2.11859833 -69.29977047 -1.43693038 -65.48046875 2.19140625 C-61.01596822 7.48266614 -60.83448426 11.93778139 -60.73046875 18.56640625 C-60.70082031 19.49324219 -60.67117188 20.42007813 -60.640625 21.375 C-60.57035014 23.6472206 -60.51744827 25.91844084 -60.48046875 28.19140625 C-60.16335938 27.58554688 -59.84625 26.9796875 -59.51953125 26.35546875 C-51.84786978 12.58038599 -39.97701974 2.91107967 -24.91796875 -1.80859375 C-16.63883686 -3.67689342 -7.51598704 -4.54123848 0 0 Z " fill="#000000" transform="translate(1599.48046875,130.80859375)"/>
<path d="M0 0 C2 1 2 1 2 1 Z " fill="#43AC34" transform="translate(336,386)"/>
<path d="M0 0 C2 1 2 1 2 1 Z " fill="#0071B9" transform="translate(57,386)"/>
<path d="" fill="#0071B9" transform="translate(0,0)"/>
<path d="" fill="#0071B9" transform="translate(0,0)"/>
<path d="M0 0 C2 1 2 1 2 1 Z " fill="#43AC34" transform="translate(226,336)"/>
<path d="" fill="#FAC400" transform="translate(0,0)"/>
<path d="" fill="#CC2627" transform="translate(0,0)"/>
<path d="M0 0 C2 1 2 1 2 1 Z " fill="#FAC400" transform="translate(58,33)"/>
<path d="" fill="#43AC34" transform="translate(0,0)"/>
<path d="" fill="#43AC34" transform="translate(0,0)"/>
<path d="" fill="#0071B9" transform="translate(0,0)"/>
<path d="" fill="#0071B9" transform="translate(0,0)"/>
<path d="" fill="#0071B9" transform="translate(0,0)"/>
<path d="" fill="#0071B9" transform="translate(0,0)"/>
<path d="" fill="#CC2627" transform="translate(0,0)"/>
<path d="" fill="#CC2627" transform="translate(0,0)"/>
<path d="" fill="#FAC400" transform="translate(0,0)"/>
<path d="" fill="#CC2627" transform="translate(0,0)"/>
<path d="" fill="#CC2627" transform="translate(0,0)"/>
<path d="" fill="#FAC400" transform="translate(0,0)"/>
<path d="" fill="#CC2627" transform="translate(0,0)"/>
<path d="" fill="#FAC400" transform="translate(0,0)"/>
</svg>
