<?xml version="1.0" encoding="utf-8"?>
<!-- Generator: Adobe Illustrator 23.0.2, SVG Export Plug-In . SVG Version: 6.00 Build 0)  -->
<svg version="1.1" id="Layer_1" xmlns="http://www.w3.org/2000/svg" xmlns:xlink="http://www.w3.org/1999/xlink" x="0px" y="0px"
	 viewBox="0 0 584.91 96.06" style="enable-background:new 0 0 584.91 96.06;" xml:space="preserve">
<style type="text/css">
	.st0{fill:#1A2133;}
	.st1{fill:none;stroke:#000000;stroke-width:6;stroke-miterlimit:10;}
	.st2{fill:none;stroke:#000000;stroke-width:8;stroke-miterlimit:10;}
	.st3{fill:url(#SVGID_1_);}
	.st4{fill:#0055FF;}
	.st5{fill:#00CAFE;}
	.st6{fill:#C048FF;}
	.st7{fill:#7F1499;}
	.st8{fill:#9E05E5;}
	.st9{fill:#FFD706;}
	.st10{fill:#76CC00;}
	.st11{fill:#0096DC;}
	.st12{fill:#006BBB;}
	.st13{fill:#FF6F03;}
	.st14{fill:#0327FF;}
	.st15{fill:#FF0813;}
	.st16{fill:url(#SVGID_2_);}
	.st17{fill:url(#SVGID_3_);}
	.st18{fill:url(#SVGID_4_);}
	.st19{fill:url(#SVGID_5_);}
	.st20{fill:url(#SVGID_6_);}
	.st21{fill:url(#SVGID_7_);}
	.st22{fill:url(#SVGID_8_);}
	.st23{fill:url(#SVGID_9_);}
	.st24{fill:url(#SVGID_10_);}
	.st25{fill:url(#SVGID_11_);}
	.st26{fill:url(#SVGID_12_);}
	.st27{fill:url(#SVGID_13_);}
	.st28{fill:url(#SVGID_14_);}
	.st29{fill:url(#SVGID_15_);}
	.st30{fill:url(#SVGID_16_);}
	.st31{fill:url(#SVGID_17_);}
	.st32{fill:none;}
	.st33{fill:#00A99D;}
	.st34{fill:#FF9304;}
	.st35{fill:#FCEE21;}
	.st36{fill:#1EFF23;}
	.st37{fill:#006837;}
	.st38{fill:#8CC63F;}
	.st39{opacity:0.76;}
	.st40{fill:#FCAD00;}
	.st41{fill:#4AAA01;}
	.st42{fill:#298801;}
	.st43{fill:#931C88;}
	.st44{fill:#ED1C24;}
	.st45{fill:#074C29;}
	.st46{fill:#6D1869;}
	.st47{fill:#B51F2B;}
	.st48{fill:#FFFF00;}
	.st49{fill:none;stroke:#000000;stroke-width:21;stroke-miterlimit:10;}
	.st50{fill:#F7931E;}
	.st51{fill:#F15A24;}
	.st52{fill:#29ABE2;}
	.st53{fill:none;stroke:#0096DC;stroke-width:30;stroke-miterlimit:10;}
	.st54{fill:#333333;}
	.st55{fill:#8521AF;}
	.st56{fill:#B657FF;}
	.st57{fill:#0C92D1;}
	.st58{fill:#0FE7FF;}
	.st59{fill:#0C94D4;}
	.st60{opacity:0.75;fill:#F4AC0E;}
	.st61{fill:#0EC1F2;}
	.st62{opacity:0.75;fill:#34A8DA;}
	.st63{fill:#7A1B91;}
	.st64{fill:#BF54F7;}
	.st65{fill:#F7D214;}
	.st66{fill:#0A6BB3;}
	.st67{fill:#0EC6F6;}
	.st68{fill:#F77411;}
	.st69{fill:#F4AC0E;}
	.st70{fill:#34A8DA;}
	.st71{opacity:0.36;}
	.st72{fill:#B3B3B3;}
	.st73{fill:#01A2E2;}
	.st74{fill:#02C48C;}
	.st75{fill:#B71051;}
	.st76{fill:#EC3F75;}
	.st77{fill:#F2A20D;}
	.st78{fill:#EA4075;}
	.st79{fill:#F46C12;}
	.st80{fill:#016AAF;}
	.st81{fill:#0B7F71;}
	.st82{fill:#170D4E;}
	.st83{fill:#08E273;}
	.st84{fill:#0CC408;}
	.st85{fill:#A115B7;}
	.st86{fill:#E244EC;}
	.st87{fill:#F26614;}
	.st88{fill:#E045EA;}
	.st89{fill:#F42D19;}
	.st90{fill:#06AF6C;}
	.st91{fill:#0F7F1C;}
	.st92{opacity:0.28;}
	.st93{fill:#0F234E;}
	.st94{fill:#FFFFFF;}
	.st95{fill:#0071BC;}
	.st96{fill:#A13FEF;}
	.st97{fill:#8C0DCE;}
	.st98{fill:#49AA01;}
	.st99{fill:#ED841B;}
	.st100{fill:#0E874A;}
	.st101{fill:#EF0707;}
	.st102{fill:#9B65C3;}
	.st103{fill:#3278B3;}
	.st104{fill:#47A3EE;}
	.st105{fill:#08CCFC;}
	.st106{fill:#59F2F8;}
	.st107{fill:#25C16E;}
	.st108{fill:#BF63C6;}
	.st109{fill:#D33C4F;}
	.st110{fill:#ED5A24;}
	.st111{fill:#FFBC01;}
	.st112{fill:#FFA800;}
	.st113{fill:#8BDF55;}
	.st114{fill:#00A3DF;}
	.st115{fill:#0077E3;}
	.st116{fill:#07C15E;}
	.st117{fill:#00E367;}
	.st118{fill:#FF7F00;}
	.st119{fill:url(#SVGID_20_);}
	.st120{fill:#FECE00;}
	.st121{fill:#290068;}
	.st122{fill:#840242;}
	.st123{fill:#861196;}
	.st124{fill:#1A2B33;}
	.st125{fill:#07C119;}
	.st126{fill:#F93D6F;}
	.st127{fill:#F59143;}
	.st128{fill:#ED4000;}
	.st129{fill:#F8640C;}
	.st130{fill:#F7221C;}
	.st131{fill:#FEB334;}
	.st132{fill:#1294C5;}
	.st133{fill:#2ABBDD;}
	.st134{fill:url(#SVGID_21_);}
	.st135{fill:#82AA01;}
	.st136{fill:#FF0064;}
	.st137{fill:#FF4500;}
	.st138{fill:#FFA000;}
	.st139{fill:#FFA901;}
	.st140{fill:#0071D1;}
	.st141{fill:#259EFF;}
	.st142{fill:#2393EE;}
	.st143{fill:#00CAFC;}
	.st144{fill:#33F1F8;}
	.st145{fill:#77CC00;}
	.st146{fill:#F2001F;}
	.st147{fill:#FF4400;}
	.st148{fill:#FFBC00;}
	.st149{fill:#59F2F7;}
	.st150{fill:#05CBFC;}
	.st151{fill:#ED5A26;}
	.st152{fill:#F7AB00;}
	.st153{fill:#FFBC03;}
	.st154{fill:#CF2C91;}
	.st155{fill:#F48500;}
	.st156{fill:#1F80FF;}
	.st157{fill:#43A047;}
	.st158{fill:url(#SVGID_22_);}
	.st159{fill:url(#SVGID_23_);}
	.st160{fill:url(#SVGID_24_);}
	.st161{fill:url(#SVGID_25_);}
	.st162{fill:url(#SVGID_26_);}
	.st163{fill:url(#SVGID_27_);}
	.st164{fill:url(#SVGID_28_);}
	.st165{fill:url(#SVGID_29_);}
	.st166{fill:url(#SVGID_30_);}
	.st167{fill:url(#SVGID_31_);}
	.st168{fill:url(#SVGID_32_);}
	.st169{fill:url(#SVGID_33_);}
	.st170{fill:url(#SVGID_34_);}
	.st171{fill:url(#SVGID_35_);}
	.st172{fill:url(#SVGID_36_);}
	.st173{fill:url(#SVGID_37_);}
	.st174{fill:url(#SVGID_38_);}
	.st175{fill:url(#SVGID_39_);}
	.st176{fill:url(#SVGID_40_);}
	.st177{fill:url(#SVGID_41_);}
	.st178{fill:url(#SVGID_42_);}
	.st179{fill:url(#SVGID_43_);}
	.st180{fill:url(#SVGID_44_);}
	.st181{fill:#BF3273;}
	.st182{fill:#1F80FE;}
	.st183{fill:#439F47;}
	.st184{fill:#CE2C90;}
	.st185{fill:#F38400;}
	.st186{fill:#76CD00;}
	.st187{fill:#FF203C;}
	.st188{fill:url(#SVGID_45_);}
	.st189{fill:url(#SVGID_46_);}
	.st190{fill:url(#SVGID_47_);}
	.st191{fill:url(#SVGID_48_);}
	.st192{fill:url(#SVGID_49_);}
	.st193{fill:url(#SVGID_50_);}
	.st194{fill:url(#SVGID_51_);}
	.st195{fill:url(#SVGID_52_);}
	.st196{fill:url(#SVGID_53_);}
	.st197{fill:url(#SVGID_54_);}
	.st198{fill:#5AB8B3;}
	.st199{fill:#F3D000;}
	.st200{fill:#ED5929;}
	.st201{fill:#FFBB00;}
	.st202{fill:#FE5151;}
	.st203{fill:#FE006C;}
	.st204{fill-rule:evenodd;clip-rule:evenodd;fill:#CF2C91;}
	.st205{fill-rule:evenodd;clip-rule:evenodd;fill:#F48500;}
	.st206{fill-rule:evenodd;clip-rule:evenodd;fill:#1F80FF;}
	.st207{fill-rule:evenodd;clip-rule:evenodd;fill:#43A047;}
	.st208{fill:#46A4EC;}
	.st209{fill:#06C8FD;}
	.st210{fill:url(#SVGID_55_);}
	.st211{fill:url(#SVGID_56_);}
	.st212{fill:url(#SVGID_57_);}
	.st213{fill:url(#SVGID_58_);}
	.st214{fill:url(#SVGID_59_);}
	.st215{fill:url(#SVGID_60_);}
	.st216{fill:url(#SVGID_61_);}
	.st217{fill:url(#SVGID_62_);}
	.st218{fill:url(#SVGID_63_);}
	.st219{fill:url(#SVGID_64_);}
	.st220{fill:url(#SVGID_65_);}
	.st221{fill:url(#SVGID_66_);}
	.st222{fill:url(#SVGID_67_);}
	.st223{fill:url(#SVGID_68_);}
	.st224{fill:url(#SVGID_69_);}
	.st225{fill:url(#SVGID_70_);}
	.st226{fill:url(#SVGID_71_);}
	.st227{fill:url(#SVGID_72_);}
	.st228{fill:url(#SVGID_73_);}
	.st229{fill:url(#SVGID_74_);}
	.st230{fill:url(#SVGID_75_);}
	.st231{fill:url(#SVGID_76_);}
	.st232{fill:url(#SVGID_77_);}
	.st233{fill:url(#SVGID_78_);}
	.st234{fill:url(#SVGID_79_);}
	.st235{fill:url(#SVGID_80_);}
	.st236{fill:url(#SVGID_81_);}
	.st237{clip-path:url(#SVGID_83_);}
	.st238{fill:url(#SVGID_84_);}
	.st239{fill:url(#SVGID_85_);}
	.st240{fill:url(#SVGID_86_);}
	.st241{fill:url(#SVGID_87_);}
	.st242{fill:url(#SVGID_88_);}
	.st243{fill:url(#SVGID_89_);}
	.st244{fill:url(#SVGID_90_);}
	.st245{fill:url(#SVGID_91_);}
	.st246{fill:url(#SVGID_92_);}
	.st247{fill:url(#SVGID_93_);}
	.st248{fill:url(#SVGID_94_);}
	.st249{fill:url(#SVGID_95_);}
	.st250{fill:url(#SVGID_96_);}
	.st251{fill:url(#SVGID_97_);}
	.st252{fill:url(#SVGID_98_);}
	.st253{fill:url(#SVGID_99_);}
	.st254{fill:url(#SVGID_100_);}
	.st255{fill:url(#SVGID_101_);}
	.st256{fill:url(#SVGID_102_);}
	.st257{fill:url(#SVGID_103_);}
	.st258{fill:url(#SVGID_104_);}
	.st259{fill:url(#SVGID_105_);}
	.st260{fill:url(#SVGID_106_);}
	.st261{fill:url(#SVGID_107_);}
	.st262{fill:url(#SVGID_108_);}
	.st263{fill:url(#SVGID_109_);}
	.st264{fill:url(#SVGID_110_);}
	.st265{fill:url(#SVGID_111_);}
	.st266{fill:url(#SVGID_112_);}
	.st267{fill:url(#SVGID_113_);}
	.st268{clip-path:url(#SVGID_115_);}
	.st269{fill:url(#SVGID_116_);}
	.st270{fill:url(#SVGID_117_);}
	.st271{fill:url(#SVGID_118_);}
	.st272{fill:url(#SVGID_119_);}
	.st273{fill:url(#SVGID_120_);}
	.st274{fill:url(#SVGID_121_);}
	.st275{fill:url(#SVGID_122_);}
	.st276{fill:url(#SVGID_123_);}
	.st277{fill:url(#SVGID_124_);}
	.st278{fill:url(#SVGID_125_);}
	.st279{fill:url(#SVGID_126_);}
	.st280{fill:url(#SVGID_127_);}
	.st281{fill:url(#SVGID_128_);}
	.st282{fill:url(#SVGID_129_);}
	.st283{fill:url(#SVGID_130_);}
	.st284{fill:url(#SVGID_131_);}
	.st285{fill:url(#SVGID_132_);}
	.st286{fill:url(#SVGID_133_);}
	.st287{fill:url(#SVGID_134_);}
	.st288{fill:url(#SVGID_135_);}
	.st289{fill:url(#SVGID_136_);}
	.st290{fill:url(#SVGID_137_);}
	.st291{fill:url(#SVGID_138_);}
	.st292{fill:url(#SVGID_139_);}
	.st293{fill:url(#SVGID_140_);}
	.st294{fill:url(#SVGID_141_);}
	.st295{fill:url(#SVGID_142_);}
	.st296{fill:url(#SVGID_143_);}
	.st297{fill:url(#SVGID_144_);}
	.st298{clip-path:url(#SVGID_146_);}
	.st299{fill:url(#SVGID_147_);}
	.st300{fill:url(#SVGID_148_);}
	.st301{fill:url(#SVGID_149_);}
	.st302{fill:url(#SVGID_150_);}
	.st303{fill:url(#SVGID_151_);}
	.st304{fill:url(#SVGID_152_);}
	.st305{fill:url(#SVGID_153_);}
	.st306{fill:url(#SVGID_154_);}
	.st307{fill:url(#SVGID_155_);}
	.st308{fill:url(#SVGID_156_);}
	.st309{fill:url(#SVGID_157_);}
	.st310{fill:url(#SVGID_158_);}
	.st311{fill:url(#SVGID_159_);}
	.st312{fill:url(#SVGID_160_);}
	.st313{fill:url(#SVGID_161_);}
	.st314{fill:url(#SVGID_162_);}
	.st315{fill:url(#SVGID_163_);}
	.st316{fill:url(#SVGID_164_);}
	.st317{fill:url(#SVGID_165_);}
	.st318{fill:url(#SVGID_166_);}
	.st319{fill:url(#SVGID_167_);}
	.st320{fill:url(#SVGID_168_);}
	.st321{fill:url(#SVGID_169_);}
	.st322{fill:url(#SVGID_170_);}
	.st323{fill:url(#SVGID_171_);}
	.st324{fill:url(#SVGID_172_);}
	.st325{fill:url(#SVGID_173_);}
	.st326{fill:url(#SVGID_174_);}
	.st327{fill:url(#SVGID_175_);}
	.st328{fill:url(#SVGID_176_);}
	.st329{clip-path:url(#SVGID_178_);}
	.st330{fill:url(#SVGID_179_);}
	.st331{fill:url(#SVGID_180_);}
	.st332{fill:url(#SVGID_181_);}
	.st333{fill:url(#SVGID_182_);}
	.st334{fill:url(#SVGID_183_);}
	.st335{fill:url(#SVGID_184_);}
	.st336{fill:url(#SVGID_185_);}
	.st337{fill:url(#SVGID_186_);}
	.st338{fill:url(#SVGID_187_);}
	.st339{fill:url(#SVGID_188_);}
	.st340{fill:url(#SVGID_189_);}
	.st341{fill:url(#SVGID_190_);}
	.st342{fill:url(#SVGID_191_);}
	.st343{fill:url(#SVGID_192_);}
	.st344{fill:url(#SVGID_193_);}
	.st345{fill:url(#SVGID_194_);}
	.st346{fill:url(#SVGID_195_);}
	.st347{fill:url(#SVGID_196_);}
	.st348{fill:url(#SVGID_197_);}
	.st349{fill:url(#SVGID_198_);}
	.st350{fill:url(#SVGID_199_);}
	.st351{fill:url(#SVGID_200_);}
	.st352{fill:url(#SVGID_201_);}
	.st353{fill:url(#SVGID_202_);}
	.st354{fill:url(#SVGID_203_);}
	.st355{fill:url(#SVGID_204_);}
	.st356{fill:url(#SVGID_205_);}
	.st357{fill:url(#SVGID_206_);}
	.st358{fill:url(#SVGID_207_);}
	.st359{fill:url(#SVGID_208_);}
</style>
<g>
	<g>
		<g>
			<g>
				<g>
					<g>
						<g>
							<path class="st0" d="M279.23,24.07c-3.39-2.08-7.39-3.12-12.01-3.12c-4.53,0-8.49,1.02-11.88,3.06
								c-3.39,2.04-6.03,4.89-7.91,8.55c-1.88,3.66-2.82,7.9-2.82,12.71c0,4.78,0.92,9.01,2.76,12.67c1.84,3.66,4.45,6.53,7.84,8.61
								c3.39,2.08,7.39,3.12,12.01,3.12c4.59,0,8.57-1.03,11.96-3.1c3.39-2.07,6.02-4.93,7.88-8.59c1.87-3.66,2.8-7.9,2.8-12.71
								c0-4.76-0.93-8.96-2.78-12.61C285.24,29.01,282.62,26.15,279.23,24.07z M277.12,56.78c-2.18,2.98-5.48,4.46-9.89,4.46
								c-4.3,0-7.56-1.45-9.79-4.36s-3.33-6.78-3.33-11.62c0-3.13,0.47-5.89,1.41-8.27c0.94-2.38,2.38-4.25,4.32-5.6
								s4.4-2.03,7.39-2.03c4.36,0,7.64,1.45,9.85,4.34c2.21,2.89,3.31,6.75,3.31,11.56C280.39,49.96,279.3,53.8,277.12,56.78z"/>
							<path class="st0" d="M318.12,22c-1.51,0.1-2.98,0.38-4.42,0.85c-1.44,0.47-2.74,1.13-3.91,1.99c-1.2,0.8-2.25,1.82-3.16,3.06
								c-0.41,0.56-0.77,1.14-1.11,1.75V26.2c0-2.19-1.78-3.97-3.97-3.97l0,0c-2.19,0-3.97,1.78-3.97,3.97v38.2
								c0,2.19,1.78,3.97,3.97,3.97h1.07c2.2,0,3.97-1.78,3.97-3.97V45.09c0-1.82,0.18-3.55,0.56-5.19
								c0.37-1.64,0.98-3.13,1.82-4.47c0.95-1.51,2.28-2.76,4.01-3.77c1.38-0.8,2.91-1.26,4.5-1.4c0.37-0.03,0.73-0.06,1.08-0.07
								c2.18-0.07,3.94-1.77,3.94-3.94V26c0-2.27-1.89-4.14-4.16-4.01C318.25,21.99,318.19,21.99,318.12,22z"/>
							<path class="st0" d="M358.97,22.23h-1.02c-1.19,0-2.33,0.54-3.08,1.46l-16.93,20.76V10.82c0-2.19-1.78-3.97-3.97-3.97h-1.11
								c-2.19,0-3.97,1.78-3.97,3.97l-0.04,53.59c0,2.2,1.78,3.98,3.97,3.98h1.15c2.2,0,3.97-1.78,3.97-3.97V46.16l18.13,20.85
								c0.75,0.87,1.85,1.37,3,1.37h1.3c3.46,0,5.27-4.11,2.93-6.66l-15.02-16.42l13.74-16.56
								C364.18,26.15,362.34,22.23,358.97,22.23z"/>
							<path class="st0" d="M401.11,44.64c-2.28-1.21-5.36-2.31-9.23-3.31c-3.62-0.91-6.35-1.69-8.2-2.35
								c-1.85-0.65-3.1-1.34-3.74-2.05c-0.64-0.71-0.96-1.58-0.96-2.61c0-1.77,0.84-3.15,2.52-4.17c1.68-1.01,3.87-1.46,6.58-1.35
								c2.82,0.11,5.11,0.81,6.88,2.09c0.88,0.64,1.59,1.4,2.1,2.28c0.99,1.67,2.81,2.65,4.72,2.3l0.39-0.07
								c3.11-0.57,4.67-4.13,2.94-6.78c-0.29-0.45-0.61-0.88-0.97-1.3c-1.71-2.04-3.95-3.61-6.71-4.72
								c-2.76-1.11-5.91-1.67-9.44-1.67c-3.62,0-6.77,0.57-9.47,1.71c-2.69,1.14-4.78,2.75-6.26,4.83
								c-1.48,2.08-2.22,4.52-2.22,7.31c0,2.25,0.49,4.17,1.47,5.75c0.98,1.58,2.63,2.96,4.96,4.15c2.32,1.18,5.46,2.29,9.42,3.31
								c3.62,0.97,6.31,1.78,8.08,2.44c1.77,0.66,2.93,1.35,3.48,2.07c0.56,0.73,0.83,1.67,0.83,2.84c0,1.99-0.79,3.56-2.37,4.7
								c-1.58,1.14-3.77,1.71-6.56,1.71c-3.08,0-5.65-0.69-7.71-2.07c-1.26-0.85-2.25-1.88-2.95-3.11c-0.88-1.54-2.68-2.3-4.43-2.03
								l-0.44,0.07c-3.07,0.47-4.78,3.91-3.19,6.57c1.1,1.85,2.57,3.42,4.42,4.71c3.53,2.48,8.11,3.72,13.72,3.72
								c5.84,0,10.42-1.3,13.74-3.89c3.32-2.59,4.98-6.17,4.98-10.73c0-2.36-0.49-4.38-1.48-6.05
								C405.02,47.29,403.39,45.86,401.11,44.64z"/>
							<path class="st0" d="M447.92,24.13c-3.15-2.12-6.89-3.18-11.22-3.18c-4.36,0-8.03,1.06-11,3.18
								c-0.55,0.39-1.06,0.84-1.56,1.29v-14.6c0-2.19-1.78-3.97-3.97-3.97h-1.02c-2.19,0-3.97,1.78-3.97,3.97v53.59
								c0,2.19,1.78,3.97,3.97,3.97h0c2.19,0,3.97-1.78,3.97-3.97v-0.33c0.82,0.86,1.68,1.66,2.65,2.36
								c2.99,2.15,6.69,3.23,11.11,3.23c4.3,0,8.01-1.07,11.13-3.2s5.53-5.05,7.22-8.74c1.69-3.69,2.54-7.84,2.54-12.46
								c0-4.64-0.85-8.8-2.56-12.46C453.5,29.15,451.07,26.25,447.92,24.13z M446.89,53.53c-0.93,2.46-2.32,4.42-4.19,5.88
								c-1.87,1.45-4.22,2.18-7.07,2.18c-2.93,0-5.33-0.7-7.18-2.09s-3.2-3.32-4.06-5.77c-0.85-2.45-1.28-5.27-1.28-8.46
								c0-3.19,0.43-6.01,1.3-8.46c0.87-2.45,2.21-4.36,4.02-5.73c1.81-1.37,4.11-2.05,6.9-2.05c2.96,0,5.4,0.73,7.31,2.18
								c1.91,1.45,3.33,3.4,4.25,5.85c0.93,2.45,1.39,5.19,1.39,8.21C448.28,48.31,447.82,51.07,446.89,53.53z"/>
							<path class="st0" d="M481.57,56.92l-12.64-32.15c-0.6-1.53-2.08-2.54-3.73-2.54h-0.63c-2.85,0-4.79,2.88-3.71,5.52
								l16.43,40.43l-5.63,15.32c-0.96,2.62,0.98,5.39,3.76,5.39l0,0c1.66,0,3.15-1.03,3.75-2.58l22.41-58.65
								c1-2.62-0.94-5.44-3.75-5.44h-0.46c-1.67,0-3.17,1.04-3.75,2.6L481.57,56.92z"/>
							<path class="st0" d="M520.29,9.41h-1.79c-1.98,0-3.59,1.61-3.59,3.59v9.23h-5.26c-1.98,0-3.59,1.61-3.59,3.59v0
								c0,1.98,1.61,3.59,3.59,3.59h5.26v20.81c0,2.51,0.04,4.75,0.11,6.73c0.07,1.91,0.57,3.78,1.5,5.63
								c1.07,2.13,2.84,3.89,5.01,4.88c2.21,1.01,4.72,1.56,7.53,1.65c1.78,0.05,3.59-0.02,5.42-0.24c1.79-0.21,3.13-1.76,3.13-3.57
								v-0.54c0-2.06-1.74-3.68-3.79-3.58c-1.48,0.07-2.85,0.04-4.09-0.09c-2.24-0.24-3.87-1.25-4.89-3.01
								c-0.54-0.94-0.83-2.09-0.88-3.46c-0.04-1.37-0.06-2.98-0.06-4.83V29.41H534c1.98,0,3.59-1.61,3.59-3.59v0
								c0-1.98-1.61-3.59-3.59-3.59h-10.13V13C523.88,11.02,522.27,9.41,520.29,9.41z"/>
							<path class="st0" d="M580.41,47.83L580.41,47.83c2.55,0,4.61-2.13,4.49-4.67c-0.17-3.59-0.83-6.8-1.99-9.64
								c-1.64-4.02-4.11-7.12-7.41-9.3c-3.31-2.18-7.31-3.27-12.01-3.27c-4.5,0-8.45,1.01-11.84,3.03
								c-3.39,2.02-6.03,4.89-7.93,8.59c-1.89,3.7-2.84,8.08-2.84,13.12c0,4.76,0.96,8.94,2.89,12.54c1.92,3.6,4.62,6.41,8.08,8.42
								c3.46,2.01,7.48,3.01,12.07,3.01c4.47,0,8.53-1.13,12.18-3.4c1.83-1.14,3.43-2.51,4.79-4.12c2.08-2.45,0.99-6.23-2.07-7.21v0
								c-1.83-0.58-3.78,0.11-4.97,1.61c-0.88,1.12-1.92,2.04-3.11,2.78c-2.04,1.27-4.45,1.9-7.24,1.9c-4.25,0-7.49-1.39-9.74-4.17
								c-1.86-2.3-2.94-5.39-3.26-9.25h25.44H580.41z M553.75,33.09c2.25-2.82,5.61-4.23,10.09-4.23c4.04,0,7.06,1.28,9.04,3.85
								c1.49,1.93,2.43,4.65,2.84,8.16h-25.02C551.16,37.66,552.17,35.06,553.75,33.09z"/>
						</g>
					</g>
					<g>
						<g>
							<path class="st0" d="M191.04,65.3l-11.52-37.75c-0.83-2.71,1.21-5.45,4.05-5.44l0.03,0c1.84,0.01,3.47,1.22,4.01,2.98
								l8.75,28.7l8.83-28.69c0.54-1.77,2.17-2.97,4.02-2.97h1.47c1.85,0,3.48,1.21,4.02,2.97l8.83,28.69l8.75-28.68
								c0.54-1.77,2.17-2.98,4.03-2.98h0c2.83,0,4.85,2.73,4.02,5.44L228.8,65.3c-0.54,1.77-2.17,2.98-4.02,2.98h-1
								c-1.83,0-3.45-1.18-4.01-2.92l-9.83-30.5l-9.87,30.5c-0.56,1.74-2.18,2.91-4,2.91h-1C193.21,68.28,191.58,67.07,191.04,65.3z
								"/>
						</g>
					</g>
				</g>
			</g>
		</g>
	</g>
	<g>
		<g>
			<g>
				<path class="st114" d="M142.21,0.02l-11.07,59.56l-0.32,1.68l-4.3,7.4l-8.76,15.1l-2.43,4.18l-1.08,1.87l-0.54,0.93l-3.03,5.22
					l-0.07,0.1l-0.09-0.18l-9.08-15.86v-0.01l-7.74-13.53l-0.37-0.65l-4.55-27.39l1-1.75l4.86-8.46c1.32-2.29,2.78-4.47,4.38-6.52
					c9.1-11.72,22.51-19.37,37.25-21.26C138.22,0.21,140.21,0.06,142.21,0.02z"/>
				<path class="st115" d="M166.38,0l-8.82,15.19l-6.07,10.47l-0.23,0.4l-9.79,16.86l-8.6,14.81l-2.03,3.5l-0.02,0.03l-4.3,7.4
					l-8.76,15.1l-2.43,4.18l1.65-6.89l19.28-80.59c1.96-0.25,3.95-0.4,5.95-0.44C142.61,0,143,0,143.4,0H166.38z"/>
				<path class="st114" d="M132.86,57.73l-2.03,3.5l-0.02,0.03l-4.3,7.4l-8.76,15.1l-2.43,4.18l-1.08,1.87l1.93-6.93
					c0.25-0.62,0.52-1.22,0.8-1.83c3.68-8.24,8.59-15.35,14.14-21.46c0.01-0.01,0.01-0.01,0.02-0.02
					C131.7,58.95,132.28,58.34,132.86,57.73z"/>
				<polygon class="st116" points="83.19,48.13 83.2,48.15 83.19,48.17 				"/>
				<path class="st117" d="M113.7,90.74l-3.03,5.22l-0.07,0.1l-0.09-0.18l-9.08-15.86v-0.01l-7.74-13.53l-0.37-0.65l-6.49-11.35
					l-3.62-6.33l5.56-9.71l1-1.75l4.86-8.46c1.32-2.29,2.78-4.47,4.38-6.52C114.67,47,114.67,77.27,113.7,90.74z"/>
			</g>
		</g>
		<g>
			<path class="st118" d="M77.62,38.44l-4.55,27.41l-0.36,0.63l-7.75,13.53l-9.07,15.87l-0.1,0.18l-0.07-0.1l-3.04-5.23l-0.54-0.93
				l-1.08-1.87l-2.43-4.17l-8.76-15.1l-4.3-7.4l-0.32-1.68L24.17,0.02c2,0.04,3.99,0.19,5.95,0.44C44.86,2.34,58.27,10,67.37,21.72
				c1.6,2.04,3.06,4.23,4.38,6.52l4.86,8.46L77.62,38.44z"/>
			<linearGradient id="SVGID_1_" gradientUnits="userSpaceOnUse" x1="0" y1="43.9661" x2="51.0526" y2="43.9661">
				<stop  offset="0" style="stop-color:#EF0707"/>
				<stop  offset="1" style="stop-color:#FF243D"/>
			</linearGradient>
			<path class="st3" d="M51.05,87.93l-2.43-4.17l-8.76-15.1l-4.3-7.4l-0.02-0.03l-2.03-3.5l-8.6-14.81l-9.79-16.86l-0.23-0.4
				L8.81,15.19L0,0h22.98c0.4,0,0.79,0,1.2,0.02c2,0.04,3.99,0.19,5.95,0.44L49.4,81.05L51.05,87.93z"/>
			<path class="st118" d="M52.14,89.8l-1.08-1.87l-2.43-4.17l-8.76-15.1l-4.3-7.4l-0.02-0.03l-2.03-3.5
				c0.58,0.61,1.16,1.22,1.73,1.85c0.01,0.01,0.01,0.01,0.02,0.02c5.55,6.11,10.46,13.21,14.14,21.46c0.28,0.61,0.55,1.21,0.8,1.83
				L52.14,89.8z"/>
			<path class="st120" d="M83.19,48.13v0.04l-3.62,6.32l-6.5,11.36l-0.36,0.63l-7.75,13.53l-9.07,15.87l-0.1,0.18l-0.07-0.1
				l-3.04-5.23c-0.97-13.47-0.97-43.74,14.7-69.02c1.6,2.04,3.06,4.23,4.38,6.52l4.86,8.46l1,1.75L83.19,48.13z"/>
		</g>
	</g>
</g>
</svg>
