<?xml version="1.0" encoding="UTF-8"?>
<svg version="1.1" xmlns="http://www.w3.org/2000/svg" width="1563" height="354">
<path d="M0 0 C1.17949219 1.16015625 1.17949219 1.16015625 2.3828125 2.34375 C3.46949219 3.41109375 3.46949219 3.41109375 4.578125 4.5 C19.66902334 20.33683628 23.01505156 40.82373816 22.6875 61.74609375 C22.43388266 69.22361338 21.39573996 75.42925076 18.3828125 82.34375 C18.10373047 82.98844238 17.82464844 83.63313477 17.53710938 84.29736328 C8.98305673 103.65295055 -4.28152426 117.62679786 -24.359375 125.40625 C-39.61364271 130.11379849 -56.18561179 129.1929884 -70.6171875 122.34375 C-74.13039763 120.23582392 -77.53793385 118.05563065 -80.6171875 115.34375 C-80.6171875 114.68375 -80.6171875 114.02375 -80.6171875 113.34375 C-81.2771875 113.34375 -81.9371875 113.34375 -82.6171875 113.34375 C-84.00656827 111.38227126 -85.3432286 109.38208424 -86.6171875 107.34375 C-86.62083313 108.0821109 -86.62447876 108.8204718 -86.62823486 109.58120728 C-86.66617289 116.55503342 -86.72309146 123.52847714 -86.80109024 130.50196266 C-86.84052351 134.08677571 -86.87273188 137.67134467 -86.88818359 141.25634766 C-86.90337824 144.7190774 -86.93787158 148.18113592 -86.98549652 151.64356613 C-87.00745503 153.60094741 -87.00965883 155.55851819 -87.01153564 157.51602173 C-87.19190697 168.49997193 -87.19190697 168.49997193 -91.6171875 173.34375 C-92.4628125 174.2925 -93.3084375 175.24125 -94.1796875 176.21875 C-97.80422862 179.06858004 -101.52855144 178.98384959 -105.99609375 178.765625 C-110.99775948 177.96058789 -113.63706699 175.42982949 -116.9296875 171.78125 C-119.76954972 167.6792268 -119.74594389 164.45438131 -119.75762939 159.57623291 C-119.76060052 158.8844047 -119.76357164 158.19257648 -119.7666328 157.47978377 C-119.77532065 155.15610669 -119.77682812 152.83248111 -119.77832031 150.50878906 C-119.78294847 148.84484751 -119.78797312 147.18090702 -119.79336548 145.51696777 C-119.80649272 140.99202674 -119.8129352 136.46710054 -119.81737614 131.94214344 C-119.82030666 129.11500918 -119.82441146 126.28787898 -119.82888031 123.46074677 C-119.8425568 114.61502547 -119.85222242 105.76931345 -119.8560822 96.92358232 C-119.86056188 86.71323255 -119.87810495 76.50301672 -119.9070828 66.29270768 C-119.92870395 58.40045594 -119.93878673 50.50824188 -119.94012332 42.61596084 C-119.94117114 37.90241203 -119.94707398 33.18898911 -119.96494293 28.4754715 C-119.98143083 24.03987045 -119.98357563 19.6044898 -119.97480392 15.16886902 C-119.9740339 13.54311787 -119.97837167 11.91735485 -119.98826218 10.29163361 C-120.00099848 8.06722849 -119.99509636 5.84360201 -119.98468018 3.61920166 C-119.98614674 2.37591221 -119.9876133 1.13262276 -119.9891243 -0.14834213 C-119.28833896 -6.7577726 -116.72259197 -11.29797789 -111.6171875 -15.65625 C-108.58116304 -17.85475047 -105.50245575 -18.1395131 -101.7734375 -18.03515625 C-96.42187626 -17.09475509 -92.64821654 -13.8458989 -89.1796875 -9.84375 C-87.26820733 -5.94433045 -86.91470447 -2.97024604 -86.6171875 1.34375 C-86.08544922 0.61671875 -86.08544922 0.61671875 -85.54296875 -0.125 C-77.35229443 -10.43771343 -65.42825503 -16.83582627 -52.4296875 -18.40625 C-32.06882606 -19.70889204 -14.87545991 -13.98946073 0 0 Z M-63.6171875 11.34375 C-63.6171875 12.00375 -63.6171875 12.66375 -63.6171875 13.34375 C-64.3184375 13.42625 -65.0196875 13.50875 -65.7421875 13.59375 C-73.34412075 15.57686302 -78.96312212 21.88196206 -82.87890625 28.46484375 C-83.8632852 30.40066704 -84.76032096 32.34872234 -85.6171875 34.34375 C-86.205 35.58125 -86.205 35.58125 -86.8046875 36.84375 C-90.64383244 48.65650366 -90.50457251 65.15243759 -85.04125977 76.3815918 C-84.52196899 77.38379761 -84.52196899 77.38379761 -83.9921875 78.40625 C-83.6324585 79.1072583 -83.27272949 79.8082666 -82.90209961 80.53051758 C-77.75420604 90.21553769 -70.74134342 95.97181532 -60.28515625 99.453125 C-49.39721008 102.09684356 -39.32312041 100.87209342 -29.6171875 95.34375 C-19.03389227 88.56206463 -13.20273429 79.45946591 -10.08203125 67.25 C-9.78291875 65.26153381 -9.66379313 63.35496231 -9.6171875 61.34375 C-9.57658203 59.81041016 -9.57658203 59.81041016 -9.53515625 58.24609375 C-9.49340646 54.94026973 -9.52967172 51.64851259 -9.6171875 48.34375 C-9.63394531 47.62058594 -9.65070313 46.89742187 -9.66796875 46.15234375 C-10.39745249 36.16883776 -15.6715857 26.37303375 -22.6171875 19.34375 C-28.0934653 14.77015535 -33.79614833 12.24761435 -40.6171875 10.34375 C-41.6071875 10.01375 -42.5971875 9.68375 -43.6171875 9.34375 C-50.61592194 8.89790469 -56.91586959 9.28180603 -63.6171875 11.34375 Z " fill="#1A2133" transform="translate(977.6171875,123.65625)"/>
<path d="M0 0 C4.63337064 2.15691392 6.77650708 4.46163293 9 9 C9.38031673 12.3471365 9.38031673 12.3471365 9.38768005 16.24253845 C9.39575836 17.32065437 9.39575836 17.32065437 9.40399987 18.42055041 C9.41828124 20.82342964 9.41117551 23.22575811 9.40405273 25.62866211 C9.40975622 27.35363711 9.4167204 29.07860834 9.42485046 30.80357361 C9.4427994 35.48540365 9.44161023 40.16704644 9.43590808 44.84890056 C9.43281873 48.75802097 9.43890586 52.66710529 9.44494683 56.57622057 C9.45899615 65.7984842 9.45742738 75.02065521 9.44604492 84.24291992 C9.43456305 93.75593074 9.44863961 103.26865965 9.4754414 112.78163332 C9.49759507 120.95078261 9.50423653 129.1198434 9.49836498 137.2890206 C9.49499344 142.16740357 9.49742363 147.04560584 9.51461601 151.92396355 C9.53007776 156.51150938 9.52613822 161.09863748 9.50731087 165.68616676 C9.50362285 167.36877233 9.50673969 169.05140879 9.51719666 170.7339859 C9.53039437 173.03329817 9.51887157 175.33122498 9.50120544 177.63047791 C9.50099616 178.91633758 9.50078688 180.20219725 9.50057125 181.52702236 C8.74267426 186.78533332 6.26481172 189.82773548 2.4375 193.375 C-2.46288279 195.69154459 -6.6776039 196.00124283 -12 195 C-16.10707426 193.0028605 -19.07056318 190.53559127 -21.4375 186.625 C-22.19497386 183.09012196 -22.63412226 179.59779773 -23 176 C-23.60585938 176.65226563 -24.21171875 177.30453125 -24.8359375 177.9765625 C-36.13617936 189.76358401 -46.84624397 195.20349795 -63.1484375 196.00390625 C-77.96430435 195.98888002 -91.71407996 191.19061336 -104 183 C-104 182.34 -104 181.68 -104 181 C-104.59425781 180.71640625 -105.18851562 180.4328125 -105.80078125 180.140625 C-112.22401873 176.80921231 -115.9356182 171.98645096 -119.75 166.0625 C-120.12664795 165.47758789 -120.5032959 164.89267578 -120.89135742 164.29003906 C-123.35210894 160.33920549 -125.25346428 156.32641848 -127 152 C-127.56074219 150.69289062 -127.56074219 150.69289062 -128.1328125 149.359375 C-131.67264139 140.04990374 -131.94692376 130.84360144 -132 121 C-132.0093457 120.29262695 -132.01869141 119.58525391 -132.02832031 118.85644531 C-132.13064705 99.460878 -124.29822155 82.65891504 -110.9296875 68.83203125 C-97.57558305 55.57996813 -81.60885397 49.33605154 -63 49 C-47.95513056 49.31100505 -35.57625186 55.29413721 -25 66 C-24.01 67.485 -24.01 67.485 -23 69 C-22.99453156 67.91125076 -22.99453156 67.91125076 -22.98895264 66.80050659 C-22.95101178 59.94440556 -22.89409005 53.08869341 -22.81609726 46.23293877 C-22.77666697 42.70865959 -22.74445718 39.18462859 -22.72900391 35.66015625 C-22.71089674 31.60376248 -22.66092678 27.54829512 -22.609375 23.4921875 C-22.60814636 22.23260223 -22.60691772 20.97301697 -22.60565186 19.67526245 C-22.46553101 11.28468586 -21.60256448 7.5965702 -15.65234375 1.65625 C-10.80821254 -1.36865668 -5.5076019 -0.68585231 0 0 Z M-74 79 C-74 79.66 -74 80.32 -74 81 C-75.2684375 81.0928125 -75.2684375 81.0928125 -76.5625 81.1875 C-80.76787691 82.18149818 -83.86388926 84.02162264 -87 87 C-87 87.66 -87 88.32 -87 89 C-87.99 89.33 -88.98 89.66 -90 90 C-99.52232433 101.90290541 -101.11822959 116.31606849 -100 131 C-98.60989576 139.87277475 -94.88773728 149.12575355 -89 156 C-88.34 156 -87.68 156 -87 156 C-86.67 156.99 -86.34 157.98 -86 159 C-77.77752306 166.01328916 -67.17328948 168.74182595 -56.59375 168.47265625 C-50.65492772 167.69157202 -45.40253884 165.51280876 -40 163 C-40 162.34 -40 161.68 -40 161 C-39.42121094 160.91621094 -38.84242188 160.83242187 -38.24609375 160.74609375 C-32.26517931 158.75939 -28.01814913 151.49303758 -25.125 146.1875 C-19.50075996 133.85962032 -18.92223159 117.24281011 -23.1015625 104.37890625 C-23.39804687 103.59386719 -23.69453125 102.80882812 -24 102 C-24.25523437 101.30777344 -24.51046875 100.61554688 -24.7734375 99.90234375 C-28.08515024 92.26109831 -34.48882046 84.67821629 -42 81 C-43.32 81 -44.64 81 -46 81 C-46 80.34 -46 79.68 -46 79 C-55.05308969 75.63140849 -64.8741791 76.13699736 -74 79 Z " fill="#1A2133" transform="translate(506,56)"/>
<path d="M0 0 C3.91979179 1.82473066 5.45265502 2.90531005 7.375 6.75 C7.58125 7.4925 7.7875 8.235 8 9 C8.66 9 9.32 9 10 9 C10.33 42.66 10.66 76.32 11 111 C18.425 103.575 18.425 103.575 26 96 C26.66 96 27.32 96 28 96 C28.25344177 95.42222305 28.50688354 94.84444611 28.76800537 94.24916077 C30.14425564 91.73664323 31.69414362 90.04506773 33.71191406 88.01342773 C34.47320618 87.24260361 35.23449829 86.47177948 36.01885986 85.67759705 C36.84279236 84.85457596 37.66672485 84.03155487 38.515625 83.18359375 C39.36421082 82.33072281 40.21279663 81.47785187 41.08709717 80.59913635 C42.88347171 78.79701993 44.68247162 76.99751728 46.48388672 75.20043945 C49.23422296 72.45325893 51.97098903 69.69304849 54.70703125 66.93164062 C56.45491763 65.18148081 58.20359003 63.43210556 59.953125 61.68359375 C60.76896057 60.85854843 61.58479614 60.03350311 62.425354 59.18345642 C67.32080147 54.32741028 71.35048744 50.46448342 78.4375 49.5625 C83.76188395 50.21637171 87.35762049 52.02914459 90.875 56.25 C93.00337146 61.4526858 93.63732435 65.0990153 91.8671875 70.37890625 C90.04293714 74.36140966 87.40683754 77.08542341 84.25 80.0625 C83.71721436 80.58054199 83.18442871 81.09858398 82.63549805 81.63232422 C78.88704999 85.24817954 74.97867752 88.64022787 71 92 C70.67 92.66 70.34 93.32 70 94 C69.34 94 68.68 94 68 94 C68 94.66 68 95.32 68 96 C66.63671875 97.33984375 66.63671875 97.33984375 64.6875 98.9375 C60.42465257 102.5368989 56.5384439 106.4186798 52.68237305 110.44311523 C51.49090704 111.66490714 50.24906136 112.83715331 49 114 C48.34 114 47.68 114 47 114 C49.22598844 116.72550218 51.45351728 119.44971592 53.68359375 122.171875 C54.97011916 123.74260754 56.25531875 125.31443836 57.53515625 126.890625 C60.63108654 130.67343371 64.03619635 134.05906082 67.50976562 137.4921875 C73.90004554 143.81120036 80.22775957 150.10072582 86 157 C90.35426028 162.15380186 94.86375094 166.96085317 99.75 171.625 C103.0443044 175.10232131 103.35080184 178.15026229 103.28125 182.87109375 C102.66733333 187.51810191 100.30770148 190.84175011 96.8125 193.9375 C92.79155676 195.456523 89.24294568 195.66954285 85 195 C80.17789804 192.54167351 76.62055878 188.9653739 73 185 C73 184.34 73 183.68 73 183 C72.34 183 71.68 183 71 183 C69.51953125 181.53125 69.51953125 181.53125 67.8125 179.5 C67.19246094 178.77167969 66.57242187 178.04335937 65.93359375 177.29296875 C65.29550781 176.53628906 64.65742187 175.77960938 64 175 C60.85318701 171.34542101 57.72385059 167.72385059 54.3125 164.3125 C51.99962077 161.99962077 50.04155326 159.55194158 48 157 C46.35697047 155.31002677 44.68528688 153.64783606 43 152 C37.42091967 146.5259871 32.05452355 140.96466283 27 135 C23.63251488 136.51947499 22.39159663 137.52100842 21 141 C20.34 141 19.68 141 19 141 C18.79375 141.556875 18.5875 142.11375 18.375 142.6875 C17 145 17 145 13.96435547 147.13549805 C11.15516578 149.43572606 11.0137551 149.93272342 10.22705078 153.78051758 C10.18642241 155.23465981 10.17743136 156.68993146 10.1953125 158.14453125 C10.18160614 158.91431808 10.16789978 159.68410492 10.15377808 160.47721863 C10.11654735 162.92291071 10.12018754 165.36656531 10.125 167.8125 C10.10686807 169.4759431 10.0860638 171.13935936 10.0625 172.80273438 C10.01071513 176.86882991 9.9955645 180.93359285 10 185 C9.34 185 8.68 185 8 185 C7.814375 185.721875 7.62875 186.44375 7.4375 187.1875 C5.42177983 191.13130033 3.02934528 193.17455076 -1 195 C-5.43759408 195.96689042 -9.1836328 195.87136534 -13.3125 193.890625 C-17.97560275 190.70188562 -20.23615644 187.38372987 -22 182 C-22.37752342 178.50326538 -22.37752342 178.50326538 -22.38095093 174.75146484 C-22.3856309 174.05621893 -22.39031087 173.36097301 -22.39513266 172.64465904 C-22.40702388 170.33321993 -22.39764896 168.02238019 -22.38818359 165.7109375 C-22.39225192 164.04640357 -22.39759527 162.38187233 -22.40411377 160.71734619 C-22.41776212 156.20910235 -22.41249899 151.70106503 -22.40297651 147.19281769 C-22.39536706 142.46887161 -22.4024291 137.74494289 -22.40713501 133.02099609 C-22.41258881 125.08883498 -22.40541079 117.15675774 -22.39111328 109.22460938 C-22.37478749 100.06152563 -22.38007627 90.89864217 -22.3965925 81.73556328 C-22.41021805 73.86020128 -22.41212179 65.98489948 -22.40427649 58.1095295 C-22.39960586 53.4094731 -22.39895835 48.70951076 -22.40888596 44.00946045 C-22.4175689 39.5901937 -22.4115095 35.1711845 -22.39420319 30.7519455 C-22.39024543 29.13265154 -22.3913602 27.51333581 -22.39799118 25.8940506 C-22.40622524 23.6785888 -22.39586372 21.46394524 -22.38095093 19.24853516 C-22.37981985 18.01044098 -22.37868877 16.7723468 -22.37752342 15.49673462 C-21.93599972 11.4072103 -20.78399175 8.68229098 -19 5 C-18.34 5 -17.68 5 -17 5 C-17 4.34 -17 3.68 -17 3 C-11.6840639 -0.98939058 -6.38791047 -0.77795933 0 0 Z " fill="#1A2133" transform="translate(1045,56)"/>
<path d="M0 0 C11.80043217 12.27641599 17.89291198 27.26249955 18.13671875 44.16796875 C18.16463501 45.44716187 18.16463501 45.44716187 18.19311523 46.75219727 C18.13800487 52.17494986 17.52971816 55.65123017 13.63671875 59.73046875 C7.58983186 63.3167401 2.13403606 64.30811486 -4.79858398 64.20043945 C-5.69401413 64.20262985 -6.58944427 64.20482025 -7.51200867 64.20707703 C-10.44068642 64.20936913 -13.36833319 64.18324818 -16.296875 64.15625 C-18.3418801 64.15132173 -20.38688973 64.1480257 -22.43190002 64.14628601 C-26.70108627 64.13867159 -30.96993418 64.11818118 -35.23901367 64.0871582 C-40.71917164 64.04740915 -46.19911085 64.0295183 -51.67939663 64.01984882 C-56.90608581 64.00989793 -62.13272139 63.99001037 -67.359375 63.96875 C-68.35911283 63.96535425 -69.35885067 63.9619585 -70.38888359 63.95845985 C-73.20390149 63.9469258 -76.01877855 63.92841548 -78.83374023 63.9074707 C-79.67267822 63.9047818 -80.51161621 63.9020929 -81.37597656 63.89932251 C-87.13343958 63.84538959 -87.13343958 63.84538959 -89.36328125 62.73046875 C-86.2543426 74.83763634 -81.48604637 83.15660132 -71.36328125 90.73046875 C-58.34132451 97.37578642 -45.38124773 98.10869195 -31.5859375 93.87890625 C-27.09148108 92.36225841 -23.15506928 90.73187482 -19.23828125 88.04296875 C-15.13925198 85.32431073 -11.27818443 84.41034096 -6.36328125 84.73046875 C-2.21875197 86.38828046 0.38268503 88.89026315 2.63671875 92.73046875 C3.4058088 95.92280285 3.44431714 98.54230257 2.63671875 101.73046875 C0.67407055 104.80953243 -1.55185259 107.39609246 -4.36328125 109.73046875 C-5.02328125 109.73046875 -5.68328125 109.73046875 -6.36328125 109.73046875 C-6.36328125 110.39046875 -6.36328125 111.05046875 -6.36328125 111.73046875 C-7.97265625 112.94921875 -7.97265625 112.94921875 -10.11328125 114.23046875 C-10.809375 114.65328125 -11.50546875 115.07609375 -12.22265625 115.51171875 C-13.28226563 116.115 -13.28226563 116.115 -14.36328125 116.73046875 C-15.0284375 117.11203125 -15.69359375 117.49359375 -16.37890625 117.88671875 C-18.36328125 118.73046875 -18.36328125 118.73046875 -22.36328125 118.73046875 C-22.36328125 119.39046875 -22.36328125 120.05046875 -22.36328125 120.73046875 C-45.40898719 127.54680431 -68.29796694 124.49915183 -89.36328125 113.73046875 C-89.36328125 113.07046875 -89.36328125 112.41046875 -89.36328125 111.73046875 C-89.915 111.64539063 -90.46671875 111.5603125 -91.03515625 111.47265625 C-102.08073444 107.95141488 -109.93199072 95.54291196 -115.11328125 85.85546875 C-121.28212127 72.72584304 -122.75568986 60.04403993 -122.36328125 45.73046875 C-122.34652344 44.84617187 -122.32976563 43.961875 -122.3125 43.05078125 C-121.33586159 24.24351579 -111.49327135 8.5789583 -98.36328125 -4.26953125 C-94.76455514 -7.26953125 -94.76455514 -7.26953125 -92.36328125 -7.26953125 C-92.36328125 -7.92953125 -92.36328125 -8.58953125 -92.36328125 -9.26953125 C-60.30867433 -27.19455763 -27.2786374 -26.19650964 0 0 Z M-82.48828125 19.91796875 C-86.67345407 26.19572798 -88.29858761 32.27761325 -89.36328125 39.73046875 C-64.28328125 39.73046875 -39.20328125 39.73046875 -13.36328125 39.73046875 C-15.67298336 27.02710714 -18.79608403 19.23558041 -29.36328125 11.73046875 C-46.91965024 0.43917498 -68.56558069 5.585777 -82.48828125 19.91796875 Z " fill="#1A2133" transform="translate(661.36328125,127.26953125)"/>
<path d="M0 0 C0.86753906 0.7734375 1.73507812 1.546875 2.62890625 2.34375 C13.16821422 12.27049015 21.59622013 27.65088174 22.3359375 42.41015625 C22.3595316 43.96081267 22.37241312 45.51166625 22.375 47.0625 C22.39949219 47.83916016 22.42398438 48.61582031 22.44921875 49.41601562 C22.47641474 54.76909278 21.4937877 57.72763415 18 62 C13.15038339 66.84961661 5.83650355 67.22421103 -0.68466187 67.25994873 C-1.49432404 67.25432922 -2.30398621 67.24870972 -3.13818359 67.24291992 C-4.45184906 67.24576744 -4.45184906 67.24576744 -5.79205322 67.24867249 C-8.66094163 67.25235067 -11.52957195 67.24172243 -14.3984375 67.23046875 C-16.40003428 67.22927566 -18.40163164 67.22882406 -20.40322876 67.2290802 C-24.58412209 67.22752071 -28.76492914 67.21926854 -32.94580078 67.20581055 C-38.31275925 67.1887554 -43.67962366 67.18499838 -49.04660606 67.18575573 C-53.17287092 67.18548439 -57.29911509 67.18001007 -61.42537308 67.17275429 C-63.4053901 67.16956719 -65.38540947 67.16760012 -67.36542892 67.16686058 C-70.12305487 67.1647012 -72.88057933 67.15596761 -75.63818359 67.14526367 C-76.45999115 67.14571686 -77.28179871 67.14617004 -78.12850952 67.14663696 C-83.771032 67.114484 -83.771032 67.114484 -86 66 C-85.01 67.485 -85.01 67.485 -84 69 C-83.54669289 70.53129353 -83.13384997 72.07483665 -82.75 73.625 C-80.52797355 81.34005632 -75.87748386 89.2490316 -68.7421875 93.2734375 C-57.52007287 99.06873849 -44.57089811 102.14815238 -32 99 C-24.58653708 96.41824858 -17.66536811 92.8969024 -10.7890625 89.13671875 C-7.57028862 87.82486553 -5.44512235 87.58509352 -2 88 C0.08203125 89.2421875 0.08203125 89.2421875 1.8125 90.875 C2.39644531 91.40867187 2.98039063 91.94234375 3.58203125 92.4921875 C6.32721515 95.41130867 6.28776894 98.05939151 6.203125 101.98828125 C5.65837869 107.38336493 1.28578547 111.32930893 -2.44921875 114.94140625 C-18.32152103 127.75105909 -38.6946227 128.4424432 -58.14404297 126.82128906 C-71.12685421 125.30657165 -84.13551197 118.42638499 -94 110 C-94.95712891 109.29037109 -94.95712891 109.29037109 -95.93359375 108.56640625 C-104.89655369 101.56027187 -111.06182027 90.5236914 -115 80 C-115.391875 78.989375 -115.78375 77.97875 -116.1875 76.9375 C-121.46884743 57.84339774 -119.17320439 35.40111835 -109.8125 18.15234375 C-100.13519951 1.32134914 -85.29610674 -9.91778073 -67 -16 C-65.824375 -16.4125 -64.64875 -16.825 -63.4375 -17.25 C-39.69256196 -22.43071375 -17.95273894 -16.06144553 0 0 Z M-61 11 C-61 11.66 -61 12.32 -61 13 C-61.86625 13.0825 -62.7325 13.165 -63.625 13.25 C-71.58687466 15.01930548 -77.01423144 21.31336019 -81.26171875 27.98046875 C-83.97059742 33.02562939 -84.70464566 37.17090548 -86 43 C-60.59 43 -35.18 43 -9 43 C-10.5800701 34.32020383 -10.5800701 34.32020383 -13.9375 26.9375 C-14.44152344 26.01839844 -14.94554687 25.09929687 -15.46484375 24.15234375 C-16.88803488 21.71025104 -16.88803488 21.71025104 -20 21 C-20 20.34 -20 19.68 -20 19 C-21.87410321 17.40268298 -21.87410321 17.40268298 -24.25 15.875 C-25.03890625 15.33617187 -25.8278125 14.79734375 -26.640625 14.2421875 C-29.14550338 12.68942188 -29.14550338 12.68942188 -33 13 C-33 12.34 -33 11.68 -33 11 C-42.99761747 8.97516608 -51.03532037 8.75443839 -61 11 Z " fill="#1A2133" transform="translate(813,124)"/>
<path d="M0 0 C9.84855822 9.2769198 19.66006367 21.73158474 20.97802734 35.70532227 C21.02706293 39.1997666 21.05879198 42.69268667 21.0625 46.1875 C21.08699219 47.40630859 21.11148437 48.62511719 21.13671875 49.88085938 C21.14058594 51.05583984 21.14445312 52.23082031 21.1484375 53.44140625 C21.15665527 54.50818604 21.16487305 55.57496582 21.17333984 56.67407227 C20.56531607 60.36712921 19.29697559 61.98306897 16.6875 64.625 C9.22978624 69.51206641 -1.59588169 67.98574809 -10.125 67.875 C-11.89379252 67.86296614 -13.66259201 67.85192258 -15.43139648 67.84179688 C-38.72709993 67.67543475 -62.022497 67.14564807 -85.3125 66.625 C-84.84365706 68.06164222 -84.37220342 69.49743262 -83.8996582 70.93286133 C-83.63739944 71.73250809 -83.37514069 72.53215485 -83.10493469 73.35603333 C-79.68134534 83.15874668 -74.52722475 90.60210365 -65.3125 95.375 C-54.15832965 100.7375819 -40.42622242 102.79886976 -28.51953125 98.65234375 C-23.17066514 96.50034199 -18.13036433 93.99163152 -13.0625 91.25 C-9.542186 89.46913527 -6.85590493 88.161152 -2.875 88.4375 C1.31605134 89.83451711 3.0654602 91.07753439 5.6875 94.625 C7.51356316 98.73364212 7.91840438 100.76295696 6.75 105.125 C1.70371311 114.869554 -8.94849693 120.93443676 -19 124.4375 C-20.43511299 124.84190199 -21.87288518 125.23692857 -23.3125 125.625 C-24.28558105 125.89461548 -24.28558105 125.89461548 -25.27832031 126.16967773 C-31.66711277 127.77144145 -37.81157396 127.92413357 -44.375 127.875 C-45.41205078 127.88273438 -46.44910156 127.89046875 -47.51757812 127.8984375 C-53.48340145 127.88330542 -58.59712804 127.33445098 -64.3125 125.625 C-65.405625 125.356875 -66.49875 125.08875 -67.625 124.8125 C-86.17745027 118.83798212 -101.34080315 107.12487021 -110.7578125 89.99609375 C-116.20902212 78.78357577 -117.81501918 67.42477627 -117.6875 55.0625 C-117.69910156 53.93392578 -117.71070313 52.80535156 -117.72265625 51.64257812 C-117.68576079 40.94904401 -115.67112537 31.15180996 -110.75 21.625 C-110.40557861 20.95202881 -110.06115723 20.27905762 -109.70629883 19.58569336 C-100.98890736 3.22773042 -87.39731943 -7.77062597 -70.3125 -14.375 C-67.29962722 -15.24099953 -64.40595112 -15.84164636 -61.3125 -16.375 C-60.9825 -16.705 -60.6525 -17.035 -60.3125 -17.375 C-37.89462885 -20.54734026 -16.90631956 -15.29581734 0 0 Z M-76.81640625 22.6484375 C-81.82638427 29.26736408 -83.49890279 35.46381256 -85.3125 43.625 C-59.9025 43.625 -34.4925 43.625 -8.3125 43.625 C-11.94828405 30.29379181 -14.7779405 22.45414405 -26.09375 14.76171875 C-28.4903335 13.32102221 -28.4903335 13.32102221 -32.3125 13.625 C-32.3125 12.965 -32.3125 12.305 -32.3125 11.625 C-48.71165364 7.86125982 -64.75173692 9.51328192 -76.81640625 22.6484375 Z " fill="#1A2133" transform="translate(1538.3125,123.375)"/>
<path d="M0 0 C0.83660156 0.72960937 1.67320313 1.45921875 2.53515625 2.2109375 C13.51620371 12.42823359 19.83757355 24.43024956 23 39 C23.28810547 40.12148437 23.28810547 40.12148437 23.58203125 41.265625 C26.64141222 61.28026687 22.82429436 80.82430585 11.2890625 97.46875 C6.31834808 104.04226622 0.58004389 109.07680169 -6 114 C-6.74121094 114.5671875 -7.48242188 115.134375 -8.24609375 115.71875 C-22.8339406 126.21129305 -41.70361142 129.46762427 -59.31640625 127.45703125 C-64.28680334 126.61054441 -69.14457897 125.34731578 -74 124 C-74 123.34 -74 122.68 -74 122 C-74.66 121.9175 -75.32 121.835 -76 121.75 C-83.89080422 119.77729894 -89.79403411 115.06151971 -96 110 C-97.5159375 108.8553125 -97.5159375 108.8553125 -99.0625 107.6875 C-99.701875 107.130625 -100.34125 106.57375 -101 106 C-101 105.34 -101 104.68 -101 104 C-102.485 103.505 -102.485 103.505 -104 103 C-105.1875 100.4375 -105.1875 100.4375 -106 98 C-106.66 98 -107.32 98 -108 98 C-115.4328806 87.94595243 -120.73043094 74.56606559 -121 62 C-121.04060547 60.36417969 -121.04060547 60.36417969 -121.08203125 58.6953125 C-121.32192078 38.41374354 -116.55995634 19.8593747 -102.05517578 4.95263672 C-100.71630078 3.62203489 -99.35871639 2.3103348 -98 1 C-97.37867188 0.34773438 -96.75734375 -0.30453125 -96.1171875 -0.9765625 C-88.16100594 -8.79003229 -75.77704286 -15.43252181 -64.6875 -16.78125 C-62.96679122 -16.82976273 -62.96679122 -16.82976273 -62 -18 C-39.04131655 -21.67665749 -17.34244177 -15.31329491 0 0 Z M-62 11 C-62 11.66 -62 12.32 -62 13 C-62.804375 13.020625 -63.60875 13.04125 -64.4375 13.0625 C-72.94702066 15.30184754 -79.53682336 22.66184204 -84 30 C-89.7952345 42.98202987 -91.65962779 58.79883037 -87.1015625 72.515625 C-81.58961063 84.94683561 -72.78115727 93.80125315 -60.07421875 98.75 C-49.07155801 102.03029637 -38.67987471 100.03652118 -28.7109375 94.796875 C-19.41735071 89.2972993 -11.74616311 80.56636268 -9 70 C-5.72282693 54.56224762 -6.42220949 40.62138406 -15 27 C-21.7528815 17.69836557 -30.40472178 11.23796501 -41.890625 9.2421875 C-48.96801168 8.42959866 -55.10551488 9.41765915 -62 11 Z " fill="#1A2133" transform="translate(1275,124)"/>
<path d="M0 0 C1.32 0 2.64 0 4 0 C3.97643433 1.05405029 3.97643433 1.05405029 3.95239258 2.12939453 C3.71301652 14.55472895 3.61891557 26.85357772 5.3125 39.1875 C5.48906128 40.50161865 5.48906128 40.50161865 5.66918945 41.84228516 C6.49046042 47.25121886 7.98297298 51.91988142 10 57 C10.43977279 58.6556152 10.84650496 60.32125518 11.1875 62 C11.42533203 63.1446875 11.42533203 63.1446875 11.66796875 64.3125 C11.77753906 64.869375 11.88710937 65.42625 12 66 C12.66 66 13.32 66 14 66 C14.67057887 67.7902061 15.3363469 69.58221489 16 71.375 C16.37125 72.37273437 16.7425 73.37046875 17.125 74.3984375 C18 77 18 77 18 79 C18.66 79 19.32 79 20 79 C20.67154933 80.28913487 21.33708859 81.58140204 22 82.875 C22.37125 83.59429687 22.7425 84.31359375 23.125 85.0546875 C24 87 24 87 24 89 C24.66 89 25.32 89 26 89 C27.3671875 90.7578125 27.3671875 90.7578125 28.875 93.125 C29.40738281 93.94742188 29.93976563 94.76984375 30.48828125 95.6171875 C31.23658203 96.79667969 31.23658203 96.79667969 32 98 C34.67944995 102.22216355 37.42713481 105.5102247 41 109 C42.17620803 110.32492398 43.34224914 111.65891766 44.5 113 C49.46962339 118.70389323 54.73520891 123.47704769 60.6953125 128.1328125 C63 130 63 130 64.46875 131.484375 C76.4140134 143.30774796 92.30355281 152.07777488 107 160 C107.75522949 160.40847168 108.51045898 160.81694336 109.28857422 161.23779297 C111.58521284 162.47673744 113.88521491 163.70908284 116.1875 164.9375 C116.89422852 165.31519531 117.60095703 165.69289063 118.32910156 166.08203125 C121.82567187 167.92889441 125.28452365 169.62202722 129 171 C129 171.99 129 172.98 129 174 C116.38566921 174.09317538 103.77142193 174.16400443 91.15681553 174.20724869 C85.29769695 174.22801638 79.43881591 174.25613383 73.57983398 174.30175781 C67.91284325 174.34560452 62.24607925 174.36921818 56.57893181 174.37950897 C54.42985407 174.38683128 52.28078704 174.40112728 50.13180733 174.42292023 C24.34257764 174.67376199 2.14336796 168.94393513 -18 152 C-24.30291179 145.5201166 -30.29755998 138.28641339 -34 130 C-34.495 128.96875 -34.99 127.9375 -35.5 126.875 C-43.16943969 108.04632267 -41.79337483 86.19846098 -33.97949219 67.56665039 C-33.29954178 66.05192011 -32.60788918 64.54234384 -31.90039062 63.0402832 C-30.59976814 60.09307547 -29.79602174 57.11775182 -29 54 C-28.34 54 -27.68 54 -27 54 C-26.69255859 52.96939453 -26.69255859 52.96939453 -26.37890625 51.91796875 C-26.10949219 51.01691406 -25.84007812 50.11585938 -25.5625 49.1875 C-25.29566406 48.29417969 -25.02882813 47.40085938 -24.75390625 46.48046875 C-24.19612127 44.64526945 -23.60655425 42.81966274 -23 41 C-22.34 41 -21.68 41 -21 41 C-20.69255859 39.95199219 -20.69255859 39.95199219 -20.37890625 38.8828125 C-20.10949219 37.97273438 -19.84007813 37.06265625 -19.5625 36.125 C-19.29566406 35.22007812 -19.02882813 34.31515625 -18.75390625 33.3828125 C-18 31 -18 31 -17 29 C-16.34 29 -15.68 29 -15 29 C-14.82984375 28.40832031 -14.6596875 27.81664062 -14.484375 27.20703125 C-12.97671326 22.29109164 -11.40151458 18.93300124 -8 15 C-6.96567096 13.01753602 -5.96761608 11.01586684 -5 9 C-3.69287436 6.65110506 -2.34337525 4.3285171 -1 2 C-0.67 1.34 -0.34 0.68 0 0 Z " fill="#00E367" transform="translate(61,147)"/>
<path d="M0 0 C13.84742642 -0.04676324 27.69484056 -0.08187697 41.54232979 -0.10362434 C47.97225813 -0.11406192 54.40213343 -0.12822081 60.83203125 -0.15087891 C67.03711341 -0.17260797 73.24214454 -0.18456882 79.44726181 -0.18975449 C81.81473468 -0.19345011 84.18220476 -0.20066667 86.54965591 -0.21146011 C89.86535938 -0.22597566 93.18085191 -0.22797789 96.49658203 -0.22705078 C97.4755394 -0.23424133 98.45449677 -0.24143188 99.46311951 -0.24884033 C104.39942742 -0.23390296 108.36373803 0.0951289 113 2 C113.7528125 2.18820313 114.505625 2.37640625 115.28125 2.5703125 C131.03122185 6.50780546 145.0254621 17.51279224 155 30 C155.66128906 30.79148437 156.32257813 31.58296875 157.00390625 32.3984375 C167.82049744 46.49599079 170.95522812 64.68181256 169 82 C167.78717163 88.78647957 165.96646812 95.3982856 164 102 C163.34 102 162.68 102 162 102 C161.87882813 102.56847656 161.75765625 103.13695312 161.6328125 103.72265625 C160.58677946 108.54245464 159.40795516 113.2732934 158 118 C157.34 118 156.68 118 156 118 C155.69255859 119.03060547 155.69255859 119.03060547 155.37890625 120.08203125 C155.10949219 120.98308594 154.84007812 121.88414062 154.5625 122.8125 C154.29566406 123.70582031 154.02882813 124.59914063 153.75390625 125.51953125 C153.19612127 127.35473055 152.60655425 129.18033726 152 131 C151.34 131 150.68 131 150 131 C149.69255859 132.04800781 149.69255859 132.04800781 149.37890625 133.1171875 C148.97478516 134.48230469 148.97478516 134.48230469 148.5625 135.875 C148.29566406 136.77992188 148.02882813 137.68484375 147.75390625 138.6171875 C147 141 147 141 146 143 C145.34 143 144.68 143 144 143 C143.84144531 143.556875 143.68289063 144.11375 143.51953125 144.6875 C142.02798079 149.5659413 140.21565125 153.63834796 137.39453125 157.8828125 C135.27035282 161.10775567 133.36885368 164.46227083 131.4296875 167.80078125 C130.09843911 169.8485759 128.87179578 171.43679758 127 173 C126.34 173 125.68 173 125 173 C125.01047363 172.24082275 125.02094727 171.48164551 125.03173828 170.69946289 C125.27670634 150.90227104 125.27670634 150.90227104 123.4375 131.22265625 C123.0576624 128.42474533 122.91448727 125.81657553 123 123 C122.34 123 121.68 123 121 123 C120.54560547 121.45892578 120.54560547 121.45892578 120.08203125 119.88671875 C117.81450403 112.34046117 115.40148838 105.13472402 111.91796875 98.0390625 C111 96 111 96 111 94 C110.34 94 109.68 94 109 94 C108.74605469 93.38511719 108.49210937 92.77023438 108.23046875 92.13671875 C107.88628906 91.32847656 107.54210937 90.52023438 107.1875 89.6875 C106.85105469 88.88699219 106.51460938 88.08648437 106.16796875 87.26171875 C105.00473218 85.00916365 103.83773007 83.71065299 102 82 C99 77.44444444 99 77.44444444 99 75 C98.34 75 97.68 75 97 75 C95.6328125 73.42578125 95.6328125 73.42578125 94.125 71.3125 C93.59261719 70.5803125 93.06023437 69.848125 92.51171875 69.09375 C92.01285156 68.4028125 91.51398438 67.711875 91 67 C88.8617907 64.21384849 86.76583435 61.77115629 84.25 59.3125 C82 57 82 57 82 55 C81.41347656 54.74347656 80.82695312 54.48695312 80.22265625 54.22265625 C77.79687071 52.88826104 76.32471299 51.45514672 74.4375 49.4375 C66.7440278 41.57369263 58.03524827 35.17365025 48.9453125 29.04296875 C47.03553664 27.71828337 45.16724847 26.33084663 43.35546875 24.875 C41.33195157 23.26424005 39.46029521 22.02064572 37.1875 20.8125 C33.4866799 18.81356205 29.81757505 16.76851798 26.16088867 14.69042969 C13.54821104 7.31097007 13.54821104 7.31097007 0 2 C0 1.34 0 0.68 0 0 Z " fill="#F6141F" transform="translate(148,25)"/>
<path d="M0 0 C0.66 0 1.32 0 2 0 C2.06964156 13.12640694 2.12288319 26.2527696 2.15543652 39.37932396 C2.17106383 45.4751172 2.19224862 51.57078363 2.22631836 57.66650391 C2.25901624 63.55390284 2.27687507 69.44118011 2.28463173 75.32866287 C2.29015652 77.57003315 2.30094495 79.81139709 2.31719017 82.0527153 C2.33910284 85.20244261 2.34196112 88.35167306 2.34057617 91.50146484 C2.351362 92.41928741 2.36214783 93.33710999 2.3732605 94.28274536 C2.34712988 99.8078881 1.51894356 104.48762956 -0.23975658 109.72992897 C-1.37028594 113.10566612 -2.16711748 116.54033413 -3 120 C-3.66 120 -4.32 120 -5 120 C-5.0825 120.66 -5.165 121.32 -5.25 122 C-6.94358325 128.774333 -10.70189009 134.57080853 -15 140 C-15.66 140 -16.32 140 -17 140 C-17.25910156 140.74507812 -17.51820313 141.49015625 -17.78515625 142.2578125 C-21.51091459 150.66772361 -30.39067088 155.52325397 -38 160 C-38.67546875 160.41378906 -39.3509375 160.82757813 -40.046875 161.25390625 C-56.37085014 171.04106833 -78.92872608 169.26781848 -96.734375 164.81640625 C-99 164 -99 164 -101 162 C-103.18745776 161.22960999 -105.40008429 160.52938697 -107.625 159.875 C-108.81351563 159.52179688 -110.00203125 159.16859375 -111.2265625 158.8046875 C-112.14179688 158.53914062 -113.05703125 158.27359375 -114 158 C-114 157.34 -114 156.68 -114 156 C-115.3303125 155.814375 -115.3303125 155.814375 -116.6875 155.625 C-119.70387502 155.05587264 -122.20326054 154.23385564 -125 153 C-125 152.34 -125 151.68 -125 151 C-126.5159375 150.5978125 -126.5159375 150.5978125 -128.0625 150.1875 C-135.23208981 148.11852018 -141.57005096 144.70269512 -148 141 C-148.97710937 140.43796875 -149.95421875 139.8759375 -150.9609375 139.296875 C-153.01655407 138.10596364 -155.06742663 136.90682308 -157.11328125 135.69921875 C-158.91178476 134.64055972 -160.72023048 133.59839683 -162.54296875 132.58203125 C-164.75 131.3125 -164.75 131.3125 -168 129 C-168 127.68 -168 126.36 -168 125 C-167.00484375 125.02320313 -166.0096875 125.04640625 -164.984375 125.0703125 C-153.54292425 125.24921518 -142.35387893 124.37382447 -131 123 C-129.71351563 122.85433594 -128.42703125 122.70867187 -127.1015625 122.55859375 C-123.84561906 122.18483941 -123.84561906 122.18483941 -121 120 C-119.11680386 119.49223452 -117.21832302 119.03983984 -115.3125 118.625 C-110.05221779 117.36862379 -105.69482955 115.63081565 -101 113 C-100.071875 112.54625 -99.14375 112.0925 -98.1875 111.625 C-91.13010935 108.02711457 -84.32736418 104.48351686 -78.09765625 99.55859375 C-75.63959487 97.73221295 -73.0629889 96.20029334 -70.4375 94.625 C-66.05463144 91.88570715 -63.04084249 89.0627865 -59.828125 85.0546875 C-56.96288966 81.83435889 -53.56722979 79.35167579 -50.13671875 76.76171875 C-47.79237312 75.00175791 -47.79237312 75.00175791 -46 72 C-45.34 72 -44.68 72 -44 72 C-43.79375 71.319375 -43.5875 70.63875 -43.375 69.9375 C-41.93346201 66.85785066 -40.08967115 64.66939867 -37.83984375 62.14453125 C-32.04912356 55.39483829 -26.88729593 48.09240713 -22.19140625 40.546875 C-21.60166016 39.78117187 -21.60166016 39.78117187 -21 39 C-20.34 39 -19.68 39 -19 39 C-18.87882813 38.2575 -18.75765625 37.515 -18.6328125 36.75 C-18.02067128 34.08983076 -17.25117262 32.33311385 -15.875 30 C-15.21371094 28.84951172 -15.21371094 28.84951172 -14.5390625 27.67578125 C-14.03117188 26.79277344 -13.52328125 25.90976563 -13 25 C-11.74092054 22.73418824 -10.49125123 20.46312726 -9.25 18.1875 C-8.65703125 17.10855469 -8.0640625 16.02960938 -7.453125 14.91796875 C-5.95320132 12.16991173 -5.95320132 12.16991173 -5.421875 9.67578125 C-5.28265625 9.12277344 -5.1434375 8.56976563 -5 8 C-4.34 7.67 -3.68 7.34 -3 7 C-1.94647157 4.69034152 -0.94280904 2.3570226 0 0 Z " fill="#FECE00" transform="translate(315,152)"/>
<path d="M0 0 C2.16990936 0.95629267 4.34490778 1.90040802 6.52026367 2.84423828 C9.68502352 4.21853342 12.84232993 5.60950315 16 7 C16 7.66 16 8.32 16 9 C17.2065625 9.0928125 17.2065625 9.0928125 18.4375 9.1875 C23.19906355 10.27347063 26.81431723 12.5474515 31 15 C32.89205503 16.04851383 34.78798003 17.09007132 36.6875 18.125 C37.60660156 18.62773438 38.52570313 19.13046875 39.47265625 19.6484375 C41.5050187 20.73529594 43.54394969 21.76187539 45.625 22.75 C48 24 48 24 49 26 C51.01669827 27.13350534 51.01669827 27.13350534 53 28 C52.67 29.65 52.34 31.3 52 33 C46.25 33.125 46.25 33.125 44 32 C42.26223723 32.02876423 40.52543963 32.13099795 38.79296875 32.26953125 C37.73650146 32.35283691 36.68003418 32.43614258 35.59155273 32.52197266 C34.46821533 32.61784668 33.34487793 32.7137207 32.1875 32.8125 C31.05578369 32.9057959 29.92406738 32.9990918 28.75805664 33.09521484 C21.10841152 33.75132261 13.55164846 34.58875754 6 36 C6 36.66 6 37.32 6 38 C4.17662109 38.39832031 4.17662109 38.39832031 2.31640625 38.8046875 C0.73167183 39.16101832 -0.85295831 39.51781314 -2.4375 39.875 C-3.23994141 40.04902344 -4.04238281 40.22304687 -4.86914062 40.40234375 C-6.9282378 40.87150513 -8.96658343 41.42972759 -11 42 C-11.495 42.99 -11.495 42.99 -12 44 C-13.99609375 45.0703125 -13.99609375 45.0703125 -16.4375 46.125 C-17.24058594 46.47820312 -18.04367188 46.83140625 -18.87109375 47.1953125 C-21 48 -21 48 -23 48 C-23.495 48.99 -23.495 48.99 -24 50 C-25.72306756 51.04572376 -27.47983701 52.03614162 -29.25 53 C-36.35273133 57.04779313 -42.63107559 61.89631158 -49 67 C-49.89847656 67.70898438 -50.79695313 68.41796875 -51.72265625 69.1484375 C-54.33727906 71.27422003 -56.64732907 73.58851229 -59 76 C-59.845625 76.825 -60.69125 77.65 -61.5625 78.5 C-64.00896893 80.92763704 -64.00896893 80.92763704 -66 83.5 C-68.16110753 86.20138441 -70.55590747 88.55590747 -73 91 C-73.33 91.66 -73.66 92.32 -74 93 C-74.66 93 -75.32 93 -76 93 C-76.23332031 93.71027344 -76.46664062 94.42054688 -76.70703125 95.15234375 C-78.24161762 98.53214273 -80.22363064 100.78923204 -82.6875 103.5625 C-88.60193359 110.39543054 -93.02298477 117.89300742 -97 126 C-97.66 126 -98.32 126 -99 126 C-99.38478516 127.28003906 -99.38478516 127.28003906 -99.77734375 128.5859375 C-101.06429159 132.17952349 -102.69651104 135.29816374 -104.5625 138.625 C-107.39530763 143.57870875 -107.39530763 143.57870875 -109 149 C-109.66 149 -110.32 149 -111 149 C-111.268125 149.804375 -111.53625 150.60875 -111.8125 151.4375 C-112.204375 152.283125 -112.59625 153.12875 -113 154 C-113.99 154.33 -114.98 154.66 -116 155 C-116.11664812 142.56790299 -116.20509391 130.13593948 -116.25906086 117.70340347 C-116.2849826 111.92837224 -116.32005657 106.15371966 -116.37719727 100.37890625 C-116.43214556 94.78969434 -116.46155093 89.20084303 -116.47438622 83.61138153 C-116.48351474 81.49546392 -116.50133463 79.37956255 -116.52865028 77.26380157 C-116.70430083 63.07414176 -115.12073129 50.59820885 -111 37 C-110.34 37 -109.68 37 -109 37 C-108.72736328 35.93458984 -108.72736328 35.93458984 -108.44921875 34.84765625 C-108.19785156 33.92855469 -107.94648437 33.00945312 -107.6875 32.0625 C-107.32205078 30.68771484 -107.32205078 30.68771484 -106.94921875 29.28515625 C-106.63597656 28.53105469 -106.32273437 27.77695312 -106 27 C-104.515 26.505 -104.515 26.505 -103 26 C-102.731875 25.13375 -102.46375 24.2675 -102.1875 23.375 C-98.56776166 13.08732262 -87.26150447 5.47013688 -79 -1 C-78.37480469 -1.51175781 -77.74960938 -2.02351563 -77.10546875 -2.55078125 C-55.94691665 -17.97789712 -21.48241784 -10.05500392 0 0 Z " fill="#0077E3" transform="translate(137,35)"/>
<path d="M0 0 C4.50544666 2.61416775 7.64999046 5.26357276 9.84375 10.08984375 C10.44250186 14.08664037 10.713092 18.05251168 10.84375 22.08984375 C11.95169922 20.80400391 11.95169922 20.80400391 13.08203125 19.4921875 C19.32735253 12.39292048 25.30048791 6.43321211 33.84375 2.08984375 C34.53339844 1.73277344 35.22304687 1.37570313 35.93359375 1.0078125 C43.38007032 -2.12228034 51.93277644 -1.15538735 59.84375 -0.91015625 C59.84375 -0.25015625 59.84375 0.40984375 59.84375 1.08984375 C60.400625 1.13109375 60.9575 1.17234375 61.53125 1.21484375 C65.12215229 2.57356353 67.17763314 4.71825294 68.84375 8.08984375 C69.67182815 12.51940465 69.89417292 16.88217523 67.921875 21.02734375 C65.18127198 24.58656845 62.02746271 26.64456118 57.84375 28.08984375 C54.87437725 28.45080947 51.91439527 28.66407931 48.9296875 28.859375 C36.85626762 29.76106079 26.06417168 33.89908276 17.84375 43.08984375 C15.8949584 45.97584048 14.28719013 48.92322704 12.84375 52.08984375 C12.4982309 52.80680923 12.15271179 53.52377472 11.79672241 54.26246643 C10.62798828 57.72998799 10.56656413 60.9245967 10.58837891 64.53881836 C10.58294823 65.63736397 10.58294823 65.63736397 10.57740784 66.75810242 C10.57053561 68.34205318 10.56800431 69.92602751 10.56935501 71.5099926 C10.57032322 74.01997161 10.55734385 76.52952586 10.54037476 79.03944397 C10.49418857 86.17331683 10.46949635 93.30714479 10.46289062 100.44116211 C10.45786973 104.81078708 10.43359347 109.17996646 10.39756393 113.54944038 C10.38778189 115.21073288 10.38542529 116.87208678 10.39073563 118.53339958 C10.39782451 120.85990767 10.38048927 123.18509158 10.35791016 125.51147461 C10.36608261 126.19270386 10.37425507 126.87393311 10.38267517 127.57580566 C10.29782788 132.50613494 8.88997307 135.27352917 5.84375 139.08984375 C1.14521447 143.22902981 -1.60511103 144.42049248 -7.7578125 144.390625 C-11.57883577 143.9114413 -13.99948997 142.23912718 -17.15625 140.08984375 C-17.15625 139.42984375 -17.15625 138.76984375 -17.15625 138.08984375 C-17.81625 138.08984375 -18.47625 138.08984375 -19.15625 138.08984375 C-22.44182197 131.8934653 -22.57859306 126.58424937 -22.52856445 119.65014648 C-22.53221512 118.5175943 -22.53586578 117.38504211 -22.53962708 116.21817017 C-22.54771197 112.48643858 -22.53413985 108.75514397 -22.51953125 105.0234375 C-22.51901243 102.42464702 -22.51953096 99.82585614 -22.52104187 97.22706604 C-22.52095224 91.78583429 -22.51088135 86.34476168 -22.49243164 80.90356445 C-22.47125609 74.62269863 -22.46775748 68.3420157 -22.4739936 62.0611214 C-22.47969781 56.0046635 -22.47392425 49.94828646 -22.46282005 43.89183235 C-22.4589724 41.32062094 -22.45781803 38.74940403 -22.4594059 36.17819023 C-22.4597769 32.5854026 -22.44714651 28.99289242 -22.4309082 25.40014648 C-22.43338562 24.33867905 -22.43586304 23.27721161 -22.43841553 22.18357849 C-22.38917645 15.35463985 -21.9912906 9.65999324 -17.28125 4.33984375 C-16.78882813 3.7675 -16.29640625 3.19515625 -15.7890625 2.60546875 C-11.3009544 -1.56052633 -5.60942275 -2.36774547 0 0 Z " fill="#1A2133" transform="translate(1344.15625,106.91015625)"/>
<path d="" fill="#1A2133" transform="translate(0,0)"/>
<path d="M0 0 C0.66 0.66 1.32 1.32 2 2 C1.34 2 0.68 2 0 2 C0 1.34 0 0.68 0 0 Z " fill="#1A2133" transform="translate(797,153)"/>
<path d="" fill="#1A2133" transform="translate(0,0)"/>
<path d="M0 0 C2 1 2 1 2 1 Z " fill="#1A2133" transform="translate(658,236)"/>
<path d="M0 0 C2 1 2 1 2 1 Z " fill="#1A2133" transform="translate(396,236)"/>
<path d="" fill="#1A2133" transform="translate(0,0)"/>
<path d="" fill="#1A2133" transform="translate(0,0)"/>
<path d="" fill="#1A2133" transform="translate(0,0)"/>
<path d="" fill="#1A2133" transform="translate(0,0)"/>
<path d="" fill="#1A2133" transform="translate(0,0)"/>
<path d="" fill="#1A2133" transform="translate(0,0)"/>
<path d="" fill="#1A2133" transform="translate(0,0)"/>
<path d="" fill="#1A2133" transform="translate(0,0)"/>
<path d="" fill="#1A2133" transform="translate(0,0)"/>
<path d="" fill="#1A2133" transform="translate(0,0)"/>
<path d="" fill="#1A2133" transform="translate(0,0)"/>
<path d="" fill="#1A2133" transform="translate(0,0)"/>
<path d="" fill="#1A2133" transform="translate(0,0)"/>
<path d="" fill="#1A2133" transform="translate(0,0)"/>
<path d="" fill="#1A2133" transform="translate(0,0)"/>
</svg>
