<?xml version="1.0" encoding="UTF-8"?>
<svg version="1.1" xmlns="http://www.w3.org/2000/svg" width="1772" height="417">
<path d="M0 0 C2.49162683 1.93034712 4.8513154 3.94019143 7.19140625 6.05078125 C7.87589844 6.64246094 8.56039063 7.23414063 9.265625 7.84375 C24.44745344 21.83250745 31.62152551 42.17744557 32.4765625 62.43359375 C33.03507321 85.58276164 27.92621779 108.4937069 11.59155273 125.796875 C-3.07230973 140.64183405 -20.65343564 148.21888278 -41.37109375 148.36328125 C-50.26559377 148.37643339 -57.59425603 147.70792745 -65.80859375 144.05078125 C-66.76894531 143.62667969 -67.72929688 143.20257813 -68.71875 142.765625 C-78.39349446 137.98813771 -84.61001534 131.32328139 -89.80859375 122.05078125 C-89.81223938 122.93725845 -89.81588501 123.82373566 -89.81964111 124.73707581 C-89.85757425 133.1086039 -89.91448735 141.47974453 -89.99249649 149.85099888 C-90.03193459 154.1543431 -90.0641409 158.45748382 -90.07958984 162.76098633 C-90.09478083 166.91743932 -90.129269 171.07333272 -90.17690277 175.22953606 C-90.19169154 176.81182924 -90.19963333 178.39420234 -90.2004776 179.97656441 C-90.20285673 182.20055281 -90.23000827 184.42300649 -90.26269531 186.64672852 C-90.27601898 188.54202049 -90.27601898 188.54202049 -90.28961182 190.4756012 C-91.11511297 196.1623411 -93.30917121 199.85736331 -97.87109375 203.48828125 C-102.62300295 205.85399467 -107.64113678 205.81575222 -112.80859375 205.05078125 C-117.72865442 202.72493439 -120.1209081 199.72934517 -122.80859375 195.05078125 C-124.00154135 191.47193846 -123.9567068 188.2175547 -123.95576477 184.49275208 C-123.95944146 183.71587483 -123.96311815 182.93899758 -123.96690625 182.13857859 C-123.97794744 179.52703078 -123.98178768 176.91552275 -123.9855957 174.30395508 C-123.99186006 172.43474196 -123.99850683 170.56553008 -124.00550842 168.69631958 C-124.02292132 163.61141583 -124.03347113 158.52652149 -124.04171395 153.44159532 C-124.04686385 150.26469335 -124.0529396 147.0877943 -124.05922508 143.91089439 C-124.07827858 133.97113847 -124.09250899 124.03138999 -124.10083705 114.09161931 C-124.11060892 102.61796946 -124.13692654 91.14451255 -124.17733794 79.67093068 C-124.20750036 70.80287634 -124.22230608 61.93487729 -124.22561806 53.06677264 C-124.22796852 47.77021045 -124.2369284 42.47385435 -124.26207924 37.17734718 C-124.28536688 32.19261042 -124.28959033 27.20821534 -124.27931786 22.22343826 C-124.27882255 20.39653194 -124.28514155 18.56960876 -124.2988739 16.74275398 C-124.3166113 14.24267153 -124.3094782 11.74381289 -124.29634094 9.24372864 C-124.30731019 8.5259066 -124.31827943 7.80808457 -124.32958108 7.06851035 C-124.26160617 1.68648021 -122.8089999 -2.54037437 -119.80859375 -6.94921875 C-114.3991211 -11.25471739 -109.68153105 -12.65480547 -102.80859375 -11.94921875 C-97.1335215 -9.94625207 -93.50184286 -6.33571696 -90.80859375 -0.94921875 C-90.57909056 1.25514525 -90.39783442 3.46470298 -90.24609375 5.67578125 C-90.16230469 6.86429688 -90.07851563 8.0528125 -89.9921875 9.27734375 C-89.93160156 10.19257813 -89.87101563 11.1078125 -89.80859375 12.05078125 C-89.47988281 11.56609375 -89.15117188 11.08140625 -88.8125 10.58203125 C-79.71148046 -2.24325374 -67.93516368 -9.63800748 -52.43359375 -12.4765625 C-33.60437984 -14.93166475 -15.63724127 -10.85254992 0 0 Z M-78.7734375 28.71875 C-90.99670633 42.72506764 -92.83631872 59.24830098 -91.80859375 77.05078125 C-89.93744672 91.21124141 -82.81766347 103.50614879 -71.91015625 112.640625 C-62.97749321 118.84072234 -51.51485186 121.39765326 -40.80859375 120.05078125 C-32.3745006 118.28665836 -25.62020392 115.28163801 -18.80859375 110.05078125 C-17.94234375 109.47328125 -17.07609375 108.89578125 -16.18359375 108.30078125 C-6.41633269 99.04758656 -1.05303504 85.79049575 -0.5078125 72.4375 C-0.30332904 56.0822596 -2.90417245 41.18539632 -14.49609375 28.67578125 C-20.9528661 22.74660508 -29.13668779 17.68698992 -37.80859375 16.05078125 C-38.45699219 15.91929687 -39.10539062 15.7878125 -39.7734375 15.65234375 C-54.26838275 13.29331107 -68.28219192 18.76063487 -78.7734375 28.71875 Z " fill="#FFFFFF" transform="translate(1108.80859375,140.94921875)"/>
<path d="M0 0 C3.83084349 2.61193874 6.65161815 5.67823629 8.75 9.875 C8.85425686 12.43078755 8.89779715 14.95971734 8.89717102 17.51605225 C8.90084771 18.31390396 8.9045244 19.11175568 8.9083125 19.93378472 C8.91937468 22.62220404 8.92319746 25.31058474 8.92700195 27.99902344 C8.93326469 29.92059452 8.93991132 31.84216438 8.94691467 33.76373291 C8.96434208 38.99525124 8.97488119 44.22676041 8.9831202 49.45830059 C8.98826669 52.72513425 8.99434258 55.99196505 9.00063133 59.25879669 C9.0196883 69.47513081 9.03391834 79.69145768 9.0422433 89.90780616 C9.05201845 101.70975655 9.07834316 113.51151951 9.11874419 125.31340384 C9.14888215 134.4293877 9.16370998 143.54531777 9.16702431 152.66135049 C9.16937746 158.10876791 9.1783723 163.55598522 9.20348549 169.0033493 C9.22673056 174.12841657 9.23101376 179.25315148 9.22072411 184.37825775 C9.22022777 186.25921737 9.22657703 188.14019314 9.24028015 190.02110291 C9.25794673 192.58980602 9.25091913 195.15730963 9.23774719 197.72601318 C9.24871644 198.46979776 9.25968568 199.21358234 9.27098733 199.97990584 C9.20783943 205.08315656 7.92920359 207.92803732 4.75 211.875 C0.06377258 216.32691605 -4.18833748 216.3165208 -10.34765625 216.30859375 C-16.5695414 215.37907928 -19.66750552 211.65165931 -23.25 206.875 C-24.3041518 203.71254459 -24.56275672 201.00551782 -24.8125 197.6875 C-24.93818359 196.05748047 -24.93818359 196.05748047 -25.06640625 194.39453125 C-25.12699219 193.56308594 -25.18757812 192.73164063 -25.25 191.875 C-25.57871094 192.3596875 -25.90742187 192.844375 -26.24609375 193.34375 C-35.37532354 206.20878927 -47.14593406 213.53848013 -62.6796875 216.40625 C-82.541059 219.01386989 -101.14725348 213.59685225 -117.25 201.875 C-134.51281016 188.38193001 -143.59231465 170.13326908 -146.54345703 148.74853516 C-148.99935308 127.36983602 -145.59410015 102.64828256 -131.98974609 85.26464844 C-128.92875974 81.6082555 -125.63530024 78.23060462 -122.25 74.875 C-121.61578125 74.20726562 -120.9815625 73.53953125 -120.328125 72.8515625 C-107.11458707 59.93035948 -87.89872684 55.59341415 -70.12646484 55.5559082 C-62.14333519 55.65326344 -55.60079978 56.57419774 -48.25 59.875 C-47.04923828 60.4009375 -47.04923828 60.4009375 -45.82421875 60.9375 C-37.5280632 65.06408514 -30.9303282 71.67031733 -25.25 78.875 C-25.24120064 77.6613678 -25.24120064 77.6613678 -25.23222351 76.42321777 C-25.17415735 68.77311034 -25.10200179 61.12332343 -25.01428509 53.47350311 C-24.96968601 49.5412758 -24.93040742 45.6091496 -24.90356445 41.67675781 C-24.87742628 37.87697039 -24.83695116 34.07757425 -24.78681374 30.2780304 C-24.77021568 28.83332715 -24.75865764 27.38855634 -24.75238609 25.94377136 C-24.68410533 11.6511102 -24.68410533 11.6511102 -21.25 4.875 C-14.97502444 -1.23907875 -8.3050022 -2.87480845 0 0 Z M-101.5 99.0625 C-111.73469404 111.34413284 -115.26118098 126.38387082 -114.02978516 142.07177734 C-112.55033341 156.04897531 -107.11595925 168.01814726 -96.95703125 177.76171875 C-85.55607314 186.66203381 -73.40804594 189.09157758 -59.25 187.875 C-47.61227137 185.42421479 -38.19551122 178.35547629 -31.25 168.875 C-22.2816277 154.9354711 -20.51236681 138.09131899 -23.50390625 122.01953125 C-26.74361318 108.36526904 -33.17403443 97.37530674 -45.25 89.875 C-64.46544294 78.54089108 -86.40035085 83.30634437 -101.5 99.0625 Z " fill="#FFFFFF" transform="translate(589.25,73.125)"/>
<path d="M0 0 C15.00360956 -0.04677268 30.00721346 -0.08201464 45.01088047 -0.10362434 C51.97773746 -0.11392592 58.94454909 -0.1279648 65.91137695 -0.15087891 C72.63517315 -0.17298309 79.35891248 -0.1845703 86.08274651 -0.18975449 C88.6475594 -0.19344884 91.21236972 -0.20066295 93.77716255 -0.21146011 C97.37045992 -0.22598495 100.96356275 -0.22797749 104.55688477 -0.22705078 C105.6164035 -0.23424133 106.67592224 -0.24143188 107.76754761 -0.24884033 C113.26446577 -0.2335077 117.8019485 0.19685731 123 2 C124.39292478 2.28541541 125.7885247 2.55839471 127.1875 2.8125 C134.48525452 4.37988714 141.38148079 7.60427518 148 11 C148 11.66 148 12.32 148 13 C149.28777344 13.33644531 149.28777344 13.33644531 150.6015625 13.6796875 C154.51338266 15.19945211 157.27751263 17.38120656 160.375 20.125 C161.22698975 20.86641235 161.22698975 20.86641235 162.09619141 21.62280273 C175.77646351 33.62758205 189.00259179 48.94537641 190.38745117 68.01367188 C190.55271194 71.68837158 190.562598 75.35721907 190.52148438 79.03491211 C190.50012011 81.29976651 190.52134279 83.56141581 190.546875 85.82617188 C190.5723448 99.11219356 187.95186767 110.57869394 182.10546875 122.61328125 C180.68022303 125.69040188 179.80375111 128.71192728 179 132 C178.34 132 177.68 132 177 132 C176.9175 132.804375 176.835 133.60875 176.75 134.4375 C172.98785991 152.30766541 160.20631503 170.54529682 150.8203125 185.98046875 C149.82945631 187.6240993 148.85829102 189.28341796 148 191 C147.34 191 146.68 191 146 191 C145.67 192.32 145.34 193.64 145 195 C143.35 194.67 141.7 194.34 140 194 C139.957279 192.33388095 139.95936168 190.66617115 140 189 C140.33 188.67 140.66 188.34 141 188 C141.28700429 183.42358613 141.23203993 178.83430673 141.25 174.25 C141.270625 172.98027344 141.29125 171.71054688 141.3125 170.40234375 C141.34315076 162.90057054 140.6696865 156.16845121 138.73901367 148.91186523 C137.97163158 145.8882226 137.48997332 142.90092999 137.0625 139.8125 C136.13094122 134.08900284 134.40794045 129.25757412 132 124 C131.58572754 123.06945801 131.58572754 123.06945801 131.16308594 122.12011719 C126.2323786 111.06131971 120.67031875 100.8290812 113.828125 90.82421875 C112 88 112 88 111 85 C110.34 85 109.68 85 109 85 C109 84.34 109 83.68 109 83 C108.34 82.67 107.68 82.34 107 82 C105.98366692 80.73736893 105.00938267 79.44051638 104.0625 78.125 C102.56179791 76.04474288 101.15552117 74.1501336 99.30859375 72.3671875 C98 71 98 71 98 69 C97.34 69 96.68 69 96 69 C96 68.34 96 67.68 96 67 C95.34 67 94.68 67 94 67 C92.66015625 65.56640625 92.66015625 65.56640625 91.0625 63.5625 C87.23917672 59.01825347 82.84760677 55.50407306 78.16015625 51.8828125 C77.44730469 51.26148438 76.73445313 50.64015625 76 50 C76 49.34 76 48.68 76 48 C75.319375 47.79375 74.63875 47.5875 73.9375 47.375 C71.31909546 46.14936383 69.93312945 45.16748369 67.84375 43.2734375 C63.31674186 39.31461082 58.36279004 36.09054305 53.34570312 32.79296875 C52.65541016 32.33019531 51.96511719 31.86742188 51.25390625 31.390625 C50.62814697 30.97844727 50.0023877 30.56626953 49.35766602 30.14160156 C48.90963623 29.76487305 48.46160645 29.38814453 48 29 C48 28.34 48 27.68 48 27 C47.44699219 26.896875 46.89398438 26.79375 46.32421875 26.6875 C43.49303888 25.85004175 41.33548307 24.537276 38.8125 23 C33.69686889 19.95572873 28.51523123 17.08981561 23.25 14.3125 C22.20549683 13.76045898 22.20549683 13.76045898 21.13989258 13.19726562 C12.82300796 8.6707496 12.82300796 8.6707496 4.125 5 C1.48513816 3.75771207 1.16126544 2.594539 0 0 Z " fill="#CC2627" transform="translate(172,44)"/>
<path d="M0 0 C-0.33 0.33 -0.66 0.66 -1 1 C-1.10114479 3.83758847 -1.13968937 6.6503081 -1.1328125 9.48828125 C-1.13376923 10.34302536 -1.13472595 11.19776947 -1.13571167 12.07841492 C-1.13639371 13.89171421 -1.13453775 15.70501592 -1.13037109 17.51831055 C-1.12504275 20.29025806 -1.13030507 23.06204207 -1.13671875 25.83398438 C-1.13605759 27.59375036 -1.13477564 29.35351624 -1.1328125 31.11328125 C-1.13483673 31.94257645 -1.13686096 32.77187164 -1.13894653 33.626297 C-1.13579437 34.40357651 -1.13264221 35.18085602 -1.12939453 35.98168945 C-1.12859894 36.66262161 -1.12780334 37.34355377 -1.12698364 38.04512024 C-0.99117501 40.13585845 -0.54931628 41.98167712 0 44 C0.29871004 45.74881153 0.58982579 47.49893029 0.875 49.25 C1.74854387 54.12243359 3.10022944 58.44613821 5 63 C6.66665557 67.1287604 8 70.46141242 8 75 C8.66 75 9.32 75 10 75 C10.24234375 75.64066406 10.4846875 76.28132813 10.734375 76.94140625 C11.06953125 77.80636719 11.4046875 78.67132813 11.75 79.5625 C12.07484375 80.40941406 12.3996875 81.25632812 12.734375 82.12890625 C15.69323889 88.84114378 19.81502883 94.89448849 23.8203125 101.01367188 C25.7217806 103.93974863 27.53613993 106.82830318 29 110 C29.66 110 30.32 110 31 110 C31.87343972 111.32762837 32.7403472 112.65982808 33.58203125 114.0078125 C36.11218952 117.56258032 39.18878345 120.65257593 42.171875 123.828125 C44 126 44 126 44 128 C44.66 128 45.32 128 46 128 C48.625 130.375 48.625 130.375 51 133 C51 133.66 51 134.32 51 135 C51.66 135 52.32 135 53 135 C53 135.66 53 136.32 53 137 C53.55429688 137.23460937 54.10859375 137.46921875 54.6796875 137.7109375 C58.56369184 139.86871769 61.53737737 143.07225111 64.7578125 146.1015625 C66.76473879 148.21539354 66.76473879 148.21539354 69 148 C70.15498388 149.15498388 71.30632276 150.31387787 72.4375 151.4921875 C76.113514 155.03954101 80.13530518 158.37843506 85 160 C85 160.66 85 161.32 85 162 C85.66 162 86.32 162 87 162 C87 162.66 87 163.32 87 164 C87.99 164 88.98 164 90 164 C90 164.66 90 165.32 90 166 C92.65228812 167.07525194 95.28368454 168.09456151 98 169 C98 169.66 98 170.32 98 171 C98.84691406 171.16242188 98.84691406 171.16242188 99.7109375 171.328125 C102.35615178 172.10453602 104.29553812 173.2779622 106.625 174.75 C110.86314541 177.35521291 115.1573428 179.66726358 119.62890625 181.84375 C121.12582347 182.57371293 122.61429682 183.32150114 124.08984375 184.09375 C128.91119812 186.6142204 133.79968145 188.41101378 139 190 C139 190.99 139 191.98 139 193 C123.46541443 193.09379239 107.93085028 193.16414913 92.39604759 193.20724869 C85.18157818 193.22780004 77.96728556 193.25577679 70.75292969 193.30175781 C64.45869397 193.341855 58.16458641 193.36748666 51.8702265 193.37635398 C48.54288724 193.38153057 45.21620239 193.3956958 41.88892746 193.42292023 C25.04743165 193.55516387 11.0995084 193.25401884 -4.01171875 185.05078125 C-6.11039803 183.87226379 -6.11039803 183.87226379 -9 183 C-16.59786425 178.04432148 -23.42101919 172.22302849 -30 166 C-30.5878125 165.45988281 -31.175625 164.91976562 -31.78125 164.36328125 C-33 163 -33 163 -33 161 C-33.66 161 -34.32 161 -35 161 C-35 160.34 -35 159.68 -35 159 C-35.66 159 -36.32 159 -37 159 C-37.2475 158.030625 -37.495 157.06125 -37.75 156.0625 C-38.36875 154.5465625 -38.36875 154.5465625 -39 153 C-41.03243548 152.03122943 -41.03243548 152.03122943 -43 152 C-43.0825 151.34 -43.165 150.68 -43.25 150 C-43.90231804 147.39072783 -44.62136187 145.70045087 -45.875 143.375 C-50.79393245 133.91276267 -52.19948271 123.29478525 -52.1875 112.75 C-52.18669434 112.00492187 -52.18588867 111.25984375 -52.18505859 110.4921875 C-52.11880706 104.48538155 -51.36887486 98.8531201 -50 93 C-49.84402344 92.20078125 -49.68804687 91.4015625 -49.52734375 90.578125 C-48.70488503 86.45891998 -47.61103792 82.82146266 -45.83984375 78.98828125 C-44.78722888 76.49627675 -44.00224506 73.95446259 -43.1875 71.375 C-40.98110222 64.64715828 -38.04410103 58.3823181 -35 52 C-34.48695312 50.86046875 -33.97390625 49.7209375 -33.4453125 48.546875 C-28.86333381 38.41829054 -23.57414229 28.73842449 -18.12573242 19.05200195 C-17.03168188 17.0577502 -16.00323183 15.04121632 -15 13 C-14.34 13 -13.68 13 -13 13 C-12.773125 12.154375 -12.54625 11.30875 -12.3125 10.4375 C-10.81363337 6.51189691 -8.98969605 2.99795488 -6 0 C-3.37966525 -0.97886068 -2.54025173 -1.27012587 0 0 Z " fill="#0071B9" transform="translate(82,183)"/>
<path d="M0 0 C1.22009766 -0.01160156 2.44019531 -0.02320313 3.69726562 -0.03515625 C15.41610894 0.00222443 25.70743382 2.0709822 36.22265625 7.2890625 C38.36366062 8.28271728 40.27178798 8.85819302 42.5625 9.375 C51.11700164 12.41982262 59.24760642 16.13553039 67.30078125 20.32421875 C69.39383218 21.29663792 71.30982885 21.9059083 73.5625 22.375 C73.5625 23.035 73.5625 23.695 73.5625 24.375 C74.5525 24.375 75.5425 24.375 76.5625 24.375 C76.5625 25.035 76.5625 25.695 76.5625 26.375 C78.8725 26.705 81.1825 27.035 83.5625 27.375 C83.5625 28.035 83.5625 28.695 83.5625 29.375 C84.5525 29.375 85.5425 29.375 86.5625 29.375 C86.5625 30.035 86.5625 30.695 86.5625 31.375 C87.34625 31.560625 88.13 31.74625 88.9375 31.9375 C93.20097744 33.62818933 96.45210723 36.00738137 100.1484375 38.6875 C102.86876359 40.58908717 105.54063797 42.02311436 108.5625 43.375 C107.6875 48.25 107.6875 48.25 106.5625 49.375 C103.89191149 49.51615161 101.23817762 49.41747107 98.5625 49.375 C98.5625 48.715 98.5625 48.055 98.5625 47.375 C93.9425 47.375 89.3225 47.375 84.5625 47.375 C84.5625 48.035 84.5625 48.695 84.5625 49.375 C83.55832031 49.41238281 82.55414063 49.44976562 81.51953125 49.48828125 C69.91599753 50.01020497 59.2505582 51.51679173 48.5625 56.375 C38.34107017 59.99452489 38.34107017 59.99452489 34.26171875 60.8671875 C33.42060547 61.11855469 33.42060547 61.11855469 32.5625 61.375 C32.0675 62.365 32.0675 62.365 31.5625 63.375 C30.758125 63.6225 29.95375 63.87 29.125 64.125 C24.91690079 65.60152604 21.48907588 67.75483528 17.734375 70.1328125 C15.5625 71.375 15.5625 71.375 13.5625 71.375 C13.5625 72.035 13.5625 72.695 13.5625 73.375 C12.95921875 73.68953125 12.3559375 74.0040625 11.734375 74.328125 C7.38764896 76.65572668 4.00251216 78.80757998 0.5625 82.375 C-1.6875 83.125 -1.6875 83.125 -3.4375 83.375 C-3.4375 84.035 -3.4375 84.695 -3.4375 85.375 C-4.0975 85.375 -4.7575 85.375 -5.4375 85.375 C-5.4375 86.035 -5.4375 86.695 -5.4375 87.375 C-8.89903846 90.375 -8.89903846 90.375 -11.4375 90.375 C-11.664375 90.931875 -11.89125 91.48875 -12.125 92.0625 C-13.81300036 95.03659588 -15.90426517 97.09508865 -18.4375 99.375 C-19.0975 99.375 -19.7575 99.375 -20.4375 99.375 C-20.4375 100.035 -20.4375 100.695 -20.4375 101.375 C-22.05724559 103.08730248 -23.7333946 104.74663262 -25.4375 106.375 C-26.675 107.6125 -26.675 107.6125 -27.9375 108.875 C-29.66679216 110.60429216 -31.41847005 112.3113805 -33.1875 114 C-35.62754674 116.24033112 -35.62754674 116.24033112 -36.4375 119.375 C-38.10416667 121.04166667 -39.77083333 122.70833333 -41.4375 124.375 C-42.73269995 126.54120544 -42.73269995 126.54120544 -43.4375 128.375 C-44.4275 128.375 -45.4175 128.375 -46.4375 128.375 C-46.664375 129.2 -46.89125 130.025 -47.125 130.875 C-48.68691057 135.04009486 -50.66600107 138.8750943 -53.4375 142.375 C-54.0975 142.375 -54.7575 142.375 -55.4375 142.375 C-55.54707031 142.93960938 -55.65664063 143.50421875 -55.76953125 144.0859375 C-56.53707697 146.71624038 -57.68071003 148.67245658 -59.125 151 C-59.65867187 151.87011719 -60.19234375 152.74023438 -60.7421875 153.63671875 C-61.58136719 154.99216797 -61.58136719 154.99216797 -62.4375 156.375 C-63.54553805 158.18513589 -64.64986814 159.99754816 -65.75 161.8125 C-66.24113281 162.61558594 -66.73226562 163.41867188 -67.23828125 164.24609375 C-68.56739008 166.44786228 -68.56739008 166.44786228 -69.4375 169.375 C-69.7675 170.365 -70.0975 171.355 -70.4375 172.375 C-71.0975 172.375 -71.7575 172.375 -72.4375 172.375 C-72.705625 173.40625 -72.97375 174.4375 -73.25 175.5 C-74.24748897 179.0235042 -75.7036898 182.14380827 -77.4375 185.375 C-79.0875 185.375 -80.7375 185.375 -82.4375 185.375 C-82.50776366 171.33590955 -82.56037301 157.2968466 -82.59293652 143.25761604 C-82.6085682 136.73808808 -82.6297611 130.21867856 -82.66381836 123.69921875 C-82.69650049 117.40333777 -82.71437179 111.10757046 -82.72213173 104.81161118 C-82.72765932 102.41394131 -82.73845328 100.01627741 -82.75469017 97.61865616 C-82.77658172 94.25100687 -82.77946198 90.88382268 -82.77807617 87.51611328 C-82.788862 86.53283554 -82.79964783 85.5495578 -82.8107605 84.53648376 C-82.78534087 78.7986315 -81.99793598 73.96752782 -80.13136768 68.53321648 C-79.29766035 66.15505212 -79.29766035 66.15505212 -78.9296875 62.6640625 C-78.37280982 58.94270531 -77.18692881 56.13624713 -75.5625 52.75 C-75.04945312 51.66460937 -74.53640625 50.57921875 -74.0078125 49.4609375 C-71.74835814 45.02071625 -69.15099918 40.88204993 -66.375 36.75 C-65.61509766 35.61691406 -65.61509766 35.61691406 -64.83984375 34.4609375 C-64.37707031 33.77257812 -63.91429688 33.08421875 -63.4375 32.375 C-62.7775 31.385 -62.1175 30.395 -61.4375 29.375 C-60.7775 29.375 -60.1175 29.375 -59.4375 29.375 C-58.7775 27.725 -58.1175 26.075 -57.4375 24.375 C-56.7775 24.375 -56.1175 24.375 -55.4375 24.375 C-55.4375 23.715 -55.4375 23.055 -55.4375 22.375 C-51.97596154 19.375 -51.97596154 19.375 -49.4375 19.375 C-49.4375 18.715 -49.4375 18.055 -49.4375 17.375 C-48.7775 17.375 -48.1175 17.375 -47.4375 17.375 C-47.4375 16.715 -47.4375 16.055 -47.4375 15.375 C-43.05288462 12.375 -43.05288462 12.375 -40.4375 12.375 C-40.4375 11.715 -40.4375 11.055 -40.4375 10.375 C-37.07066085 7.94339395 -35.70399636 7.375 -31.4375 7.375 C-31.4375 6.715 -31.4375 6.055 -31.4375 5.375 C-21.04348233 1.04836543 -11.20071824 -0.10616795 0 0 Z " fill="#FAC400" transform="translate(112.4375,44.625)"/>
<path d="M0 0 C4.04720614 4.52090377 6.01354144 7.75439699 6.06056213 13.91410828 C6.07035095 14.88585999 6.08013977 15.85761169 6.09022522 16.85881042 C6.09885841 18.45563408 6.09885841 18.45563408 6.10766602 20.0847168 C6.11756561 21.20681549 6.12746521 22.32891418 6.13766479 23.48501587 C6.16930868 27.20222854 6.19404874 30.91945399 6.21875 34.63671875 C6.23931702 37.2107629 6.26031343 39.78480366 6.28172302 42.35884094 C6.3313197 48.44672358 6.3765783 54.53462438 6.41974539 60.62255555 C6.46913198 67.55360046 6.52404483 74.48459812 6.57942498 81.41559732 C6.69321949 95.67285383 6.80006405 109.93015647 6.90234375 124.1875 C13.30363732 117.80947657 19.70215175 111.4286814 26.09722996 105.04442596 C29.06747202 102.07938083 32.03862784 99.11526406 35.01196289 96.15332031 C37.88657545 93.28965082 40.75866865 90.42347592 43.62910271 87.55561829 C44.71932343 86.46723138 45.81041717 85.37971817 46.90243721 84.2931366 C52.78823741 78.43545986 58.51935895 72.51773326 63.90234375 66.1875 C74.94548974 54.11891903 74.94548974 54.11891903 83.96484375 53.6875 C88.61997023 53.88559049 91.34479942 55.06380254 94.90234375 58.1875 C97.75743095 61.43639233 98.78890929 64.03046852 99.21484375 68.375 C98.29142962 79.64065238 89.29407107 86.42131727 81.19921875 93.37109375 C76.18861972 97.73267284 71.56195193 102.4572917 66.90234375 107.1875 C61.55098154 112.61994345 56.2486368 117.93069907 50.30078125 122.71484375 C48.55804485 124.21159707 48.55804485 124.21159707 48.90234375 127.1875 C50.84253096 129.49753539 52.80596606 131.65146402 54.90234375 133.8125 C56.19661892 135.17187087 57.49088959 136.53124603 58.78515625 137.890625 C59.46352539 138.59767578 60.14189453 139.30472656 60.84082031 140.03320312 C64.17744436 143.51998316 67.47447665 147.04378585 70.77734375 150.5625 C72.12596767 151.99510655 73.47492864 153.42739588 74.82421875 154.859375 C75.49646484 155.57287109 76.16871094 156.28636719 76.86132812 157.02148438 C77.87163086 158.09366211 77.87163086 158.09366211 78.90234375 159.1875 C80.26175855 160.63017083 81.62113363 162.07287909 82.98046875 163.515625 C83.65078125 164.2269458 84.32109375 164.9382666 85.01171875 165.67114258 C86.34635172 167.08902845 87.67970407 168.50812093 89.01171875 169.9284668 C92.30100461 173.43516205 95.60615419 176.92338139 98.94921875 180.37890625 C99.59358887 181.05163574 100.23795898 181.72436523 100.90185547 182.41748047 C102.11445466 183.68311706 103.33438399 184.94178883 104.56298828 186.19189453 C108.35123466 190.16915944 110.76751527 193.63701658 110.984375 199.34765625 C110.22799789 204.68614396 109.08871086 208.43840631 104.71484375 211.9375 C99.5140227 214.24897602 95.80864358 214.83965521 90.48828125 213.01953125 C86.77092848 211.31619951 84.23802859 208.95661846 81.40234375 206 C80.52578125 205.09894531 79.64921875 204.19789063 78.74609375 203.26953125 C76.61734629 200.99655152 74.56274356 198.66641581 72.51953125 196.31640625 C68.9554214 192.21767992 65.25976831 188.25768098 61.52734375 184.3125 C57.42157322 179.95409752 53.32792758 175.59195318 49.33984375 171.125 C45.49886272 166.82310124 41.58516263 162.59276888 37.65234375 158.375 C37.06122803 157.74005615 36.4701123 157.1051123 35.86108398 156.45092773 C32.6027554 152.96378265 29.29933705 149.53979602 25.90234375 146.1875 C25.36754395 146.73277344 24.83274414 147.27804688 24.28173828 147.83984375 C21.86879024 150.29422254 19.44820344 152.74092556 17.02734375 155.1875 C15.76470703 156.47527344 15.76470703 156.47527344 14.4765625 157.7890625 C13.67089844 158.60117188 12.86523438 159.41328125 12.03515625 160.25 C11.29152832 161.00410156 10.54790039 161.75820312 9.78173828 162.53515625 C7.90234375 164.1875 7.90234375 164.1875 5.90234375 164.1875 C5.92852783 165.29673828 5.95471191 166.40597656 5.98168945 167.54882812 C6.07269794 171.69347692 6.12977538 175.83803875 6.17700195 179.98339844 C6.2020315 181.77196136 6.23606619 183.56042317 6.27954102 185.34863281 C6.34070786 187.93059323 6.3686682 190.51119322 6.390625 193.09375 C6.41643143 193.88366333 6.44223785 194.67357666 6.46882629 195.48742676 C6.4718274 201.52836448 4.66866405 205.48215987 0.90234375 210.1875 C-3.12936411 213.65924844 -7.88931634 214.3306846 -13.09765625 214.1875 C-18.3375824 212.61552215 -21.60161808 210.38274581 -25.09765625 206.1875 C-27.2798749 201.954161 -27.38722308 197.97756969 -27.37181091 193.31303406 C-27.37704759 192.52628085 -27.38228427 191.73952765 -27.38767964 190.92893344 C-27.40266651 188.29591378 -27.4033845 185.66308867 -27.40405273 183.0300293 C-27.41167509 181.14081495 -27.42010273 179.2516037 -27.42927551 177.36239624 C-27.45121964 172.2321475 -27.4600193 167.10195837 -27.46510196 161.971668 C-27.46874559 158.76560303 -27.47498568 155.55955367 -27.48210335 152.35349464 C-27.50659742 141.16607604 -27.51964968 129.97870381 -27.52319336 118.79125977 C-27.52682872 108.36713524 -27.55672438 97.94330513 -27.59859794 87.5192706 C-27.63330018 78.56624235 -27.64874179 69.61331168 -27.64943939 60.66021663 C-27.65023222 55.31446368 -27.65897363 49.96901065 -27.68743706 44.62332726 C-27.71361642 39.59417202 -27.71582349 34.56556542 -27.69978142 29.53637314 C-27.69796684 27.69333894 -27.70465843 25.8502732 -27.72060013 24.00730705 C-27.86102115 6.71591007 -27.86102115 6.71591007 -22.09765625 0.1875 C-15.74113887 -4.86511638 -6.3076341 -5.45017174 0 0 Z " fill="#FFFFFF" transform="translate(1197.09765625,74.8125)"/>
<path d="M0 0 C0.99 0 1.98 0 3 0 C3.09372547 15.30835471 3.16411675 30.61669613 3.20724869 45.9252739 C3.22781406 53.03442771 3.25581816 60.14340253 3.30175781 67.25244141 C3.3418115 73.45363438 3.36747653 79.65469764 3.37635398 85.8560164 C3.38153772 89.13516992 3.3957394 92.41386918 3.42292023 95.6929245 C3.45215001 99.36679158 3.45594769 103.03990169 3.45410156 106.71386719 C3.46848267 107.78346176 3.48286377 108.85305634 3.49768066 109.95506287 C3.4563449 117.60615328 1.74792815 123.88913869 -1 131 C-1.50183218 132.39517567 -2.00228225 133.79085125 -2.5 135.1875 C-4.15660096 139.53493346 -6.07023371 143.76822825 -8 148 C-8.66 148 -9.32 148 -10 148 C-10.2475 148.7425 -10.495 149.485 -10.75 150.25 C-12.11138952 153.24505695 -13.6573421 154.72833173 -16 157 C-16.44730469 157.77214844 -16.89460937 158.54429687 -17.35546875 159.33984375 C-21.07333787 165.35378406 -27.15552899 171.04638726 -33 175 C-33.99 175 -34.98 175 -36 175 C-36.33 176.32 -36.66 177.64 -37 179 C-37.680625 179.0825 -38.36125 179.165 -39.0625 179.25 C-42.12139761 179.87065691 -42.12139761 179.87065691 -44.875 181.8125 C-55.79513518 188.04931361 -67.2852232 188.41162698 -79.5625 188.5 C-80.86380859 188.51836914 -82.16511719 188.53673828 -83.50585938 188.55566406 C-96.20959734 188.47558503 -107.05948735 185.1261843 -118.57421875 179.953125 C-121.03098131 178.81715063 -121.03098131 178.81715063 -124 179 C-124 178.34 -124 177.68 -124 177 C-125.32 177 -126.64 177 -128 177 C-128 176.34 -128 175.68 -128 175 C-128.72832031 174.88269531 -129.45664063 174.76539063 -130.20703125 174.64453125 C-133.03522145 173.99187197 -135.13519185 173.05013724 -137.6875 171.6875 C-141.11508354 169.91004583 -144.51318132 168.36347547 -148.125 167 C-152.17262237 165.4407744 -155.64040583 163.50457216 -159.2109375 161.05078125 C-160.97952135 159.88476274 -160.97952135 159.88476274 -163.1640625 159.54296875 C-163.76992187 159.36378906 -164.37578125 159.18460938 -165 159 C-165.33 158.01 -165.66 157.02 -166 156 C-167.84697374 155.39184816 -167.84697374 155.39184816 -170 155 C-171.43362072 154.34859204 -172.85101812 153.6603073 -174.25 152.9375 C-174.95640625 152.57527344 -175.6628125 152.21304688 -176.390625 151.83984375 C-176.92171875 151.56269531 -177.4528125 151.28554688 -178 151 C-178 150.34 -178 149.68 -178 149 C-179.11375 148.814375 -179.11375 148.814375 -180.25 148.625 C-184.91304348 147.56521739 -184.91304348 147.56521739 -187 146 C-187.75 142.875 -187.75 142.875 -188 140 C-183.79418168 139.19708542 -179.85683483 138.89183337 -175.578125 138.9375 C-174.38832031 138.94523438 -173.19851562 138.95296875 -171.97265625 138.9609375 C-170.74417969 138.97382813 -169.51570313 138.98671875 -168.25 139 C-165.79691825 139.02542054 -163.34378618 139.04648371 -160.890625 139.0625 C-159.80813477 139.07410156 -158.72564453 139.08570313 -157.61035156 139.09765625 C-155.01698298 139.18076766 -155.01698298 139.18076766 -153 138 C-150.95944995 137.92934383 -148.91665743 137.91578024 -146.875 137.9375 C-145.77929688 137.94652344 -144.68359375 137.95554687 -143.5546875 137.96484375 C-142.29011719 137.98224609 -142.29011719 137.98224609 -141 138 C-141 137.34 -141 136.68 -141 136 C-140.2265625 135.90203125 -139.453125 135.8040625 -138.65625 135.703125 C-132.85930181 134.87088986 -128.05206511 133.89237987 -122.9453125 131.0078125 C-120.08368466 129.52528241 -117.07189907 128.6895146 -113.98046875 127.80859375 C-111.93375368 127.13077887 -111.93375368 127.13077887 -110.60522461 125.53515625 C-108.44524876 123.46946376 -105.97862219 122.85465476 -103.20214844 121.87939453 C-99.40059772 120.36130299 -96.05546718 118.14831703 -92.625 115.9375 C-91.91472656 115.49083984 -91.20445312 115.04417969 -90.47265625 114.58398438 C-87.73633135 112.84717094 -85.29944533 111.29944533 -83 109 C-82.01 109 -81.02 109 -80 109 C-80 108.34 -80 107.68 -80 107 C-78.60609874 106.04806743 -77.2065431 105.1034731 -75.78125 104.19921875 C-69.60101217 100.03840073 -64.43333532 94.5465137 -59.3125 89.1875 C-57 87 -57 87 -55 87 C-55 86.34 -55 85.68 -55 85 C-53.8684289 83.8684289 -52.7313448 82.74194707 -51.5703125 81.640625 C-48.95656611 78.90984519 -46.78822216 75.83410241 -44.55078125 72.79296875 C-44.03902344 72.20128906 -43.52726563 71.60960937 -43 71 C-42.34 71 -41.68 71 -41 71 C-40.67 69.68 -40.34 68.36 -40 67 C-39.34 67 -38.68 67 -38 67 C-37.34 65.35 -36.68 63.7 -36 62 C-35.34 62 -34.68 62 -34 62 C-33.731875 61.27425781 -33.46375 60.54851562 -33.1875 59.80078125 C-32.01329619 57.03135976 -30.6605676 54.69080566 -29 52.1875 C-28.484375 51.39730469 -27.96875 50.60710937 -27.4375 49.79296875 C-26.963125 49.20128906 -26.48875 48.60960937 -26 48 C-25.34 48 -24.68 48 -24 48 C-23.76539063 47.33613281 -23.53078125 46.67226562 -23.2890625 45.98828125 C-21.64181213 42.16965538 -19.5296672 38.73772109 -17.375 35.1875 C-10.64667079 23.91773213 -4.51294788 12.35122576 0 0 Z " fill="#43AC34" transform="translate(359,188)"/>
<path d="M0 0 C15.52547014 12.24537603 25.49892787 29.48035189 28.125 49.125 C28.75478869 56.9325543 29.29475204 64.18555864 25.125 71.125 C20.50747516 76.16229983 14.17924403 76.85665772 7.61306763 77.29125977 C4.90721258 77.34123192 2.20990523 77.32338515 -0.49609375 77.28125 C-1.5487291 77.27315308 -2.60136444 77.26505615 -3.68589783 77.25671387 C-6.72836964 77.23018673 -9.77052749 77.19335733 -12.81282806 77.15197754 C-15.7767736 77.11320291 -18.74078865 77.08180928 -21.704813 77.04972839 C-31.89876174 76.93865369 -42.09231581 76.8023575 -52.28588867 76.66143799 C-56.76544569 76.59988068 -61.24502861 76.5402688 -65.72460938 76.48046875 C-74.44143197 76.36382926 -83.15822464 76.24511751 -91.875 76.125 C-91.40552742 78.05703176 -90.9324189 79.98818027 -90.45776367 81.91894531 C-90.19468918 82.99444641 -89.93161469 84.06994751 -89.66056824 85.17803955 C-86.93778942 95.39220185 -80.58784234 103.71213315 -71.56640625 109.1015625 C-57.61871878 116.62312017 -42.41082419 118.68991042 -26.96875 114.3203125 C-21.74322167 112.30135837 -16.89461988 109.62515943 -12.02734375 106.8671875 C-6.64138251 103.8905596 -1.93348655 103.42817727 4.125 104.125 C7.27837491 105.89877339 8.6340514 107.32162956 10.5 110.375 C11.5656213 115.06373372 11.23258555 118.90982889 9.1015625 123.171875 C1.65478956 134.27746702 -12.66729434 139.6909464 -25.125 142.9375 C-49.14059942 147.55997157 -74.3846339 143.79291528 -94.84375 130.14453125 C-97.30799599 128.23930403 -99.59741636 126.24858332 -101.875 124.125 C-102.64070313 123.44953125 -103.40640625 122.7740625 -104.1953125 122.078125 C-117.17308882 110.02419038 -124.82752406 92.67289156 -126.09619141 75.05297852 C-126.21467432 71.6989036 -126.25474066 68.35615242 -126.25 65 C-126.24838867 63.81092041 -126.24677734 62.62184082 -126.24511719 61.39672852 C-126.11526076 52.04133686 -124.95318138 43.96408334 -121.875 35.125 C-121.58625 34.21363281 -121.2975 33.30226562 -121 32.36328125 C-114.28556225 13.26909889 -98.77458007 -0.58254934 -80.99243164 -9.18945312 C-54.00888322 -21.61261912 -23.64805834 -17.92092858 0 0 Z M-82.01953125 26.66015625 C-88.05745271 34.68105823 -90.75817993 42.07361934 -91.875 52.125 C-62.835 52.125 -33.795 52.125 -3.875 52.125 C-6.25200089 39.05149512 -9.75555382 29.8050422 -19.875 21.125 C-39.71768962 8.58423472 -65.18195516 8.57278069 -82.01953125 26.66015625 Z " fill="#FFFFFF" transform="translate(1741.875,143.875)"/>
<path d="M0 0 C16.07432213 12.65288007 27.17895825 29.55214903 30 50 C30.27792883 53.04476274 30.40323666 56.06824446 30.4375 59.125 C30.44773193 59.82343018 30.45796387 60.52186035 30.46850586 61.24145508 C30.3884821 65.86324713 29.44759945 69.08959994 27 73 C22.5646097 76.41894669 19.11945519 78.12673572 13.53913879 78.12025452 C12.62628616 78.12162918 11.71343353 78.12300385 10.7729187 78.12442017 C9.77382477 78.12082489 8.77473083 78.11722961 7.74536133 78.11352539 C6.16462578 78.11374443 6.16462578 78.11374443 4.55195618 78.1139679 C1.0619604 78.11327015 -2.42798228 78.10548416 -5.91796875 78.09765625 C-8.33506745 78.09579158 -10.75216653 78.09436791 -13.16926575 78.09336853 C-19.53641805 78.08954721 -25.90354761 78.07972018 -32.27069092 78.06866455 C-38.76574394 78.05844218 -45.26080063 78.05386914 -51.75585938 78.04882812 C-64.50391596 78.03809759 -77.25195677 78.02121751 -90 78 C-89.41030193 80.21212476 -88.80906262 82.42117453 -88.203125 84.62890625 C-87.86958008 85.85939697 -87.53603516 87.0898877 -87.19238281 88.35766602 C-83.61685463 99.27971864 -76.31731917 107.24999365 -66.375 112.75 C-51.97412627 119.45271081 -36.96707794 119.44691311 -22.06396484 114.76708984 C-17.8690205 113.2080036 -14.05232014 110.94509565 -10.1730957 108.73706055 C-5.18530788 105.94868593 -1.70884049 104.72815045 4 105 C7.93017196 106.23727636 9.49739264 107.3190481 11.9375 110.625 C13.52714862 115.67447208 13.32847481 120.01556589 11.16015625 124.88671875 C4.47699087 135.47037923 -9.26652255 140.87708462 -20.78515625 144.0390625 C-44.06023819 149.02491589 -69.13479556 146.1461302 -89.75 133.8125 C-107.53164324 121.58428288 -119.32162645 104.74561613 -123.49609375 83.30078125 C-126.52349882 61.4575464 -124.16685867 37.49634118 -111.125 19.125 C-109.77037384 17.40046651 -108.39603033 15.69119103 -107 14 C-106.39542969 13.22140625 -105.79085937 12.4428125 -105.16796875 11.640625 C-79.30519034 -19.93918864 -32.22928488 -22.1810861 0 0 Z M-82 31 C-86.75279577 38.03878722 -90 45.46720529 -90 54 C-60.96 54 -31.92 54 -2 54 C-3.71951997 40.24384027 -8.57150106 31.1890138 -19.125 22.1875 C-38.96894106 7.59636687 -66.71733874 12.3169466 -82 31 Z " fill="#FFFFFF" transform="translate(926,143)"/>
<path d="M0 0 C0.58910156 0.44601563 1.17820312 0.89203125 1.78515625 1.3515625 C15.40939968 11.96543779 23.17006233 29.22842198 25.6875 46 C27.25857682 62.31245715 27.25857682 62.31245715 23 69 C18.66515426 72.52206216 15.08170966 74.11315683 9.53913879 74.15821838 C8.62628616 74.1680072 7.71343353 74.17779602 6.7729187 74.18788147 C5.77382477 74.19363693 4.77473083 74.1993924 3.74536133 74.20532227 C2.69153763 74.21522186 1.63771393 74.22512146 0.55195618 74.23532104 C-2.93799579 74.26695706 -6.42796139 74.29170188 -9.91796875 74.31640625 C-12.33507139 74.33697395 -14.75217041 74.35797038 -17.16926575 74.37937927 C-23.53637775 74.43461886 -29.9035223 74.48401986 -36.27069092 74.53222656 C-42.76577661 74.58242778 -49.26081492 74.63812105 -55.75585938 74.69335938 C-68.50386551 74.80096405 -81.25191209 74.90259036 -94 75 C-93.54864982 76.7277124 -93.09183622 78.45399797 -92.6328125 80.1796875 C-92.37902832 81.14116699 -92.12524414 82.10264648 -91.86376953 83.09326172 C-88.8344119 93.28758956 -83.21331316 101.06947869 -74.171875 106.7890625 C-60.38588718 114.11512409 -45.40283537 116.42060824 -30.22265625 112.19140625 C-24.78639112 110.18163551 -19.68719896 107.54052702 -14.56640625 104.83984375 C-8.42450329 101.63460348 -3.86273116 99.92752965 3 102 C6.41883228 104.72111141 7.6656086 106.15786167 8.4375 110.41015625 C8.71287865 116.11565769 7.88347912 119.63108599 4 124 C-7.65594262 136.53453126 -24.86976508 141.53208879 -41.51171875 142.34375 C-63.74900228 142.93797101 -86.4353773 138.04124105 -103.25 122.625 C-105.19474301 120.77569317 -107.09783457 118.89396644 -109 117 C-109.6703125 116.36449219 -110.340625 115.72898437 -111.03125 115.07421875 C-122.94931293 102.85820425 -128.34067637 83.65508822 -129 67 C-129.03996094 66.24074219 -129.07992187 65.48148437 -129.12109375 64.69921875 C-129.72732402 42.91058955 -122.69565446 22.19413801 -108 6 C-95.84181357 -6.5127133 -80.29288729 -15.17733359 -63 -18 C-62.34386719 -18.12246094 -61.68773437 -18.24492187 -61.01171875 -18.37109375 C-39.11115013 -21.71185845 -16.60730637 -14.23483403 0 0 Z M-84 24 C-89.56933158 31.16225481 -95 40.64767048 -95 50 C-65.63 50 -36.26 50 -6 50 C-9.26827 35.83749667 -13.17819474 24.79906856 -25.625 16.75 C-44.25690353 6.41776259 -69.01586385 7.3548865 -84 24 Z " fill="#FFFFFF" transform="translate(756,147)"/>
<path d="M0 0 C15.96701431 13.69871979 25.18132226 32.83036718 26.84790039 53.78466797 C28.16666572 76.03185974 22.86803264 97.0949046 8.265625 114.3828125 C-6.49732241 130.4341626 -26.26363591 140.83177358 -48.18359375 141.96875 C-65.98004074 142.58823497 -80.48608014 138.49758862 -95.8828125 129.71875 C-97.15898438 129.01105469 -97.15898438 129.01105469 -98.4609375 128.2890625 C-114.58436078 118.48741309 -125.95620012 101.52317182 -130.6328125 83.46875 C-135.8543882 61.48955928 -133.43165812 37.53211984 -121.6328125 18.03125 C-117.88619679 12.44789861 -113.59068974 7.50893279 -108.8828125 2.71875 C-108.26921875 2.09226563 -107.655625 1.46578125 -107.0234375 0.8203125 C-97.50297164 -8.17123859 -85.27455141 -13.55769828 -72.8828125 -17.28125 C-72.09132813 -17.52746094 -71.29984375 -17.77367187 -70.484375 -18.02734375 C-45.52929834 -24.37556501 -19.54348959 -15.46530884 0 0 Z M-87.171875 24.07421875 C-98.57328271 37.50396678 -100.8552515 52.27765098 -100.078125 69.32910156 C-99.04711734 81.94348032 -92.12783836 94.20745635 -82.8828125 102.71875 C-79.70059148 105.07272171 -76.42137744 106.95208095 -72.8828125 108.71875 C-72.06167969 109.13382812 -71.24054688 109.54890625 -70.39453125 109.9765625 C-59.50078618 114.70434867 -46.48885826 114.26086624 -35.5234375 109.9765625 C-24.0728041 104.52226671 -14.39148058 95.70378516 -9.7265625 83.7578125 C-4.22217747 67.83441294 -4.00318215 51.09170912 -11.0078125 35.53125 C-17.30258164 23.90577546 -27.54983581 15.23929597 -39.8828125 10.71875 C-57.23591885 5.81656486 -74.82867383 11.37293836 -87.171875 24.07421875 Z " fill="#FFFFFF" transform="translate(1449.8828125,147.28125)"/>
<path d="M0 0 C3.61850958 2.83713476 4.3857198 5.60837067 5.39453125 10.00390625 C5.78781791 14.63594915 4.9752145 18.24065694 2.51953125 22.19140625 C-3.15935704 27.35646909 -9.46901786 28.1303119 -16.85546875 28.75390625 C-32.05425726 30.10736037 -43.00608636 35.17290033 -52.91015625 47.01171875 C-58.63061674 54.95205943 -60.66004388 62.19651647 -60.54638672 71.8840332 C-60.54171387 72.64244507 -60.53704102 73.40085693 -60.53222656 74.18225098 C-60.5217538 75.82351952 -60.50910107 77.46477531 -60.49450302 79.10601234 C-60.47240917 81.70879461 -60.45837559 84.31150326 -60.44680786 86.91435242 C-60.41328535 94.31303952 -60.37170188 101.71160505 -60.30908203 109.11010742 C-60.27130455 113.64163593 -60.2483716 118.17303968 -60.23477554 122.70470238 C-60.22675296 124.42580837 -60.21318923 126.14689824 -60.19384384 127.8679142 C-60.16718106 130.28229552 -60.15945529 132.69608471 -60.15576172 135.1105957 C-60.14340485 135.81268661 -60.13104797 136.51477753 -60.11831665 137.23814392 C-60.14042607 142.75544221 -61.0711392 148.58686828 -64.9325695 152.76115894 C-70.15610663 157.19762328 -73.72556048 157.59942695 -80.42578125 157.53515625 C-84.7914324 157.04388093 -87.66559773 155.56297878 -90.48046875 152.19140625 C-94.56640161 146.2376674 -93.90931113 139.87277719 -93.88452148 132.9375 C-93.89022884 131.58675574 -93.89719452 130.2360163 -93.90531921 128.88528442 C-93.923224 125.22825882 -93.92208757 121.5714735 -93.91637683 117.91441727 C-93.91328158 114.85771051 -93.91938104 111.80104969 -93.92541558 108.74434948 C-93.9394499 101.53232675 -93.93790819 94.32042252 -93.92651367 87.10839844 C-93.91502862 79.67492137 -93.92911688 72.24180492 -93.95591015 64.80837536 C-93.97807771 58.41837878 -93.98470231 52.02849532 -93.97883373 45.63846302 C-93.97546604 41.82536491 -93.97786676 38.01249805 -93.99508476 34.19943237 C-94.0105693 30.61400037 -94.00658235 27.02910227 -93.98777962 23.44369125 C-93.98234626 21.50543128 -93.9965957 19.56714725 -94.01147461 17.62893677 C-93.95703128 11.20295102 -93.90753815 7.02510975 -89.48046875 2.19140625 C-85.66116703 -1.43693038 -82.59767869 -2.11859833 -77.48046875 -2.30859375 C-72.36325881 -2.11859833 -69.29977047 -1.43693038 -65.48046875 2.19140625 C-61.01596822 7.48266614 -60.83448426 11.93778139 -60.73046875 18.56640625 C-60.70082031 19.49324219 -60.67117188 20.42007813 -60.640625 21.375 C-60.57035014 23.6472206 -60.51744827 25.91844084 -60.48046875 28.19140625 C-60.16335938 27.58554688 -59.84625 26.9796875 -59.51953125 26.35546875 C-51.84786978 12.58038599 -39.97701974 2.91107967 -24.91796875 -1.80859375 C-16.63883686 -3.67689342 -7.51598704 -4.54123848 0 0 Z " fill="#FFFFFF" transform="translate(1599.48046875,130.80859375)"/>
<path d="" fill="#0071B9" transform="translate(0,0)"/>
<path d="" fill="#0071B9" transform="translate(0,0)"/>
<path d="" fill="#43AC34" transform="translate(0,0)"/>
<path d="" fill="#0071B9" transform="translate(0,0)"/>
<path d="" fill="#0071B9" transform="translate(0,0)"/>
<path d="" fill="#0071B9" transform="translate(0,0)"/>
<path d="" fill="#CC2627" transform="translate(0,0)"/>
<path d="" fill="#0071B9" transform="translate(0,0)"/>
<path d="" fill="#CC2627" transform="translate(0,0)"/>
<path d="" fill="#CC2627" transform="translate(0,0)"/>
<path d="" fill="#CC2627" transform="translate(0,0)"/>
<path d="" fill="#FAC400" transform="translate(0,0)"/>
<path d="" fill="#FAC400" transform="translate(0,0)"/>
</svg>
