<?xml version="1.0" encoding="utf-8"?>
<!-- Generator: Adobe Illustrator 23.0.2, SVG Export Plug-In . SVG Version: 6.00 Build 0)  -->
<svg version="1.1" id="Layer_1" xmlns="http://www.w3.org/2000/svg" xmlns:xlink="http://www.w3.org/1999/xlink" x="0px" y="0px"
	 viewBox="0 0 399.84 230.86" style="enable-background:new 0 0 399.84 230.86;" xml:space="preserve">
<style type="text/css">
	.st0{fill:#1A2133;}
	.st1{fill:none;stroke:#000000;stroke-width:6;stroke-miterlimit:10;}
	.st2{fill:none;stroke:#000000;stroke-width:8;stroke-miterlimit:10;}
	.st3{fill:url(#SVGID_1_);}
	.st4{fill:#0055FF;}
	.st5{fill:#00CAFE;}
	.st6{fill:#C048FF;}
	.st7{fill:#7F1499;}
	.st8{fill:#9E05E5;}
	.st9{fill:#FFD706;}
	.st10{fill:#76CC00;}
	.st11{fill:#0096DC;}
	.st12{fill:#006BBB;}
	.st13{fill:#FF6F03;}
	.st14{fill:#0327FF;}
	.st15{fill:#FF0813;}
	.st16{fill:url(#SVGID_2_);}
	.st17{fill:url(#SVGID_3_);}
	.st18{fill:url(#SVGID_4_);}
	.st19{fill:url(#SVGID_5_);}
	.st20{fill:url(#SVGID_6_);}
	.st21{fill:url(#SVGID_7_);}
	.st22{fill:url(#SVGID_8_);}
	.st23{fill:url(#SVGID_9_);}
	.st24{fill:url(#SVGID_10_);}
	.st25{fill:url(#SVGID_11_);}
	.st26{fill:url(#SVGID_12_);}
	.st27{fill:url(#SVGID_13_);}
	.st28{fill:url(#SVGID_14_);}
	.st29{fill:url(#SVGID_15_);}
	.st30{fill:url(#SVGID_16_);}
	.st31{fill:url(#SVGID_17_);}
	.st32{fill:none;}
	.st33{fill:#00A99D;}
	.st34{fill:#FF9304;}
	.st35{fill:#FCEE21;}
	.st36{fill:#1EFF23;}
	.st37{fill:#006837;}
	.st38{fill:#8CC63F;}
	.st39{opacity:0.76;}
	.st40{fill:#FCAD00;}
	.st41{fill:#4AAA01;}
	.st42{fill:#298801;}
	.st43{fill:#931C88;}
	.st44{fill:#ED1C24;}
	.st45{fill:#074C29;}
	.st46{fill:#6D1869;}
	.st47{fill:#B51F2B;}
	.st48{fill:#FFFF00;}
	.st49{fill:none;stroke:#000000;stroke-width:21;stroke-miterlimit:10;}
	.st50{fill:#F7931E;}
	.st51{fill:#F15A24;}
	.st52{fill:#29ABE2;}
	.st53{fill:none;stroke:#0096DC;stroke-width:30;stroke-miterlimit:10;}
	.st54{fill:#333333;}
	.st55{fill:#8521AF;}
	.st56{fill:#B657FF;}
	.st57{fill:#0C92D1;}
	.st58{fill:#0FE7FF;}
	.st59{fill:#0C94D4;}
	.st60{opacity:0.75;fill:#F4AC0E;}
	.st61{fill:#0EC1F2;}
	.st62{opacity:0.75;fill:#34A8DA;}
	.st63{fill:#7A1B91;}
	.st64{fill:#BF54F7;}
	.st65{fill:#F7D214;}
	.st66{fill:#0A6BB3;}
	.st67{fill:#0EC6F6;}
	.st68{fill:#F77411;}
	.st69{fill:#F4AC0E;}
	.st70{fill:#34A8DA;}
	.st71{opacity:0.36;}
	.st72{fill:#B3B3B3;}
	.st73{fill:#01A2E2;}
	.st74{fill:#02C48C;}
	.st75{fill:#B71051;}
	.st76{fill:#EC3F75;}
	.st77{fill:#F2A20D;}
	.st78{fill:#EA4075;}
	.st79{fill:#F46C12;}
	.st80{fill:#016AAF;}
	.st81{fill:#0B7F71;}
	.st82{fill:#170D4E;}
	.st83{fill:#08E273;}
	.st84{fill:#0CC408;}
	.st85{fill:#A115B7;}
	.st86{fill:#E244EC;}
	.st87{fill:#F26614;}
	.st88{fill:#E045EA;}
	.st89{fill:#F42D19;}
	.st90{fill:#06AF6C;}
	.st91{fill:#0F7F1C;}
	.st92{opacity:0.28;}
	.st93{fill:#0F234E;}
	.st94{fill:#FFFFFF;}
	.st95{fill:#0071BC;}
	.st96{fill:#A13FEF;}
	.st97{fill:#8C0DCE;}
	.st98{fill:#49AA01;}
	.st99{fill:#ED841B;}
	.st100{fill:#0E874A;}
	.st101{fill:#EF0707;}
	.st102{fill:#9B65C3;}
	.st103{fill:#3278B3;}
	.st104{fill:#47A3EE;}
	.st105{fill:#08CCFC;}
	.st106{fill:#59F2F8;}
	.st107{fill:#25C16E;}
	.st108{fill:#BF63C6;}
	.st109{fill:#D33C4F;}
	.st110{fill:#ED5A24;}
	.st111{fill:#FFBC01;}
	.st112{fill:#FFA800;}
	.st113{fill:#8BDF55;}
	.st114{fill:#00A3DF;}
	.st115{fill:#0077E3;}
	.st116{fill:#07C15E;}
	.st117{fill:#00E367;}
	.st118{fill:#FF7F00;}
	.st119{fill:url(#SVGID_20_);}
	.st120{fill:#FECE00;}
	.st121{fill:#290068;}
	.st122{fill:#840242;}
	.st123{fill:#861196;}
	.st124{fill:#1A2B33;}
	.st125{fill:#07C119;}
	.st126{fill:#F93D6F;}
	.st127{fill:#F59143;}
	.st128{fill:#ED4000;}
	.st129{fill:#F8640C;}
	.st130{fill:#F7221C;}
	.st131{fill:#FEB334;}
	.st132{fill:#1294C5;}
	.st133{fill:#2ABBDD;}
	.st134{fill:url(#SVGID_21_);}
	.st135{fill:#82AA01;}
	.st136{fill:#FF0064;}
	.st137{fill:#FF4500;}
	.st138{fill:#FFA000;}
	.st139{fill:#FFA901;}
	.st140{fill:#0071D1;}
	.st141{fill:#259EFF;}
	.st142{fill:#2393EE;}
	.st143{fill:#00CAFC;}
	.st144{fill:#33F1F8;}
	.st145{fill:#77CC00;}
	.st146{fill:#F2001F;}
	.st147{fill:#FF4400;}
	.st148{fill:#FFBC00;}
	.st149{fill:#59F2F7;}
	.st150{fill:#05CBFC;}
	.st151{fill:#ED5A26;}
	.st152{fill:#F7AB00;}
	.st153{fill:#FFBC03;}
	.st154{fill:#CF2C91;}
	.st155{fill:#F48500;}
	.st156{fill:#1F80FF;}
	.st157{fill:#43A047;}
	.st158{fill:url(#SVGID_22_);}
	.st159{fill:url(#SVGID_23_);}
	.st160{fill:url(#SVGID_24_);}
	.st161{fill:url(#SVGID_25_);}
	.st162{fill:url(#SVGID_26_);}
	.st163{fill:url(#SVGID_27_);}
	.st164{fill:url(#SVGID_28_);}
	.st165{fill:url(#SVGID_29_);}
	.st166{fill:url(#SVGID_30_);}
	.st167{fill:url(#SVGID_31_);}
	.st168{fill:url(#SVGID_32_);}
	.st169{fill:url(#SVGID_33_);}
	.st170{fill:url(#SVGID_34_);}
	.st171{fill:url(#SVGID_35_);}
	.st172{fill:url(#SVGID_36_);}
	.st173{fill:url(#SVGID_37_);}
	.st174{fill:url(#SVGID_38_);}
	.st175{fill:url(#SVGID_39_);}
	.st176{fill:url(#SVGID_40_);}
	.st177{fill:url(#SVGID_41_);}
	.st178{fill:url(#SVGID_42_);}
	.st179{fill:url(#SVGID_43_);}
	.st180{fill:url(#SVGID_44_);}
	.st181{fill:#BF3273;}
	.st182{fill:#1F80FE;}
	.st183{fill:#439F47;}
	.st184{fill:#CE2C90;}
	.st185{fill:#F38400;}
	.st186{fill:#76CD00;}
	.st187{fill:#FF203C;}
	.st188{fill:url(#SVGID_45_);}
	.st189{fill:url(#SVGID_46_);}
	.st190{fill:url(#SVGID_47_);}
	.st191{fill:url(#SVGID_48_);}
	.st192{fill:url(#SVGID_49_);}
	.st193{fill:url(#SVGID_50_);}
	.st194{fill:url(#SVGID_51_);}
	.st195{fill:url(#SVGID_52_);}
	.st196{fill:url(#SVGID_53_);}
	.st197{fill:url(#SVGID_54_);}
	.st198{fill:#5AB8B3;}
	.st199{fill:#F3D000;}
	.st200{fill:#ED5929;}
	.st201{fill:#FFBB00;}
	.st202{fill:#FE5151;}
	.st203{fill:#FE006C;}
	.st204{fill-rule:evenodd;clip-rule:evenodd;fill:#CF2C91;}
	.st205{fill-rule:evenodd;clip-rule:evenodd;fill:#F48500;}
	.st206{fill-rule:evenodd;clip-rule:evenodd;fill:#1F80FF;}
	.st207{fill-rule:evenodd;clip-rule:evenodd;fill:#43A047;}
	.st208{fill:#46A4EC;}
	.st209{fill:#06C8FD;}
	.st210{fill:url(#SVGID_55_);}
	.st211{fill:url(#SVGID_56_);}
	.st212{fill:url(#SVGID_57_);}
	.st213{fill:url(#SVGID_58_);}
	.st214{fill:url(#SVGID_59_);}
	.st215{fill:url(#SVGID_60_);}
	.st216{fill:url(#SVGID_61_);}
	.st217{fill:url(#SVGID_62_);}
	.st218{fill:url(#SVGID_63_);}
	.st219{fill:url(#SVGID_64_);}
	.st220{fill:url(#SVGID_65_);}
	.st221{fill:url(#SVGID_66_);}
	.st222{fill:url(#SVGID_67_);}
	.st223{fill:url(#SVGID_68_);}
	.st224{fill:url(#SVGID_69_);}
	.st225{fill:url(#SVGID_70_);}
	.st226{fill:url(#SVGID_71_);}
	.st227{fill:url(#SVGID_72_);}
	.st228{fill:url(#SVGID_73_);}
	.st229{fill:url(#SVGID_74_);}
	.st230{fill:url(#SVGID_75_);}
	.st231{fill:url(#SVGID_76_);}
	.st232{fill:url(#SVGID_77_);}
	.st233{fill:url(#SVGID_78_);}
	.st234{fill:url(#SVGID_79_);}
	.st235{fill:url(#SVGID_80_);}
	.st236{fill:url(#SVGID_81_);}
	.st237{clip-path:url(#SVGID_83_);}
	.st238{fill:url(#SVGID_84_);}
	.st239{fill:url(#SVGID_85_);}
	.st240{fill:url(#SVGID_86_);}
	.st241{fill:url(#SVGID_87_);}
	.st242{fill:url(#SVGID_88_);}
	.st243{fill:url(#SVGID_89_);}
	.st244{fill:url(#SVGID_90_);}
	.st245{fill:url(#SVGID_91_);}
	.st246{fill:url(#SVGID_92_);}
	.st247{fill:url(#SVGID_93_);}
	.st248{fill:url(#SVGID_94_);}
	.st249{fill:url(#SVGID_95_);}
	.st250{fill:url(#SVGID_96_);}
	.st251{fill:url(#SVGID_97_);}
	.st252{fill:url(#SVGID_98_);}
	.st253{fill:url(#SVGID_99_);}
	.st254{fill:url(#SVGID_100_);}
	.st255{fill:url(#SVGID_101_);}
	.st256{fill:url(#SVGID_102_);}
	.st257{fill:url(#SVGID_103_);}
	.st258{fill:url(#SVGID_104_);}
	.st259{fill:url(#SVGID_105_);}
	.st260{fill:url(#SVGID_106_);}
	.st261{fill:url(#SVGID_107_);}
	.st262{fill:url(#SVGID_108_);}
	.st263{fill:url(#SVGID_109_);}
	.st264{fill:url(#SVGID_110_);}
	.st265{fill:url(#SVGID_111_);}
	.st266{fill:url(#SVGID_112_);}
	.st267{fill:url(#SVGID_113_);}
	.st268{clip-path:url(#SVGID_115_);}
	.st269{fill:url(#SVGID_116_);}
	.st270{fill:url(#SVGID_117_);}
	.st271{fill:url(#SVGID_118_);}
	.st272{fill:url(#SVGID_119_);}
	.st273{fill:url(#SVGID_120_);}
	.st274{fill:url(#SVGID_121_);}
	.st275{fill:url(#SVGID_122_);}
	.st276{fill:url(#SVGID_123_);}
	.st277{fill:url(#SVGID_124_);}
	.st278{fill:url(#SVGID_125_);}
	.st279{fill:url(#SVGID_126_);}
	.st280{fill:url(#SVGID_127_);}
	.st281{fill:url(#SVGID_128_);}
	.st282{fill:url(#SVGID_129_);}
	.st283{fill:url(#SVGID_130_);}
	.st284{fill:url(#SVGID_131_);}
	.st285{fill:url(#SVGID_132_);}
	.st286{fill:url(#SVGID_133_);}
	.st287{fill:url(#SVGID_134_);}
	.st288{fill:url(#SVGID_135_);}
	.st289{fill:url(#SVGID_136_);}
	.st290{fill:url(#SVGID_137_);}
	.st291{fill:url(#SVGID_138_);}
	.st292{fill:url(#SVGID_139_);}
	.st293{fill:url(#SVGID_140_);}
	.st294{fill:url(#SVGID_141_);}
	.st295{fill:url(#SVGID_142_);}
	.st296{fill:url(#SVGID_143_);}
	.st297{fill:url(#SVGID_144_);}
	.st298{clip-path:url(#SVGID_146_);}
	.st299{fill:url(#SVGID_147_);}
	.st300{fill:url(#SVGID_148_);}
	.st301{fill:url(#SVGID_149_);}
	.st302{fill:url(#SVGID_150_);}
	.st303{fill:url(#SVGID_151_);}
	.st304{fill:url(#SVGID_152_);}
	.st305{fill:url(#SVGID_153_);}
	.st306{fill:url(#SVGID_154_);}
	.st307{fill:url(#SVGID_155_);}
	.st308{fill:url(#SVGID_156_);}
	.st309{fill:url(#SVGID_157_);}
	.st310{fill:url(#SVGID_158_);}
	.st311{fill:url(#SVGID_159_);}
	.st312{fill:url(#SVGID_160_);}
	.st313{fill:url(#SVGID_161_);}
	.st314{fill:url(#SVGID_162_);}
	.st315{fill:url(#SVGID_163_);}
	.st316{fill:url(#SVGID_164_);}
	.st317{fill:url(#SVGID_165_);}
	.st318{fill:url(#SVGID_166_);}
	.st319{fill:url(#SVGID_167_);}
	.st320{fill:url(#SVGID_168_);}
	.st321{fill:url(#SVGID_169_);}
	.st322{fill:url(#SVGID_170_);}
	.st323{fill:url(#SVGID_171_);}
	.st324{fill:url(#SVGID_172_);}
	.st325{fill:url(#SVGID_173_);}
	.st326{fill:url(#SVGID_174_);}
	.st327{fill:url(#SVGID_175_);}
	.st328{fill:url(#SVGID_176_);}
	.st329{clip-path:url(#SVGID_178_);}
	.st330{fill:url(#SVGID_179_);}
	.st331{fill:url(#SVGID_180_);}
	.st332{fill:url(#SVGID_181_);}
	.st333{fill:url(#SVGID_182_);}
	.st334{fill:url(#SVGID_183_);}
	.st335{fill:url(#SVGID_184_);}
	.st336{fill:url(#SVGID_185_);}
	.st337{fill:url(#SVGID_186_);}
	.st338{fill:url(#SVGID_187_);}
	.st339{fill:url(#SVGID_188_);}
	.st340{fill:url(#SVGID_189_);}
	.st341{fill:url(#SVGID_190_);}
	.st342{fill:url(#SVGID_191_);}
	.st343{fill:url(#SVGID_192_);}
	.st344{fill:url(#SVGID_193_);}
	.st345{fill:url(#SVGID_194_);}
	.st346{fill:url(#SVGID_195_);}
	.st347{fill:url(#SVGID_196_);}
	.st348{fill:url(#SVGID_197_);}
	.st349{fill:url(#SVGID_198_);}
	.st350{fill:url(#SVGID_199_);}
	.st351{fill:url(#SVGID_200_);}
	.st352{fill:url(#SVGID_201_);}
	.st353{fill:url(#SVGID_202_);}
	.st354{fill:url(#SVGID_203_);}
	.st355{fill:url(#SVGID_204_);}
	.st356{fill:url(#SVGID_205_);}
	.st357{fill:url(#SVGID_206_);}
	.st358{fill:url(#SVGID_207_);}
	.st359{fill:url(#SVGID_208_);}
</style>
<g>
	<g>
		<g>
			<g>
				<path class="st114" d="M341.75,0.04l-26.61,143.13l-0.76,4.04l-10.34,17.79l-21.05,36.28l-5.83,10.05l-2.6,4.49l-1.3,2.24
					l-7.29,12.54l-0.16,0.25l-0.22-0.43l-21.83-38.12v-0.02l-18.6-32.51l-0.9-1.57l-10.93-65.83l2.4-4.2l11.69-20.33
					c3.16-5.5,6.69-10.75,10.52-15.66c21.88-28.16,54.1-46.56,89.53-51.09C332.17,0.49,336.95,0.13,341.75,0.04z"/>
				<path class="st115" d="M399.84,0l-21.2,36.51l-14.58,25.15l-0.56,0.96l-23.54,40.52l-20.67,35.59l-4.87,8.41l-0.04,0.07
					l-10.34,17.79l-21.05,36.28l-5.83,10.05l3.97-16.56L327.46,1.1c4.71-0.61,9.49-0.96,14.29-1.05C342.71,0,343.66,0,344.62,0
					H399.84z"/>
				<path class="st114" d="M319.29,138.73l-4.87,8.41l-0.04,0.07l-10.34,17.79l-21.05,36.28l-5.83,10.05l-2.6,4.49l4.64-16.65
					c0.61-1.48,1.26-2.94,1.93-4.4c8.84-19.81,20.64-36.89,33.97-51.56c0.02-0.02,0.02-0.02,0.04-0.04
					C316.51,141.67,317.9,140.19,319.29,138.73z"/>
				<polygon class="st116" points="199.92,115.67 199.94,115.71 199.92,115.76 				"/>
				<path class="st117" d="M273.25,218.07l-7.29,12.54l-0.16,0.25l-0.22-0.43l-21.83-38.12v-0.02l-18.6-32.51l-0.9-1.57
					l-15.59-27.28l-8.71-15.21l13.37-23.34l2.4-4.2l11.69-20.33c3.16-5.5,6.69-10.75,10.52-15.66
					C275.58,112.95,275.58,185.69,273.25,218.07z"/>
			</g>
		</g>
		<g>
			<path class="st118" d="M186.52,92.38l-10.93,65.88l-0.87,1.53l-18.62,32.51l-21.79,38.14l-0.25,0.43l-0.16-0.25l-7.31-12.57
				l-1.3-2.24l-2.6-4.49l-5.83-10.03l-21.05-36.28l-10.34-17.79l-0.76-4.04L58.09,0.04c4.8,0.09,9.58,0.45,14.29,1.05
				c35.43,4.53,67.65,22.93,89.53,51.09c3.84,4.91,7.36,10.16,10.52,15.66l11.69,20.33L186.52,92.38z"/>
			<linearGradient id="SVGID_1_" gradientUnits="userSpaceOnUse" x1="0" y1="105.6592" x2="122.6894" y2="105.6592">
				<stop  offset="0" style="stop-color:#EF0707"/>
				<stop  offset="1" style="stop-color:#FF243D"/>
			</linearGradient>
			<path class="st3" d="M122.69,211.32l-5.83-10.03l-21.05-36.28l-10.34-17.79l-0.04-0.07l-4.87-8.41l-20.67-35.59L36.35,62.62
				l-0.56-0.96L21.18,36.51L0,0h55.22c0.96,0,1.91,0,2.87,0.04c4.8,0.09,9.58,0.45,14.29,1.05l46.33,193.68L122.69,211.32z"/>
			<path class="st118" d="M125.29,215.81l-2.6-4.49l-5.83-10.03l-21.05-36.28l-10.34-17.79l-0.04-0.07l-4.87-8.41
				c1.39,1.46,2.78,2.94,4.15,4.44c0.02,0.02,0.02,0.02,0.04,0.04c13.33,14.67,25.13,31.75,33.97,51.56
				c0.67,1.46,1.32,2.92,1.93,4.4L125.29,215.81z"/>
			<path class="st120" d="M199.92,115.67v0.09l-8.71,15.19l-15.62,27.31l-0.87,1.53l-18.62,32.51l-21.79,38.14l-0.25,0.43
				l-0.16-0.25l-7.31-12.57c-2.33-32.38-2.33-105.12,35.32-165.86c3.84,4.91,7.36,10.16,10.52,15.66l11.69,20.33l2.4,4.2
				L199.92,115.67z"/>
		</g>
	</g>
</g>
</svg>
