<?xml version="1.0" encoding="UTF-8"?>
<svg version="1.1" xmlns="http://www.w3.org/2000/svg" width="1250" height="1250">
<path d="M0 0 C1.65 0 3.3 0 5 0 C5 118.8 5 237.6 5 360 C4.34 360 3.68 360 3 360 C3.02320313 360.7321875 3.04640625 361.464375 3.0703125 362.21875 C3.20682883 370.40973006 2.74253055 378.46463336 2.0625 386.625 C1.97564941 387.68009766 1.88879883 388.73519531 1.79931641 389.82226562 C1.07440593 398.13528711 1.07440593 398.13528711 0 402 C-0.66 402 -1.32 402 -2 402 C-2.0501123 402.59538574 -2.10022461 403.19077148 -2.15185547 403.80419922 C-2.38360757 406.4953614 -2.62912852 409.18509264 -2.875 411.875 C-2.99294922 413.28072266 -2.99294922 413.28072266 -3.11328125 414.71484375 C-3.19707031 415.61074219 -3.28085938 416.50664063 -3.3671875 417.4296875 C-3.44050293 418.25710449 -3.51381836 419.08452148 -3.58935547 419.93701172 C-4 422 -4 422 -6 424 C-6.16687448 426.58354218 -6.16687448 426.58354218 -6 429 C-6.66 429 -7.32 429 -8 429 C-8.06058594 429.71285156 -8.12117188 430.42570312 -8.18359375 431.16015625 C-8.64808101 436.46960288 -9.18075251 441.733409 -10 447 C-10.99 447.33 -11.98 447.66 -13 448 C-13.10957031 448.88042969 -13.21914062 449.76085937 -13.33203125 450.66796875 C-13.49058594 451.82941406 -13.64914062 452.99085938 -13.8125 454.1875 C-13.96332031 455.33605469 -14.11414062 456.48460937 -14.26953125 457.66796875 C-15.01794655 461.08186315 -16.14930942 463.07590888 -18 466 C-18.78221277 468.08502868 -19.51132543 470.19071082 -20.1875 472.3125 C-20.53167969 473.38113281 -20.87585937 474.44976563 -21.23046875 475.55078125 C-21.48441406 476.35902344 -21.73835938 477.16726563 -22 478 C-22.66 478 -23.32 478 -24 478 C-23.9175 478.66 -23.835 479.32 -23.75 480 C-24.05558057 483.66696678 -25.36956872 486.0426543 -27.125 489.23046875 C-28.14775054 490.96979106 -28.14775054 490.96979106 -28 493 C-28.66 493 -29.32 493 -30 493 C-30.66 495.31 -31.32 497.62 -32 500 C-32.66 500 -33.32 500 -34 500 C-33.67 500.99 -33.34 501.98 -33 503 C-33.66 503 -34.32 503 -35 503 C-35 504.32 -35 505.64 -35 507 C-35.99 507.495 -35.99 507.495 -37 508 C-37.90343684 509.88263881 -37.90343684 509.88263881 -38.625 512.0625 C-38.88539063 512.79597656 -39.14578125 513.52945313 -39.4140625 514.28515625 C-39.70410156 515.13400391 -39.70410156 515.13400391 -40 516 C-40.66 516 -41.32 516 -42 516 C-42 516.99 -42 517.98 -42 519 C-42.66 519 -43.32 519 -44 519 C-43.9071875 520.1446875 -43.9071875 520.1446875 -43.8125 521.3125 C-44.03900196 524.55902815 -44.64515209 524.90680186 -47 527 C-47.515625 527.886875 -48.03125 528.77375 -48.5625 529.6875 C-49.036875 530.450625 -49.51125 531.21375 -50 532 C-50.66 532 -51.32 532 -52 532 C-52.33 533.98 -52.66 535.96 -53 538 C-53.66 538 -54.32 538 -55 538 C-55 538.66 -55 539.32 -55 540 C-55.66 540 -56.32 540 -57 540 C-57.144375 540.598125 -57.28875 541.19625 -57.4375 541.8125 C-58.66795592 546.59760635 -60.52891374 548.52891374 -64 552 C-64.33 552.66 -64.66 553.32 -65 554 C-66.79602388 557.59204777 -69.58237533 560.36994459 -73.25 562 C-75.30277024 562.90274438 -75.30277024 562.90274438 -75.75 565.625 C-75.8325 566.40875 -75.915 567.1925 -76 568 C-76.66 568 -77.32 568 -78 568 C-78 568.66 -78 569.32 -78 570 C-79.375 571.625 -79.375 571.625 -81 573 C-81.66 573 -82.32 573 -83 573 C-83.061875 573.556875 -83.12375 574.11375 -83.1875 574.6875 C-84.70871195 579.01710324 -88.28468402 581.52312268 -92 584 C-92.33 584.99 -92.66 585.98 -93 587 C-93.804375 587.309375 -94.60875 587.61875 -95.4375 587.9375 C-98.14383111 588.72237189 -98.14383111 588.72237189 -98.9375 591 C-100 593 -100 593 -103.0625 594 C-104.031875 594.33 -105.00125 594.66 -106 595 C-106.74276031 596.97080157 -106.74276031 596.97080157 -107 599 C-110 601 -110 601 -113 601 C-113 601.99 -113 602.98 -113 604 C-114.97321053 605.3726682 -116.97543152 606.70427617 -119 608 C-119.66 608.99 -120.32 609.98 -121 611 C-121.99 611.33 -122.98 611.66 -124 612 C-124.33 612.66 -124.66 613.32 -125 614 C-126.63790712 615.04644066 -128.31008021 616.0398183 -130 617 C-130.886875 617.556875 -131.77375 618.11375 -132.6875 618.6875 C-135 620 -135 620 -137 620 C-137 620.66 -137 621.32 -137 622 C-138.32 622.33 -139.64 622.66 -141 623 C-141 623.66 -141 624.32 -141 625 C-143.9826906 626.52448631 -146.818202 627.93940067 -150 629 C-150 629.66 -150 630.32 -150 631 C-151.051875 631.2475 -152.10375 631.495 -153.1875 631.75 C-156.00240912 632.53411296 -157.15868552 633.13091556 -159.5 635.0625 C-162.63443941 637.49169054 -165.10271069 637.69433025 -169 638 C-169 638.66 -169 639.32 -169 640 C-169.99 640 -170.98 640 -172 640 C-172 640.66 -172 641.32 -172 642 C-175.63 642.99 -179.26 643.98 -183 645 C-183 645.66 -183 646.32 -183 647 C-192.5617478 650.05898974 -192.5617478 650.05898974 -197 650.5 C-197.99 650.665 -198.98 650.83 -200 651 C-200.66 651.99 -201.32 652.98 -202 654 C-204.75711269 654.54501065 -207.34152546 654.92549765 -210.125 655.1875 C-210.87910156 655.26935547 -211.63320313 655.35121094 -212.41015625 655.43554688 C-214.27216607 655.6358897 -216.13595811 655.81954036 -218 656 C-218 656.66 -218 657.32 -218 658 C-222.92696638 659.54719004 -227.47367494 660.38233794 -232.6484375 660.81640625 C-233.6954332 660.9084861 -233.6954332 660.9084861 -234.76358032 661.00242615 C-236.96688633 661.19559325 -239.17080145 661.37982228 -241.375 661.5625 C-243.60052417 661.74960159 -245.82580551 661.93871563 -248.0506897 662.13328552 C-250.05338438 662.30810869 -252.05671097 662.4756474 -254.06005859 662.64282227 C-256.88495871 662.67940372 -256.88495871 662.67940372 -258 664 C-260.44192101 664.21208482 -262.86588578 664.37641051 -265.3125 664.5 C-269.3153844 664.70566675 -273.11183469 664.98028927 -277 666 C-284.58028286 666.55059487 -292.14599432 665.8001686 -299.6875 665.0625 C-300.58533203 664.97572998 -301.48316406 664.88895996 -302.40820312 664.79956055 C-303.24673828 664.71230713 -304.08527344 664.62505371 -304.94921875 664.53515625 C-306.08363403 664.41732788 -306.08363403 664.41732788 -307.2409668 664.29711914 C-309 664 -309 664 -310 663 C-311.5015916 662.78436381 -313.01192867 662.62890842 -314.5234375 662.5 C-315.46316406 662.4175 -316.40289063 662.335 -317.37109375 662.25 C-318.36238281 662.1675 -319.35367187 662.085 -320.375 662 C-322.29947917 661.83333333 -324.22395833 661.66666667 -326.1484375 661.5 C-329.14691028 661.24163277 -332.14537736 660.98844564 -335.14550781 660.75 C-336.14163086 660.6675 -337.13775391 660.585 -338.1640625 660.5 C-339.06850098 660.4278125 -339.97293945 660.355625 -340.90478516 660.28125 C-343 660 -343 660 -344 659 C-346.32817964 658.63239269 -348.6618385 658.29758419 -351 658 C-351 657.34 -351 656.68 -351 656 C-356.28 655.34 -361.56 654.68 -367 654 C-367 653.01 -367 652.02 -367 651 C-367.98226562 650.94392578 -367.98226562 650.94392578 -368.984375 650.88671875 C-376.24350244 650.3638155 -382.99421571 648.94401344 -390 647 C-390 646.34 -390 645.68 -390 645 C-391.07121094 644.80664062 -392.14242188 644.61328125 -393.24609375 644.4140625 C-394.64331489 644.15149745 -396.04044578 643.88845175 -397.4375 643.625 C-398.14455078 643.49867188 -398.85160156 643.37234375 -399.58007812 643.2421875 C-401.40052 642.89377757 -403.20271648 642.452957 -405 642 C-405.33 641.34 -405.66 640.68 -406 640 C-407.87488261 639.15835291 -407.87488261 639.15835291 -410.125 638.5 C-410.93066406 638.24605469 -411.73632812 637.99210937 -412.56640625 637.73046875 C-415.70327879 636.78890348 -418.843327 635.87312232 -422 635 C-422 634.34 -422 633.68 -422 633 C-426.00399298 632.29594816 -426.00399298 632.29594816 -430.0390625 631.81640625 C-434.17547443 631.43684785 -437.05765836 631.0649392 -440 628 C-440 627.34 -440 626.68 -440 626 C-441.175625 626.1546875 -441.175625 626.1546875 -442.375 626.3125 C-446.82906941 625.9285285 -449.75115472 624.31362102 -453.6328125 622.19140625 C-455.78249039 621.10947266 -457.65189744 620.47070259 -460 620 C-460 619.34 -460 618.68 -460 618 C-460.66386719 617.87882812 -461.32773437 617.75765625 -462.01171875 617.6328125 C-466.53424459 616.77452292 -470.79938524 615.96028689 -475 614 C-475 613.34 -475 612.68 -475 612 C-477.01822917 611.83723958 -479.03645833 611.67447917 -481.0546875 611.51171875 C-483 611 -483 611 -485 608 C-488.09710423 606.75752778 -488.09710423 606.75752778 -491.625 605.8125 C-492.81351563 605.46832031 -494.00203125 605.12414063 -495.2265625 604.76953125 C-496.14179687 604.51558594 -497.05703125 604.26164062 -498 604 C-498 603.01 -498 602.02 -498 601 C-498.86625 600.87625 -499.7325 600.7525 -500.625 600.625 C-508.90909091 599.09090909 -508.90909091 599.09090909 -512 596 C-513.85359569 595.23740958 -515.73250598 594.53517233 -517.625 593.875 C-518.62789062 593.52179687 -519.63078125 593.16859375 -520.6640625 592.8046875 C-521.43492187 592.53914063 -522.20578125 592.27359375 -523 592 C-523 591.34 -523 590.68 -523 590 C-523.56460938 589.86335938 -524.12921875 589.72671875 -524.7109375 589.5859375 C-527.0381835 588.99022607 -529.33108015 588.33849347 -531.625 587.625 C-532.40101563 587.39039063 -533.17703125 587.15578125 -533.9765625 586.9140625 C-536 586 -536 586 -538 583 C-539.95385067 582.21011855 -539.95385067 582.21011855 -542.125 581.8125 C-543.40375 581.544375 -544.6825 581.27625 -546 581 C-546 580.34 -546 579.68 -546 579 C-546.99 579 -547.98 579 -549 579 C-549 578.34 -549 577.68 -549 577 C-550.98 576.67 -552.96 576.34 -555 576 C-555 575.34 -555 574.68 -555 574 C-556.65 573.67 -558.3 573.34 -560 573 C-560 572.34 -560 571.68 -560 571 C-561.03125 570.9175 -562.0625 570.835 -563.125 570.75 C-567.33923253 569.93434209 -569.5662407 568.49727949 -573 566 C-573.99 565.67 -574.98 565.34 -576 565 C-576 564.34 -576 563.68 -576 563 C-578.31 562.67 -580.62 562.34 -583 562 C-583.495 560.515 -583.495 560.515 -584 559 C-586.55401848 557.75049948 -586.55401848 557.75049948 -589.5625 556.8125 C-590.57441406 556.46832031 -591.58632813 556.12414063 -592.62890625 555.76953125 C-593.41136719 555.51558594 -594.19382812 555.26164062 -595 555 C-595 554.01 -595 553.02 -595 552 C-598.63 551.01 -602.26 550.02 -606 549 C-606 548.01 -606 547.02 -606 546 C-606.7425 545.87625 -607.485 545.7525 -608.25 545.625 C-610.80141485 545.04513299 -612.7267573 544.26291261 -615 543 C-615 542.34 -615 541.68 -615 541 C-618.31114834 539.87119943 -621.58978257 538.78697325 -625 538 C-625 536.68 -625 535.36 -625 534 C-625.86625 533.896875 -626.7325 533.79375 -627.625 533.6875 C-632.14073786 532.76762747 -635.72117287 531.27882713 -639 528 C-639.99 527.67 -640.98 527.34 -642 527 C-642 526.34 -642 525.68 -642 525 C-642.721875 524.71125 -643.44375 524.4225 -644.1875 524.125 C-646.79166667 523.08333333 -649.39583333 522.04166667 -652 521 C-652 520.34 -652 519.68 -652 519 C-652.78375 518.690625 -653.5675 518.38125 -654.375 518.0625 C-657 517 -657 517 -659 516 C-659 515.34 -659 514.68 -659 514 C-659.61875 513.855625 -660.2375 513.71125 -660.875 513.5625 C-663 513 -663 513 -665 512 C-665 511.34 -665 510.68 -665 510 C-666.32 510 -667.64 510 -669 510 C-669.33 509.34 -669.66 508.68 -670 508 C-671.97888961 507.27306096 -673.97954558 506.60183749 -676 506 C-676 505.01 -676 504.02 -676 503 C-676.66 503 -677.32 503 -678 503 C-678 501.02 -678 499.04 -678 497 C-676.62546802 496.94501872 -675.25026422 496.90677178 -673.875 496.875 C-673.10929688 496.85179687 -672.34359375 496.82859375 -671.5546875 496.8046875 C-669 497 -669 497 -666.34375 497.97265625 C-661.77253339 499.37713051 -657.3825147 499.42513514 -652.625 499.5625 C-650.80458364 499.62326674 -648.98426449 499.68702563 -647.1640625 499.75390625 C-645.96450928 499.78979858 -645.96450928 499.78979858 -644.74072266 499.82641602 C-642 500 -642 500 -638.39135742 500.50488281 C-633.12579586 501.18613678 -627.87673885 501.16183966 -622.57421875 501.16796875 C-621.48102325 501.17202225 -620.38782776 501.17607574 -619.26150513 501.18025208 C-615.73680667 501.18966905 -612.21220929 501.18965394 -608.6875 501.1875 C-607.49281097 501.1882251 -606.29812195 501.1889502 -605.06723022 501.18969727 C-588.77644135 501.18860012 -572.71761441 500.79800797 -556.50244141 499.1875 C-552.33568576 498.87529821 -548.17530358 498.91878377 -544 499 C-544 498.34 -544 497.68 -544 497 C-536.77102388 495.56033103 -529.54267161 494.51259673 -522.22070312 493.69775391 C-518.81781916 493.56622827 -518.81781916 493.56622827 -516 492 C-514.48071962 491.92820036 -512.95832518 491.91607993 -511.4375 491.9375 C-510.61121094 491.94652344 -509.78492188 491.95554687 -508.93359375 491.96484375 C-508.29550781 491.97644531 -507.65742187 491.98804688 -507 492 C-507 491.34 -507 490.68 -507 490 C-504.60530271 489.49395076 -502.20948283 488.99500483 -499.8125 488.5 C-499.13896484 488.35691406 -498.46542969 488.21382812 -497.77148438 488.06640625 C-494.87605303 487.47319593 -492.17665874 486.99801785 -489.21484375 487.03125 C-486.19765073 486.98867938 -484.47068875 485.45182253 -481.98046875 483.890625 C-478.44555264 482.30095858 -474.79262893 482.69039764 -471 483 C-471 482.34 -471 481.68 -471 481 C-469.10454608 480.51933465 -467.20861961 480.04053257 -465.3125 479.5625 C-463.72888672 479.16224609 -463.72888672 479.16224609 -462.11328125 478.75390625 C-459.4171683 478.10102068 -456.7242424 477.52058807 -454 477 C-454 476.34 -454 475.68 -454 475 C-453.14277344 474.74605469 -452.28554688 474.49210937 -451.40234375 474.23046875 C-444.07544819 472.08365215 -444.07544819 472.08365215 -437 469.25 C-434.04255215 468.01773006 -432.16001599 467.71272582 -429 468 C-429 467.34 -429 466.68 -429 466 C-428.01 466 -427.02 466 -426 466 C-426 465.34 -426 464.68 -426 464 C-425.39671875 463.86722656 -424.7934375 463.73445313 -424.171875 463.59765625 C-423.37265625 463.42105469 -422.5734375 463.24445313 -421.75 463.0625 C-420.56664062 462.80146484 -420.56664062 462.80146484 -419.359375 462.53515625 C-418.58078125 462.35855469 -417.8021875 462.18195313 -417 462 C-416.26265625 461.87496094 -415.5253125 461.74992187 -414.765625 461.62109375 C-414.18296875 461.41613281 -413.6003125 461.21117187 -413 461 C-412.67 460.01 -412.34 459.02 -412 458 C-409.34765625 457.15625 -409.34765625 457.15625 -406.0625 456.5 C-401.12444584 455.70302327 -401.12444584 455.70302327 -398 452 C-395.6758266 451.31767386 -393.38851242 450.99247551 -390.99609375 450.625 C-390.00802734 450.315625 -390.00802734 450.315625 -389 450 C-388.67 449.01 -388.34 448.02 -388 447 C-385.93359375 446.26953125 -385.93359375 446.26953125 -383.4375 445.8125 C-382.19806641 445.57466797 -382.19806641 445.57466797 -380.93359375 445.33203125 C-379.97646484 445.16767578 -379.97646484 445.16767578 -379 445 C-379 444.34 -379 443.68 -379 443 C-378.01 443 -377.02 443 -376 443 C-376 442.34 -376 441.68 -376 441 C-372.5647952 438.70986347 -371.014669 438.82157027 -367 439 C-366.67 438.01 -366.34 437.02 -366 436 C-364.0390625 434.9375 -364.0390625 434.9375 -361.625 434 C-358.35054137 432.72008132 -356.43486108 431.50383732 -354 429 C-351.3125 428.3125 -351.3125 428.3125 -349 428 C-349 427.34 -349 426.68 -349 426 C-347.71086513 425.32845067 -346.41859796 424.66291141 -345.125 424 C-344.40570312 423.62875 -343.68640625 423.2575 -342.9453125 422.875 C-341 422 -341 422 -339 422 C-339 421.34 -339 420.68 -339 420 C-338.030625 419.54625 -337.06125 419.0925 -336.0625 418.625 C-332.92920418 417.34213779 -332.92920418 417.34213779 -332 415 C-329.98213141 413.88669319 -327.90804034 412.9579613 -325.8125 412 C-323.82798477 411.12855431 -323.82798477 411.12855431 -323 409 C-320.6859378 408.26924352 -318.35171131 407.59861742 -316 407 C-316 406.01 -316 405.02 -316 404 C-315.05125 403.566875 -314.1025 403.13375 -313.125 402.6875 C-309.79958063 401.20697799 -309.79958063 401.20697799 -308 398 C-305.72839181 397.12271848 -303.45029443 396.54967015 -301.09375 395.94140625 C-298.44325297 394.74967158 -298.18633351 393.57038928 -297 391 C-293.875 389.75 -293.875 389.75 -291 389 C-291 388.34 -291 387.68 -291 387 C-290.34 387 -289.68 387 -289 387 C-289 386.34 -289 385.68 -289 385 C-287.35 384.67 -285.7 384.34 -284 384 C-283.9071875 383.1028125 -283.9071875 383.1028125 -283.8125 382.1875 C-282.66203803 379.09010238 -280.86066588 378.56036321 -278 377 C-277.113125 376.278125 -276.22625 375.55625 -275.3125 374.8125 C-273 373 -273 373 -271 373 C-270.67 372.01 -270.34 371.02 -270 370 C-268.625 368.3125 -268.625 368.3125 -267 367 C-266.01 367 -265.02 367 -264 367 C-263.67 366.01 -263.34 365.02 -263 364 C-261.67532254 363.3162955 -260.34136367 362.65035814 -259 362 C-258.34 361.01 -257.68 360.02 -257 359 C-256.175 358.87625 -255.35 358.7525 -254.5 358.625 C-253.675 358.41875 -252.85 358.2125 -252 358 C-251.29788106 356.34795544 -250.63028587 354.68076231 -250 353 C-247.875 352.1875 -247.875 352.1875 -246 352 C-245.67 350.68 -245.34 349.36 -245 348 C-243.35 347.67 -241.7 347.34 -240 347 C-239.9175 346.21625 -239.835 345.4325 -239.75 344.625 C-239.5025 343.75875 -239.255 342.8925 -239 342 C-237.0625 340.9375 -237.0625 340.9375 -235 340 C-234.690625 339.34 -234.38125 338.68 -234.0625 338 C-233 336 -233 336 -230.625 335.0625 C-227.24670351 333.69509428 -226.23532033 331.87398328 -224 329 C-221.97856901 327.12785632 -219.90285672 325.33620449 -217.8046875 323.55078125 C-214.94484022 321.09329344 -213.73840496 319.69202479 -213 316 C-211.8553125 315.9071875 -211.8553125 315.9071875 -210.6875 315.8125 C-207.13396408 314.73817519 -206.71089023 313.18847725 -205 310 C-204.01 309.34 -203.02 308.68 -202 308 C-201.67 307.01 -201.34 306.02 -201 305 C-199.33333333 304 -197.66666667 303 -196 302 C-195.67 301.01 -195.34 300.02 -195 299 C-194.34 299 -193.68 299 -193 299 C-193 298.34 -193 297.68 -193 297 C-192.34 296.67 -191.68 296.34 -191 296 C-190.67 295.01 -190.34 294.02 -190 293 C-188.34467377 291.98133771 -186.67739862 290.98189187 -185 290 C-184.34 289.01 -183.68 288.02 -183 287 C-182.34 287 -181.68 287 -181 287 C-181 285.68 -181 284.36 -181 283 C-178.6875 281.4375 -178.6875 281.4375 -176 280 C-173.59120835 277.93532144 -173.03668447 277.11005341 -172 274 C-171.34 274 -170.68 274 -170 274 C-169.71125 273.360625 -169.4225 272.72125 -169.125 272.0625 C-168 270 -168 270 -166 269 C-164.95191959 267.02477154 -163.9479589 265.02518491 -163 263 C-162.01 263 -161.02 263 -160 263 C-158.79371992 260.66785852 -157.8345262 258.50357861 -157 256 C-156.175 255.731875 -155.35 255.46375 -154.5 255.1875 C-153.675 254.795625 -152.85 254.40375 -152 254 C-151.10169161 250.94727535 -151.10169161 250.94727535 -151 248 C-149.02 247.505 -149.02 247.505 -147 247 C-146.9175 246.401875 -146.835 245.80375 -146.75 245.1875 C-146 243 -146 243 -144.0625 241.5625 C-141.51551882 239.6329688 -141.1055817 237.94821786 -140 235 C-138.5 233.1875 -138.5 233.1875 -137 232 C-136.34 232 -135.68 232 -135 232 C-134.67 230.68 -134.34 229.36 -134 228 C-133.34 228 -132.68 228 -132 228 C-131.87625 227.195625 -131.7525 226.39125 -131.625 225.5625 C-131.41875 224.716875 -131.2125 223.87125 -131 223 C-130.34 222.67 -129.68 222.34 -129 222 C-128.67 221.01 -128.34 220.02 -128 219 C-127.34 219 -126.68 219 -126 219 C-125.9071875 218.1646875 -125.9071875 218.1646875 -125.8125 217.3125 C-124.66851791 214.05655096 -122.45123064 212.392868 -120 210 C-118.98343919 208.34338239 -117.97934924 206.67888441 -117 205 C-116.34 204.67 -115.68 204.34 -115 204 C-114.87625 203.360625 -114.7525 202.72125 -114.625 202.0625 C-114 200 -114 200 -111.9375 198.75 C-111.298125 198.5025 -110.65875 198.255 -110 198 C-110 197.01 -110 196.02 -110 195 C-109.34 195 -108.68 195 -108 195 C-107.67 193.02 -107.34 191.04 -107 189 C-106.01 188.67 -105.02 188.34 -104 188 C-103.31867549 186.33927151 -102.65257873 184.672233 -102 183 C-100.515 182.01 -100.515 182.01 -99 181 C-98.855625 180.38125 -98.71125 179.7625 -98.5625 179.125 C-98 177 -98 177 -96.1875 175.25 C-94.11702334 173.12036686 -93.23615185 171.63842688 -92 169 C-90.42987989 165.65576779 -88.66571073 163.57685371 -86 161 C-84.74563813 158.36777038 -84.74563813 158.36777038 -84 156 C-83.34 156 -82.68 156 -82 156 C-81.71125 155.0925 -81.4225 154.185 -81.125 153.25 C-80.23468224 150.67797092 -79.28505587 148.38653234 -78 146 C-77.34 146 -76.68 146 -76 146 C-76 145.34 -76 144.68 -76 144 C-75.34 143.34 -74.68 142.68 -74 142 C-74 141.34 -74 140.68 -74 140 C-73.34 140 -72.68 140 -72 140 C-71.34 138.02 -70.68 136.04 -70 134 C-69.34 134 -68.68 134 -68 134 C-68 133.34 -68 132.68 -68 132 C-67.34 132 -66.68 132 -66 132 C-65.855625 131.05125 -65.71125 130.1025 -65.5625 129.125 C-65 126 -65 126 -64 124 C-63.01 124 -62.02 124 -61 124 C-60.814375 122.700625 -60.814375 122.700625 -60.625 121.375 C-60.01205151 118.06507814 -59.30028462 115.10623549 -58 112 C-56.515 111.505 -56.515 111.505 -55 111 C-53.77030122 107.48809191 -53.77030122 107.48809191 -53 104 C-52.01 104 -51.02 104 -50 104 C-49.773125 102.845 -49.54625 101.69 -49.3125 100.5 C-48.30547985 96.44335146 -46.59110479 93.45340691 -44.29296875 89.99609375 C-40.46418052 84.08518503 -37.80222561 77.43915673 -35 71 C-34.34 71 -33.68 71 -33 71 C-32.814375 70.195625 -32.814375 70.195625 -32.625 69.375 C-31.87793984 66.5361714 -30.94696636 63.77776798 -30 61 C-29.34 61 -28.68 61 -28 61 C-28 60.01 -28 59.02 -28 58 C-27.01 58 -26.02 58 -25 58 C-24.67 55.69 -24.34 53.38 -24 51 C-23.34 51 -22.68 51 -22 51 C-21.67 48.69 -21.34 46.38 -21 44 C-20.34 44 -19.68 44 -19 44 C-19 42.68 -19 41.36 -19 40 C-18.34 40 -17.68 40 -17 40 C-16.69255859 38.95199219 -16.69255859 38.95199219 -16.37890625 37.8828125 C-15.97478516 36.51769531 -15.97478516 36.51769531 -15.5625 35.125 C-15.29566406 34.22007812 -15.02882813 33.31515625 -14.75390625 32.3828125 C-14 30 -14 30 -13 28 C-12.34 28 -11.68 28 -11 28 C-10.855625 27.113125 -10.71125 26.22625 -10.5625 25.3125 C-10.08980022 22.52882354 -9.56929815 19.76516243 -9 17 C-8.01 17 -7.02 17 -6 17 C-5.86722656 16.24074219 -5.73445313 15.48148438 -5.59765625 14.69921875 C-5.42105469 13.70535156 -5.24445312 12.71148438 -5.0625 11.6875 C-4.88847656 10.70136719 -4.71445313 9.71523438 -4.53515625 8.69921875 C-4 6 -4 6 -3 3 C-2.01 3 -1.02 3 0 3 C0 2.01 0 1.02 0 0 Z " fill="#00E367" transform="translate(1216,546)"/>
<path d="M0 0 C7.81452752 -0.02526563 15.62904458 -0.04283105 23.44360352 -0.05493164 C26.10441481 -0.05997383 28.76522332 -0.06680736 31.42602539 -0.07543945 C35.24105516 -0.08751009 39.05604844 -0.09322929 42.87109375 -0.09765625 C44.06899033 -0.10281754 45.2668869 -0.10797882 46.50108337 -0.11329651 C48.15268211 -0.11340981 48.15268211 -0.11340981 49.83764648 -0.11352539 C50.81249496 -0.115746 51.78734344 -0.11796661 52.79173279 -0.12025452 C55 0 55 0 56 1 C58.3472672 1.37887793 60.70353532 1.7025148 63.0625 2 C63.74771729 2.08685059 64.43293457 2.17370117 65.13891602 2.26318359 C67.09240574 2.5104138 69.04619512 2.7552729 71 3 C71.82242187 3.11601563 72.64484375 3.23203125 73.4921875 3.3515625 C76.78261199 3.81407197 79.9365764 4.01624681 83.25 3.9375 C86.65245028 3.9942075 88.23249867 4.15499911 91 6 C91 6.66 91 7.32 91 8 C97.27 8.66 103.54 9.32 110 10 C110 10.99 110 11.98 110 13 C110.90621094 13.12117188 111.81242187 13.24234375 112.74609375 13.3671875 C126.66442953 15.28187919 126.66442953 15.28187919 133 17 C133.33 17.66 133.66 18.32 134 19 C136.23798393 19.77298951 136.23798393 19.77298951 138.9375 20.375 C142.81396222 21.36292116 146.44010953 22.50640026 150.125 24.0625 C153.36858859 25.4260468 156.42241615 26.38552277 159.875 27.0625 C163.37984486 27.75858417 165.17225597 28.79082497 168 31 C170.14881387 31.82029409 172.32473151 32.50005864 174.51953125 33.1875 C177.0044009 34.00144155 179.39552309 34.94112949 181.8125 35.9375 C187.45025418 38.23699344 193.20830291 40.12914252 199 42 C199 42.66 199 43.32 199 44 C200.32 44 201.64 44 203 44 C203 44.66 203 45.32 203 46 C203.825 46.103125 204.65 46.20625 205.5 46.3125 C209.59289012 47.11646056 213.12540225 48.46352158 217 50 C217 50.66 217 51.32 217 52 C218.01320313 52.03867188 218.01320313 52.03867188 219.046875 52.078125 C224.72721495 52.43930268 227.04903781 52.80210268 231 57 C233.5924089 57.92137311 236.18628409 58.62469736 238.85546875 59.2890625 C239.91701172 59.64097656 239.91701172 59.64097656 241 60 C241.33 60.66 241.66 61.32 242 62 C243.99291777 62.78344256 246.02051823 63.48016365 248.0625 64.125 C249.16722656 64.47820312 250.27195312 64.83140625 251.41015625 65.1953125 C252.26480469 65.46085937 253.11945312 65.72640625 254 66 C254 66.99 254 67.98 254 69 C254.61488281 69.13277344 255.22976563 69.26554687 255.86328125 69.40234375 C256.67152344 69.57894531 257.47976563 69.75554687 258.3125 69.9375 C259.51326172 70.19853516 259.51326172 70.19853516 260.73828125 70.46484375 C263 71 263 71 266 72 C266 72.66 266 73.32 266 74 C266.83144531 74.17015625 267.66289063 74.3403125 268.51953125 74.515625 C270.14955078 74.87914063 270.14955078 74.87914063 271.8125 75.25 C272.89144531 75.48203125 273.97039063 75.7140625 275.08203125 75.953125 C278.38268943 77.13729688 279.09136141 78.17363843 281 81 C284.38824997 82.18241655 284.38824997 82.18241655 288 83 C291.05769188 84.08717933 292.69879802 84.69879802 295 87 C295.99 87.33 296.98 87.66 298 88 C298 88.66 298 89.32 298 90 C300.475 90.495 300.475 90.495 303 91 C303 91.66 303 92.32 303 93 C303.804375 93.061875 304.60875 93.12375 305.4375 93.1875 C310.1635451 94.26536993 313.87513427 96.51591419 318 99 C318 99.66 318 100.32 318 101 C321.96 101.495 321.96 101.495 326 102 C326.33 102.99 326.66 103.98 327 105 C329.32269959 106.24498609 329.32269959 106.24498609 332.0625 107.1875 C332.98160156 107.53167969 333.90070312 107.87585938 334.84765625 108.23046875 C335.55792969 108.48441406 336.26820313 108.73835938 337 109 C337 109.99 337 110.98 337 112 C337.61488281 112.10957031 338.22976563 112.21914062 338.86328125 112.33203125 C339.67152344 112.49058594 340.47976563 112.64914063 341.3125 112.8125 C342.51326172 113.03873047 342.51326172 113.03873047 343.73828125 113.26953125 C346.29578144 114.09552872 347.16786072 115.09092049 349 117 C351.16165652 118.09966665 351.16165652 118.09966665 353.5 119 C357.67771334 120.67108534 357.67771334 120.67108534 359.51953125 122.55078125 C361.3436719 124.33641761 362.71249072 124.66003901 365.1875 125.1875 C366.445625 125.455625 367.70375 125.72375 369 126 C369 127.32 369 128.64 369 130 C371.64 130.66 374.28 131.32 377 132 C377 132.66 377 133.32 377 134 C377.99 134 378.98 134 380 134 C380.33 134.66 380.66 135.32 381 136 C383.52733235 136.65555119 383.52733235 136.65555119 386 137 C386 137.66 386 138.32 386 139 C386.99 139 387.98 139 389 139 C389.33 139.66 389.66 140.32 390 141 C391.64363134 141.72159424 393.31050386 142.39351421 395 143 C395 143.66 395 144.32 395 145 C395.78375 145.309375 396.5675 145.61875 397.375 145.9375 C400 147 400 147 402 148 C402 148.66 402 149.32 402 150 C402.721875 150.103125 403.44375 150.20625 404.1875 150.3125 C407.27793421 151.06793947 409.41743841 152.15531315 412 154 C412 154.66 412 155.32 412 156 C414.31 156.66 416.62 157.32 419 158 C419 158.99 419 159.98 419 161 C419.99 161 420.98 161 422 161 C422 162.98 422 164.96 422 167 C420.52093108 167.02689216 419.04172517 167.04634621 417.5625 167.0625 C416.73878906 167.07410156 415.91507813 167.08570313 415.06640625 167.09765625 C413 167 413 167 412 166 C410.23610958 165.78157565 408.46417746 165.62767487 406.69140625 165.5 C405.56444336 165.4179834 404.43748047 165.3359668 403.27636719 165.25146484 C401.43800293 165.12698975 401.43800293 165.12698975 399.5625 165 C398.30727539 164.91314941 397.05205078 164.82629883 395.75878906 164.73681641 C387.26003906 164.16902576 378.76100941 163.71098602 370.25 163.375 C369.25427979 163.33503906 368.25855957 163.29507813 367.23266602 163.25390625 C349.95170638 162.6396238 332.76743711 163.28282979 315.5 164 C313.11589733 164.09664843 310.7317828 164.19300478 308.34765625 164.2890625 C302.56496325 164.52267763 296.7824266 164.75988588 291 165 C291 165.66 291 166.32 291 167 C289.80503906 167.12117187 288.61007812 167.24234375 287.37890625 167.3671875 C274.34144074 167.69111863 274.34144074 167.69111863 263 172 C259.70315145 172.28609016 256.40618875 172.44890147 253.1015625 172.62109375 C249.83681654 172.78399964 249.83681654 172.78399964 247 175 C245.20047914 175.38018046 243.38411774 175.68348956 241.5625 175.9375 C231.08991745 176.90254166 231.08991745 176.90254166 222 181 C220.00041636 181.04080783 217.99954746 181.04254356 216 181 C216 181.66 216 182.32 216 183 C210.01955594 184.71951285 204.19240462 186.31195504 198 187 C198 187.66 198 188.32 198 189 C197.08476562 189.26554688 196.16953125 189.53109375 195.2265625 189.8046875 C193.44378906 190.33449219 193.44378906 190.33449219 191.625 190.875 C189.84996094 191.39707031 189.84996094 191.39707031 188.0390625 191.9296875 C184.93508442 192.77687419 184.93508442 192.77687419 183 195 C180.6171875 195.4140625 180.6171875 195.4140625 177.875 195.625 C176.50988281 195.73714844 176.50988281 195.73714844 175.1171875 195.8515625 C174.41851562 195.90054688 173.71984375 195.94953125 173 196 C173 196.66 173 197.32 173 198 C172.34 198 171.68 198 171 198 C171 198.66 171 199.32 171 200 C169.50146484 200.27263672 169.50146484 200.27263672 167.97265625 200.55078125 C166.03712891 200.92783203 166.03712891 200.92783203 164.0625 201.3125 C162.77472656 201.55613281 161.48695313 201.79976562 160.16015625 202.05078125 C159.11730469 202.36402344 158.07445312 202.67726562 157 203 C156.67 203.99 156.34 204.98 156 206 C150.555 206.99 150.555 206.99 145 208 C145 208.99 145 209.98 145 211 C144.14535156 211.18175781 143.29070312 211.36351562 142.41015625 211.55078125 C140.75306641 211.92783203 140.75306641 211.92783203 139.0625 212.3125 C137.96035156 212.55613281 136.85820312 212.79976562 135.72265625 213.05078125 C134.82417969 213.36402344 133.92570312 213.67726563 133 214 C132.67 214.99 132.34 215.98 132 217 C130.2578125 217.94921875 130.2578125 217.94921875 128.125 218.6875 C127.07699219 219.06455078 127.07699219 219.06455078 126.0078125 219.44921875 C124 220 124 220 121 220 C120.67 220.99 120.34 221.98 120 223 C118.15234375 223.73046875 118.15234375 223.73046875 115.9375 224.1875 C115.20402344 224.34605469 114.47054688 224.50460937 113.71484375 224.66796875 C113.14894531 224.77753906 112.58304687 224.88710938 112 225 C112 225.66 112 226.32 112 227 C110.73308493 227.67408308 109.46129251 228.33900497 108.1875 229 C107.47980469 229.37125 106.77210938 229.7425 106.04296875 230.125 C104 231 104 231 101 231 C101 231.66 101 232.32 101 233 C100.34 233 99.68 233 99 233 C99 233.66 99 234.32 99 235 C97.35 235.33 95.7 235.66 94 236 C94 236.66 94 237.32 94 238 C92.02 238.33 90.04 238.66 88 239 C88 239.66 88 240.32 88 241 C86.68 241.33 85.36 241.66 84 242 C84 242.66 84 243.32 84 244 C83.030625 244.45375 82.06125 244.9075 81.0625 245.375 C77.92920418 246.65786221 77.92920418 246.65786221 77 249 C74.96945295 249.83585019 72.90783132 250.46630271 70.8125 251.12109375 C70.214375 251.41113281 69.61625 251.70117188 69 252 C68.67 252.99 68.34 253.98 68 255 C65.68191636 256.03485877 63.34824702 257.0355414 61 258 C60.67 258.66 60.34 259.32 60 260 C58.01306737 261.07862057 55.97274101 261.97773679 53.91015625 262.90234375 C51.68264809 263.99389198 51.68264809 263.99389198 50 267 C48.7625 267.4640625 48.7625 267.4640625 47.5 267.9375 C44.83927354 268.72128396 44.83927354 268.72128396 44.1875 271 C43 273 43 273 41.10546875 273.703125 C39.08475831 274.19857064 37.04265357 274.6046477 35 275 C34.67 276.32 34.34 277.64 34 279 C33.360625 279.12375 32.72125 279.2475 32.0625 279.375 C31.0415625 279.684375 31.0415625 279.684375 30 280 C29.67 280.66 29.34 281.32 29 282 C28.34 282 27.68 282 27 282 C27 282.66 27 283.32 27 284 C25.36209288 285.04644066 23.68991979 286.0398183 22 287 C18.58524679 289.2472293 18.58524679 289.2472293 17 293 C15.1875 294.09765625 15.1875 294.09765625 13 295.0625 C9.8485304 296.32230077 9.8485304 296.32230077 8 299 C7.34 299 6.68 299 6 299 C6 299.66 6 300.32 6 301 C5.34 301.33 4.68 301.66 4 302 C4 302.66 4 303.32 4 304 C3.0925 304.4125 2.185 304.825 1.25 305.25 C-1.83448925 306.91087883 -3.59750667 308.51742356 -6 311 C-6.721875 311.350625 -7.44375 311.70125 -8.1875 312.0625 C-10.36058256 312.9194894 -10.36058256 312.9194894 -11 316 C-12.66666667 317 -14.33333333 318 -16 319 C-16.33 319.99 -16.66 320.98 -17 322 C-17.9590625 322.4640625 -17.9590625 322.4640625 -18.9375 322.9375 C-21.45468915 324.2342338 -21.96886948 325.4221737 -23 328 C-23.99 328 -24.98 328 -26 328 C-26 328.66 -26 329.32 -26 330 C-26.804375 330.268125 -27.60875 330.53625 -28.4375 330.8125 C-29.283125 331.204375 -30.12875 331.59625 -31 332 C-31.33 332.99 -31.66 333.98 -32 335 C-33.671875 336.61328125 -33.671875 336.61328125 -35.75 338.3125 C-39.29651262 341.31534046 -42.09323555 344.38618473 -45 348 C-47.32298048 350.4362966 -49.52124123 352.65422977 -52.25 354.625 C-54.29712875 355.97372834 -54.29712875 355.97372834 -55 359 C-55.639375 359.144375 -56.27875 359.28875 -56.9375 359.4375 C-57.618125 359.623125 -58.29875 359.80875 -59 360 C-60.10836423 361.88316159 -60.10836423 361.88316159 -61 364 C-62.5 365.75 -62.5 365.75 -64 367 C-64.66 367 -65.32 367 -66 367 C-66 368.32 -66 369.64 -66 371 C-68.375 372.5625 -68.375 372.5625 -71 374 C-71.66 374.99 -72.32 375.98 -73 377 C-73.66 377 -74.32 377 -75 377 C-75 377.66 -75 378.32 -75 379 C-75.66 379 -76.32 379 -77 379 C-77.103125 379.598125 -77.20625 380.19625 -77.3125 380.8125 C-78.11428659 383.36363915 -79.08959135 384.166369 -81 386 C-82.05367108 387.17686148 -83.09528802 388.36461898 -84.125 389.5625 C-84.64320313 390.16191406 -85.16140625 390.76132812 -85.6953125 391.37890625 C-87.07856095 392.98012625 -87.07856095 392.98012625 -88 395 C-88.99 395 -89.98 395 -91 395 C-91.061875 395.556875 -91.12375 396.11375 -91.1875 396.6875 C-92.32954865 399.93794615 -94.55627057 401.61587372 -97 404 C-97.33 404.721875 -97.66 405.44375 -98 406.1875 C-99 408 -99 408 -101.5625 408.9375 C-102.366875 409.288125 -103.17125 409.63875 -104 410 C-104.66347631 412.48400985 -104.66347631 412.48400985 -105 415 C-105.99 415.66 -106.98 416.32 -108 417 C-108.33 417.66 -108.66 418.32 -109 419 C-110 421 -110 421 -113 423 C-113.69937532 424.31647119 -114.36729133 425.65022151 -115 427 C-115.66 427.66 -116.32 428.32 -117 429 C-118.05289278 430.15654544 -119.09367083 431.3241851 -120.125 432.5 C-120.66382813 433.1084375 -121.20265625 433.716875 -121.7578125 434.34375 C-123.2 435.92161458 -123.2 435.92161458 -123 438 C-123.5775 438.556875 -124.155 439.11375 -124.75 439.6875 C-127.02876858 442.0295677 -128.38226109 444.4122754 -129.9296875 447.26953125 C-131.55461874 449.8967011 -133.79668896 451.85318412 -136 454 C-137.01656081 455.65661761 -138.02065076 457.32111559 -139 459 C-139.66 459.33 -140.32 459.66 -141 460 C-141.4640625 461.2375 -141.4640625 461.2375 -141.9375 462.5 C-142.288125 463.325 -142.63875 464.15 -143 465 C-143.99 465.33 -144.98 465.66 -146 466 C-146 466.99 -146 467.98 -146 469 C-146.66 469 -147.32 469 -148 469 C-148.0825 469.94875 -148.165 470.8975 -148.25 471.875 C-148.62125 473.421875 -148.62125 473.421875 -149 475 C-150.31647119 475.69937532 -151.65022151 476.36729133 -153 477 C-153.81171228 479.55519921 -153.81171228 479.55519921 -154 482 C-154.99 482.33 -155.98 482.66 -157 483 C-157.34342449 484.33076989 -157.67619874 485.66431979 -158 487 C-158.99 487.66 -159.98 488.32 -161 489 C-162.33897821 491.30644129 -162.33897821 491.30644129 -163.5 493.9375 C-165.01824978 497.24163976 -166.38264221 499.49864699 -169 502 C-169.67349161 503.66392045 -170.3409159 505.33032028 -171 507 C-171.66 507.33 -172.32 507.66 -173 508 C-173.33 508.99 -173.66 509.98 -174 511 C-174.66 511 -175.32 511 -176 511 C-176.103125 511.928125 -176.20625 512.85625 -176.3125 513.8125 C-177.03969512 517.18404102 -177.52955057 517.8260045 -180 520 C-180.33 520.66 -180.66 521.32 -181 522 C-182 524 -182 524 -183.37109375 525.28515625 C-185.44025642 527.46348338 -186.65580364 529.78600328 -188.0625 532.4375 C-188.56910156 533.38496094 -189.07570313 534.33242188 -189.59765625 535.30859375 C-190.452784 536.94977207 -191.28072034 538.60598303 -192.05859375 540.28515625 C-193 542 -193 542 -195 543 C-195.83821823 544.99680259 -196.46575091 547.02644999 -197.12109375 549.08984375 C-198 551 -198 551 -201 553 C-202.2188121 556.55672179 -202.2188121 556.55672179 -203 560 C-203.99 560 -204.98 560 -206 560 C-206.103125 560.886875 -206.20625 561.77375 -206.3125 562.6875 C-207.01812146 566.08731248 -208.12936013 568.11609687 -210 571 C-210.33 571.99 -210.66 572.98 -211 574 C-211.66 574 -212.32 574 -213 574 C-213.226875 574.969375 -213.45375 575.93875 -213.6875 576.9375 C-215.46613743 583.13767979 -218.827355 588.55398646 -222.75 593.625 C-225.29967442 597.03788707 -225.74181856 599.78303651 -226 604 C-226.66 604 -227.32 604 -228 604 C-228.33 605.32 -228.66 606.64 -229 608 C-229.66 608 -230.32 608 -231 608 C-231.33 610.31 -231.66 612.62 -232 615 C-232.66 615 -233.32 615 -234 615 C-234.495 617.475 -234.495 617.475 -235 620 C-235.66 620 -236.32 620 -237 620 C-237 621.32 -237 622.64 -237 624 C-237.66 624 -238.32 624 -239 624 C-239.0825 624.86625 -239.165 625.7325 -239.25 626.625 C-240 630 -240 630 -241.875 632.6875 C-244.38754518 636.60411454 -245.21149669 640.19701272 -246.19140625 644.70703125 C-246.45824219 645.46371094 -246.72507812 646.22039063 -247 647 C-247.99 647.33 -248.98 647.66 -250 648 C-251.03740882 651.25374924 -251.03740882 651.25374924 -251.6875 655.0625 C-251.93886719 656.35285156 -252.19023437 657.64320313 -252.44921875 658.97265625 C-252.63097656 659.97167969 -252.81273437 660.97070312 -253 662 C-253.99 662 -254.98 662 -256 662 C-256.33 663.32 -256.66 664.64 -257 666 C-258.32 666 -259.64 666 -261 666 C-261 543.57 -261 421.14 -261 295 C-260.34 295 -259.68 295 -259 295 C-259.01595215 294.42241943 -259.0319043 293.84483887 -259.04833984 293.24975586 C-259.15463812 286.25960853 -258.51177152 279.4904025 -257.625 272.5625 C-257.49867188 271.48806641 -257.37234375 270.41363281 -257.2421875 269.30664062 C-257.11328125 268.27861328 -256.984375 267.25058594 -256.8515625 266.19140625 C-256.73635254 265.26529541 -256.62114258 264.33918457 -256.50244141 263.38500977 C-256 261 -256 261 -254 258 C-253.57893989 255.99296795 -253.57893989 255.99296795 -253.4375 253.8046875 C-253.36273438 253.00675781 -253.28796875 252.20882812 -253.2109375 251.38671875 C-253.06966098 249.70448167 -252.92904194 248.02218926 -252.7890625 246.33984375 C-252.58975316 244.21960476 -252.30175571 242.10809893 -252 240 C-251.34 239.67 -250.68 239.34 -250 239 C-249.34395848 236.97496111 -249.34395848 236.97496111 -248.9296875 234.52734375 C-248.75566406 233.62822266 -248.58164063 232.72910156 -248.40234375 231.80273438 C-248.14130859 230.38444336 -248.14130859 230.38444336 -247.875 228.9375 C-247.69324219 227.98810547 -247.51148438 227.03871094 -247.32421875 226.06054688 C-246.87506263 223.7083872 -246.43403807 221.35498822 -246 219 C-245.01 219 -244.02 219 -243 219 C-242.86722656 217.86820313 -242.73445313 216.73640625 -242.59765625 215.5703125 C-242.4194658 214.08851821 -242.24106971 212.60674864 -242.0625 211.125 C-241.97548828 210.37863281 -241.88847656 209.63226563 -241.79882812 208.86328125 C-241.11328125 203.2265625 -241.11328125 203.2265625 -240 201 C-239.01 201 -238.02 201 -237 201 C-236.90912109 200.11248047 -236.90912109 200.11248047 -236.81640625 199.20703125 C-235.58011884 187.54789002 -235.58011884 187.54789002 -233.59375 185.671875 C-231.6515642 183.63448402 -230.88622478 181.74462954 -229.875 179.125 C-229.54242188 178.28195313 -229.20984375 177.43890625 -228.8671875 176.5703125 C-227.93017427 174.0026796 -227.93017427 174.0026796 -227.5078125 171.2421875 C-227.34023437 170.50226563 -227.17265625 169.76234375 -227 169 C-226.34 168.67 -225.68 168.34 -225 168 C-224.27306096 166.02111039 -223.60183749 164.02045442 -223 162 C-222.34 162 -221.68 162 -221 162 C-220.505 159.03 -220.505 159.03 -220 156 C-219.34 156 -218.68 156 -218 156 C-217.9175 155.29875 -217.835 154.5975 -217.75 153.875 C-216.82970135 150.34718852 -215.04187538 147.99900446 -213 145 C-212.23060319 142.77397385 -212.23060319 142.77397385 -212 141 C-211.34 141 -210.68 141 -210 141 C-208.79371992 138.66785852 -207.8345262 136.50357861 -207 134 C-206.34 134 -205.68 134 -205 134 C-204.7525 132.9275 -204.505 131.855 -204.25 130.75 C-202.93151466 126.79454398 -201.94024529 125.77223128 -199 123 C-196.4443825 119.34799104 -194.27958157 115.59142255 -192.375 111.5625 C-191 109 -191 109 -188 108 C-186.97388051 106.34928604 -185.97691857 104.68029994 -185 103 C-183.68799596 101.64567325 -182.35368596 100.31266518 -181 99 C-179.948125 97.63875 -179.948125 97.63875 -178.875 96.25 C-177.946875 95.13625 -177.946875 95.13625 -177 94 C-176.34 94 -175.68 94 -175 94 C-175 93.01 -175 92.02 -175 91 C-174.071875 90.9071875 -174.071875 90.9071875 -173.125 90.8125 C-170.72238859 90.171081 -170.72238859 90.171081 -169.75 87.4375 C-169.5025 86.633125 -169.255 85.82875 -169 85 C-168.34 85 -167.68 85 -167 85 C-166.505 83.515 -166.505 83.515 -166 82 C-165.0206121 80.97980427 -164.02104551 79.97850195 -163 79 C-162.67 78.34 -162.34 77.68 -162 77 C-161.1028125 76.5978125 -161.1028125 76.5978125 -160.1875 76.1875 C-157.77910518 75.06855218 -157.77910518 75.06855218 -156 72.4375 C-153.93381319 69.91933482 -153.15497657 69.3380332 -150 69 C-150 68.01 -150 67.02 -150 66 C-149.030625 65.5875 -148.06125 65.175 -147.0625 64.75 C-146.051875 64.1725 -145.04125 63.595 -144 63 C-143.63837971 61.67405895 -143.30271961 60.34061543 -143 59 C-140.5 57.875 -140.5 57.875 -138 57 C-137.505 56.01 -137.505 56.01 -137 55 C-135.40960677 54.10108209 -133.81687677 53.20613083 -132.21484375 52.328125 C-129.57727687 50.74651523 -127.155683 48.95950765 -124.6875 47.125 C-120.31385607 43.87945458 -115.86001121 41.05260359 -111.09375 38.421875 C-108.88978877 37.09375176 -108.88978877 37.09375176 -107.44140625 34.89453125 C-105.25908679 32.02617099 -102.38891917 31.92425068 -99 31 C-98.01 29.515 -98.01 29.515 -97 28 C-94.03125 26.83203125 -94.03125 26.83203125 -90.5 25.8125 C-88.75203125 25.29623047 -88.75203125 25.29623047 -86.96875 24.76953125 C-84 24 -84 24 -82 24 C-82 23.34 -82 22.68 -82 22 C-78.38026598 20.68373308 -75.90432869 20 -72 20 C-72 19.01 -72 18.02 -72 17 C-69.25124318 16.32781493 -66.50119274 15.66207565 -63.75 15 C-62.97269531 14.80921875 -62.19539062 14.6184375 -61.39453125 14.421875 C-60.64042969 14.24140625 -59.88632813 14.0609375 -59.109375 13.875 C-58.07248535 13.62363281 -58.07248535 13.62363281 -57.01464844 13.3671875 C-55 13 -55 13 -51 13 C-51 12.01 -51 11.02 -51 10 C-45.72 9.34 -40.44 8.68 -35 8 C-35 7.34 -35 6.68 -35 6 C-31.76550173 3.84366782 -29.11973299 3.95024819 -25.32421875 4.0625 C-22.69978645 3.99192703 -20.31959232 3.53394126 -17.75 3 C-11.80424067 1.81585158 -6.04139503 1.81021796 0 2 C0 1.34 0 0.68 0 0 Z " fill="#F6141F" transform="translate(306,44)"/>
<path d="M0 0 C95.37 0 190.74 0 289 0 C289 0.66 289 1.32 289 2 C289.77054214 1.99333817 290.54108429 1.98667633 291.3349762 1.97981262 C298.75695333 1.91857817 306.17880064 1.8734745 313.60096836 1.84456348 C317.41272191 1.8291985 321.22425949 1.80852879 325.03588867 1.77368164 C345.89193631 1.5880003 366.28106153 2.5281159 387 5 C387 5.66 387 6.32 387 7 C387.804375 6.96519531 387.804375 6.96519531 388.625 6.9296875 C396.86197799 6.74002024 404.86219924 7.86918898 413 9 C413 9.66 413 10.32 413 11 C413.66 11 414.32 11 415 11 C415 11.66 415 12.32 415 13 C416.02480469 13.06058594 417.04960938 13.12117188 418.10546875 13.18359375 C419.46615695 13.26805026 420.82683343 13.35269567 422.1875 13.4375 C422.86103516 13.47681641 423.53457031 13.51613281 424.22851562 13.55664062 C427.89699102 13.78927565 431.41694206 14.17207011 435 15 C435 15.99 435 16.98 435 18 C436.27875 18.103125 437.5575 18.20625 438.875 18.3125 C444.01916102 18.89223878 449.27872983 19.80798171 454 22 C454.33 22.99 454.66 23.98 455 25 C455.64066406 25.12117188 456.28132813 25.24234375 456.94140625 25.3671875 C457.80636719 25.53476563 458.67132812 25.70234375 459.5625 25.875 C460.83287109 26.11863281 460.83287109 26.11863281 462.12890625 26.3671875 C468.05766632 27.67393462 473.73401799 29.5608827 479.4375 31.625 C480.67371094 32.07101563 481.90992188 32.51703125 483.18359375 32.9765625 C484.11300781 33.31429687 485.04242187 33.65203125 486 34 C486 34.66 486 35.32 486 36 C486.60328125 36.19335938 487.2065625 36.38671875 487.828125 36.5859375 C488.62734375 36.84632812 489.4265625 37.10671875 490.25 37.375 C491.03890625 37.63023438 491.8278125 37.88546875 492.640625 38.1484375 C494.86627958 38.95173667 496.90931672 39.89711662 499 41 C499 41.66 499 42.32 499 43 C501.31 43.33 503.62 43.66 506 44 C506 44.66 506 45.32 506 46 C508.31 46.33 510.62 46.66 513 47 C513 47.66 513 48.32 513 49 C513.66 49 514.32 49 515 49 C515 49.66 515 50.32 515 51 C517.31 51.66 519.62 52.32 522 53 C522 53.66 522 54.32 522 55 C522.763125 55.226875 523.52625 55.45375 524.3125 55.6875 C527 57 527 57 528.25 59.5 C530.35085096 62.50121566 531.08837254 62.47117697 534.5625 63.125 C535.34753906 63.23070312 536.13257813 63.33640625 536.94140625 63.4453125 C539 64 539 64 541 67 C541.99 67.33 542.98 67.66 544 68 C544.33 70.31 544.66 72.62 545 75 C548.3 75.66 551.6 76.32 555 77 C555 77.66 555 78.32 555 79 C555.928125 79.37125 555.928125 79.37125 556.875 79.75 C559 81 559 81 559.875 83 C560.87549062 85.31425344 560.87549062 85.31425344 563.8125 85.875 C568.11412174 87.39321944 569.38553563 89.30899148 572 93 C572 93.66 572 94.32 572 95 C572.928125 95.0928125 572.928125 95.0928125 573.875 95.1875 C574.57625 95.455625 575.2775 95.72375 576 96 C576.66666667 97.66666667 577.33333333 99.33333333 578 101 C579.32303717 101.3721042 580.65737935 101.70630173 582 102 C582.6837045 103.32467746 583.34964186 104.65863633 584 106 C585.32467746 106.6837045 586.65863633 107.34964186 588 108 C589.0260734 109.31337396 590.02727325 110.64664105 591 112 C591.99 112.66 592.98 113.32 594 114 C594 115.32 594 116.64 594 118 C594.66 118 595.32 118 596 118 C596 118.66 596 119.32 596 120 C596.99 120 597.98 120 599 120 C599.226875 120.721875 599.45375 121.44375 599.6875 122.1875 C600.87718609 125.15485233 600.87718609 125.15485233 603.4375 127.4375 C607.74116769 131.74116769 609.28828608 136.02160306 610 142 C610.8971875 142.2165625 610.8971875 142.2165625 611.8125 142.4375 C613.56150404 142.8872439 615.28677023 143.42892341 617 144 C619.15659863 147.64962845 620.17735375 150.88676874 621 155 C621.66 155.33 622.32 155.66 623 156 C624.38125781 158.7979325 625.56656977 161.65749435 626.78125 164.53125 C627.75455054 167.12896407 627.75455054 167.12896407 630 168 C631.0703125 170.43359375 631.0703125 170.43359375 632.125 173.4375 C632.47820313 174.42621094 632.83140625 175.41492188 633.1953125 176.43359375 C634 179 634 179 634 181 C634.66 181 635.32 181 636 181 C636.50559908 182.43554025 637.0042749 183.8735202 637.5 185.3125 C637.91765625 186.51326172 637.91765625 186.51326172 638.34375 187.73828125 C639 190 639 190 639 193 C639.70769531 193.69222656 639.70769531 193.69222656 640.4296875 194.3984375 C642.40573138 196.41380564 642.63208084 197.87361489 643.125 200.625 C643.49097593 203.59940649 643.49097593 203.59940649 645 206 C645.04063832 207.66617115 645.042721 209.33388095 645 211 C645.99 210.67 646.98 210.34 648 210 C648.03738281 211.2065625 648.07476563 212.413125 648.11328125 213.65625 C648.17899219 215.27086178 648.24543771 216.88544378 648.3125 218.5 C648.33505859 219.29148437 648.35761719 220.08296875 648.38085938 220.8984375 C648.63482545 226.53186673 649.8368382 230.79506568 652 236 C652.263573 237.07217773 652.263573 237.07217773 652.5324707 238.16601562 C652.83517473 240.00534799 652.83517473 240.00534799 654 241 C656.54921606 256.5744076 656.26234012 272.27492965 656 288 C655.9856189 288.88530396 655.97123779 289.77060791 655.9564209 290.68273926 C655.83959666 297.76796318 655.70528983 304.85275536 655.5625 311.9375 C655.53329971 313.4327269 655.53329971 313.4327269 655.50350952 314.9581604 C654.88056842 346.02234856 654.88056842 346.02234856 652 351 C651.34 351 650.68 351 650 351 C649.34 357.27 648.68 363.54 648 370 C647.01 370 646.02 370 645 370 C644.87882812 370.72445313 644.75765625 371.44890625 644.6328125 372.1953125 C642.81303116 382.69405099 642.81303116 382.69405099 641 387 C640.01 387.495 640.01 387.495 639 388 C638.60515661 390.61475003 638.60515661 390.61475003 638.5 393.6875 C638.2102366 398.10770888 637.72080544 401.87006695 636 406 C635.34 406 634.68 406 634 406 C633.80664062 406.94101562 633.61328125 407.88203125 633.4140625 408.8515625 C633.02347656 410.71941406 633.02347656 410.71941406 632.625 412.625 C632.36976563 413.85476563 632.11453125 415.08453125 631.8515625 416.3515625 C631.07622254 419.67343189 630.24876403 422.82566091 629 426 C628.01 426.495 628.01 426.495 627 427 C626.31068656 429.34907875 626.31068656 429.34907875 625.875 432.0625 C625.62363281 433.44115234 625.62363281 433.44115234 625.3671875 434.84765625 C625.24601562 435.55792969 625.12484375 436.26820313 625 437 C624.34 437 623.68 437 623 437 C622.67 439.31 622.34 441.62 622 444 C621.34 444 620.68 444 620 444 C620 445.65 620 447.3 620 449 C619.01 449.33 618.02 449.66 617 450 C616.896875 451.175625 616.79375 452.35125 616.6875 453.5625 C616.17085042 457.82485903 614.8491639 461.14087534 613 465 C612.34 465 611.68 465 611 465 C611 465.99 611 466.98 611 468 C610.34 468 609.68 468 609 468 C608.67 470.31 608.34 472.62 608 475 C607.34 475 606.68 475 606 475 C605.896875 476.258125 605.79375 477.51625 605.6875 478.8125 C605.25118948 482.37778027 604.64585588 483.56581259 602 486 C600.82623669 489.59033484 599.95060669 493.20415901 599.0625 496.875 C598.711875 497.90625 598.36125 498.9375 598 500 C597.01 500.33 596.02 500.66 595 501 C594.32215008 503.33010909 593.65583207 505.66359824 593 508 C592.01 508.66 591.02 509.32 590 510 C589.22652686 511.81156394 589.22652686 511.81156394 588.83203125 513.9140625 C588.57583008 515.05488281 588.57583008 515.05488281 588.31445312 516.21875 C588.14880859 517.0128125 587.98316406 517.806875 587.8125 518.625 C587.63525391 519.42679688 587.45800781 520.22859375 587.27539062 521.0546875 C586.83944689 523.03410771 586.41830295 525.01677687 586 527 C585.34 527 584.68 527 584 527 C583.87625 527.5775 583.7525 528.155 583.625 528.75 C582.55992712 532.58426238 581.08698156 535.42751537 578 538 C577.34 538 576.68 538 576 538 C576.0928125 539.60875 576.0928125 539.60875 576.1875 541.25 C575.98770958 545.24580849 575.56589103 546.13804462 573 549 C571.5242614 551.62353529 570.63037967 554.05822819 570 557 C569.01 557 568.02 557 567 557 C567 558.98 567 560.96 567 563 C566.34 563 565.68 563 565 563 C564.731875 563.886875 564.46375 564.77375 564.1875 565.6875 C563.07868507 568.78051006 561.69177578 571.20489219 560 574 C559.30420546 576.19130534 559.30420546 576.19130534 559 578 C558.34 578 557.68 578 557 578 C555.58622659 580.63904371 554.62759865 583.07120629 554 586 C553.34 586 552.68 586 552 586 C551.855625 586.9075 551.71125 587.815 551.5625 588.75 C551.13590527 591.21476956 550.64925779 593.58847107 550 596 C548.68 596.33 547.36 596.66 546 597 C545.01 600.96 544.02 604.92 543 609 C542.01 609 541.02 609 540 609 C539.731875 609.969375 539.46375 610.93875 539.1875 611.9375 C538.5996875 613.4534375 538.5996875 613.4534375 538 615 C537.01 615.33 536.02 615.66 535 616 C534.2863409 618.31939207 533.6252708 620.65523449 533 623 C532.04906703 624.69514137 531.04892238 626.36368108 530 628 C527.73101483 632.14355762 527.73101483 632.14355762 526.6875 636.6875 C526 639 526 639 523.0625 640.8125 C520 642 520 642 518 642 C518 643.32 518 644.64 518 646 C517.34 646 516.68 646 516 646 C516.03480469 646.61488281 516.06960938 647.22976563 516.10546875 647.86328125 C516.14607422 649.07564453 516.14607422 649.07564453 516.1875 650.3125 C516.22230469 651.11300781 516.25710938 651.91351562 516.29296875 652.73828125 C516 655 516 655 514.61328125 656.79296875 C513 658 513 658 511 658 C510.67 659.65 510.34 661.3 510 663 C509.34 663 508.68 663 508 663 C508 663.99 508 664.98 508 666 C506 668 506 668 504 669 C504 669.66 504 670.32 504 671 C501.04335481 672.4783226 498.25770263 672.06032783 495 672 C492.54914317 666.94510779 492.18203428 662.43760302 493.98046875 657.078125 C495.61928909 651.57104541 495.42908881 645.82588803 495.5625 640.125 C495.62212646 637.85665723 495.68570274 635.58841359 495.75390625 633.3203125 C495.78979858 631.82395264 495.78979858 631.82395264 495.82641602 630.29736328 C496 628 496 628 497 627 C497.09880797 625.52347336 497.13079245 624.04232764 497.1328125 622.5625 C497.13474609 621.22058594 497.13474609 621.22058594 497.13671875 619.8515625 C497.13285156 618.91054688 497.12898438 617.96953125 497.125 617 C497.12886719 616.05898438 497.13273437 615.11796875 497.13671875 614.1484375 C497.13542969 613.25382813 497.13414062 612.35921875 497.1328125 611.4375 C497.13168457 610.61121094 497.13055664 609.78492188 497.12939453 608.93359375 C497.21264807 606.99320961 497.21264807 606.99320961 496 606 C495.86543641 604.11629901 495.79628729 602.22786934 495.75390625 600.33984375 C495.70641235 598.57169312 495.70641235 598.57169312 495.65795898 596.76782227 C495.62645752 595.50381592 495.59495605 594.23980957 495.5625 592.9375 C495.21339391 580.96286984 495.21339391 580.96286984 493.9375 569.0625 C492.95746444 562.33292246 492.79067926 555.79129527 493 549 C492.34 549 491.68 549 491 549 C491.05220703 547.83984375 491.05220703 547.83984375 491.10546875 546.65625 C491.40453574 539.77094832 491.40453574 539.77094832 489.5625 533.25 C487.45922296 528.58921707 487.49019627 523.66114084 487.29125977 518.63378906 C487.158074 515.27702208 486.87408712 512.23842114 486 509 C486 507.68 486 506.36 486 505 C485.34 505 484.68 505 484 505 C483.70996094 503.82244141 483.70996094 503.82244141 483.4140625 502.62109375 C482.03346779 497.0508725 480.62611553 491.50377563 479 486 C478.34 486 477.68 486 477 486 C476.67 480.06 476.34 474.12 476 468 C475.34 468 474.68 468 474 468 C474 466.68 474 465.36 474 464 C473.34 464 472.68 464 472 464 C470.0923396 458.62039766 468.56449638 453.38697825 467.625 447.75 C467.41875 447.1725 467.2125 446.595 467 446 C466.01 445.67 465.02 445.34 464 445 C462.51117562 440.92532275 461.73729783 437.33458585 462 433 C461.34 433 460.68 433 460 433 C460 431.35 460 429.7 460 428 C459.34 428 458.68 428 458 428 C457.34 424.04 456.68 420.08 456 416 C454.68 415.67 453.36 415.34 452 415 C451.67 412.03 451.34 409.06 451 406 C450.34 406 449.68 406 449 406 C449 405.01 449 404.02 449 403 C448.36578125 402.76023437 447.7315625 402.52046875 447.078125 402.2734375 C445 401 445 401 444.171875 398.9765625 C443.96304688 397.81253906 443.96304688 397.81253906 443.75 396.625 C443.52570313 395.46871094 443.52570313 395.46871094 443.296875 394.2890625 C443 392 443 392 443 388 C442.4225 387.979375 441.845 387.95875 441.25 387.9375 C437.68103729 386.4504322 436.49970662 383.37278419 435 380 C434.17004778 377.62105862 433.40850993 375.24129916 432.7109375 372.8203125 C432.1557388 370.7985173 432.1557388 370.7985173 430 370 C430 369.01 430 368.02 430 367 C429.34 367 428.68 367 428 367 C427.566875 365.5459375 427.566875 365.5459375 427.125 364.0625 C426.35785318 360.89335797 426.35785318 360.89335797 424 360 C424 359.01 424 358.02 424 357 C423.34 357 422.68 357 422 357 C419.56839395 353.63316085 419 352.26649636 419 348 C418.34 348 417.68 348 417 348 C416.67 347.01 416.34 346.02 416 345 C415.34 344.67 414.68 344.34 414 344 C413.731875 343.0925 413.46375 342.185 413.1875 341.25 C412.21555534 337.84382404 412.21555534 337.84382404 409.4375 335.5625 C406.42915773 332.39988376 406.25159385 330.27709552 406 326 C405.01 325.67 404.02 325.34 403 325 C402.34 324.01 401.68 323.02 401 322 C400.01 321.67 399.02 321.34 398 321 C398 319.68 398 318.36 398 317 C397.34 317 396.68 317 396 317 C395.67 315.02 395.34 313.04 395 311 C394.01 311 393.02 311 392 311 C392 310.34 392 309.68 392 309 C391.34 309 390.68 309 390 309 C389.67 307.35 389.34 305.7 389 304 C388.34 304 387.68 304 387 304 C387 303.34 387 302.68 387 302 C386.34 302 385.68 302 385 302 C384.566875 300.5459375 384.566875 300.5459375 384.125 299.0625 C383.35785318 295.89335797 383.35785318 295.89335797 381 295 C380 293 379 291 378 289 C377.34 288.67 376.68 288.34 376 288 C375.67 287.01 375.34 286.02 375 285 C374.2265625 284.2575 374.2265625 284.2575 373.4375 283.5 C372 282 372 282 372 279 C371.01 278.67 370.02 278.34 369 278 C368.67 276.35 368.34 274.7 368 273 C366.68 273 365.36 273 364 273 C363.731875 271.865625 363.46375 270.73125 363.1875 269.5625 C362.795625 268.386875 362.40375 267.21125 362 266 C361.01 265.67 360.02 265.34 359 265 C359 263.68 359 262.36 359 261 C357.35 260.67 355.7 260.34 354 260 C354 259.01 354 258.02 354 257 C353.071875 256.5359375 353.071875 256.5359375 352.125 256.0625 C348.31273902 254.15636951 347.05714201 252.83376466 345 249 C345 248.34 345 247.68 345 247 C344.38125 246.938125 343.7625 246.87625 343.125 246.8125 C342.42375 246.544375 341.7225 246.27625 341 246 C340.5359375 244.7934375 340.5359375 244.7934375 340.0625 243.5625 C339.23510327 240.77644198 339.23510327 240.77644198 336.5 239.75 C335.2625 239.37875 335.2625 239.37875 334 239 C333.34 238.67 332.68 238.34 332 238 C332 237.01 332 236.02 332 235 C331.34 235 330.68 235 330 235 C329.7525 234.195625 329.505 233.39125 329.25 232.5625 C328.8375 231.716875 328.425 230.87125 328 230 C326.67696283 229.6278958 325.34262065 229.29369827 324 229 C323.71125 228.401875 323.4225 227.80375 323.125 227.1875 C322.06628559 224.69301623 322.06628559 224.69301623 319 223 C316.02911451 221.01940967 315.30732842 220.15937703 314 217 C313.34 216.67 312.68 216.34 312 216 C311.67 215.01 311.34 214.02 311 213 C307.55835627 209.17302847 307.55835627 209.17302847 303 207 C303 206.34 303 205.68 303 205 C302.01 205 301.02 205 300 205 C299.566875 203.63875 299.566875 203.63875 299.125 202.25 C297.87462369 198.46537135 297.87462369 198.46537135 296 195 C293.94999129 194.19471111 293.94999129 194.19471111 292 194 C292 193.34 292 192.68 292 192 C291.236875 191.71125 290.47375 191.4225 289.6875 191.125 C287 190 287 190 284 188 C284 187.01 284 186.02 284 185 C282.68 184.67 281.36 184.34 280 184 C280 183.01 280 182.02 280 181 C277.69 180.34 275.38 179.68 273 179 C273 178.34 273 177.68 273 177 C271.35 176.34 269.7 175.68 268 175 C268 174.34 268 173.68 268 173 C267.01 173 266.02 173 265 173 C265 172.01 265 171.02 265 170 C263.7934375 169.62875 263.7934375 169.62875 262.5625 169.25 C261.716875 168.8375 260.87125 168.425 260 168 C259.855625 167.34 259.71125 166.68 259.5625 166 C259.376875 165.34 259.19125 164.68 259 164 C257.01276732 163.29618843 255.01222047 162.6288189 253 162 C252.67 161.01 252.34 160.02 252 159 C250.66961551 158.6550855 249.33542939 158.32483418 248 158 C242.25352113 154.50704225 242.25352113 154.50704225 241 152 C240.34 151.71125 239.68 151.4225 239 151.125 C238.01 150.568125 238.01 150.568125 237 150 C236.87625 149.34 236.7525 148.68 236.625 148 C236.41875 147.34 236.2125 146.68 236 146 C233.00384054 144.6954344 233.00384054 144.6954344 230 144 C230 143.34 230 142.68 230 142 C228.68 142 227.36 142 226 142 C226 141.34 226 140.68 226 140 C225.0409375 139.8453125 225.0409375 139.8453125 224.0625 139.6875 C223.381875 139.460625 222.70125 139.23375 222 139 C221.67 138.01 221.34 137.02 221 136 C218.67837811 134.39135172 218.67837811 134.39135172 215.9375 132.9375 C213.15234375 131.40234375 213.15234375 131.40234375 211 130 C211 129.34 211 128.68 211 128 C210.01 128 209.02 128 208 128 C208 127.34 208 126.68 208 126 C206.35 125.34 204.7 124.68 203 124 C203 123.01 203 122.02 203 121 C202.236875 120.71125 201.47375 120.4225 200.6875 120.125 C198 119 198 119 195 117 C195 116.34 195 115.68 195 115 C194.28972656 114.81824219 193.57945312 114.63648438 192.84765625 114.44921875 C191.92855469 114.19785156 191.00945312 113.94648438 190.0625 113.6875 C189.14597656 113.44386719 188.22945312 113.20023437 187.28515625 112.94921875 C186.53105469 112.63597656 185.77695312 112.32273437 185 112 C184.67 111.01 184.34 110.02 184 109 C180.49705129 107.28432339 180.49705129 107.28432339 177 106 C177 105.01 177 104.02 177 103 C176.38125 102.855625 175.7625 102.71125 175.125 102.5625 C173 102 173 102 171 101 C171 100.34 171 99.68 171 99 C170.34 99 169.68 99 169 99 C169 98.34 169 97.68 169 97 C168.05125 96.731875 167.1025 96.46375 166.125 96.1875 C163 95 163 95 161 92 C159.05167065 90.99831469 159.05167065 90.99831469 156.875 90.3125 C156.15054688 90.06113281 155.42609375 89.80976563 154.6796875 89.55078125 C154.12539063 89.36902344 153.57109375 89.18726563 153 89 C153 88.34 153 87.68 153 87 C152.34 87 151.68 87 151 87 C150.38125 85.7934375 150.38125 85.7934375 149.75 84.5625 C148.19196489 81.67500908 148.19196489 81.67500908 144.8125 81.1875 C143.4203125 81.0946875 143.4203125 81.0946875 142 81 C142 80.34 142 79.68 142 79 C141.113125 78.896875 140.22625 78.79375 139.3125 78.6875 C135.9173245 77.98284093 133.78057902 77.0445434 131 75 C131 74.34 131 73.68 131 73 C129.68 73 128.36 73 127 73 C127 72.34 127 71.68 127 71 C122.80003072 68.81601597 118.4483076 66.93568984 114.02734375 65.24609375 C112.31863402 64.57594271 110.65467954 63.79424618 109 63 C108.67 62.01 108.34 61.02 108 60 C105.90280128 58.97718482 105.90280128 58.97718482 103.4375 58.3125 C102.61121094 58.06113281 101.78492188 57.80976562 100.93359375 57.55078125 C100.29550781 57.36902344 99.65742187 57.18726563 99 57 C99 56.01 99 55.02 99 54 C97.9275 53.87625 96.855 53.7525 95.75 53.625 C92.62136385 53.10356064 90.66519576 52.59911746 88 51 C88 50.01 88 49.02 88 48 C86.9275 47.87625 85.855 47.7525 84.75 47.625 C81.62136385 47.10356064 79.66519576 46.59911746 77 45 C77 44.01 77 43.02 77 42 C76.113125 41.855625 75.22625 41.71125 74.3125 41.5625 C71.52882354 41.08980022 68.76516243 40.56929815 66 40 C66 39.34 66 38.68 66 38 C64.515 37.505 64.515 37.505 63 37 C60.93325783 36.15614945 58.8711855 35.30081973 56.8125 34.4375 C55.72582031 33.98246094 54.63914062 33.52742188 53.51953125 33.05859375 C52.68808594 32.70925781 51.85664062 32.35992187 51 32 C51 31.34 51 30.68 51 30 C49.02 29.67 47.04 29.34 45 29 C45 28.34 45 27.68 45 27 C42.36095629 25.58622659 39.92879371 24.62759865 37 24 C37 23.34 37 22.68 37 22 C35.741875 21.896875 34.48375 21.79375 33.1875 21.6875 C30.49101243 21.35342189 29.23682932 21.17022107 27 19.5625 C26 18 26 18 26 16 C22.37 15.34 18.74 14.68 15 14 C15 13.01 15 12.02 15 11 C14.25234375 10.90203125 13.5046875 10.8040625 12.734375 10.703125 C4.72134203 9.48648649 4.72134203 9.48648649 1.3125 7.1875 C0 5 0 5 0 0 Z " fill="#FECE00" transform="translate(558,39)"/>
<path d="M0 0 C1.258125 -0.020625 2.51625 -0.04125 3.8125 -0.0625 C4.52019531 -0.07410156 5.22789062 -0.08570313 5.95703125 -0.09765625 C8 0 8 0 11 1 C13.27008884 9.51283314 12.09591543 18.57044234 10 27 C9.67 27.33 9.34 27.66 9 28 C8.90145578 29.5906331 8.87201306 31.18561477 8.87060547 32.77929688 C8.86587723 34.30592957 8.86587723 34.30592957 8.86105347 35.86340332 C8.8630777 36.97066772 8.86510193 38.07793213 8.8671875 39.21875 C8.86623077 40.34696167 8.86527405 41.47517334 8.86428833 42.63757324 C8.86360632 45.02840226 8.86546203 47.41923311 8.86962891 49.81005859 C8.87497684 53.48409151 8.86968457 57.15800217 8.86328125 60.83203125 C8.86394203 63.14843777 8.86522318 65.46484422 8.8671875 67.78125 C8.86415115 69.44214661 8.86415115 69.44214661 8.86105347 71.13659668 C8.86420563 72.15435181 8.86735779 73.17210693 8.87060547 74.22070312 C8.87140106 75.12147583 8.87219666 76.02224854 8.87301636 76.95031738 C8.77255394 78.99323069 8.77255394 78.99323069 10 80 C10.30276491 82.36015987 10.54772311 84.70117253 10.75390625 87.0703125 C10.81907944 87.78476532 10.88425262 88.49921814 10.95140076 89.23532104 C11.08882699 90.75336575 11.22401911 92.27161407 11.35717773 93.79003906 C11.55985824 96.09495741 11.77055438 98.39903507 11.98242188 100.703125 C12.11506778 102.17964406 12.24724369 103.65620543 12.37890625 105.1328125 C12.44139053 105.81538116 12.50387482 106.49794983 12.56825256 107.20120239 C12.93842951 111.47993234 13.05540338 115.70641241 13 120 C13.66 120 14.32 120 15 120 C14.98259766 121.17369141 14.98259766 121.17369141 14.96484375 122.37109375 C14.95582031 123.38300781 14.94679687 124.39492188 14.9375 125.4375 C14.92009766 126.95150391 14.92009766 126.95150391 14.90234375 128.49609375 C14.71387324 130.94021067 14.71387324 130.94021067 16 132 C16.15831254 133.74730139 16.27664255 135.49830059 16.375 137.25 C16.72674461 141.71888639 17.5261554 144.23545387 20 148 C20.1875 151.3125 20.1875 151.3125 20 154 C20.66 154 21.32 154 22 154 C22.0501123 154.62567871 22.10022461 155.25135742 22.15185547 155.89599609 C22.38355804 158.72318775 22.62910209 161.54900915 22.875 164.375 C22.95363281 165.35984375 23.03226563 166.3446875 23.11328125 167.359375 C23.19707031 168.30039062 23.28085938 169.24140625 23.3671875 170.2109375 C23.44050293 171.08024902 23.51381836 171.94956055 23.58935547 172.84521484 C23.82973476 175.20455644 23.82973476 175.20455644 26 177 C26.165 177.680625 26.33 178.36125 26.5 179.0625 C26.665 179.701875 26.83 180.34125 27 181 C27.66 181.33 28.32 181.66 29 182 C29 185.3 29 188.6 29 192 C29.66 192 30.32 192 31 192 C31.12503906 192.51433594 31.25007812 193.02867187 31.37890625 193.55859375 C32.18809647 196.73937293 33.05649143 199.90084284 33.9375 203.0625 C34.27652344 204.29097656 34.61554688 205.51945313 34.96484375 206.78515625 C35.87194119 210.10364404 35.87194119 210.10364404 38 213 C38.33 214.175625 38.66 215.35125 39 216.5625 C39.70977006 220.03073325 39.70977006 220.03073325 42 222 C43.3143427 226.45416138 44.29198543 230.32823315 44 235 C44.66 235 45.32 235 46 235 C46 236.65 46 238.3 46 240 C46.66 240 47.32 240 48 240 C48.26554688 240.71027344 48.53109375 241.42054688 48.8046875 242.15234375 C49.33449219 243.53099609 49.33449219 243.53099609 49.875 244.9375 C50.39707031 246.31228516 50.39707031 246.31228516 50.9296875 247.71484375 C51.7819086 250.14941056 51.7819086 250.14941056 54 251 C54.8515625 253.1796875 54.8515625 253.1796875 55.625 255.875 C55.88539063 256.75929688 56.14578125 257.64359375 56.4140625 258.5546875 C57 261 57 261 57 264 C57.66 264 58.32 264 59 264 C61.45489316 269.12325529 62.50341703 273.33895411 63 279 C63.99 279 64.98 279 66 279 C66.17015625 279.60328125 66.3403125 280.2065625 66.515625 280.828125 C67.97411519 285.63803944 69.18362168 288.57841943 73 292 C73 292.99 73 293.98 73 295 C73.66 295.33 74.32 295.66 75 296 C75.625 298.0625 75.625 298.0625 76 300 C76.66 300 77.32 300 78 300 C78.33 301.98 78.66 303.96 79 306 C79.66 306 80.32 306 81 306 C81.26554688 306.55429687 81.53109375 307.10859375 81.8046875 307.6796875 C82.15789062 308.40414063 82.51109375 309.12859375 82.875 309.875 C83.39707031 310.95394531 83.39707031 310.95394531 83.9296875 312.0546875 C84.96557543 314.15135019 84.96557543 314.15135019 87 316 C87 316.99 87 317.98 87 319 C87.66 319 88.32 319 89 319 C89.33 320.98 89.66 322.96 90 325 C90.66 325 91.32 325 92 325 C93.4606285 327.64738916 94 328.89448334 94 332 C95.32 332.33 96.64 332.66 98 333 C98.268125 334.11375 98.53625 335.2275 98.8125 336.375 C99.65809019 340.21840951 99.65809019 340.21840951 103 342 C103 342.99 103 343.98 103 345 C103.66 345 104.32 345 105 345 C105.33 347.31 105.66 349.62 106 352 C106.99 352 107.98 352 109 352 C110.04892238 353.63631892 111.04906703 355.30485863 112 357 C112.66 357.33 113.32 357.66 114 358 C117 362.5 117 362.5 117 365 C117.66 365 118.32 365 119 365 C119 365.99 119 366.98 119 368 C119.99 368 120.98 368 122 368 C122 368.99 122 369.98 122 371 C122.928125 371.061875 122.928125 371.061875 123.875 371.125 C124.57625 371.41375 125.2775 371.7025 126 372 C127.25 375.0625 127.25 375.0625 128 378 C128.66 378 129.32 378 130 378 C130.33 379.65 130.66 381.3 131 383 C131.66 383 132.32 383 133 383 C133.33 384.32 133.66 385.64 134 387 C134.66 387 135.32 387 136 387 C137.36363208 388.97946592 138.69418644 390.9819245 140 393 C140.5775 393.5775 141.155 394.155 141.75 394.75 C143 396 143 396 143 398 C143.66 398 144.32 398 145 398 C147.79283528 400.44373087 149.40237892 402.69064205 151 406 C151.66 406.33 152.32 406.66 153 407 C153.28875 407.639375 153.5775 408.27875 153.875 408.9375 C154.80951764 411.16848326 154.80951764 411.16848326 157 411.8125 C159 413 159 413 160.25 416.625 C160.4975 417.73875 160.745 418.8525 161 420 C161.928125 420.0928125 161.928125 420.0928125 162.875 420.1875 C163.57625 420.455625 164.2775 420.72375 165 421 C165.66666667 422.66666667 166.33333333 424.33333333 167 426 C169.04105639 426.88693303 169.04105639 426.88693303 171 427 C171 428.32 171 429.64 171 431 C171.78375 431.103125 172.5675 431.20625 173.375 431.3125 C176 432 176 432 178 435 C178 435.99 178 436.98 178 438 C178.99 438 179.98 438 181 438 C181.12568359 438.928125 181.12568359 438.928125 181.25390625 439.875 C181.79897298 442.13002665 181.79897298 442.13002665 183.77734375 443.125 C184.49019531 443.41375 185.20304687 443.7025 185.9375 444 C189.47213648 445.4369484 190.44636656 446.54438482 192 450 C192.66 450.33 193.32 450.66 194 451 C194 452.32 194 453.64 194 455 C194.639375 455.103125 195.27875 455.20625 195.9375 455.3125 C196.9584375 455.6528125 196.9584375 455.6528125 198 456 C198.33 456.99 198.66 457.98 199 459 C199.99 459 200.98 459 202 459 C202.33 459.66 202.66 460.32 203 461 C203.99 461.33 204.98 461.66 206 462 C206.144375 462.639375 206.28875 463.27875 206.4375 463.9375 C206.80104993 466.20311706 206.80104993 466.20311706 209.0625 467.25 C209.701875 467.4975 210.34125 467.745 211 468 C211 468.66 211 469.32 211 470 C211.99 470 212.98 470 214 470 C214 470.66 214 471.32 214 472 C214.66 472 215.32 472 216 472 C216 472.99 216 473.98 216 475 C216.928125 475.0928125 216.928125 475.0928125 217.875 475.1875 C218.57625 475.455625 219.2775 475.72375 220 476 C220.69658363 477.65438613 221.36096883 479.32254318 222 481 C223.30518475 482.03647024 224.63461347 483.04422943 226 484 C226 484.66 226 485.32 226 486 C228.31 486.66 230.62 487.32 233 488 C233 488.66 233 489.32 233 490 C234.65 490.66 236.3 491.32 238 492 C238 492.66 238 493.32 238 494 C238.99 494 239.98 494 241 494 C241 495.32 241 496.64 241 498 C241.639375 498.103125 242.27875 498.20625 242.9375 498.3125 C243.9584375 498.6528125 243.9584375 498.6528125 245 499 C245.33 499.99 245.66 500.98 246 502 C247.76234328 503.12781711 247.76234328 503.12781711 249.875 504 C252.86947432 505.32596649 254.72603832 506.66356684 257 509 C258.423125 509.680625 258.423125 509.680625 259.875 510.375 C263.29686992 512.15437236 265.47427485 514.10284468 268 517 C268 517.66 268 518.32 268 519 C268.66 519 269.32 519 270 519 C271.02104551 519.97850195 272.0206121 520.97980427 273 522 C273.66 522.33 274.32 522.66 275 523 C275 523.66 275 524.32 275 525 C275.969375 525.268125 276.93875 525.53625 277.9375 525.8125 C279.4534375 526.4003125 279.4534375 526.4003125 281 527 C281.33 527.99 281.66 528.98 282 530 C282.66 530 283.32 530 284 530 C284 530.66 284 531.32 284 532 C285.98 532.66 287.96 533.32 290 534 C290 534.66 290 535.32 290 536 C291.65 536.33 293.3 536.66 295 537 C295.33 538.98 295.66 540.96 296 543 C296.99 543 297.98 543 299 543 C299.33 543.99 299.66 544.98 300 546 C300.99 546.33 301.98 546.66 303 547 C303 547.66 303 548.32 303 549 C304.32 549.33 305.64 549.66 307 550 C307 550.66 307 551.32 307 552 C308.051875 552.12375 309.10375 552.2475 310.1875 552.375 C313.4907503 552.91651644 316.05581017 553.44131127 319 555 C319.33 555.99 319.66 556.98 320 558 C321.83021609 559.16154965 321.83021609 559.16154965 324 560.0625 C327.8978186 561.7956372 327.8978186 561.7956372 329 564 C331.3140622 564.73075648 333.64828869 565.40138258 336 566 C336 566.66 336 567.32 336 568 C336.66 568 337.32 568 338 568 C338 568.66 338 569.32 338 570 C339.0725 570.2475 340.145 570.495 341.25 570.75 C345.04656426 572.01552142 346.43670743 573.05696039 349 576 C349.66 576.33 350.32 576.66 351 577 C351 577.66 351 578.32 351 579 C353.31 579.33 355.62 579.66 358 580 C358 580.66 358 581.32 358 582 C358.804375 582.12375 359.60875 582.2475 360.4375 582.375 C361.283125 582.58125 362.12875 582.7875 363 583 C363.33 583.66 363.66 584.32 364 585 C364.99 585.33 365.98 585.66 367 586 C367.433125 586.78375 367.86625 587.5675 368.3125 588.375 C370.40372047 591.62800962 372.49036073 592.51815231 376 594 C376 594.66 376 595.32 376 596 C377.0725 596.0825 378.145 596.165 379.25 596.25 C383 597 383 597 384.8125 598.875 C387.79692653 601.7741572 390.86761232 602.25136982 394.85546875 603.19140625 C395.56316406 603.45824219 396.27085937 603.72507812 397 604 C397.33 604.99 397.66 605.98 398 607 C400.09719872 608.02281518 400.09719872 608.02281518 402.5625 608.6875 C403.80193359 609.06455078 403.80193359 609.06455078 405.06640625 609.44921875 C405.70449219 609.63097656 406.34257813 609.81273437 407 610 C407 610.99 407 611.98 407 613 C407.9075 613.12375 408.815 613.2475 409.75 613.375 C412.58970323 613.92109677 414.52590591 614.57263803 417 616 C417 616.99 417 617.98 417 619 C417.928125 619.020625 418.85625 619.04125 419.8125 619.0625 C425.55405385 619.84221719 430.5253035 623.49630455 435 627 C435 627.66 435 628.32 435 629 C436.3921875 628.938125 436.3921875 628.938125 437.8125 628.875 C441 629 441 629 444 631 C444.825 631.33 445.65 631.66 446.5 632 C449 633 449 633 452 635 C452 635.66 452 636.32 452 637 C454.31 637.33 456.62 637.66 459 638 C459 638.66 459 639.32 459 640 C461.97 640.99 464.94 641.98 468 643 C468 643.66 468 644.32 468 645 C471.96 645.66 475.92 646.32 480 647 C480 647.66 480 648.32 480 649 C480.99 649 481.98 649 483 649 C483.33 649.66 483.66 650.32 484 651 C486.3140622 651.73075648 488.64828869 652.40138258 491 653 C491 653.99 491 654.98 491 656 C491.639375 656.144375 492.27875 656.28875 492.9375 656.4375 C495 657 495 657 496 658 C496 660.97 496 663.94 496 667 C415.15 667 334.3 667 251 667 C251 666.34 251 665.68 251 665 C250.12495819 665.00222061 249.24991638 665.00444122 248.34835815 665.00672913 C173.9424298 665.18671197 173.9424298 665.18671197 145.875 664.625 C144.5088858 664.60193283 144.5088858 664.60193283 143.11517334 664.57839966 C133.57261064 664.41004273 124.37729757 663.98657711 115 662 C115 661.34 115 660.68 115 660 C114.39526855 659.9498877 113.79053711 659.89977539 113.16748047 659.84814453 C110.40261836 659.61469552 107.63886633 659.36994583 104.875 659.125 C103.44800781 659.00705078 103.44800781 659.00705078 101.9921875 658.88671875 C97.05366179 658.44087962 92.64808991 657.86236599 88 656 C88 655.34 88 654.68 88 654 C84.34543185 653.24758891 80.68266103 652.59950296 77 652 C77 651.01 77 650.02 77 649 C75.09927734 648.94392578 75.09927734 648.94392578 73.16015625 648.88671875 C71.46091069 648.82100207 69.7616932 648.75455677 68.0625 648.6875 C67.23169922 648.66494141 66.40089844 648.64238281 65.54492188 648.61914062 C59.59269678 648.36437613 54.54421173 647.16991144 49 645 C49 644.34 49 643.68 49 643 C48.13117188 642.82984375 47.26234375 642.6596875 46.3671875 642.484375 C39.96049102 641.13710549 35.38875235 639.79662097 30 636 C27.62503312 635.39123952 25.27990517 634.95127565 22.85546875 634.58984375 C22.24316406 634.39519531 21.63085938 634.20054687 21 634 C20.67 633.01 20.34 632.02 20 631 C19.236875 630.855625 18.47375 630.71125 17.6875 630.5625 C15 630 15 630 12 629 C12 628.34 12 627.68 12 627 C9.69 626.67 7.38 626.34 5 626 C5 625.34 5 624.68 5 624 C3.3603125 623.8453125 3.3603125 623.8453125 1.6875 623.6875 C-2 623 -2 623 -3.9375 621.5625 C-5 620 -5 620 -5 618 C-5.66 618 -6.32 618 -7 618 C-7.33 617.34 -7.66 616.68 -8 616 C-10.11015954 614.87293294 -10.11015954 614.87293294 -12.5625 613.875 C-13.38878906 613.52179687 -14.21507812 613.16859375 -15.06640625 612.8046875 C-15.70449219 612.53914063 -16.34257812 612.27359375 -17 612 C-17 611.34 -17 610.68 -17 610 C-17.93972656 609.72736328 -17.93972656 609.72736328 -18.8984375 609.44921875 C-20.12433594 609.07216797 -20.12433594 609.07216797 -21.375 608.6875 C-22.18710938 608.44386719 -22.99921875 608.20023438 -23.8359375 607.94921875 C-26 607 -26 607 -28 604 C-31.05429073 602.78715124 -31.05429073 602.78715124 -34 602 C-34 601.01 -34 600.02 -34 599 C-34.804375 598.7525 -35.60875 598.505 -36.4375 598.25 C-37.7059375 597.63125 -37.7059375 597.63125 -39 597 C-39.33333333 595.66666667 -39.66666667 594.33333333 -40 593 C-41.64551962 592.28272222 -43.31422289 591.61674772 -45 591 C-45.99 589.515 -45.99 589.515 -47 588 C-48.96752828 586.93753473 -50.96587579 585.92862192 -53 585 C-53 584.34 -53 583.68 -53 583 C-53.99 582.67 -54.98 582.34 -56 582 C-56 581.34 -56 580.68 -56 580 C-56.5775 579.87625 -57.155 579.7525 -57.75 579.625 C-60.05099641 578.98583433 -61.94109615 578.20694364 -64 577 C-64.33 576.34 -64.66 575.68 -65 575 C-65.99 574.67 -66.98 574.34 -68 574 C-68.33 572.35 -68.66 570.7 -69 569 C-69.66 569 -70.32 569 -71 569 C-71 568.01 -71 567.02 -71 566 C-72.32 565.67 -73.64 565.34 -75 565 C-75 564.34 -75 563.68 -75 563 C-75.66 563 -76.32 563 -77 563 C-79.79244039 560.73114219 -80.91116011 559.28317716 -82 555.8125 C-82.495 554.4203125 -82.495 554.4203125 -83 553 C-84.32796291 552.64587656 -85.66216607 552.31478446 -87 552 C-88.38938077 550.03852126 -89.7260411 548.03833424 -91 546 C-91.66 545.67 -92.32 545.34 -93 545 C-93.37125 543.6078125 -93.37125 543.6078125 -93.75 542.1875 C-95.32918749 538.16057191 -97.38187417 537.20233746 -101 535 C-101 534.34 -101 533.68 -101 533 C-101.66 532.67 -102.32 532.34 -103 532 C-104.56060826 528.97241998 -105.95588077 525.88485872 -107.3671875 522.78515625 C-109.11541608 519.80312999 -109.97485483 519.34802494 -113 518 C-113.68939809 515.67328146 -114.35466922 513.33932406 -115 511 C-116.31266518 509.64631404 -117.64567325 508.31200404 -119 507 C-119.66666667 505 -120.33333333 503 -121 501 C-121.99 500.67 -122.98 500.34 -124 500 C-124.94921875 497.05859375 -124.94921875 497.05859375 -125.6875 493.4375 C-125.93886719 492.23996094 -126.19023438 491.04242187 -126.44921875 489.80859375 C-126.63097656 488.88175781 -126.81273438 487.95492188 -127 487 C-127.99 487 -128.98 487 -130 487 C-130.50692692 485.4188708 -131.00526443 483.83498617 -131.5 482.25 C-131.7784375 481.36828125 -132.056875 480.4865625 -132.34375 479.578125 C-133 477 -133 477 -133 473 C-134.29735507 471.95374591 -135.63266972 470.95298777 -137 470 C-137.86419223 467.40742331 -138.17580932 465.65962293 -138.31640625 462.98828125 C-138.35830078 462.23095703 -138.40019531 461.47363281 -138.44335938 460.69335938 C-138.48267578 459.90767578 -138.52199219 459.12199219 -138.5625 458.3125 C-138.60568359 457.51521484 -138.64886719 456.71792969 -138.69335938 455.89648438 C-138.79927368 453.93118553 -138.90012551 451.96561504 -139 450 C-139.99 450 -140.98 450 -142 450 C-142.18175781 448.17662109 -142.18175781 448.17662109 -142.3671875 446.31640625 C-142.53597078 444.73171883 -142.70526816 443.1470861 -142.875 441.5625 C-142.99294922 440.35883789 -142.99294922 440.35883789 -143.11328125 439.13085938 C-143.33845763 437.07829006 -143.66222587 435.03706991 -144 433 C-144.66 432.67 -145.32 432.34 -146 432 C-149.0085629 428.9914371 -148.47321903 425.54219935 -148.6171875 421.48828125 C-148.65472137 420.57476395 -148.69225525 419.66124664 -148.73092651 418.720047 C-149.19997213 405.7057882 -149.15045133 392.67792045 -149.13037109 379.65698242 C-149.12460623 375.89962725 -149.12801258 372.14234249 -149.13394356 368.38498974 C-149.13756739 365.45176161 -149.13640338 362.51855007 -149.13381577 359.58532143 C-149.13315507 358.19918115 -149.13394445 356.8130393 -149.13629532 355.42690086 C-149.14546656 348.52071403 -149.02224973 341.83261151 -148 335 C-148.0072778 332.1944078 -148.11995862 329.41495854 -148.2578125 326.61328125 C-148 324 -148 324 -146.59765625 321.75 C-144.35525321 317.89021579 -143.94451658 314.06326509 -143.3125 309.6875 C-143.18294922 308.85154297 -143.05339844 308.01558594 -142.91992188 307.15429688 C-142.60364108 305.10432873 -142.30049853 303.05234099 -142 301 C-141.01 301 -140.02 301 -139 301 C-138.87882812 299.85402344 -138.75765625 298.70804688 -138.6328125 297.52734375 C-138.46385734 295.99736094 -138.29456873 294.46741493 -138.125 292.9375 C-138.04636719 292.18533203 -137.96773437 291.43316406 -137.88671875 290.65820312 C-137.3533431 285.91936559 -136.66722193 281.48284498 -135 277 C-134.01 276.67 -133.02 276.34 -132 276 C-131.90912109 274.96939453 -131.90912109 274.96939453 -131.81640625 273.91796875 C-131.73261719 273.01691406 -131.64882812 272.11585938 -131.5625 271.1875 C-131.48128906 270.29417969 -131.40007812 269.40085937 -131.31640625 268.48046875 C-131 266 -131 266 -130 263 C-129.34 263 -128.68 263 -128 263 C-127.87882812 262.31292969 -127.75765625 261.62585938 -127.6328125 260.91796875 C-127.46523437 260.01691406 -127.29765625 259.11585938 -127.125 258.1875 C-126.96257812 257.29417969 -126.80015625 256.40085937 -126.6328125 255.48046875 C-126 253 -126 253 -124 250 C-123.83286431 247.37468476 -123.83286431 247.37468476 -124 245 C-123.01 245 -122.02 245 -121 245 C-120.34 241.04 -119.68 237.08 -119 233 C-118.34 233 -117.68 233 -117 233 C-117 232.01 -117 231.02 -117 230 C-116.34 230 -115.68 230 -115 230 C-113.2505382 223.59784929 -113.2505382 223.59784929 -113 217 C-112.34 217 -111.68 217 -111 217 C-110.67 214.69 -110.34 212.38 -110 210 C-109.34 210 -108.68 210 -108 210 C-108 208.68 -108 207.36 -108 206 C-107.34 206 -106.68 206 -106 206 C-106 204.68 -106 203.36 -106 202 C-105.34 202 -104.68 202 -104 202 C-103.67 199.03 -103.34 196.06 -103 193 C-102.01 193 -101.02 193 -100 193 C-99.87625 191.88625 -99.7525 190.7725 -99.625 189.625 C-99 186 -99 186 -97 184 C-97 183.01 -97 182.02 -97 181 C-96.34 181 -95.68 181 -95 181 C-94.87625 180.01 -94.7525 179.02 -94.625 178 C-94.02015599 173.88370049 -93.23527191 169.98032061 -92 166 C-91.01 165.67 -90.02 165.34 -89 165 C-87.96514123 162.68191636 -86.9644586 160.34824702 -86 158 C-85.34 157.67 -84.68 157.34 -84 157 C-83.53476937 155.10466658 -83.53476937 155.10466658 -83.375 152.9375 C-83.189375 150.9884375 -83.189375 150.9884375 -83 149 C-81.68 148.67 -80.36 148.34 -79 148 C-78.74605469 146.87980469 -78.49210937 145.75960937 -78.23046875 144.60546875 C-77.88337819 143.13267907 -77.53569067 141.66002999 -77.1875 140.1875 C-77.02185547 139.44951172 -76.85621094 138.71152344 -76.68554688 137.95117188 C-75.76093632 134.09572032 -75.05765789 131.56712454 -72 129 C-71.08055147 127.17326109 -71.08055147 127.17326109 -70.4375 125.1875 C-70.06625 124.13949219 -70.06625 124.13949219 -69.6875 123.0703125 C-69.08039486 121.24209817 -68.50637243 119.40296963 -67.9375 117.5625 C-67 115 -67 115 -65 114 C-64.34786708 111.97536745 -64.34786708 111.97536745 -64 110 C-63.34 110 -62.68 110 -62 110 C-61.67 108.35 -61.34 106.7 -61 105 C-60.34 105 -59.68 105 -59 105 C-58.87625 104.195625 -58.7525 103.39125 -58.625 102.5625 C-58.41875 101.716875 -58.2125 100.87125 -58 100 C-57.34 99.67 -56.68 99.34 -56 99 C-53.99846531 95.82109196 -53.5028359 92.68746328 -53 89 C-52.34 89 -51.68 89 -51 89 C-50.938125 88.113125 -50.87625 87.22625 -50.8125 86.3125 C-50 83 -50 83 -47.5625 80.6875 C-44.15130528 77.10990554 -43.69764797 73.77940922 -43 69 C-41.68 69 -40.36 69 -39 69 C-38.855625 68.2575 -38.71125 67.515 -38.5625 66.75 C-38.2840625 65.38875 -38.2840625 65.38875 -38 64 C-37.7834375 62.9171875 -37.7834375 62.9171875 -37.5625 61.8125 C-37 60 -37 60 -35 58 C-34.525625 57.13375 -34.05125 56.2675 -33.5625 55.375 C-33.046875 54.59125 -32.53125 53.8075 -32 53 C-31.01 53 -30.02 53 -29 53 C-28.814375 51.205625 -28.814375 51.205625 -28.625 49.375 C-28.17674946 45.72403187 -27.29553163 42.45475101 -26 39 C-25.01 39 -24.02 39 -23 39 C-23 38.34 -23 37.68 -23 37 C-22.34 37 -21.68 37 -21 37 C-20.67 35.35 -20.34 33.7 -20 32 C-19.34 32 -18.68 32 -18 32 C-17.87625 31.38125 -17.7525 30.7625 -17.625 30.125 C-17 28 -17 28 -15 26 C-15 24.68 -15 23.36 -15 22 C-14.34 22 -13.68 22 -13 22 C-12.938125 21.38125 -12.87625 20.7625 -12.8125 20.125 C-12.544375 19.42375 -12.27625 18.7225 -12 18 C-11.21625 17.79375 -10.4325 17.5875 -9.625 17.375 C-6.82984408 16.27762497 -6.82984408 16.27762497 -6.14453125 13.796875 C-5.67054329 12.00567187 -5.20841451 10.21129122 -4.7578125 8.4140625 C-3.82743457 5.45028125 -2.36908108 3.96061882 0 2 C0 1.34 0 0.68 0 0 Z " fill="#0077E3" transform="translate(202,548)"/>
<path d="" fill="#FECE00" transform="translate(0,0)"/>
<path d="" fill="#F6141F" transform="translate(0,0)"/>
</svg>
