<?xml version="1.0" encoding="utf-8"?>
<!-- Generator: Adobe Illustrator 23.0.2, SVG Export Plug-In . SVG Version: 6.00 Build 0)  -->
<svg version="1.1" id="Layer_1" xmlns="http://www.w3.org/2000/svg" xmlns:xlink="http://www.w3.org/1999/xlink" x="0px" y="0px"
	 viewBox="0 0 208.8 208.8" style="enable-background:new 0 0 208.8 208.8;" xml:space="preserve">
<style type="text/css">
	.st0{fill:#00A551;}
	.st1{fill:#C5FF28;}
	.st2{fill:#FFFFFF;}
	.st3{fill:none;stroke:#231F20;stroke-miterlimit:10;}
	.st4{fill:#B5D333;}
	.st5{fill:#231F20;}
	.st6{fill:url(#SVGID_1_);}
	.st7{fill:url(#SVGID_2_);}
	.st8{fill:url(#SVGID_3_);}
	.st9{fill:url(#SVGID_4_);}
	.st10{fill:url(#SVGID_5_);}
	.st11{fill:url(#SVGID_6_);}
	.st12{fill:url(#SVGID_7_);}
	.st13{fill:url(#SVGID_8_);}
	.st14{fill:#EC1C2A;}
	.st15{fill:#89181F;}
	.st16{opacity:0.58;fill:#89181F;}
	.st17{fill:none;stroke:#89181F;stroke-miterlimit:10;}
	.st18{fill:#F8C312;}
	.st19{opacity:0.58;fill:#CF9E2B;}
	.st20{fill:#2791D0;}
	.st21{opacity:0.58;fill:#0B64AA;}
	.st22{fill:#5BB948;}
	.st23{fill:#35A248;}
	.st24{opacity:0.27;fill:#89181F;}
	.st25{opacity:0.13;fill:#89181F;}
	.st26{opacity:0.3;fill:#268742;}
	.st27{fill:#929497;}
	.st28{opacity:0.81;fill:#58595B;}
	.st29{fill:#3F444A;}
	.st30{fill:url(#SVGID_9_);}
	.st31{fill:url(#SVGID_10_);}
	.st32{fill:url(#SVGID_11_);}
	.st33{fill:#D92D29;}
	.st34{fill:#7AC043;}
	.st35{fill:#2AC4F3;}
	.st36{fill:#91C855;}
	.st37{fill:#7ECFDD;}
	.st38{fill:#3EB66F;}
	.st39{fill:#FCB912;}
	.st40{fill:#D13D4F;}
	.st41{fill:#F9A61A;}
	.st42{fill:#EC5A26;}
	.st43{fill:#9267AB;}
	.st44{fill:#AE67A9;}
	.st45{fill:#14499C;}
	.st46{fill:#915CA5;}
	.st47{fill:#804C9D;}
	.st48{fill:#7D2A8F;}
	.st49{opacity:0.76;}
	.st50{fill:#FDD600;}
	.st51{fill:#FAAC18;}
	.st52{fill:#F27021;}
	.st53{fill:#31C4F3;}
	.st54{fill:#1F93D1;}
	.st55{fill:#156CB4;}
	.st56{fill:#7BC043;}
	.st57{fill:#4BAA48;}
	.st58{fill:#2C8842;}
	.st59{fill:#224090;}
	.st60{fill:url(#SVGID_12_);}
	.st61{fill:url(#SVGID_13_);}
	.st62{fill:url(#SVGID_14_);}
	.st63{fill:url(#SVGID_15_);}
	.st64{fill:url(#SVGID_16_);}
	.st65{fill:url(#SVGID_17_);}
	.st66{fill:#F8A133;}
	.st67{fill:#4373B8;}
	.st68{fill:#7651A0;}
	.st69{fill:#8FB03D;}
	.st70{fill:#EA2127;}
	.st71{fill:url(#SVGID_18_);}
	.st72{fill:url(#SVGID_19_);}
	.st73{fill:none;stroke:#C6202C;stroke-miterlimit:10;}
	.st74{fill:url(#SVGID_20_);}
	.st75{fill:#EC1968;}
	.st76{fill:#3279BD;}
	.st77{fill:#F16622;}
	.st78{fill:#D44C27;}
	.st79{fill:#E15326;}
	.st80{fill:#F7B0AD;}
	.st81{fill:#F16764;}
	.st82{fill:#B92027;}
	.st83{fill:#F7EAA9;}
	.st84{fill:#F2D660;}
	.st85{fill:#D9B727;}
	.st86{fill:#B8972F;}
	.st87{fill:#AFD8F3;}
	.st88{fill:#6BBAE8;}
	.st89{fill:#3195D2;}
	.st90{fill:#0F6AA0;}
	.st91{fill:#C8E1A9;}
	.st92{fill:#A2CE5F;}
	.st93{fill:#569843;}
	.st94{opacity:0.72;fill:#1987C0;}
	.st95{opacity:0.72;fill:#9A4545;}
	.st96{opacity:0.72;fill:#C6202C;}
	.st97{fill:#F5DB0F;}
	.st98{opacity:0.72;fill:#26A54A;}
	.st99{fill:#E7AD22;}
	.st100{fill:#479A45;}
	.st101{fill:#73BE44;}
	.st102{fill:none;stroke:#73BE44;stroke-width:8;stroke-miterlimit:10;}
	.st103{fill:none;stroke:#B9D432;stroke-width:4;stroke-miterlimit:10;}
	.st104{fill:none;stroke:#B9D432;stroke-width:6;stroke-miterlimit:10;}
	.st105{fill:#221F1F;}
	.st106{fill:url(#SVGID_21_);}
	.st107{fill:url(#SVGID_22_);}
	.st108{fill:url(#SVGID_23_);}
	.st109{fill:#B9D432;}
	.st110{fill:url(#SVGID_24_);}
	.st111{fill:url(#SVGID_25_);}
	.st112{fill:url(#SVGID_26_);}
	.st113{fill:url(#SVGID_27_);}
	.st114{fill:url(#SVGID_28_);}
	.st115{fill:url(#SVGID_29_);}
	.st116{fill:url(#SVGID_30_);}
	.st117{fill:url(#SVGID_31_);}
	.st118{fill:url(#SVGID_32_);}
	.st119{fill:url(#SVGID_33_);}
	.st120{fill:url(#SVGID_34_);}
	.st121{fill:url(#SVGID_35_);}
	.st122{fill:url(#SVGID_36_);}
	.st123{fill:url(#SVGID_37_);}
	.st124{fill:url(#SVGID_38_);}
	.st125{fill:none;stroke:#FFFFFF;stroke-width:10;stroke-miterlimit:10;}
	.st126{fill:url(#SVGID_39_);}
	.st127{fill:url(#SVGID_40_);}
	.st128{fill:url(#SVGID_41_);}
	.st129{fill:none;stroke:#221F1F;stroke-miterlimit:10;}
	.st130{fill:url(#SVGID_42_);}
	.st131{fill:url(#SVGID_43_);}
	.st132{fill:url(#SVGID_44_);}
	.st133{fill:url(#SVGID_45_);}
	.st134{fill:url(#SVGID_46_);}
	.st135{fill:#CB2529;}
	.st136{fill:#43AB48;}
	.st137{fill:#0071B7;}
	.st138{fill:url(#SVGID_47_);}
	.st139{fill:url(#SVGID_48_);}
	.st140{fill:url(#SVGID_49_);}
	.st141{fill:url(#SVGID_50_);}
	.st142{fill:url(#SVGID_51_);}
	.st143{fill:url(#SVGID_52_);}
	.st144{fill:url(#SVGID_53_);}
	.st145{fill:url(#SVGID_54_);}
	.st146{fill:url(#SVGID_55_);}
	.st147{fill:url(#SVGID_56_);}
	.st148{fill:url(#SVGID_57_);}
	.st149{fill:url(#SVGID_58_);}
	.st150{fill:url(#SVGID_59_);}
	.st151{fill:#E21E2C;}
	.st152{fill:#B42029;}
	.st153{fill:#DBA428;}
	.st154{fill:none;stroke:#73BE44;stroke-width:14;stroke-miterlimit:10;}
	.st155{fill:none;stroke:#73BE44;stroke-width:16;stroke-miterlimit:10;}
	.st156{fill:none;stroke:#231F20;stroke-width:11;stroke-miterlimit:10;}
	.st157{fill:url(#SVGID_60_);}
	.st158{fill:url(#SVGID_61_);}
	.st159{fill:#58595B;}
	.st160{fill:none;stroke:#231F20;stroke-width:13;stroke-miterlimit:10;}
	.st161{fill:url(#SVGID_62_);}
	.st162{fill:url(#SVGID_63_);}
	.st163{fill:url(#SVGID_64_);}
	.st164{fill:url(#SVGID_65_);}
	.st165{fill:url(#SVGID_66_);}
	.st166{fill:url(#SVGID_67_);}
	.st167{fill:url(#SVGID_68_);}
	.st168{fill:url(#SVGID_69_);}
	.st169{fill:url(#SVGID_70_);}
	.st170{fill:url(#SVGID_71_);}
	.st171{fill:url(#SVGID_72_);}
	.st172{fill:url(#SVGID_73_);}
	.st173{fill:url(#SVGID_74_);}
	.st174{fill:url(#SVGID_75_);}
	.st175{fill:url(#SVGID_76_);}
	.st176{fill:url(#SVGID_77_);}
	.st177{fill:#E81D2E;}
	.st178{opacity:0.72;fill:#F8C312;}
	.st179{opacity:0.72;fill:#269DD8;}
	.st180{opacity:0.72;fill:#2791D0;}
	.st181{opacity:0.72;fill:#5BB948;}
	.st182{opacity:0.72;fill:#B5202A;}
	.st183{fill:url(#SVGID_78_);}
	.st184{fill:url(#SVGID_79_);}
	.st185{fill:url(#SVGID_80_);}
	.st186{fill:none;stroke:#231F20;stroke-width:3;stroke-miterlimit:10;}
	.st187{fill:url(#SVGID_81_);}
	.st188{fill:url(#SVGID_82_);}
	.st189{fill:url(#SVGID_83_);}
	.st190{fill:url(#SVGID_84_);}
	.st191{fill:url(#SVGID_85_);}
	.st192{fill:url(#SVGID_86_);}
	.st193{fill:url(#SVGID_87_);}
	.st194{opacity:0.38;fill:#399A46;}
	.st195{fill:url(#SVGID_88_);}
	.st196{fill:url(#SVGID_89_);}
	.st197{fill:url(#SVGID_90_);}
	.st198{fill:url(#SVGID_91_);}
	.st199{fill:url(#SVGID_92_);}
	.st200{fill:url(#SVGID_93_);}
	.st201{fill:url(#SVGID_94_);}
	.st202{fill:url(#SVGID_95_);}
	.st203{fill:url(#SVGID_96_);}
	.st204{fill:url(#SVGID_97_);}
	.st205{fill:url(#SVGID_98_);}
	.st206{fill:url(#SVGID_99_);}
	.st207{opacity:0.56;fill:#E4AC23;}
	.st208{opacity:0.72;fill:#0D8BBA;}
	.st209{opacity:0.72;fill:#399A46;}
	.st210{fill:url(#SVGID_100_);}
	.st211{fill:url(#SVGID_101_);}
	.st212{fill:url(#SVGID_102_);}
	.st213{fill:url(#SVGID_103_);}
	.st214{fill:url(#SVGID_104_);}
	.st215{fill:url(#SVGID_105_);}
	.st216{fill:url(#SVGID_106_);}
	.st217{fill:url(#SVGID_107_);}
	.st218{fill:url(#SVGID_108_);}
	.st219{fill:url(#SVGID_109_);}
	.st220{fill:#0F6793;}
	.st221{fill:#085472;}
	.st222{fill:#20A1E2;}
	.st223{fill:none;stroke:#F6921E;stroke-width:9;stroke-miterlimit:10;}
	.st224{fill:none;stroke:#2791D0;stroke-width:9;stroke-miterlimit:10;}
	.st225{fill:url(#SVGID_110_);}
	.st226{fill:url(#SVGID_111_);}
	.st227{fill:url(#SVGID_112_);}
	.st228{fill:none;stroke:#0088C4;stroke-width:8;stroke-linecap:round;stroke-linejoin:round;stroke-miterlimit:10;}
	.st229{fill:none;stroke:#73FF0F;stroke-width:11;stroke-linecap:round;stroke-linejoin:round;stroke-miterlimit:10;}
	.st230{fill:#ADD145;}
	.st231{fill:url(#SVGID_113_);}
	.st232{fill:url(#SVGID_114_);}
	.st233{fill:url(#SVGID_115_);}
	.st234{fill:url(#SVGID_116_);}
	.st235{fill:url(#SVGID_117_);}
	.st236{fill:url(#SVGID_118_);}
	.st237{fill:url(#SVGID_119_);}
	.st238{fill:url(#SVGID_120_);}
	.st239{fill:url(#SVGID_121_);}
	.st240{fill:none;stroke:#73FF0F;stroke-width:12;stroke-linecap:round;stroke-linejoin:round;stroke-miterlimit:10;}
	.st241{fill:none;stroke:#ADD145;stroke-miterlimit:10;}
	.st242{fill:#8832EC;}
	.st243{fill:#F84112;}
	.st244{fill:#46D027;}
	.st245{fill:#B9A548;}
	.st246{fill:#8FBD2A;}
	.st247{fill:#371FAD;}
	.st248{fill:#D80F5C;}
	.st249{fill:#FFA22B;}
	.st250{fill:#4EDE32;}
	.st251{fill:#142CEA;}
	.st252{fill:#C25127;}
	.st253{fill:#AB459D;}
	.st254{fill:#1F78B4;}
	.st255{fill:#B2DF8A;}
	.st256{fill:#33A02C;}
	.st257{fill:#A6CEE3;}
	.st258{fill:#F2AD22;}
	.st259{fill:#39BEB9;}
	.st260{fill:#5B64AF;}
	.st261{fill:#F47621;}
	.st262{fill:#FF0B84;}
	.st263{fill:#9038EC;}
	.st264{fill:#0CE5D5;}
	.st265{fill:#0059C9;}
	.st266{fill:#36DF98;}
	.st267{fill:#8B4CDC;}
	.st268{fill:#D7DF3C;}
	.st269{fill:#DF6646;}
	.st270{fill:#BB1621;}
	.st271{fill:#C79C0E;}
	.st272{fill:#1E6F9F;}
	.st273{fill:#438835;}
</style>
<g>
	<g>
		<path class="st14" d="M208.66,51.34c0.04-1.89,0.01-3.78-0.1-5.65c-0.79-13.04-5.45-25.33-15.99-34.43
			c-4.79-4.13-10.44-7.2-16.49-9.04c-10.39-3.19-22.33-2.01-33.12-2.01H88.8h-7.83c0,0,54.22,13.33,75.85,62.3
			c7.25,17.12,7.62,34.88,5.35,50.29l-0.3,0.37c-1.91,12.53-7.81,23.75-16.37,32.33c-5.4,5.4-11.87,9.74-19.05,12.68
			c47.76-10.71,71.25-61.88,71.25-61.88l0,0c5.96-11.91,10.29-26.32,10.91-43.45c0.01-0.29,0.03-0.58,0.04-0.88
			c0.01-0.21,0.03-0.42,0.03-0.63H208.66z"/>
		<path class="st18" d="M51.34,0.14c-1.89-0.04-3.78-0.01-5.65,0.1C32.65,1.04,20.37,5.7,11.27,16.23
			c-4.13,4.79-7.2,10.44-9.04,16.49c-3.19,10.39-2.01,22.33-2.01,33.12V120v7.83c0,0,13.33-54.22,62.3-75.85
			c17.12-7.25,34.88-7.62,50.29-5.35l0.37,0.3c12.53,1.91,23.75,7.81,32.33,16.37c5.4,5.4,9.74,11.87,12.68,19.05
			C147.47,34.58,96.3,11.09,96.3,11.09l0,0C84.39,5.14,69.98,0.81,52.85,0.19c-0.29-0.01-0.58-0.03-0.88-0.04
			c-0.21-0.01-0.42-0.03-0.63-0.03V0.14z"/>
		<path class="st20" d="M0.14,157.46c-0.04,1.89-0.01,3.78,0.1,5.65c0.79,13.04,5.45,25.33,15.99,34.43
			c4.79,4.13,10.44,7.2,16.49,9.04c10.39,3.19,22.33,2.01,33.12,2.01H120h7.83c0,0-54.22-13.33-75.85-62.3
			c-7.25-17.12-7.62-34.88-5.35-50.29l0.3-0.37c1.91-12.53,7.81-23.75,16.37-32.33c5.4-5.4,11.87-9.74,19.05-12.68
			C34.58,61.33,11.09,112.5,11.09,112.5l0,0c-5.96,11.91-10.29,26.32-10.91,43.45c-0.01,0.29-0.03,0.58-0.04,0.88
			c-0.01,0.21-0.03,0.42-0.03,0.63H0.14z"/>
		<path class="st22" d="M157.46,208.66c1.89,0.04,3.78,0.01,5.65-0.1c13.04-0.79,25.33-5.45,34.43-15.99
			c4.13-4.79,7.2-10.44,9.04-16.49c3.19-10.39,2.01-22.33,2.01-33.12V88.8v-7.83c0,0-13.33,54.22-62.3,75.85
			c-17.12,7.25-34.88,7.62-50.29,5.35l-0.37-0.3c-12.53-1.91-23.75-7.81-32.33-16.37c-5.4-5.4-9.74-11.87-12.68-19.05
			c10.71,47.76,61.88,71.25,61.88,71.25l0,0c11.91,5.96,26.32,10.29,43.45,10.91c0.29,0.01,0.58,0.03,0.88,0.04
			c0.21,0.01,0.42,0.03,0.63,0.03V208.66z"/>
	</g>
</g>
</svg>
